%TF.GenerationSoftware,KiCad,Pcbnew,(5.99.0-10004-g132ec37b56)*%
%TF.CreationDate,2021-04-06T22:09:18+02:00*%
%TF.ProjectId,gh80-3003-nicosmod,67683830-2d33-4303-9033-2d6e69636f73,rev?*%
%TF.SameCoordinates,Original*%
%TF.FileFunction,Legend,Bot*%
%TF.FilePolarity,Positive*%
%FSLAX46Y46*%
G04 Gerber Fmt 4.6, Leading zero omitted, Abs format (unit mm)*
G04 Created by KiCad (PCBNEW (5.99.0-10004-g132ec37b56)) date 2021-04-06 22:09:18*
%MOMM*%
%LPD*%
G01*
G04 APERTURE LIST*
%ADD10C,0.150000*%
%ADD11C,0.120000*%
%ADD12C,0.100000*%
G04 APERTURE END LIST*
D10*
X24952380Y-73533333D02*
X24952380Y-73057142D01*
X23952380Y-73057142D01*
X24952380Y-74390476D02*
X24952380Y-73819047D01*
X24952380Y-74104761D02*
X23952380Y-74104761D01*
X24095238Y-74009523D01*
X24190476Y-73914285D01*
X24238095Y-73819047D01*
X24952380Y-82757142D02*
X24476190Y-82423809D01*
X24952380Y-82185714D02*
X23952380Y-82185714D01*
X23952380Y-82566666D01*
X24000000Y-82661904D01*
X24047619Y-82709523D01*
X24142857Y-82757142D01*
X24285714Y-82757142D01*
X24380952Y-82709523D01*
X24428571Y-82661904D01*
X24476190Y-82566666D01*
X24476190Y-82185714D01*
X24952380Y-83709523D02*
X24952380Y-83138095D01*
X24952380Y-83423809D02*
X23952380Y-83423809D01*
X24095238Y-83328571D01*
X24190476Y-83233333D01*
X24238095Y-83138095D01*
X23952380Y-84328571D02*
X23952380Y-84423809D01*
X24000000Y-84519047D01*
X24047619Y-84566666D01*
X24142857Y-84614285D01*
X24333333Y-84661904D01*
X24571428Y-84661904D01*
X24761904Y-84614285D01*
X24857142Y-84566666D01*
X24904761Y-84519047D01*
X24952380Y-84423809D01*
X24952380Y-84328571D01*
X24904761Y-84233333D01*
X24857142Y-84185714D01*
X24761904Y-84138095D01*
X24571428Y-84090476D01*
X24333333Y-84090476D01*
X24142857Y-84138095D01*
X24047619Y-84185714D01*
X24000000Y-84233333D01*
X23952380Y-84328571D01*
X181443380Y-106601523D02*
X180443380Y-106601523D01*
X180443380Y-106839619D01*
X180491000Y-106982476D01*
X180586238Y-107077714D01*
X180681476Y-107125333D01*
X180871952Y-107172952D01*
X181014809Y-107172952D01*
X181205285Y-107125333D01*
X181300523Y-107077714D01*
X181395761Y-106982476D01*
X181443380Y-106839619D01*
X181443380Y-106601523D01*
X180538619Y-107553904D02*
X180491000Y-107601523D01*
X180443380Y-107696761D01*
X180443380Y-107934857D01*
X180491000Y-108030095D01*
X180538619Y-108077714D01*
X180633857Y-108125333D01*
X180729095Y-108125333D01*
X180871952Y-108077714D01*
X181443380Y-107506285D01*
X181443380Y-108125333D01*
X180443380Y-108744380D02*
X180443380Y-108839619D01*
X180491000Y-108934857D01*
X180538619Y-108982476D01*
X180633857Y-109030095D01*
X180824333Y-109077714D01*
X181062428Y-109077714D01*
X181252904Y-109030095D01*
X181348142Y-108982476D01*
X181395761Y-108934857D01*
X181443380Y-108839619D01*
X181443380Y-108744380D01*
X181395761Y-108649142D01*
X181348142Y-108601523D01*
X181252904Y-108553904D01*
X181062428Y-108506285D01*
X180824333Y-108506285D01*
X180633857Y-108553904D01*
X180538619Y-108601523D01*
X180491000Y-108649142D01*
X180443380Y-108744380D01*
X180443380Y-109411047D02*
X180443380Y-110077714D01*
X181443380Y-109649142D01*
X86443380Y-78101523D02*
X85443380Y-78101523D01*
X85443380Y-78339619D01*
X85491000Y-78482476D01*
X85586238Y-78577714D01*
X85681476Y-78625333D01*
X85871952Y-78672952D01*
X86014809Y-78672952D01*
X86205285Y-78625333D01*
X86300523Y-78577714D01*
X86395761Y-78482476D01*
X86443380Y-78339619D01*
X86443380Y-78101523D01*
X86443380Y-79625333D02*
X86443380Y-79053904D01*
X86443380Y-79339619D02*
X85443380Y-79339619D01*
X85586238Y-79244380D01*
X85681476Y-79149142D01*
X85729095Y-79053904D01*
X85443380Y-80244380D02*
X85443380Y-80339619D01*
X85491000Y-80434857D01*
X85538619Y-80482476D01*
X85633857Y-80530095D01*
X85824333Y-80577714D01*
X86062428Y-80577714D01*
X86252904Y-80530095D01*
X86348142Y-80482476D01*
X86395761Y-80434857D01*
X86443380Y-80339619D01*
X86443380Y-80244380D01*
X86395761Y-80149142D01*
X86348142Y-80101523D01*
X86252904Y-80053904D01*
X86062428Y-80006285D01*
X85824333Y-80006285D01*
X85633857Y-80053904D01*
X85538619Y-80101523D01*
X85491000Y-80149142D01*
X85443380Y-80244380D01*
X85538619Y-80958666D02*
X85491000Y-81006285D01*
X85443380Y-81101523D01*
X85443380Y-81339619D01*
X85491000Y-81434857D01*
X85538619Y-81482476D01*
X85633857Y-81530095D01*
X85729095Y-81530095D01*
X85871952Y-81482476D01*
X86443380Y-80911047D01*
X86443380Y-81530095D01*
X384802380Y-127657142D02*
X384802380Y-127180952D01*
X383802380Y-127180952D01*
X384802380Y-128514285D02*
X384802380Y-127942857D01*
X384802380Y-128228571D02*
X383802380Y-128228571D01*
X383945238Y-128133333D01*
X384040476Y-128038095D01*
X384088095Y-127942857D01*
X383802380Y-129371428D02*
X383802380Y-129180952D01*
X383850000Y-129085714D01*
X383897619Y-129038095D01*
X384040476Y-128942857D01*
X384230952Y-128895238D01*
X384611904Y-128895238D01*
X384707142Y-128942857D01*
X384754761Y-128990476D01*
X384802380Y-129085714D01*
X384802380Y-129276190D01*
X384754761Y-129371428D01*
X384707142Y-129419047D01*
X384611904Y-129466666D01*
X384373809Y-129466666D01*
X384278571Y-129419047D01*
X384230952Y-129371428D01*
X384183333Y-129276190D01*
X384183333Y-129085714D01*
X384230952Y-128990476D01*
X384278571Y-128942857D01*
X384373809Y-128895238D01*
X108566666Y-51452380D02*
X109042857Y-51452380D01*
X109042857Y-50452380D01*
X108090476Y-50880952D02*
X108185714Y-50833333D01*
X108233333Y-50785714D01*
X108280952Y-50690476D01*
X108280952Y-50642857D01*
X108233333Y-50547619D01*
X108185714Y-50500000D01*
X108090476Y-50452380D01*
X107900000Y-50452380D01*
X107804761Y-50500000D01*
X107757142Y-50547619D01*
X107709523Y-50642857D01*
X107709523Y-50690476D01*
X107757142Y-50785714D01*
X107804761Y-50833333D01*
X107900000Y-50880952D01*
X108090476Y-50880952D01*
X108185714Y-50928571D01*
X108233333Y-50976190D01*
X108280952Y-51071428D01*
X108280952Y-51261904D01*
X108233333Y-51357142D01*
X108185714Y-51404761D01*
X108090476Y-51452380D01*
X107900000Y-51452380D01*
X107804761Y-51404761D01*
X107757142Y-51357142D01*
X107709523Y-51261904D01*
X107709523Y-51071428D01*
X107757142Y-50976190D01*
X107804761Y-50928571D01*
X107900000Y-50880952D01*
X67443380Y-106601523D02*
X66443380Y-106601523D01*
X66443380Y-106839619D01*
X66491000Y-106982476D01*
X66586238Y-107077714D01*
X66681476Y-107125333D01*
X66871952Y-107172952D01*
X67014809Y-107172952D01*
X67205285Y-107125333D01*
X67300523Y-107077714D01*
X67395761Y-106982476D01*
X67443380Y-106839619D01*
X67443380Y-106601523D01*
X66538619Y-107553904D02*
X66491000Y-107601523D01*
X66443380Y-107696761D01*
X66443380Y-107934857D01*
X66491000Y-108030095D01*
X66538619Y-108077714D01*
X66633857Y-108125333D01*
X66729095Y-108125333D01*
X66871952Y-108077714D01*
X67443380Y-107506285D01*
X67443380Y-108125333D01*
X66443380Y-108744380D02*
X66443380Y-108839619D01*
X66491000Y-108934857D01*
X66538619Y-108982476D01*
X66633857Y-109030095D01*
X66824333Y-109077714D01*
X67062428Y-109077714D01*
X67252904Y-109030095D01*
X67348142Y-108982476D01*
X67395761Y-108934857D01*
X67443380Y-108839619D01*
X67443380Y-108744380D01*
X67395761Y-108649142D01*
X67348142Y-108601523D01*
X67252904Y-108553904D01*
X67062428Y-108506285D01*
X66824333Y-108506285D01*
X66633857Y-108553904D01*
X66538619Y-108601523D01*
X66491000Y-108649142D01*
X66443380Y-108744380D01*
X67443380Y-110030095D02*
X67443380Y-109458666D01*
X67443380Y-109744380D02*
X66443380Y-109744380D01*
X66586238Y-109649142D01*
X66681476Y-109553904D01*
X66729095Y-109458666D01*
X384702380Y-185157142D02*
X384702380Y-184680952D01*
X383702380Y-184680952D01*
X384702380Y-186014285D02*
X384702380Y-185442857D01*
X384702380Y-185728571D02*
X383702380Y-185728571D01*
X383845238Y-185633333D01*
X383940476Y-185538095D01*
X383988095Y-185442857D01*
X383702380Y-186919047D02*
X383702380Y-186442857D01*
X384178571Y-186395238D01*
X384130952Y-186442857D01*
X384083333Y-186538095D01*
X384083333Y-186776190D01*
X384130952Y-186871428D01*
X384178571Y-186919047D01*
X384273809Y-186966666D01*
X384511904Y-186966666D01*
X384607142Y-186919047D01*
X384654761Y-186871428D01*
X384702380Y-186776190D01*
X384702380Y-186538095D01*
X384654761Y-186442857D01*
X384607142Y-186395238D01*
X262142857Y-203552380D02*
X262476190Y-203076190D01*
X262714285Y-203552380D02*
X262714285Y-202552380D01*
X262333333Y-202552380D01*
X262238095Y-202600000D01*
X262190476Y-202647619D01*
X262142857Y-202742857D01*
X262142857Y-202885714D01*
X262190476Y-202980952D01*
X262238095Y-203028571D01*
X262333333Y-203076190D01*
X262714285Y-203076190D01*
X261761904Y-202647619D02*
X261714285Y-202600000D01*
X261619047Y-202552380D01*
X261380952Y-202552380D01*
X261285714Y-202600000D01*
X261238095Y-202647619D01*
X261190476Y-202742857D01*
X261190476Y-202838095D01*
X261238095Y-202980952D01*
X261809523Y-203552380D01*
X261190476Y-203552380D01*
X260571428Y-202552380D02*
X260476190Y-202552380D01*
X260380952Y-202600000D01*
X260333333Y-202647619D01*
X260285714Y-202742857D01*
X260238095Y-202933333D01*
X260238095Y-203171428D01*
X260285714Y-203361904D01*
X260333333Y-203457142D01*
X260380952Y-203504761D01*
X260476190Y-203552380D01*
X260571428Y-203552380D01*
X260666666Y-203504761D01*
X260714285Y-203457142D01*
X260761904Y-203361904D01*
X260809523Y-203171428D01*
X260809523Y-202933333D01*
X260761904Y-202742857D01*
X260714285Y-202647619D01*
X260666666Y-202600000D01*
X260571428Y-202552380D01*
X171943380Y-78101523D02*
X170943380Y-78101523D01*
X170943380Y-78339619D01*
X170991000Y-78482476D01*
X171086238Y-78577714D01*
X171181476Y-78625333D01*
X171371952Y-78672952D01*
X171514809Y-78672952D01*
X171705285Y-78625333D01*
X171800523Y-78577714D01*
X171895761Y-78482476D01*
X171943380Y-78339619D01*
X171943380Y-78101523D01*
X171943380Y-79625333D02*
X171943380Y-79053904D01*
X171943380Y-79339619D02*
X170943380Y-79339619D01*
X171086238Y-79244380D01*
X171181476Y-79149142D01*
X171229095Y-79053904D01*
X170943380Y-80244380D02*
X170943380Y-80339619D01*
X170991000Y-80434857D01*
X171038619Y-80482476D01*
X171133857Y-80530095D01*
X171324333Y-80577714D01*
X171562428Y-80577714D01*
X171752904Y-80530095D01*
X171848142Y-80482476D01*
X171895761Y-80434857D01*
X171943380Y-80339619D01*
X171943380Y-80244380D01*
X171895761Y-80149142D01*
X171848142Y-80101523D01*
X171752904Y-80053904D01*
X171562428Y-80006285D01*
X171324333Y-80006285D01*
X171133857Y-80053904D01*
X171038619Y-80101523D01*
X170991000Y-80149142D01*
X170943380Y-80244380D01*
X170943380Y-81434857D02*
X170943380Y-81244380D01*
X170991000Y-81149142D01*
X171038619Y-81101523D01*
X171181476Y-81006285D01*
X171371952Y-80958666D01*
X171752904Y-80958666D01*
X171848142Y-81006285D01*
X171895761Y-81053904D01*
X171943380Y-81149142D01*
X171943380Y-81339619D01*
X171895761Y-81434857D01*
X171848142Y-81482476D01*
X171752904Y-81530095D01*
X171514809Y-81530095D01*
X171419571Y-81482476D01*
X171371952Y-81434857D01*
X171324333Y-81339619D01*
X171324333Y-81149142D01*
X171371952Y-81053904D01*
X171419571Y-81006285D01*
X171514809Y-80958666D01*
X200443380Y-106601523D02*
X199443380Y-106601523D01*
X199443380Y-106839619D01*
X199491000Y-106982476D01*
X199586238Y-107077714D01*
X199681476Y-107125333D01*
X199871952Y-107172952D01*
X200014809Y-107172952D01*
X200205285Y-107125333D01*
X200300523Y-107077714D01*
X200395761Y-106982476D01*
X200443380Y-106839619D01*
X200443380Y-106601523D01*
X199538619Y-107553904D02*
X199491000Y-107601523D01*
X199443380Y-107696761D01*
X199443380Y-107934857D01*
X199491000Y-108030095D01*
X199538619Y-108077714D01*
X199633857Y-108125333D01*
X199729095Y-108125333D01*
X199871952Y-108077714D01*
X200443380Y-107506285D01*
X200443380Y-108125333D01*
X199443380Y-108744380D02*
X199443380Y-108839619D01*
X199491000Y-108934857D01*
X199538619Y-108982476D01*
X199633857Y-109030095D01*
X199824333Y-109077714D01*
X200062428Y-109077714D01*
X200252904Y-109030095D01*
X200348142Y-108982476D01*
X200395761Y-108934857D01*
X200443380Y-108839619D01*
X200443380Y-108744380D01*
X200395761Y-108649142D01*
X200348142Y-108601523D01*
X200252904Y-108553904D01*
X200062428Y-108506285D01*
X199824333Y-108506285D01*
X199633857Y-108553904D01*
X199538619Y-108601523D01*
X199491000Y-108649142D01*
X199443380Y-108744380D01*
X199871952Y-109649142D02*
X199824333Y-109553904D01*
X199776714Y-109506285D01*
X199681476Y-109458666D01*
X199633857Y-109458666D01*
X199538619Y-109506285D01*
X199491000Y-109553904D01*
X199443380Y-109649142D01*
X199443380Y-109839619D01*
X199491000Y-109934857D01*
X199538619Y-109982476D01*
X199633857Y-110030095D01*
X199681476Y-110030095D01*
X199776714Y-109982476D01*
X199824333Y-109934857D01*
X199871952Y-109839619D01*
X199871952Y-109649142D01*
X199919571Y-109553904D01*
X199967190Y-109506285D01*
X200062428Y-109458666D01*
X200252904Y-109458666D01*
X200348142Y-109506285D01*
X200395761Y-109553904D01*
X200443380Y-109649142D01*
X200443380Y-109839619D01*
X200395761Y-109934857D01*
X200348142Y-109982476D01*
X200252904Y-110030095D01*
X200062428Y-110030095D01*
X199967190Y-109982476D01*
X199919571Y-109934857D01*
X199871952Y-109839619D01*
X38242857Y-203552380D02*
X38576190Y-203076190D01*
X38814285Y-203552380D02*
X38814285Y-202552380D01*
X38433333Y-202552380D01*
X38338095Y-202600000D01*
X38290476Y-202647619D01*
X38242857Y-202742857D01*
X38242857Y-202885714D01*
X38290476Y-202980952D01*
X38338095Y-203028571D01*
X38433333Y-203076190D01*
X38814285Y-203076190D01*
X37290476Y-203552380D02*
X37861904Y-203552380D01*
X37576190Y-203552380D02*
X37576190Y-202552380D01*
X37671428Y-202695238D01*
X37766666Y-202790476D01*
X37861904Y-202838095D01*
X36957142Y-202552380D02*
X36338095Y-202552380D01*
X36671428Y-202933333D01*
X36528571Y-202933333D01*
X36433333Y-202980952D01*
X36385714Y-203028571D01*
X36338095Y-203123809D01*
X36338095Y-203361904D01*
X36385714Y-203457142D01*
X36433333Y-203504761D01*
X36528571Y-203552380D01*
X36814285Y-203552380D01*
X36909523Y-203504761D01*
X36957142Y-203457142D01*
X252693380Y-144601523D02*
X251693380Y-144601523D01*
X251693380Y-144839619D01*
X251741000Y-144982476D01*
X251836238Y-145077714D01*
X251931476Y-145125333D01*
X252121952Y-145172952D01*
X252264809Y-145172952D01*
X252455285Y-145125333D01*
X252550523Y-145077714D01*
X252645761Y-144982476D01*
X252693380Y-144839619D01*
X252693380Y-144601523D01*
X252026714Y-146030095D02*
X252693380Y-146030095D01*
X251645761Y-145792000D02*
X252360047Y-145553904D01*
X252360047Y-146172952D01*
X252693380Y-147077714D02*
X252693380Y-146506285D01*
X252693380Y-146792000D02*
X251693380Y-146792000D01*
X251836238Y-146696761D01*
X251931476Y-146601523D01*
X251979095Y-146506285D01*
X251693380Y-147696761D02*
X251693380Y-147792000D01*
X251741000Y-147887238D01*
X251788619Y-147934857D01*
X251883857Y-147982476D01*
X252074333Y-148030095D01*
X252312428Y-148030095D01*
X252502904Y-147982476D01*
X252598142Y-147934857D01*
X252645761Y-147887238D01*
X252693380Y-147792000D01*
X252693380Y-147696761D01*
X252645761Y-147601523D01*
X252598142Y-147553904D01*
X252502904Y-147506285D01*
X252312428Y-147458666D01*
X252074333Y-147458666D01*
X251883857Y-147506285D01*
X251788619Y-147553904D01*
X251741000Y-147601523D01*
X251693380Y-147696761D01*
X34193380Y-182601523D02*
X33193380Y-182601523D01*
X33193380Y-182839619D01*
X33241000Y-182982476D01*
X33336238Y-183077714D01*
X33431476Y-183125333D01*
X33621952Y-183172952D01*
X33764809Y-183172952D01*
X33955285Y-183125333D01*
X34050523Y-183077714D01*
X34145761Y-182982476D01*
X34193380Y-182839619D01*
X34193380Y-182601523D01*
X33193380Y-184030095D02*
X33193380Y-183839619D01*
X33241000Y-183744380D01*
X33288619Y-183696761D01*
X33431476Y-183601523D01*
X33621952Y-183553904D01*
X34002904Y-183553904D01*
X34098142Y-183601523D01*
X34145761Y-183649142D01*
X34193380Y-183744380D01*
X34193380Y-183934857D01*
X34145761Y-184030095D01*
X34098142Y-184077714D01*
X34002904Y-184125333D01*
X33764809Y-184125333D01*
X33669571Y-184077714D01*
X33621952Y-184030095D01*
X33574333Y-183934857D01*
X33574333Y-183744380D01*
X33621952Y-183649142D01*
X33669571Y-183601523D01*
X33764809Y-183553904D01*
X33193380Y-184744380D02*
X33193380Y-184839619D01*
X33241000Y-184934857D01*
X33288619Y-184982476D01*
X33383857Y-185030095D01*
X33574333Y-185077714D01*
X33812428Y-185077714D01*
X34002904Y-185030095D01*
X34098142Y-184982476D01*
X34145761Y-184934857D01*
X34193380Y-184839619D01*
X34193380Y-184744380D01*
X34145761Y-184649142D01*
X34098142Y-184601523D01*
X34002904Y-184553904D01*
X33812428Y-184506285D01*
X33574333Y-184506285D01*
X33383857Y-184553904D01*
X33288619Y-184601523D01*
X33241000Y-184649142D01*
X33193380Y-184744380D01*
X33526714Y-185934857D02*
X34193380Y-185934857D01*
X33145761Y-185696761D02*
X33860047Y-185458666D01*
X33860047Y-186077714D01*
X244282380Y-182309523D02*
X243282380Y-182309523D01*
X243282380Y-182547619D01*
X243330000Y-182690476D01*
X243425238Y-182785714D01*
X243520476Y-182833333D01*
X243710952Y-182880952D01*
X243853809Y-182880952D01*
X244044285Y-182833333D01*
X244139523Y-182785714D01*
X244234761Y-182690476D01*
X244282380Y-182547619D01*
X244282380Y-182309523D01*
X243282380Y-183738095D02*
X243282380Y-183547619D01*
X243330000Y-183452380D01*
X243377619Y-183404761D01*
X243520476Y-183309523D01*
X243710952Y-183261904D01*
X244091904Y-183261904D01*
X244187142Y-183309523D01*
X244234761Y-183357142D01*
X244282380Y-183452380D01*
X244282380Y-183642857D01*
X244234761Y-183738095D01*
X244187142Y-183785714D01*
X244091904Y-183833333D01*
X243853809Y-183833333D01*
X243758571Y-183785714D01*
X243710952Y-183738095D01*
X243663333Y-183642857D01*
X243663333Y-183452380D01*
X243710952Y-183357142D01*
X243758571Y-183309523D01*
X243853809Y-183261904D01*
X243282380Y-184452380D02*
X243282380Y-184547619D01*
X243330000Y-184642857D01*
X243377619Y-184690476D01*
X243472857Y-184738095D01*
X243663333Y-184785714D01*
X243901428Y-184785714D01*
X244091904Y-184738095D01*
X244187142Y-184690476D01*
X244234761Y-184642857D01*
X244282380Y-184547619D01*
X244282380Y-184452380D01*
X244234761Y-184357142D01*
X244187142Y-184309523D01*
X244091904Y-184261904D01*
X243901428Y-184214285D01*
X243663333Y-184214285D01*
X243472857Y-184261904D01*
X243377619Y-184309523D01*
X243330000Y-184357142D01*
X243282380Y-184452380D01*
X243710952Y-185357142D02*
X243663333Y-185261904D01*
X243615714Y-185214285D01*
X243520476Y-185166666D01*
X243472857Y-185166666D01*
X243377619Y-185214285D01*
X243330000Y-185261904D01*
X243282380Y-185357142D01*
X243282380Y-185547619D01*
X243330000Y-185642857D01*
X243377619Y-185690476D01*
X243472857Y-185738095D01*
X243520476Y-185738095D01*
X243615714Y-185690476D01*
X243663333Y-185642857D01*
X243710952Y-185547619D01*
X243710952Y-185357142D01*
X243758571Y-185261904D01*
X243806190Y-185214285D01*
X243901428Y-185166666D01*
X244091904Y-185166666D01*
X244187142Y-185214285D01*
X244234761Y-185261904D01*
X244282380Y-185357142D01*
X244282380Y-185547619D01*
X244234761Y-185642857D01*
X244187142Y-185690476D01*
X244091904Y-185738095D01*
X243901428Y-185738095D01*
X243806190Y-185690476D01*
X243758571Y-185642857D01*
X243710952Y-185547619D01*
X342943380Y-78101523D02*
X341943380Y-78101523D01*
X341943380Y-78339619D01*
X341991000Y-78482476D01*
X342086238Y-78577714D01*
X342181476Y-78625333D01*
X342371952Y-78672952D01*
X342514809Y-78672952D01*
X342705285Y-78625333D01*
X342800523Y-78577714D01*
X342895761Y-78482476D01*
X342943380Y-78339619D01*
X342943380Y-78101523D01*
X342943380Y-79625333D02*
X342943380Y-79053904D01*
X342943380Y-79339619D02*
X341943380Y-79339619D01*
X342086238Y-79244380D01*
X342181476Y-79149142D01*
X342229095Y-79053904D01*
X342943380Y-80577714D02*
X342943380Y-80006285D01*
X342943380Y-80292000D02*
X341943380Y-80292000D01*
X342086238Y-80196761D01*
X342181476Y-80101523D01*
X342229095Y-80006285D01*
X342276714Y-81434857D02*
X342943380Y-81434857D01*
X341895761Y-81196761D02*
X342610047Y-80958666D01*
X342610047Y-81577714D01*
X257443380Y-106601523D02*
X256443380Y-106601523D01*
X256443380Y-106839619D01*
X256491000Y-106982476D01*
X256586238Y-107077714D01*
X256681476Y-107125333D01*
X256871952Y-107172952D01*
X257014809Y-107172952D01*
X257205285Y-107125333D01*
X257300523Y-107077714D01*
X257395761Y-106982476D01*
X257443380Y-106839619D01*
X257443380Y-106601523D01*
X256538619Y-107553904D02*
X256491000Y-107601523D01*
X256443380Y-107696761D01*
X256443380Y-107934857D01*
X256491000Y-108030095D01*
X256538619Y-108077714D01*
X256633857Y-108125333D01*
X256729095Y-108125333D01*
X256871952Y-108077714D01*
X257443380Y-107506285D01*
X257443380Y-108125333D01*
X257443380Y-109077714D02*
X257443380Y-108506285D01*
X257443380Y-108792000D02*
X256443380Y-108792000D01*
X256586238Y-108696761D01*
X256681476Y-108601523D01*
X256729095Y-108506285D01*
X257443380Y-110030095D02*
X257443380Y-109458666D01*
X257443380Y-109744380D02*
X256443380Y-109744380D01*
X256586238Y-109649142D01*
X256681476Y-109553904D01*
X256729095Y-109458666D01*
X214693380Y-144601523D02*
X213693380Y-144601523D01*
X213693380Y-144839619D01*
X213741000Y-144982476D01*
X213836238Y-145077714D01*
X213931476Y-145125333D01*
X214121952Y-145172952D01*
X214264809Y-145172952D01*
X214455285Y-145125333D01*
X214550523Y-145077714D01*
X214645761Y-144982476D01*
X214693380Y-144839619D01*
X214693380Y-144601523D01*
X214026714Y-146030095D02*
X214693380Y-146030095D01*
X213645761Y-145792000D02*
X214360047Y-145553904D01*
X214360047Y-146172952D01*
X213693380Y-146744380D02*
X213693380Y-146839619D01*
X213741000Y-146934857D01*
X213788619Y-146982476D01*
X213883857Y-147030095D01*
X214074333Y-147077714D01*
X214312428Y-147077714D01*
X214502904Y-147030095D01*
X214598142Y-146982476D01*
X214645761Y-146934857D01*
X214693380Y-146839619D01*
X214693380Y-146744380D01*
X214645761Y-146649142D01*
X214598142Y-146601523D01*
X214502904Y-146553904D01*
X214312428Y-146506285D01*
X214074333Y-146506285D01*
X213883857Y-146553904D01*
X213788619Y-146601523D01*
X213741000Y-146649142D01*
X213693380Y-146744380D01*
X214121952Y-147649142D02*
X214074333Y-147553904D01*
X214026714Y-147506285D01*
X213931476Y-147458666D01*
X213883857Y-147458666D01*
X213788619Y-147506285D01*
X213741000Y-147553904D01*
X213693380Y-147649142D01*
X213693380Y-147839619D01*
X213741000Y-147934857D01*
X213788619Y-147982476D01*
X213883857Y-148030095D01*
X213931476Y-148030095D01*
X214026714Y-147982476D01*
X214074333Y-147934857D01*
X214121952Y-147839619D01*
X214121952Y-147649142D01*
X214169571Y-147553904D01*
X214217190Y-147506285D01*
X214312428Y-147458666D01*
X214502904Y-147458666D01*
X214598142Y-147506285D01*
X214645761Y-147553904D01*
X214693380Y-147649142D01*
X214693380Y-147839619D01*
X214645761Y-147934857D01*
X214598142Y-147982476D01*
X214502904Y-148030095D01*
X214312428Y-148030095D01*
X214217190Y-147982476D01*
X214169571Y-147934857D01*
X214121952Y-147839619D01*
X143443380Y-106601523D02*
X142443380Y-106601523D01*
X142443380Y-106839619D01*
X142491000Y-106982476D01*
X142586238Y-107077714D01*
X142681476Y-107125333D01*
X142871952Y-107172952D01*
X143014809Y-107172952D01*
X143205285Y-107125333D01*
X143300523Y-107077714D01*
X143395761Y-106982476D01*
X143443380Y-106839619D01*
X143443380Y-106601523D01*
X142538619Y-107553904D02*
X142491000Y-107601523D01*
X142443380Y-107696761D01*
X142443380Y-107934857D01*
X142491000Y-108030095D01*
X142538619Y-108077714D01*
X142633857Y-108125333D01*
X142729095Y-108125333D01*
X142871952Y-108077714D01*
X143443380Y-107506285D01*
X143443380Y-108125333D01*
X142443380Y-108744380D02*
X142443380Y-108839619D01*
X142491000Y-108934857D01*
X142538619Y-108982476D01*
X142633857Y-109030095D01*
X142824333Y-109077714D01*
X143062428Y-109077714D01*
X143252904Y-109030095D01*
X143348142Y-108982476D01*
X143395761Y-108934857D01*
X143443380Y-108839619D01*
X143443380Y-108744380D01*
X143395761Y-108649142D01*
X143348142Y-108601523D01*
X143252904Y-108553904D01*
X143062428Y-108506285D01*
X142824333Y-108506285D01*
X142633857Y-108553904D01*
X142538619Y-108601523D01*
X142491000Y-108649142D01*
X142443380Y-108744380D01*
X142443380Y-109982476D02*
X142443380Y-109506285D01*
X142919571Y-109458666D01*
X142871952Y-109506285D01*
X142824333Y-109601523D01*
X142824333Y-109839619D01*
X142871952Y-109934857D01*
X142919571Y-109982476D01*
X143014809Y-110030095D01*
X143252904Y-110030095D01*
X143348142Y-109982476D01*
X143395761Y-109934857D01*
X143443380Y-109839619D01*
X143443380Y-109601523D01*
X143395761Y-109506285D01*
X143348142Y-109458666D01*
X247943380Y-125601523D02*
X246943380Y-125601523D01*
X246943380Y-125839619D01*
X246991000Y-125982476D01*
X247086238Y-126077714D01*
X247181476Y-126125333D01*
X247371952Y-126172952D01*
X247514809Y-126172952D01*
X247705285Y-126125333D01*
X247800523Y-126077714D01*
X247895761Y-125982476D01*
X247943380Y-125839619D01*
X247943380Y-125601523D01*
X246943380Y-126506285D02*
X246943380Y-127125333D01*
X247324333Y-126792000D01*
X247324333Y-126934857D01*
X247371952Y-127030095D01*
X247419571Y-127077714D01*
X247514809Y-127125333D01*
X247752904Y-127125333D01*
X247848142Y-127077714D01*
X247895761Y-127030095D01*
X247943380Y-126934857D01*
X247943380Y-126649142D01*
X247895761Y-126553904D01*
X247848142Y-126506285D01*
X247943380Y-128077714D02*
X247943380Y-127506285D01*
X247943380Y-127792000D02*
X246943380Y-127792000D01*
X247086238Y-127696761D01*
X247181476Y-127601523D01*
X247229095Y-127506285D01*
X246943380Y-128696761D02*
X246943380Y-128792000D01*
X246991000Y-128887238D01*
X247038619Y-128934857D01*
X247133857Y-128982476D01*
X247324333Y-129030095D01*
X247562428Y-129030095D01*
X247752904Y-128982476D01*
X247848142Y-128934857D01*
X247895761Y-128887238D01*
X247943380Y-128792000D01*
X247943380Y-128696761D01*
X247895761Y-128601523D01*
X247848142Y-128553904D01*
X247752904Y-128506285D01*
X247562428Y-128458666D01*
X247324333Y-128458666D01*
X247133857Y-128506285D01*
X247038619Y-128553904D01*
X246991000Y-128601523D01*
X246943380Y-128696761D01*
X361943380Y-182601523D02*
X360943380Y-182601523D01*
X360943380Y-182839619D01*
X360991000Y-182982476D01*
X361086238Y-183077714D01*
X361181476Y-183125333D01*
X361371952Y-183172952D01*
X361514809Y-183172952D01*
X361705285Y-183125333D01*
X361800523Y-183077714D01*
X361895761Y-182982476D01*
X361943380Y-182839619D01*
X361943380Y-182601523D01*
X360943380Y-184030095D02*
X360943380Y-183839619D01*
X360991000Y-183744380D01*
X361038619Y-183696761D01*
X361181476Y-183601523D01*
X361371952Y-183553904D01*
X361752904Y-183553904D01*
X361848142Y-183601523D01*
X361895761Y-183649142D01*
X361943380Y-183744380D01*
X361943380Y-183934857D01*
X361895761Y-184030095D01*
X361848142Y-184077714D01*
X361752904Y-184125333D01*
X361514809Y-184125333D01*
X361419571Y-184077714D01*
X361371952Y-184030095D01*
X361324333Y-183934857D01*
X361324333Y-183744380D01*
X361371952Y-183649142D01*
X361419571Y-183601523D01*
X361514809Y-183553904D01*
X361943380Y-185077714D02*
X361943380Y-184506285D01*
X361943380Y-184792000D02*
X360943380Y-184792000D01*
X361086238Y-184696761D01*
X361181476Y-184601523D01*
X361229095Y-184506285D01*
X361276714Y-185934857D02*
X361943380Y-185934857D01*
X360895761Y-185696761D02*
X361610047Y-185458666D01*
X361610047Y-186077714D01*
X148193380Y-163601523D02*
X147193380Y-163601523D01*
X147193380Y-163839619D01*
X147241000Y-163982476D01*
X147336238Y-164077714D01*
X147431476Y-164125333D01*
X147621952Y-164172952D01*
X147764809Y-164172952D01*
X147955285Y-164125333D01*
X148050523Y-164077714D01*
X148145761Y-163982476D01*
X148193380Y-163839619D01*
X148193380Y-163601523D01*
X147193380Y-165077714D02*
X147193380Y-164601523D01*
X147669571Y-164553904D01*
X147621952Y-164601523D01*
X147574333Y-164696761D01*
X147574333Y-164934857D01*
X147621952Y-165030095D01*
X147669571Y-165077714D01*
X147764809Y-165125333D01*
X148002904Y-165125333D01*
X148098142Y-165077714D01*
X148145761Y-165030095D01*
X148193380Y-164934857D01*
X148193380Y-164696761D01*
X148145761Y-164601523D01*
X148098142Y-164553904D01*
X147193380Y-165744380D02*
X147193380Y-165839619D01*
X147241000Y-165934857D01*
X147288619Y-165982476D01*
X147383857Y-166030095D01*
X147574333Y-166077714D01*
X147812428Y-166077714D01*
X148002904Y-166030095D01*
X148098142Y-165982476D01*
X148145761Y-165934857D01*
X148193380Y-165839619D01*
X148193380Y-165744380D01*
X148145761Y-165649142D01*
X148098142Y-165601523D01*
X148002904Y-165553904D01*
X147812428Y-165506285D01*
X147574333Y-165506285D01*
X147383857Y-165553904D01*
X147288619Y-165601523D01*
X147241000Y-165649142D01*
X147193380Y-165744380D01*
X147193380Y-166982476D02*
X147193380Y-166506285D01*
X147669571Y-166458666D01*
X147621952Y-166506285D01*
X147574333Y-166601523D01*
X147574333Y-166839619D01*
X147621952Y-166934857D01*
X147669571Y-166982476D01*
X147764809Y-167030095D01*
X148002904Y-167030095D01*
X148098142Y-166982476D01*
X148145761Y-166934857D01*
X148193380Y-166839619D01*
X148193380Y-166601523D01*
X148145761Y-166506285D01*
X148098142Y-166458666D01*
X91193380Y-163601523D02*
X90193380Y-163601523D01*
X90193380Y-163839619D01*
X90241000Y-163982476D01*
X90336238Y-164077714D01*
X90431476Y-164125333D01*
X90621952Y-164172952D01*
X90764809Y-164172952D01*
X90955285Y-164125333D01*
X91050523Y-164077714D01*
X91145761Y-163982476D01*
X91193380Y-163839619D01*
X91193380Y-163601523D01*
X90193380Y-165077714D02*
X90193380Y-164601523D01*
X90669571Y-164553904D01*
X90621952Y-164601523D01*
X90574333Y-164696761D01*
X90574333Y-164934857D01*
X90621952Y-165030095D01*
X90669571Y-165077714D01*
X90764809Y-165125333D01*
X91002904Y-165125333D01*
X91098142Y-165077714D01*
X91145761Y-165030095D01*
X91193380Y-164934857D01*
X91193380Y-164696761D01*
X91145761Y-164601523D01*
X91098142Y-164553904D01*
X90193380Y-165744380D02*
X90193380Y-165839619D01*
X90241000Y-165934857D01*
X90288619Y-165982476D01*
X90383857Y-166030095D01*
X90574333Y-166077714D01*
X90812428Y-166077714D01*
X91002904Y-166030095D01*
X91098142Y-165982476D01*
X91145761Y-165934857D01*
X91193380Y-165839619D01*
X91193380Y-165744380D01*
X91145761Y-165649142D01*
X91098142Y-165601523D01*
X91002904Y-165553904D01*
X90812428Y-165506285D01*
X90574333Y-165506285D01*
X90383857Y-165553904D01*
X90288619Y-165601523D01*
X90241000Y-165649142D01*
X90193380Y-165744380D01*
X90288619Y-166458666D02*
X90241000Y-166506285D01*
X90193380Y-166601523D01*
X90193380Y-166839619D01*
X90241000Y-166934857D01*
X90288619Y-166982476D01*
X90383857Y-167030095D01*
X90479095Y-167030095D01*
X90621952Y-166982476D01*
X91193380Y-166411047D01*
X91193380Y-167030095D01*
X273842857Y-203552380D02*
X274319047Y-203552380D01*
X274319047Y-202552380D01*
X272985714Y-203552380D02*
X273557142Y-203552380D01*
X273271428Y-203552380D02*
X273271428Y-202552380D01*
X273366666Y-202695238D01*
X273461904Y-202790476D01*
X273557142Y-202838095D01*
X272652380Y-202552380D02*
X272033333Y-202552380D01*
X272366666Y-202933333D01*
X272223809Y-202933333D01*
X272128571Y-202980952D01*
X272080952Y-203028571D01*
X272033333Y-203123809D01*
X272033333Y-203361904D01*
X272080952Y-203457142D01*
X272128571Y-203504761D01*
X272223809Y-203552380D01*
X272509523Y-203552380D01*
X272604761Y-203504761D01*
X272652380Y-203457142D01*
X53193380Y-163601523D02*
X52193380Y-163601523D01*
X52193380Y-163839619D01*
X52241000Y-163982476D01*
X52336238Y-164077714D01*
X52431476Y-164125333D01*
X52621952Y-164172952D01*
X52764809Y-164172952D01*
X52955285Y-164125333D01*
X53050523Y-164077714D01*
X53145761Y-163982476D01*
X53193380Y-163839619D01*
X53193380Y-163601523D01*
X52193380Y-165077714D02*
X52193380Y-164601523D01*
X52669571Y-164553904D01*
X52621952Y-164601523D01*
X52574333Y-164696761D01*
X52574333Y-164934857D01*
X52621952Y-165030095D01*
X52669571Y-165077714D01*
X52764809Y-165125333D01*
X53002904Y-165125333D01*
X53098142Y-165077714D01*
X53145761Y-165030095D01*
X53193380Y-164934857D01*
X53193380Y-164696761D01*
X53145761Y-164601523D01*
X53098142Y-164553904D01*
X52193380Y-165744380D02*
X52193380Y-165839619D01*
X52241000Y-165934857D01*
X52288619Y-165982476D01*
X52383857Y-166030095D01*
X52574333Y-166077714D01*
X52812428Y-166077714D01*
X53002904Y-166030095D01*
X53098142Y-165982476D01*
X53145761Y-165934857D01*
X53193380Y-165839619D01*
X53193380Y-165744380D01*
X53145761Y-165649142D01*
X53098142Y-165601523D01*
X53002904Y-165553904D01*
X52812428Y-165506285D01*
X52574333Y-165506285D01*
X52383857Y-165553904D01*
X52288619Y-165601523D01*
X52241000Y-165649142D01*
X52193380Y-165744380D01*
X52193380Y-166696761D02*
X52193380Y-166792000D01*
X52241000Y-166887238D01*
X52288619Y-166934857D01*
X52383857Y-166982476D01*
X52574333Y-167030095D01*
X52812428Y-167030095D01*
X53002904Y-166982476D01*
X53098142Y-166934857D01*
X53145761Y-166887238D01*
X53193380Y-166792000D01*
X53193380Y-166696761D01*
X53145761Y-166601523D01*
X53098142Y-166553904D01*
X53002904Y-166506285D01*
X52812428Y-166458666D01*
X52574333Y-166458666D01*
X52383857Y-166506285D01*
X52288619Y-166553904D01*
X52241000Y-166601523D01*
X52193380Y-166696761D01*
X124443380Y-106601523D02*
X123443380Y-106601523D01*
X123443380Y-106839619D01*
X123491000Y-106982476D01*
X123586238Y-107077714D01*
X123681476Y-107125333D01*
X123871952Y-107172952D01*
X124014809Y-107172952D01*
X124205285Y-107125333D01*
X124300523Y-107077714D01*
X124395761Y-106982476D01*
X124443380Y-106839619D01*
X124443380Y-106601523D01*
X123538619Y-107553904D02*
X123491000Y-107601523D01*
X123443380Y-107696761D01*
X123443380Y-107934857D01*
X123491000Y-108030095D01*
X123538619Y-108077714D01*
X123633857Y-108125333D01*
X123729095Y-108125333D01*
X123871952Y-108077714D01*
X124443380Y-107506285D01*
X124443380Y-108125333D01*
X123443380Y-108744380D02*
X123443380Y-108839619D01*
X123491000Y-108934857D01*
X123538619Y-108982476D01*
X123633857Y-109030095D01*
X123824333Y-109077714D01*
X124062428Y-109077714D01*
X124252904Y-109030095D01*
X124348142Y-108982476D01*
X124395761Y-108934857D01*
X124443380Y-108839619D01*
X124443380Y-108744380D01*
X124395761Y-108649142D01*
X124348142Y-108601523D01*
X124252904Y-108553904D01*
X124062428Y-108506285D01*
X123824333Y-108506285D01*
X123633857Y-108553904D01*
X123538619Y-108601523D01*
X123491000Y-108649142D01*
X123443380Y-108744380D01*
X123776714Y-109934857D02*
X124443380Y-109934857D01*
X123395761Y-109696761D02*
X124110047Y-109458666D01*
X124110047Y-110077714D01*
X205193380Y-163601523D02*
X204193380Y-163601523D01*
X204193380Y-163839619D01*
X204241000Y-163982476D01*
X204336238Y-164077714D01*
X204431476Y-164125333D01*
X204621952Y-164172952D01*
X204764809Y-164172952D01*
X204955285Y-164125333D01*
X205050523Y-164077714D01*
X205145761Y-163982476D01*
X205193380Y-163839619D01*
X205193380Y-163601523D01*
X204193380Y-165077714D02*
X204193380Y-164601523D01*
X204669571Y-164553904D01*
X204621952Y-164601523D01*
X204574333Y-164696761D01*
X204574333Y-164934857D01*
X204621952Y-165030095D01*
X204669571Y-165077714D01*
X204764809Y-165125333D01*
X205002904Y-165125333D01*
X205098142Y-165077714D01*
X205145761Y-165030095D01*
X205193380Y-164934857D01*
X205193380Y-164696761D01*
X205145761Y-164601523D01*
X205098142Y-164553904D01*
X204193380Y-165744380D02*
X204193380Y-165839619D01*
X204241000Y-165934857D01*
X204288619Y-165982476D01*
X204383857Y-166030095D01*
X204574333Y-166077714D01*
X204812428Y-166077714D01*
X205002904Y-166030095D01*
X205098142Y-165982476D01*
X205145761Y-165934857D01*
X205193380Y-165839619D01*
X205193380Y-165744380D01*
X205145761Y-165649142D01*
X205098142Y-165601523D01*
X205002904Y-165553904D01*
X204812428Y-165506285D01*
X204574333Y-165506285D01*
X204383857Y-165553904D01*
X204288619Y-165601523D01*
X204241000Y-165649142D01*
X204193380Y-165744380D01*
X204621952Y-166649142D02*
X204574333Y-166553904D01*
X204526714Y-166506285D01*
X204431476Y-166458666D01*
X204383857Y-166458666D01*
X204288619Y-166506285D01*
X204241000Y-166553904D01*
X204193380Y-166649142D01*
X204193380Y-166839619D01*
X204241000Y-166934857D01*
X204288619Y-166982476D01*
X204383857Y-167030095D01*
X204431476Y-167030095D01*
X204526714Y-166982476D01*
X204574333Y-166934857D01*
X204621952Y-166839619D01*
X204621952Y-166649142D01*
X204669571Y-166553904D01*
X204717190Y-166506285D01*
X204812428Y-166458666D01*
X205002904Y-166458666D01*
X205098142Y-166506285D01*
X205145761Y-166553904D01*
X205193380Y-166649142D01*
X205193380Y-166839619D01*
X205145761Y-166934857D01*
X205098142Y-166982476D01*
X205002904Y-167030095D01*
X204812428Y-167030095D01*
X204717190Y-166982476D01*
X204669571Y-166934857D01*
X204621952Y-166839619D01*
X238443380Y-78101523D02*
X237443380Y-78101523D01*
X237443380Y-78339619D01*
X237491000Y-78482476D01*
X237586238Y-78577714D01*
X237681476Y-78625333D01*
X237871952Y-78672952D01*
X238014809Y-78672952D01*
X238205285Y-78625333D01*
X238300523Y-78577714D01*
X238395761Y-78482476D01*
X238443380Y-78339619D01*
X238443380Y-78101523D01*
X238443380Y-79625333D02*
X238443380Y-79053904D01*
X238443380Y-79339619D02*
X237443380Y-79339619D01*
X237586238Y-79244380D01*
X237681476Y-79149142D01*
X237729095Y-79053904D01*
X237443380Y-80244380D02*
X237443380Y-80339619D01*
X237491000Y-80434857D01*
X237538619Y-80482476D01*
X237633857Y-80530095D01*
X237824333Y-80577714D01*
X238062428Y-80577714D01*
X238252904Y-80530095D01*
X238348142Y-80482476D01*
X238395761Y-80434857D01*
X238443380Y-80339619D01*
X238443380Y-80244380D01*
X238395761Y-80149142D01*
X238348142Y-80101523D01*
X238252904Y-80053904D01*
X238062428Y-80006285D01*
X237824333Y-80006285D01*
X237633857Y-80053904D01*
X237538619Y-80101523D01*
X237491000Y-80149142D01*
X237443380Y-80244380D01*
X238443380Y-81053904D02*
X238443380Y-81244380D01*
X238395761Y-81339619D01*
X238348142Y-81387238D01*
X238205285Y-81482476D01*
X238014809Y-81530095D01*
X237633857Y-81530095D01*
X237538619Y-81482476D01*
X237491000Y-81434857D01*
X237443380Y-81339619D01*
X237443380Y-81149142D01*
X237491000Y-81053904D01*
X237538619Y-81006285D01*
X237633857Y-80958666D01*
X237871952Y-80958666D01*
X237967190Y-81006285D01*
X238014809Y-81053904D01*
X238062428Y-81149142D01*
X238062428Y-81339619D01*
X238014809Y-81434857D01*
X237967190Y-81482476D01*
X237871952Y-81530095D01*
X119693380Y-144601523D02*
X118693380Y-144601523D01*
X118693380Y-144839619D01*
X118741000Y-144982476D01*
X118836238Y-145077714D01*
X118931476Y-145125333D01*
X119121952Y-145172952D01*
X119264809Y-145172952D01*
X119455285Y-145125333D01*
X119550523Y-145077714D01*
X119645761Y-144982476D01*
X119693380Y-144839619D01*
X119693380Y-144601523D01*
X119026714Y-146030095D02*
X119693380Y-146030095D01*
X118645761Y-145792000D02*
X119360047Y-145553904D01*
X119360047Y-146172952D01*
X118693380Y-146744380D02*
X118693380Y-146839619D01*
X118741000Y-146934857D01*
X118788619Y-146982476D01*
X118883857Y-147030095D01*
X119074333Y-147077714D01*
X119312428Y-147077714D01*
X119502904Y-147030095D01*
X119598142Y-146982476D01*
X119645761Y-146934857D01*
X119693380Y-146839619D01*
X119693380Y-146744380D01*
X119645761Y-146649142D01*
X119598142Y-146601523D01*
X119502904Y-146553904D01*
X119312428Y-146506285D01*
X119074333Y-146506285D01*
X118883857Y-146553904D01*
X118788619Y-146601523D01*
X118741000Y-146649142D01*
X118693380Y-146744380D01*
X118693380Y-147411047D02*
X118693380Y-148030095D01*
X119074333Y-147696761D01*
X119074333Y-147839619D01*
X119121952Y-147934857D01*
X119169571Y-147982476D01*
X119264809Y-148030095D01*
X119502904Y-148030095D01*
X119598142Y-147982476D01*
X119645761Y-147934857D01*
X119693380Y-147839619D01*
X119693380Y-147553904D01*
X119645761Y-147458666D01*
X119598142Y-147411047D01*
X31818380Y-163601523D02*
X30818380Y-163601523D01*
X30818380Y-163839619D01*
X30866000Y-163982476D01*
X30961238Y-164077714D01*
X31056476Y-164125333D01*
X31246952Y-164172952D01*
X31389809Y-164172952D01*
X31580285Y-164125333D01*
X31675523Y-164077714D01*
X31770761Y-163982476D01*
X31818380Y-163839619D01*
X31818380Y-163601523D01*
X30818380Y-165030095D02*
X30818380Y-164839619D01*
X30866000Y-164744380D01*
X30913619Y-164696761D01*
X31056476Y-164601523D01*
X31246952Y-164553904D01*
X31627904Y-164553904D01*
X31723142Y-164601523D01*
X31770761Y-164649142D01*
X31818380Y-164744380D01*
X31818380Y-164934857D01*
X31770761Y-165030095D01*
X31723142Y-165077714D01*
X31627904Y-165125333D01*
X31389809Y-165125333D01*
X31294571Y-165077714D01*
X31246952Y-165030095D01*
X31199333Y-164934857D01*
X31199333Y-164744380D01*
X31246952Y-164649142D01*
X31294571Y-164601523D01*
X31389809Y-164553904D01*
X30818380Y-165744380D02*
X30818380Y-165839619D01*
X30866000Y-165934857D01*
X30913619Y-165982476D01*
X31008857Y-166030095D01*
X31199333Y-166077714D01*
X31437428Y-166077714D01*
X31627904Y-166030095D01*
X31723142Y-165982476D01*
X31770761Y-165934857D01*
X31818380Y-165839619D01*
X31818380Y-165744380D01*
X31770761Y-165649142D01*
X31723142Y-165601523D01*
X31627904Y-165553904D01*
X31437428Y-165506285D01*
X31199333Y-165506285D01*
X31008857Y-165553904D01*
X30913619Y-165601523D01*
X30866000Y-165649142D01*
X30818380Y-165744380D01*
X30818380Y-166411047D02*
X30818380Y-167030095D01*
X31199333Y-166696761D01*
X31199333Y-166839619D01*
X31246952Y-166934857D01*
X31294571Y-166982476D01*
X31389809Y-167030095D01*
X31627904Y-167030095D01*
X31723142Y-166982476D01*
X31770761Y-166934857D01*
X31818380Y-166839619D01*
X31818380Y-166553904D01*
X31770761Y-166458666D01*
X31723142Y-166411047D01*
X209943380Y-78101523D02*
X208943380Y-78101523D01*
X208943380Y-78339619D01*
X208991000Y-78482476D01*
X209086238Y-78577714D01*
X209181476Y-78625333D01*
X209371952Y-78672952D01*
X209514809Y-78672952D01*
X209705285Y-78625333D01*
X209800523Y-78577714D01*
X209895761Y-78482476D01*
X209943380Y-78339619D01*
X209943380Y-78101523D01*
X209943380Y-79625333D02*
X209943380Y-79053904D01*
X209943380Y-79339619D02*
X208943380Y-79339619D01*
X209086238Y-79244380D01*
X209181476Y-79149142D01*
X209229095Y-79053904D01*
X208943380Y-80244380D02*
X208943380Y-80339619D01*
X208991000Y-80434857D01*
X209038619Y-80482476D01*
X209133857Y-80530095D01*
X209324333Y-80577714D01*
X209562428Y-80577714D01*
X209752904Y-80530095D01*
X209848142Y-80482476D01*
X209895761Y-80434857D01*
X209943380Y-80339619D01*
X209943380Y-80244380D01*
X209895761Y-80149142D01*
X209848142Y-80101523D01*
X209752904Y-80053904D01*
X209562428Y-80006285D01*
X209324333Y-80006285D01*
X209133857Y-80053904D01*
X209038619Y-80101523D01*
X208991000Y-80149142D01*
X208943380Y-80244380D01*
X209371952Y-81149142D02*
X209324333Y-81053904D01*
X209276714Y-81006285D01*
X209181476Y-80958666D01*
X209133857Y-80958666D01*
X209038619Y-81006285D01*
X208991000Y-81053904D01*
X208943380Y-81149142D01*
X208943380Y-81339619D01*
X208991000Y-81434857D01*
X209038619Y-81482476D01*
X209133857Y-81530095D01*
X209181476Y-81530095D01*
X209276714Y-81482476D01*
X209324333Y-81434857D01*
X209371952Y-81339619D01*
X209371952Y-81149142D01*
X209419571Y-81053904D01*
X209467190Y-81006285D01*
X209562428Y-80958666D01*
X209752904Y-80958666D01*
X209848142Y-81006285D01*
X209895761Y-81053904D01*
X209943380Y-81149142D01*
X209943380Y-81339619D01*
X209895761Y-81434857D01*
X209848142Y-81482476D01*
X209752904Y-81530095D01*
X209562428Y-81530095D01*
X209467190Y-81482476D01*
X209419571Y-81434857D01*
X209371952Y-81339619D01*
X48443380Y-106601523D02*
X47443380Y-106601523D01*
X47443380Y-106839619D01*
X47491000Y-106982476D01*
X47586238Y-107077714D01*
X47681476Y-107125333D01*
X47871952Y-107172952D01*
X48014809Y-107172952D01*
X48205285Y-107125333D01*
X48300523Y-107077714D01*
X48395761Y-106982476D01*
X48443380Y-106839619D01*
X48443380Y-106601523D01*
X47538619Y-107553904D02*
X47491000Y-107601523D01*
X47443380Y-107696761D01*
X47443380Y-107934857D01*
X47491000Y-108030095D01*
X47538619Y-108077714D01*
X47633857Y-108125333D01*
X47729095Y-108125333D01*
X47871952Y-108077714D01*
X48443380Y-107506285D01*
X48443380Y-108125333D01*
X47443380Y-108744380D02*
X47443380Y-108839619D01*
X47491000Y-108934857D01*
X47538619Y-108982476D01*
X47633857Y-109030095D01*
X47824333Y-109077714D01*
X48062428Y-109077714D01*
X48252904Y-109030095D01*
X48348142Y-108982476D01*
X48395761Y-108934857D01*
X48443380Y-108839619D01*
X48443380Y-108744380D01*
X48395761Y-108649142D01*
X48348142Y-108601523D01*
X48252904Y-108553904D01*
X48062428Y-108506285D01*
X47824333Y-108506285D01*
X47633857Y-108553904D01*
X47538619Y-108601523D01*
X47491000Y-108649142D01*
X47443380Y-108744380D01*
X47443380Y-109696761D02*
X47443380Y-109792000D01*
X47491000Y-109887238D01*
X47538619Y-109934857D01*
X47633857Y-109982476D01*
X47824333Y-110030095D01*
X48062428Y-110030095D01*
X48252904Y-109982476D01*
X48348142Y-109934857D01*
X48395761Y-109887238D01*
X48443380Y-109792000D01*
X48443380Y-109696761D01*
X48395761Y-109601523D01*
X48348142Y-109553904D01*
X48252904Y-109506285D01*
X48062428Y-109458666D01*
X47824333Y-109458666D01*
X47633857Y-109506285D01*
X47538619Y-109553904D01*
X47491000Y-109601523D01*
X47443380Y-109696761D01*
X24952380Y-181433333D02*
X24952380Y-180957142D01*
X23952380Y-180957142D01*
X23952380Y-182242857D02*
X23952380Y-181766666D01*
X24428571Y-181719047D01*
X24380952Y-181766666D01*
X24333333Y-181861904D01*
X24333333Y-182100000D01*
X24380952Y-182195238D01*
X24428571Y-182242857D01*
X24523809Y-182290476D01*
X24761904Y-182290476D01*
X24857142Y-182242857D01*
X24904761Y-182195238D01*
X24952380Y-182100000D01*
X24952380Y-181861904D01*
X24904761Y-181766666D01*
X24857142Y-181719047D01*
X97842857Y-51552380D02*
X98176190Y-51076190D01*
X98414285Y-51552380D02*
X98414285Y-50552380D01*
X98033333Y-50552380D01*
X97938095Y-50600000D01*
X97890476Y-50647619D01*
X97842857Y-50742857D01*
X97842857Y-50885714D01*
X97890476Y-50980952D01*
X97938095Y-51028571D01*
X98033333Y-51076190D01*
X98414285Y-51076190D01*
X96890476Y-51552380D02*
X97461904Y-51552380D01*
X97176190Y-51552380D02*
X97176190Y-50552380D01*
X97271428Y-50695238D01*
X97366666Y-50790476D01*
X97461904Y-50838095D01*
X95985714Y-50552380D02*
X96461904Y-50552380D01*
X96509523Y-51028571D01*
X96461904Y-50980952D01*
X96366666Y-50933333D01*
X96128571Y-50933333D01*
X96033333Y-50980952D01*
X95985714Y-51028571D01*
X95938095Y-51123809D01*
X95938095Y-51361904D01*
X95985714Y-51457142D01*
X96033333Y-51504761D01*
X96128571Y-51552380D01*
X96366666Y-51552380D01*
X96461904Y-51504761D01*
X96509523Y-51457142D01*
X110193380Y-163601523D02*
X109193380Y-163601523D01*
X109193380Y-163839619D01*
X109241000Y-163982476D01*
X109336238Y-164077714D01*
X109431476Y-164125333D01*
X109621952Y-164172952D01*
X109764809Y-164172952D01*
X109955285Y-164125333D01*
X110050523Y-164077714D01*
X110145761Y-163982476D01*
X110193380Y-163839619D01*
X110193380Y-163601523D01*
X109193380Y-165077714D02*
X109193380Y-164601523D01*
X109669571Y-164553904D01*
X109621952Y-164601523D01*
X109574333Y-164696761D01*
X109574333Y-164934857D01*
X109621952Y-165030095D01*
X109669571Y-165077714D01*
X109764809Y-165125333D01*
X110002904Y-165125333D01*
X110098142Y-165077714D01*
X110145761Y-165030095D01*
X110193380Y-164934857D01*
X110193380Y-164696761D01*
X110145761Y-164601523D01*
X110098142Y-164553904D01*
X109193380Y-165744380D02*
X109193380Y-165839619D01*
X109241000Y-165934857D01*
X109288619Y-165982476D01*
X109383857Y-166030095D01*
X109574333Y-166077714D01*
X109812428Y-166077714D01*
X110002904Y-166030095D01*
X110098142Y-165982476D01*
X110145761Y-165934857D01*
X110193380Y-165839619D01*
X110193380Y-165744380D01*
X110145761Y-165649142D01*
X110098142Y-165601523D01*
X110002904Y-165553904D01*
X109812428Y-165506285D01*
X109574333Y-165506285D01*
X109383857Y-165553904D01*
X109288619Y-165601523D01*
X109241000Y-165649142D01*
X109193380Y-165744380D01*
X109193380Y-166411047D02*
X109193380Y-167030095D01*
X109574333Y-166696761D01*
X109574333Y-166839619D01*
X109621952Y-166934857D01*
X109669571Y-166982476D01*
X109764809Y-167030095D01*
X110002904Y-167030095D01*
X110098142Y-166982476D01*
X110145761Y-166934857D01*
X110193380Y-166839619D01*
X110193380Y-166553904D01*
X110145761Y-166458666D01*
X110098142Y-166411047D01*
X24952380Y-190657142D02*
X24476190Y-190323809D01*
X24952380Y-190085714D02*
X23952380Y-190085714D01*
X23952380Y-190466666D01*
X24000000Y-190561904D01*
X24047619Y-190609523D01*
X24142857Y-190657142D01*
X24285714Y-190657142D01*
X24380952Y-190609523D01*
X24428571Y-190561904D01*
X24476190Y-190466666D01*
X24476190Y-190085714D01*
X24952380Y-191609523D02*
X24952380Y-191038095D01*
X24952380Y-191323809D02*
X23952380Y-191323809D01*
X24095238Y-191228571D01*
X24190476Y-191133333D01*
X24238095Y-191038095D01*
X24047619Y-191990476D02*
X24000000Y-192038095D01*
X23952380Y-192133333D01*
X23952380Y-192371428D01*
X24000000Y-192466666D01*
X24047619Y-192514285D01*
X24142857Y-192561904D01*
X24238095Y-192561904D01*
X24380952Y-192514285D01*
X24952380Y-191942857D01*
X24952380Y-192561904D01*
X276443380Y-78101523D02*
X275443380Y-78101523D01*
X275443380Y-78339619D01*
X275491000Y-78482476D01*
X275586238Y-78577714D01*
X275681476Y-78625333D01*
X275871952Y-78672952D01*
X276014809Y-78672952D01*
X276205285Y-78625333D01*
X276300523Y-78577714D01*
X276395761Y-78482476D01*
X276443380Y-78339619D01*
X276443380Y-78101523D01*
X276443380Y-79625333D02*
X276443380Y-79053904D01*
X276443380Y-79339619D02*
X275443380Y-79339619D01*
X275586238Y-79244380D01*
X275681476Y-79149142D01*
X275729095Y-79053904D01*
X276443380Y-80577714D02*
X276443380Y-80006285D01*
X276443380Y-80292000D02*
X275443380Y-80292000D01*
X275586238Y-80196761D01*
X275681476Y-80101523D01*
X275729095Y-80006285D01*
X276443380Y-81530095D02*
X276443380Y-80958666D01*
X276443380Y-81244380D02*
X275443380Y-81244380D01*
X275586238Y-81149142D01*
X275681476Y-81053904D01*
X275729095Y-80958666D01*
X72193380Y-163601523D02*
X71193380Y-163601523D01*
X71193380Y-163839619D01*
X71241000Y-163982476D01*
X71336238Y-164077714D01*
X71431476Y-164125333D01*
X71621952Y-164172952D01*
X71764809Y-164172952D01*
X71955285Y-164125333D01*
X72050523Y-164077714D01*
X72145761Y-163982476D01*
X72193380Y-163839619D01*
X72193380Y-163601523D01*
X71193380Y-165077714D02*
X71193380Y-164601523D01*
X71669571Y-164553904D01*
X71621952Y-164601523D01*
X71574333Y-164696761D01*
X71574333Y-164934857D01*
X71621952Y-165030095D01*
X71669571Y-165077714D01*
X71764809Y-165125333D01*
X72002904Y-165125333D01*
X72098142Y-165077714D01*
X72145761Y-165030095D01*
X72193380Y-164934857D01*
X72193380Y-164696761D01*
X72145761Y-164601523D01*
X72098142Y-164553904D01*
X71193380Y-165744380D02*
X71193380Y-165839619D01*
X71241000Y-165934857D01*
X71288619Y-165982476D01*
X71383857Y-166030095D01*
X71574333Y-166077714D01*
X71812428Y-166077714D01*
X72002904Y-166030095D01*
X72098142Y-165982476D01*
X72145761Y-165934857D01*
X72193380Y-165839619D01*
X72193380Y-165744380D01*
X72145761Y-165649142D01*
X72098142Y-165601523D01*
X72002904Y-165553904D01*
X71812428Y-165506285D01*
X71574333Y-165506285D01*
X71383857Y-165553904D01*
X71288619Y-165601523D01*
X71241000Y-165649142D01*
X71193380Y-165744380D01*
X72193380Y-167030095D02*
X72193380Y-166458666D01*
X72193380Y-166744380D02*
X71193380Y-166744380D01*
X71336238Y-166649142D01*
X71431476Y-166553904D01*
X71479095Y-166458666D01*
X278818380Y-163601523D02*
X277818380Y-163601523D01*
X277818380Y-163839619D01*
X277866000Y-163982476D01*
X277961238Y-164077714D01*
X278056476Y-164125333D01*
X278246952Y-164172952D01*
X278389809Y-164172952D01*
X278580285Y-164125333D01*
X278675523Y-164077714D01*
X278770761Y-163982476D01*
X278818380Y-163839619D01*
X278818380Y-163601523D01*
X277818380Y-165077714D02*
X277818380Y-164601523D01*
X278294571Y-164553904D01*
X278246952Y-164601523D01*
X278199333Y-164696761D01*
X278199333Y-164934857D01*
X278246952Y-165030095D01*
X278294571Y-165077714D01*
X278389809Y-165125333D01*
X278627904Y-165125333D01*
X278723142Y-165077714D01*
X278770761Y-165030095D01*
X278818380Y-164934857D01*
X278818380Y-164696761D01*
X278770761Y-164601523D01*
X278723142Y-164553904D01*
X278818380Y-166077714D02*
X278818380Y-165506285D01*
X278818380Y-165792000D02*
X277818380Y-165792000D01*
X277961238Y-165696761D01*
X278056476Y-165601523D01*
X278104095Y-165506285D01*
X278818380Y-167030095D02*
X278818380Y-166458666D01*
X278818380Y-166744380D02*
X277818380Y-166744380D01*
X277961238Y-166649142D01*
X278056476Y-166553904D01*
X278104095Y-166458666D01*
X159642857Y-203552380D02*
X160119047Y-203552380D01*
X160119047Y-202552380D01*
X158785714Y-203552380D02*
X159357142Y-203552380D01*
X159071428Y-203552380D02*
X159071428Y-202552380D01*
X159166666Y-202695238D01*
X159261904Y-202790476D01*
X159357142Y-202838095D01*
X157928571Y-202885714D02*
X157928571Y-203552380D01*
X158166666Y-202504761D02*
X158404761Y-203219047D01*
X157785714Y-203219047D01*
X47466666Y-203552380D02*
X47942857Y-203552380D01*
X47942857Y-202552380D01*
X46704761Y-202552380D02*
X46895238Y-202552380D01*
X46990476Y-202600000D01*
X47038095Y-202647619D01*
X47133333Y-202790476D01*
X47180952Y-202980952D01*
X47180952Y-203361904D01*
X47133333Y-203457142D01*
X47085714Y-203504761D01*
X46990476Y-203552380D01*
X46800000Y-203552380D01*
X46704761Y-203504761D01*
X46657142Y-203457142D01*
X46609523Y-203361904D01*
X46609523Y-203123809D01*
X46657142Y-203028571D01*
X46704761Y-202980952D01*
X46800000Y-202933333D01*
X46990476Y-202933333D01*
X47085714Y-202980952D01*
X47133333Y-203028571D01*
X47180952Y-203123809D01*
X133943380Y-125601523D02*
X132943380Y-125601523D01*
X132943380Y-125839619D01*
X132991000Y-125982476D01*
X133086238Y-126077714D01*
X133181476Y-126125333D01*
X133371952Y-126172952D01*
X133514809Y-126172952D01*
X133705285Y-126125333D01*
X133800523Y-126077714D01*
X133895761Y-125982476D01*
X133943380Y-125839619D01*
X133943380Y-125601523D01*
X132943380Y-126506285D02*
X132943380Y-127125333D01*
X133324333Y-126792000D01*
X133324333Y-126934857D01*
X133371952Y-127030095D01*
X133419571Y-127077714D01*
X133514809Y-127125333D01*
X133752904Y-127125333D01*
X133848142Y-127077714D01*
X133895761Y-127030095D01*
X133943380Y-126934857D01*
X133943380Y-126649142D01*
X133895761Y-126553904D01*
X133848142Y-126506285D01*
X132943380Y-127744380D02*
X132943380Y-127839619D01*
X132991000Y-127934857D01*
X133038619Y-127982476D01*
X133133857Y-128030095D01*
X133324333Y-128077714D01*
X133562428Y-128077714D01*
X133752904Y-128030095D01*
X133848142Y-127982476D01*
X133895761Y-127934857D01*
X133943380Y-127839619D01*
X133943380Y-127744380D01*
X133895761Y-127649142D01*
X133848142Y-127601523D01*
X133752904Y-127553904D01*
X133562428Y-127506285D01*
X133324333Y-127506285D01*
X133133857Y-127553904D01*
X133038619Y-127601523D01*
X132991000Y-127649142D01*
X132943380Y-127744380D01*
X133276714Y-128934857D02*
X133943380Y-128934857D01*
X132895761Y-128696761D02*
X133610047Y-128458666D01*
X133610047Y-129077714D01*
X176693380Y-144601523D02*
X175693380Y-144601523D01*
X175693380Y-144839619D01*
X175741000Y-144982476D01*
X175836238Y-145077714D01*
X175931476Y-145125333D01*
X176121952Y-145172952D01*
X176264809Y-145172952D01*
X176455285Y-145125333D01*
X176550523Y-145077714D01*
X176645761Y-144982476D01*
X176693380Y-144839619D01*
X176693380Y-144601523D01*
X176026714Y-146030095D02*
X176693380Y-146030095D01*
X175645761Y-145792000D02*
X176360047Y-145553904D01*
X176360047Y-146172952D01*
X175693380Y-146744380D02*
X175693380Y-146839619D01*
X175741000Y-146934857D01*
X175788619Y-146982476D01*
X175883857Y-147030095D01*
X176074333Y-147077714D01*
X176312428Y-147077714D01*
X176502904Y-147030095D01*
X176598142Y-146982476D01*
X176645761Y-146934857D01*
X176693380Y-146839619D01*
X176693380Y-146744380D01*
X176645761Y-146649142D01*
X176598142Y-146601523D01*
X176502904Y-146553904D01*
X176312428Y-146506285D01*
X176074333Y-146506285D01*
X175883857Y-146553904D01*
X175788619Y-146601523D01*
X175741000Y-146649142D01*
X175693380Y-146744380D01*
X175693380Y-147934857D02*
X175693380Y-147744380D01*
X175741000Y-147649142D01*
X175788619Y-147601523D01*
X175931476Y-147506285D01*
X176121952Y-147458666D01*
X176502904Y-147458666D01*
X176598142Y-147506285D01*
X176645761Y-147553904D01*
X176693380Y-147649142D01*
X176693380Y-147839619D01*
X176645761Y-147934857D01*
X176598142Y-147982476D01*
X176502904Y-148030095D01*
X176264809Y-148030095D01*
X176169571Y-147982476D01*
X176121952Y-147934857D01*
X176074333Y-147839619D01*
X176074333Y-147649142D01*
X176121952Y-147553904D01*
X176169571Y-147506285D01*
X176264809Y-147458666D01*
X323943380Y-125601523D02*
X322943380Y-125601523D01*
X322943380Y-125839619D01*
X322991000Y-125982476D01*
X323086238Y-126077714D01*
X323181476Y-126125333D01*
X323371952Y-126172952D01*
X323514809Y-126172952D01*
X323705285Y-126125333D01*
X323800523Y-126077714D01*
X323895761Y-125982476D01*
X323943380Y-125839619D01*
X323943380Y-125601523D01*
X322943380Y-126506285D02*
X322943380Y-127125333D01*
X323324333Y-126792000D01*
X323324333Y-126934857D01*
X323371952Y-127030095D01*
X323419571Y-127077714D01*
X323514809Y-127125333D01*
X323752904Y-127125333D01*
X323848142Y-127077714D01*
X323895761Y-127030095D01*
X323943380Y-126934857D01*
X323943380Y-126649142D01*
X323895761Y-126553904D01*
X323848142Y-126506285D01*
X323943380Y-128077714D02*
X323943380Y-127506285D01*
X323943380Y-127792000D02*
X322943380Y-127792000D01*
X323086238Y-127696761D01*
X323181476Y-127601523D01*
X323229095Y-127506285D01*
X322943380Y-128411047D02*
X322943380Y-129030095D01*
X323324333Y-128696761D01*
X323324333Y-128839619D01*
X323371952Y-128934857D01*
X323419571Y-128982476D01*
X323514809Y-129030095D01*
X323752904Y-129030095D01*
X323848142Y-128982476D01*
X323895761Y-128934857D01*
X323943380Y-128839619D01*
X323943380Y-128553904D01*
X323895761Y-128458666D01*
X323848142Y-128411047D01*
X157693380Y-144601523D02*
X156693380Y-144601523D01*
X156693380Y-144839619D01*
X156741000Y-144982476D01*
X156836238Y-145077714D01*
X156931476Y-145125333D01*
X157121952Y-145172952D01*
X157264809Y-145172952D01*
X157455285Y-145125333D01*
X157550523Y-145077714D01*
X157645761Y-144982476D01*
X157693380Y-144839619D01*
X157693380Y-144601523D01*
X157026714Y-146030095D02*
X157693380Y-146030095D01*
X156645761Y-145792000D02*
X157360047Y-145553904D01*
X157360047Y-146172952D01*
X156693380Y-146744380D02*
X156693380Y-146839619D01*
X156741000Y-146934857D01*
X156788619Y-146982476D01*
X156883857Y-147030095D01*
X157074333Y-147077714D01*
X157312428Y-147077714D01*
X157502904Y-147030095D01*
X157598142Y-146982476D01*
X157645761Y-146934857D01*
X157693380Y-146839619D01*
X157693380Y-146744380D01*
X157645761Y-146649142D01*
X157598142Y-146601523D01*
X157502904Y-146553904D01*
X157312428Y-146506285D01*
X157074333Y-146506285D01*
X156883857Y-146553904D01*
X156788619Y-146601523D01*
X156741000Y-146649142D01*
X156693380Y-146744380D01*
X156693380Y-147982476D02*
X156693380Y-147506285D01*
X157169571Y-147458666D01*
X157121952Y-147506285D01*
X157074333Y-147601523D01*
X157074333Y-147839619D01*
X157121952Y-147934857D01*
X157169571Y-147982476D01*
X157264809Y-148030095D01*
X157502904Y-148030095D01*
X157598142Y-147982476D01*
X157645761Y-147934857D01*
X157693380Y-147839619D01*
X157693380Y-147601523D01*
X157645761Y-147506285D01*
X157598142Y-147458666D01*
X152142857Y-51452380D02*
X152476190Y-50976190D01*
X152714285Y-51452380D02*
X152714285Y-50452380D01*
X152333333Y-50452380D01*
X152238095Y-50500000D01*
X152190476Y-50547619D01*
X152142857Y-50642857D01*
X152142857Y-50785714D01*
X152190476Y-50880952D01*
X152238095Y-50928571D01*
X152333333Y-50976190D01*
X152714285Y-50976190D01*
X151190476Y-51452380D02*
X151761904Y-51452380D01*
X151476190Y-51452380D02*
X151476190Y-50452380D01*
X151571428Y-50595238D01*
X151666666Y-50690476D01*
X151761904Y-50738095D01*
X150333333Y-50785714D02*
X150333333Y-51452380D01*
X150571428Y-50404761D02*
X150809523Y-51119047D01*
X150190476Y-51119047D01*
X147942857Y-203552380D02*
X148276190Y-203076190D01*
X148514285Y-203552380D02*
X148514285Y-202552380D01*
X148133333Y-202552380D01*
X148038095Y-202600000D01*
X147990476Y-202647619D01*
X147942857Y-202742857D01*
X147942857Y-202885714D01*
X147990476Y-202980952D01*
X148038095Y-203028571D01*
X148133333Y-203076190D01*
X148514285Y-203076190D01*
X147561904Y-202647619D02*
X147514285Y-202600000D01*
X147419047Y-202552380D01*
X147180952Y-202552380D01*
X147085714Y-202600000D01*
X147038095Y-202647619D01*
X146990476Y-202742857D01*
X146990476Y-202838095D01*
X147038095Y-202980952D01*
X147609523Y-203552380D01*
X146990476Y-203552380D01*
X146038095Y-203552380D02*
X146609523Y-203552380D01*
X146323809Y-203552380D02*
X146323809Y-202552380D01*
X146419047Y-202695238D01*
X146514285Y-202790476D01*
X146609523Y-202838095D01*
X292282380Y-182309523D02*
X291282380Y-182309523D01*
X291282380Y-182547619D01*
X291330000Y-182690476D01*
X291425238Y-182785714D01*
X291520476Y-182833333D01*
X291710952Y-182880952D01*
X291853809Y-182880952D01*
X292044285Y-182833333D01*
X292139523Y-182785714D01*
X292234761Y-182690476D01*
X292282380Y-182547619D01*
X292282380Y-182309523D01*
X291282380Y-183738095D02*
X291282380Y-183547619D01*
X291330000Y-183452380D01*
X291377619Y-183404761D01*
X291520476Y-183309523D01*
X291710952Y-183261904D01*
X292091904Y-183261904D01*
X292187142Y-183309523D01*
X292234761Y-183357142D01*
X292282380Y-183452380D01*
X292282380Y-183642857D01*
X292234761Y-183738095D01*
X292187142Y-183785714D01*
X292091904Y-183833333D01*
X291853809Y-183833333D01*
X291758571Y-183785714D01*
X291710952Y-183738095D01*
X291663333Y-183642857D01*
X291663333Y-183452380D01*
X291710952Y-183357142D01*
X291758571Y-183309523D01*
X291853809Y-183261904D01*
X292282380Y-184785714D02*
X292282380Y-184214285D01*
X292282380Y-184500000D02*
X291282380Y-184500000D01*
X291425238Y-184404761D01*
X291520476Y-184309523D01*
X291568095Y-184214285D01*
X291282380Y-185404761D02*
X291282380Y-185500000D01*
X291330000Y-185595238D01*
X291377619Y-185642857D01*
X291472857Y-185690476D01*
X291663333Y-185738095D01*
X291901428Y-185738095D01*
X292091904Y-185690476D01*
X292187142Y-185642857D01*
X292234761Y-185595238D01*
X292282380Y-185500000D01*
X292282380Y-185404761D01*
X292234761Y-185309523D01*
X292187142Y-185261904D01*
X292091904Y-185214285D01*
X291901428Y-185166666D01*
X291663333Y-185166666D01*
X291472857Y-185214285D01*
X291377619Y-185261904D01*
X291330000Y-185309523D01*
X291282380Y-185404761D01*
X384702380Y-188827142D02*
X384226190Y-188493809D01*
X384702380Y-188255714D02*
X383702380Y-188255714D01*
X383702380Y-188636666D01*
X383750000Y-188731904D01*
X383797619Y-188779523D01*
X383892857Y-188827142D01*
X384035714Y-188827142D01*
X384130952Y-188779523D01*
X384178571Y-188731904D01*
X384226190Y-188636666D01*
X384226190Y-188255714D01*
X383797619Y-189208095D02*
X383750000Y-189255714D01*
X383702380Y-189350952D01*
X383702380Y-189589047D01*
X383750000Y-189684285D01*
X383797619Y-189731904D01*
X383892857Y-189779523D01*
X383988095Y-189779523D01*
X384130952Y-189731904D01*
X384702380Y-189160476D01*
X384702380Y-189779523D01*
X383797619Y-190160476D02*
X383750000Y-190208095D01*
X383702380Y-190303333D01*
X383702380Y-190541428D01*
X383750000Y-190636666D01*
X383797619Y-190684285D01*
X383892857Y-190731904D01*
X383988095Y-190731904D01*
X384130952Y-190684285D01*
X384702380Y-190112857D01*
X384702380Y-190731904D01*
X224193380Y-163601523D02*
X223193380Y-163601523D01*
X223193380Y-163839619D01*
X223241000Y-163982476D01*
X223336238Y-164077714D01*
X223431476Y-164125333D01*
X223621952Y-164172952D01*
X223764809Y-164172952D01*
X223955285Y-164125333D01*
X224050523Y-164077714D01*
X224145761Y-163982476D01*
X224193380Y-163839619D01*
X224193380Y-163601523D01*
X223193380Y-165077714D02*
X223193380Y-164601523D01*
X223669571Y-164553904D01*
X223621952Y-164601523D01*
X223574333Y-164696761D01*
X223574333Y-164934857D01*
X223621952Y-165030095D01*
X223669571Y-165077714D01*
X223764809Y-165125333D01*
X224002904Y-165125333D01*
X224098142Y-165077714D01*
X224145761Y-165030095D01*
X224193380Y-164934857D01*
X224193380Y-164696761D01*
X224145761Y-164601523D01*
X224098142Y-164553904D01*
X223193380Y-165744380D02*
X223193380Y-165839619D01*
X223241000Y-165934857D01*
X223288619Y-165982476D01*
X223383857Y-166030095D01*
X223574333Y-166077714D01*
X223812428Y-166077714D01*
X224002904Y-166030095D01*
X224098142Y-165982476D01*
X224145761Y-165934857D01*
X224193380Y-165839619D01*
X224193380Y-165744380D01*
X224145761Y-165649142D01*
X224098142Y-165601523D01*
X224002904Y-165553904D01*
X223812428Y-165506285D01*
X223574333Y-165506285D01*
X223383857Y-165553904D01*
X223288619Y-165601523D01*
X223241000Y-165649142D01*
X223193380Y-165744380D01*
X224193380Y-166553904D02*
X224193380Y-166744380D01*
X224145761Y-166839619D01*
X224098142Y-166887238D01*
X223955285Y-166982476D01*
X223764809Y-167030095D01*
X223383857Y-167030095D01*
X223288619Y-166982476D01*
X223241000Y-166934857D01*
X223193380Y-166839619D01*
X223193380Y-166649142D01*
X223241000Y-166553904D01*
X223288619Y-166506285D01*
X223383857Y-166458666D01*
X223621952Y-166458666D01*
X223717190Y-166506285D01*
X223764809Y-166553904D01*
X223812428Y-166649142D01*
X223812428Y-166839619D01*
X223764809Y-166934857D01*
X223717190Y-166982476D01*
X223621952Y-167030095D01*
X195693380Y-144601523D02*
X194693380Y-144601523D01*
X194693380Y-144839619D01*
X194741000Y-144982476D01*
X194836238Y-145077714D01*
X194931476Y-145125333D01*
X195121952Y-145172952D01*
X195264809Y-145172952D01*
X195455285Y-145125333D01*
X195550523Y-145077714D01*
X195645761Y-144982476D01*
X195693380Y-144839619D01*
X195693380Y-144601523D01*
X195026714Y-146030095D02*
X195693380Y-146030095D01*
X194645761Y-145792000D02*
X195360047Y-145553904D01*
X195360047Y-146172952D01*
X194693380Y-146744380D02*
X194693380Y-146839619D01*
X194741000Y-146934857D01*
X194788619Y-146982476D01*
X194883857Y-147030095D01*
X195074333Y-147077714D01*
X195312428Y-147077714D01*
X195502904Y-147030095D01*
X195598142Y-146982476D01*
X195645761Y-146934857D01*
X195693380Y-146839619D01*
X195693380Y-146744380D01*
X195645761Y-146649142D01*
X195598142Y-146601523D01*
X195502904Y-146553904D01*
X195312428Y-146506285D01*
X195074333Y-146506285D01*
X194883857Y-146553904D01*
X194788619Y-146601523D01*
X194741000Y-146649142D01*
X194693380Y-146744380D01*
X194693380Y-147411047D02*
X194693380Y-148077714D01*
X195693380Y-147649142D01*
X81693380Y-144601523D02*
X80693380Y-144601523D01*
X80693380Y-144839619D01*
X80741000Y-144982476D01*
X80836238Y-145077714D01*
X80931476Y-145125333D01*
X81121952Y-145172952D01*
X81264809Y-145172952D01*
X81455285Y-145125333D01*
X81550523Y-145077714D01*
X81645761Y-144982476D01*
X81693380Y-144839619D01*
X81693380Y-144601523D01*
X81026714Y-146030095D02*
X81693380Y-146030095D01*
X80645761Y-145792000D02*
X81360047Y-145553904D01*
X81360047Y-146172952D01*
X80693380Y-146744380D02*
X80693380Y-146839619D01*
X80741000Y-146934857D01*
X80788619Y-146982476D01*
X80883857Y-147030095D01*
X81074333Y-147077714D01*
X81312428Y-147077714D01*
X81502904Y-147030095D01*
X81598142Y-146982476D01*
X81645761Y-146934857D01*
X81693380Y-146839619D01*
X81693380Y-146744380D01*
X81645761Y-146649142D01*
X81598142Y-146601523D01*
X81502904Y-146553904D01*
X81312428Y-146506285D01*
X81074333Y-146506285D01*
X80883857Y-146553904D01*
X80788619Y-146601523D01*
X80741000Y-146649142D01*
X80693380Y-146744380D01*
X81693380Y-148030095D02*
X81693380Y-147458666D01*
X81693380Y-147744380D02*
X80693380Y-147744380D01*
X80836238Y-147649142D01*
X80931476Y-147553904D01*
X80979095Y-147458666D01*
X114943380Y-125601523D02*
X113943380Y-125601523D01*
X113943380Y-125839619D01*
X113991000Y-125982476D01*
X114086238Y-126077714D01*
X114181476Y-126125333D01*
X114371952Y-126172952D01*
X114514809Y-126172952D01*
X114705285Y-126125333D01*
X114800523Y-126077714D01*
X114895761Y-125982476D01*
X114943380Y-125839619D01*
X114943380Y-125601523D01*
X113943380Y-126506285D02*
X113943380Y-127125333D01*
X114324333Y-126792000D01*
X114324333Y-126934857D01*
X114371952Y-127030095D01*
X114419571Y-127077714D01*
X114514809Y-127125333D01*
X114752904Y-127125333D01*
X114848142Y-127077714D01*
X114895761Y-127030095D01*
X114943380Y-126934857D01*
X114943380Y-126649142D01*
X114895761Y-126553904D01*
X114848142Y-126506285D01*
X113943380Y-127744380D02*
X113943380Y-127839619D01*
X113991000Y-127934857D01*
X114038619Y-127982476D01*
X114133857Y-128030095D01*
X114324333Y-128077714D01*
X114562428Y-128077714D01*
X114752904Y-128030095D01*
X114848142Y-127982476D01*
X114895761Y-127934857D01*
X114943380Y-127839619D01*
X114943380Y-127744380D01*
X114895761Y-127649142D01*
X114848142Y-127601523D01*
X114752904Y-127553904D01*
X114562428Y-127506285D01*
X114324333Y-127506285D01*
X114133857Y-127553904D01*
X114038619Y-127601523D01*
X113991000Y-127649142D01*
X113943380Y-127744380D01*
X113943380Y-128411047D02*
X113943380Y-129030095D01*
X114324333Y-128696761D01*
X114324333Y-128839619D01*
X114371952Y-128934857D01*
X114419571Y-128982476D01*
X114514809Y-129030095D01*
X114752904Y-129030095D01*
X114848142Y-128982476D01*
X114895761Y-128934857D01*
X114943380Y-128839619D01*
X114943380Y-128553904D01*
X114895761Y-128458666D01*
X114848142Y-128411047D01*
X81693380Y-182601523D02*
X80693380Y-182601523D01*
X80693380Y-182839619D01*
X80741000Y-182982476D01*
X80836238Y-183077714D01*
X80931476Y-183125333D01*
X81121952Y-183172952D01*
X81264809Y-183172952D01*
X81455285Y-183125333D01*
X81550523Y-183077714D01*
X81645761Y-182982476D01*
X81693380Y-182839619D01*
X81693380Y-182601523D01*
X80693380Y-184030095D02*
X80693380Y-183839619D01*
X80741000Y-183744380D01*
X80788619Y-183696761D01*
X80931476Y-183601523D01*
X81121952Y-183553904D01*
X81502904Y-183553904D01*
X81598142Y-183601523D01*
X81645761Y-183649142D01*
X81693380Y-183744380D01*
X81693380Y-183934857D01*
X81645761Y-184030095D01*
X81598142Y-184077714D01*
X81502904Y-184125333D01*
X81264809Y-184125333D01*
X81169571Y-184077714D01*
X81121952Y-184030095D01*
X81074333Y-183934857D01*
X81074333Y-183744380D01*
X81121952Y-183649142D01*
X81169571Y-183601523D01*
X81264809Y-183553904D01*
X80693380Y-184744380D02*
X80693380Y-184839619D01*
X80741000Y-184934857D01*
X80788619Y-184982476D01*
X80883857Y-185030095D01*
X81074333Y-185077714D01*
X81312428Y-185077714D01*
X81502904Y-185030095D01*
X81598142Y-184982476D01*
X81645761Y-184934857D01*
X81693380Y-184839619D01*
X81693380Y-184744380D01*
X81645761Y-184649142D01*
X81598142Y-184601523D01*
X81502904Y-184553904D01*
X81312428Y-184506285D01*
X81074333Y-184506285D01*
X80883857Y-184553904D01*
X80788619Y-184601523D01*
X80741000Y-184649142D01*
X80693380Y-184744380D01*
X80693380Y-185934857D02*
X80693380Y-185744380D01*
X80741000Y-185649142D01*
X80788619Y-185601523D01*
X80931476Y-185506285D01*
X81121952Y-185458666D01*
X81502904Y-185458666D01*
X81598142Y-185506285D01*
X81645761Y-185553904D01*
X81693380Y-185649142D01*
X81693380Y-185839619D01*
X81645761Y-185934857D01*
X81598142Y-185982476D01*
X81502904Y-186030095D01*
X81264809Y-186030095D01*
X81169571Y-185982476D01*
X81121952Y-185934857D01*
X81074333Y-185839619D01*
X81074333Y-185649142D01*
X81121952Y-185553904D01*
X81169571Y-185506285D01*
X81264809Y-185458666D01*
X233693380Y-144601523D02*
X232693380Y-144601523D01*
X232693380Y-144839619D01*
X232741000Y-144982476D01*
X232836238Y-145077714D01*
X232931476Y-145125333D01*
X233121952Y-145172952D01*
X233264809Y-145172952D01*
X233455285Y-145125333D01*
X233550523Y-145077714D01*
X233645761Y-144982476D01*
X233693380Y-144839619D01*
X233693380Y-144601523D01*
X233026714Y-146030095D02*
X233693380Y-146030095D01*
X232645761Y-145792000D02*
X233360047Y-145553904D01*
X233360047Y-146172952D01*
X232693380Y-146744380D02*
X232693380Y-146839619D01*
X232741000Y-146934857D01*
X232788619Y-146982476D01*
X232883857Y-147030095D01*
X233074333Y-147077714D01*
X233312428Y-147077714D01*
X233502904Y-147030095D01*
X233598142Y-146982476D01*
X233645761Y-146934857D01*
X233693380Y-146839619D01*
X233693380Y-146744380D01*
X233645761Y-146649142D01*
X233598142Y-146601523D01*
X233502904Y-146553904D01*
X233312428Y-146506285D01*
X233074333Y-146506285D01*
X232883857Y-146553904D01*
X232788619Y-146601523D01*
X232741000Y-146649142D01*
X232693380Y-146744380D01*
X233693380Y-147553904D02*
X233693380Y-147744380D01*
X233645761Y-147839619D01*
X233598142Y-147887238D01*
X233455285Y-147982476D01*
X233264809Y-148030095D01*
X232883857Y-148030095D01*
X232788619Y-147982476D01*
X232741000Y-147934857D01*
X232693380Y-147839619D01*
X232693380Y-147649142D01*
X232741000Y-147553904D01*
X232788619Y-147506285D01*
X232883857Y-147458666D01*
X233121952Y-147458666D01*
X233217190Y-147506285D01*
X233264809Y-147553904D01*
X233312428Y-147649142D01*
X233312428Y-147839619D01*
X233264809Y-147934857D01*
X233217190Y-147982476D01*
X233121952Y-148030095D01*
X383252380Y-86357142D02*
X382776190Y-86023809D01*
X383252380Y-85785714D02*
X382252380Y-85785714D01*
X382252380Y-86166666D01*
X382300000Y-86261904D01*
X382347619Y-86309523D01*
X382442857Y-86357142D01*
X382585714Y-86357142D01*
X382680952Y-86309523D01*
X382728571Y-86261904D01*
X382776190Y-86166666D01*
X382776190Y-85785714D01*
X383252380Y-87309523D02*
X383252380Y-86738095D01*
X383252380Y-87023809D02*
X382252380Y-87023809D01*
X382395238Y-86928571D01*
X382490476Y-86833333D01*
X382538095Y-86738095D01*
X382680952Y-87880952D02*
X382633333Y-87785714D01*
X382585714Y-87738095D01*
X382490476Y-87690476D01*
X382442857Y-87690476D01*
X382347619Y-87738095D01*
X382300000Y-87785714D01*
X382252380Y-87880952D01*
X382252380Y-88071428D01*
X382300000Y-88166666D01*
X382347619Y-88214285D01*
X382442857Y-88261904D01*
X382490476Y-88261904D01*
X382585714Y-88214285D01*
X382633333Y-88166666D01*
X382680952Y-88071428D01*
X382680952Y-87880952D01*
X382728571Y-87785714D01*
X382776190Y-87738095D01*
X382871428Y-87690476D01*
X383061904Y-87690476D01*
X383157142Y-87738095D01*
X383204761Y-87785714D01*
X383252380Y-87880952D01*
X383252380Y-88071428D01*
X383204761Y-88166666D01*
X383157142Y-88214285D01*
X383061904Y-88261904D01*
X382871428Y-88261904D01*
X382776190Y-88214285D01*
X382728571Y-88166666D01*
X382680952Y-88071428D01*
X95943380Y-125601523D02*
X94943380Y-125601523D01*
X94943380Y-125839619D01*
X94991000Y-125982476D01*
X95086238Y-126077714D01*
X95181476Y-126125333D01*
X95371952Y-126172952D01*
X95514809Y-126172952D01*
X95705285Y-126125333D01*
X95800523Y-126077714D01*
X95895761Y-125982476D01*
X95943380Y-125839619D01*
X95943380Y-125601523D01*
X94943380Y-126506285D02*
X94943380Y-127125333D01*
X95324333Y-126792000D01*
X95324333Y-126934857D01*
X95371952Y-127030095D01*
X95419571Y-127077714D01*
X95514809Y-127125333D01*
X95752904Y-127125333D01*
X95848142Y-127077714D01*
X95895761Y-127030095D01*
X95943380Y-126934857D01*
X95943380Y-126649142D01*
X95895761Y-126553904D01*
X95848142Y-126506285D01*
X94943380Y-127744380D02*
X94943380Y-127839619D01*
X94991000Y-127934857D01*
X95038619Y-127982476D01*
X95133857Y-128030095D01*
X95324333Y-128077714D01*
X95562428Y-128077714D01*
X95752904Y-128030095D01*
X95848142Y-127982476D01*
X95895761Y-127934857D01*
X95943380Y-127839619D01*
X95943380Y-127744380D01*
X95895761Y-127649142D01*
X95848142Y-127601523D01*
X95752904Y-127553904D01*
X95562428Y-127506285D01*
X95324333Y-127506285D01*
X95133857Y-127553904D01*
X95038619Y-127601523D01*
X94991000Y-127649142D01*
X94943380Y-127744380D01*
X95038619Y-128458666D02*
X94991000Y-128506285D01*
X94943380Y-128601523D01*
X94943380Y-128839619D01*
X94991000Y-128934857D01*
X95038619Y-128982476D01*
X95133857Y-129030095D01*
X95229095Y-129030095D01*
X95371952Y-128982476D01*
X95943380Y-128411047D01*
X95943380Y-129030095D01*
X67443380Y-78101523D02*
X66443380Y-78101523D01*
X66443380Y-78339619D01*
X66491000Y-78482476D01*
X66586238Y-78577714D01*
X66681476Y-78625333D01*
X66871952Y-78672952D01*
X67014809Y-78672952D01*
X67205285Y-78625333D01*
X67300523Y-78577714D01*
X67395761Y-78482476D01*
X67443380Y-78339619D01*
X67443380Y-78101523D01*
X67443380Y-79625333D02*
X67443380Y-79053904D01*
X67443380Y-79339619D02*
X66443380Y-79339619D01*
X66586238Y-79244380D01*
X66681476Y-79149142D01*
X66729095Y-79053904D01*
X66443380Y-80244380D02*
X66443380Y-80339619D01*
X66491000Y-80434857D01*
X66538619Y-80482476D01*
X66633857Y-80530095D01*
X66824333Y-80577714D01*
X67062428Y-80577714D01*
X67252904Y-80530095D01*
X67348142Y-80482476D01*
X67395761Y-80434857D01*
X67443380Y-80339619D01*
X67443380Y-80244380D01*
X67395761Y-80149142D01*
X67348142Y-80101523D01*
X67252904Y-80053904D01*
X67062428Y-80006285D01*
X66824333Y-80006285D01*
X66633857Y-80053904D01*
X66538619Y-80101523D01*
X66491000Y-80149142D01*
X66443380Y-80244380D01*
X67443380Y-81530095D02*
X67443380Y-80958666D01*
X67443380Y-81244380D02*
X66443380Y-81244380D01*
X66586238Y-81149142D01*
X66681476Y-81053904D01*
X66729095Y-80958666D01*
X86443380Y-106601523D02*
X85443380Y-106601523D01*
X85443380Y-106839619D01*
X85491000Y-106982476D01*
X85586238Y-107077714D01*
X85681476Y-107125333D01*
X85871952Y-107172952D01*
X86014809Y-107172952D01*
X86205285Y-107125333D01*
X86300523Y-107077714D01*
X86395761Y-106982476D01*
X86443380Y-106839619D01*
X86443380Y-106601523D01*
X85538619Y-107553904D02*
X85491000Y-107601523D01*
X85443380Y-107696761D01*
X85443380Y-107934857D01*
X85491000Y-108030095D01*
X85538619Y-108077714D01*
X85633857Y-108125333D01*
X85729095Y-108125333D01*
X85871952Y-108077714D01*
X86443380Y-107506285D01*
X86443380Y-108125333D01*
X85443380Y-108744380D02*
X85443380Y-108839619D01*
X85491000Y-108934857D01*
X85538619Y-108982476D01*
X85633857Y-109030095D01*
X85824333Y-109077714D01*
X86062428Y-109077714D01*
X86252904Y-109030095D01*
X86348142Y-108982476D01*
X86395761Y-108934857D01*
X86443380Y-108839619D01*
X86443380Y-108744380D01*
X86395761Y-108649142D01*
X86348142Y-108601523D01*
X86252904Y-108553904D01*
X86062428Y-108506285D01*
X85824333Y-108506285D01*
X85633857Y-108553904D01*
X85538619Y-108601523D01*
X85491000Y-108649142D01*
X85443380Y-108744380D01*
X85538619Y-109458666D02*
X85491000Y-109506285D01*
X85443380Y-109601523D01*
X85443380Y-109839619D01*
X85491000Y-109934857D01*
X85538619Y-109982476D01*
X85633857Y-110030095D01*
X85729095Y-110030095D01*
X85871952Y-109982476D01*
X86443380Y-109411047D01*
X86443380Y-110030095D01*
X383252380Y-74657142D02*
X383252380Y-74180952D01*
X382252380Y-74180952D01*
X383252380Y-75514285D02*
X383252380Y-74942857D01*
X383252380Y-75228571D02*
X382252380Y-75228571D01*
X382395238Y-75133333D01*
X382490476Y-75038095D01*
X382538095Y-74942857D01*
X383252380Y-76466666D02*
X383252380Y-75895238D01*
X383252380Y-76180952D02*
X382252380Y-76180952D01*
X382395238Y-76085714D01*
X382490476Y-75990476D01*
X382538095Y-75895238D01*
X209943380Y-125601523D02*
X208943380Y-125601523D01*
X208943380Y-125839619D01*
X208991000Y-125982476D01*
X209086238Y-126077714D01*
X209181476Y-126125333D01*
X209371952Y-126172952D01*
X209514809Y-126172952D01*
X209705285Y-126125333D01*
X209800523Y-126077714D01*
X209895761Y-125982476D01*
X209943380Y-125839619D01*
X209943380Y-125601523D01*
X208943380Y-126506285D02*
X208943380Y-127125333D01*
X209324333Y-126792000D01*
X209324333Y-126934857D01*
X209371952Y-127030095D01*
X209419571Y-127077714D01*
X209514809Y-127125333D01*
X209752904Y-127125333D01*
X209848142Y-127077714D01*
X209895761Y-127030095D01*
X209943380Y-126934857D01*
X209943380Y-126649142D01*
X209895761Y-126553904D01*
X209848142Y-126506285D01*
X208943380Y-127744380D02*
X208943380Y-127839619D01*
X208991000Y-127934857D01*
X209038619Y-127982476D01*
X209133857Y-128030095D01*
X209324333Y-128077714D01*
X209562428Y-128077714D01*
X209752904Y-128030095D01*
X209848142Y-127982476D01*
X209895761Y-127934857D01*
X209943380Y-127839619D01*
X209943380Y-127744380D01*
X209895761Y-127649142D01*
X209848142Y-127601523D01*
X209752904Y-127553904D01*
X209562428Y-127506285D01*
X209324333Y-127506285D01*
X209133857Y-127553904D01*
X209038619Y-127601523D01*
X208991000Y-127649142D01*
X208943380Y-127744380D01*
X209371952Y-128649142D02*
X209324333Y-128553904D01*
X209276714Y-128506285D01*
X209181476Y-128458666D01*
X209133857Y-128458666D01*
X209038619Y-128506285D01*
X208991000Y-128553904D01*
X208943380Y-128649142D01*
X208943380Y-128839619D01*
X208991000Y-128934857D01*
X209038619Y-128982476D01*
X209133857Y-129030095D01*
X209181476Y-129030095D01*
X209276714Y-128982476D01*
X209324333Y-128934857D01*
X209371952Y-128839619D01*
X209371952Y-128649142D01*
X209419571Y-128553904D01*
X209467190Y-128506285D01*
X209562428Y-128458666D01*
X209752904Y-128458666D01*
X209848142Y-128506285D01*
X209895761Y-128553904D01*
X209943380Y-128649142D01*
X209943380Y-128839619D01*
X209895761Y-128934857D01*
X209848142Y-128982476D01*
X209752904Y-129030095D01*
X209562428Y-129030095D01*
X209467190Y-128982476D01*
X209419571Y-128934857D01*
X209371952Y-128839619D01*
X105443380Y-106601523D02*
X104443380Y-106601523D01*
X104443380Y-106839619D01*
X104491000Y-106982476D01*
X104586238Y-107077714D01*
X104681476Y-107125333D01*
X104871952Y-107172952D01*
X105014809Y-107172952D01*
X105205285Y-107125333D01*
X105300523Y-107077714D01*
X105395761Y-106982476D01*
X105443380Y-106839619D01*
X105443380Y-106601523D01*
X104538619Y-107553904D02*
X104491000Y-107601523D01*
X104443380Y-107696761D01*
X104443380Y-107934857D01*
X104491000Y-108030095D01*
X104538619Y-108077714D01*
X104633857Y-108125333D01*
X104729095Y-108125333D01*
X104871952Y-108077714D01*
X105443380Y-107506285D01*
X105443380Y-108125333D01*
X104443380Y-108744380D02*
X104443380Y-108839619D01*
X104491000Y-108934857D01*
X104538619Y-108982476D01*
X104633857Y-109030095D01*
X104824333Y-109077714D01*
X105062428Y-109077714D01*
X105252904Y-109030095D01*
X105348142Y-108982476D01*
X105395761Y-108934857D01*
X105443380Y-108839619D01*
X105443380Y-108744380D01*
X105395761Y-108649142D01*
X105348142Y-108601523D01*
X105252904Y-108553904D01*
X105062428Y-108506285D01*
X104824333Y-108506285D01*
X104633857Y-108553904D01*
X104538619Y-108601523D01*
X104491000Y-108649142D01*
X104443380Y-108744380D01*
X104443380Y-109411047D02*
X104443380Y-110030095D01*
X104824333Y-109696761D01*
X104824333Y-109839619D01*
X104871952Y-109934857D01*
X104919571Y-109982476D01*
X105014809Y-110030095D01*
X105252904Y-110030095D01*
X105348142Y-109982476D01*
X105395761Y-109934857D01*
X105443380Y-109839619D01*
X105443380Y-109553904D01*
X105395761Y-109458666D01*
X105348142Y-109411047D01*
X34193380Y-125601523D02*
X33193380Y-125601523D01*
X33193380Y-125839619D01*
X33241000Y-125982476D01*
X33336238Y-126077714D01*
X33431476Y-126125333D01*
X33621952Y-126172952D01*
X33764809Y-126172952D01*
X33955285Y-126125333D01*
X34050523Y-126077714D01*
X34145761Y-125982476D01*
X34193380Y-125839619D01*
X34193380Y-125601523D01*
X33193380Y-127030095D02*
X33193380Y-126839619D01*
X33241000Y-126744380D01*
X33288619Y-126696761D01*
X33431476Y-126601523D01*
X33621952Y-126553904D01*
X34002904Y-126553904D01*
X34098142Y-126601523D01*
X34145761Y-126649142D01*
X34193380Y-126744380D01*
X34193380Y-126934857D01*
X34145761Y-127030095D01*
X34098142Y-127077714D01*
X34002904Y-127125333D01*
X33764809Y-127125333D01*
X33669571Y-127077714D01*
X33621952Y-127030095D01*
X33574333Y-126934857D01*
X33574333Y-126744380D01*
X33621952Y-126649142D01*
X33669571Y-126601523D01*
X33764809Y-126553904D01*
X33193380Y-127744380D02*
X33193380Y-127839619D01*
X33241000Y-127934857D01*
X33288619Y-127982476D01*
X33383857Y-128030095D01*
X33574333Y-128077714D01*
X33812428Y-128077714D01*
X34002904Y-128030095D01*
X34098142Y-127982476D01*
X34145761Y-127934857D01*
X34193380Y-127839619D01*
X34193380Y-127744380D01*
X34145761Y-127649142D01*
X34098142Y-127601523D01*
X34002904Y-127553904D01*
X33812428Y-127506285D01*
X33574333Y-127506285D01*
X33383857Y-127553904D01*
X33288619Y-127601523D01*
X33241000Y-127649142D01*
X33193380Y-127744380D01*
X34193380Y-129030095D02*
X34193380Y-128458666D01*
X34193380Y-128744380D02*
X33193380Y-128744380D01*
X33336238Y-128649142D01*
X33431476Y-128553904D01*
X33479095Y-128458666D01*
X36568380Y-144601523D02*
X35568380Y-144601523D01*
X35568380Y-144839619D01*
X35616000Y-144982476D01*
X35711238Y-145077714D01*
X35806476Y-145125333D01*
X35996952Y-145172952D01*
X36139809Y-145172952D01*
X36330285Y-145125333D01*
X36425523Y-145077714D01*
X36520761Y-144982476D01*
X36568380Y-144839619D01*
X36568380Y-144601523D01*
X35568380Y-146030095D02*
X35568380Y-145839619D01*
X35616000Y-145744380D01*
X35663619Y-145696761D01*
X35806476Y-145601523D01*
X35996952Y-145553904D01*
X36377904Y-145553904D01*
X36473142Y-145601523D01*
X36520761Y-145649142D01*
X36568380Y-145744380D01*
X36568380Y-145934857D01*
X36520761Y-146030095D01*
X36473142Y-146077714D01*
X36377904Y-146125333D01*
X36139809Y-146125333D01*
X36044571Y-146077714D01*
X35996952Y-146030095D01*
X35949333Y-145934857D01*
X35949333Y-145744380D01*
X35996952Y-145649142D01*
X36044571Y-145601523D01*
X36139809Y-145553904D01*
X35568380Y-146744380D02*
X35568380Y-146839619D01*
X35616000Y-146934857D01*
X35663619Y-146982476D01*
X35758857Y-147030095D01*
X35949333Y-147077714D01*
X36187428Y-147077714D01*
X36377904Y-147030095D01*
X36473142Y-146982476D01*
X36520761Y-146934857D01*
X36568380Y-146839619D01*
X36568380Y-146744380D01*
X36520761Y-146649142D01*
X36473142Y-146601523D01*
X36377904Y-146553904D01*
X36187428Y-146506285D01*
X35949333Y-146506285D01*
X35758857Y-146553904D01*
X35663619Y-146601523D01*
X35616000Y-146649142D01*
X35568380Y-146744380D01*
X35663619Y-147458666D02*
X35616000Y-147506285D01*
X35568380Y-147601523D01*
X35568380Y-147839619D01*
X35616000Y-147934857D01*
X35663619Y-147982476D01*
X35758857Y-148030095D01*
X35854095Y-148030095D01*
X35996952Y-147982476D01*
X36568380Y-147411047D01*
X36568380Y-148030095D01*
X271693380Y-144601523D02*
X270693380Y-144601523D01*
X270693380Y-144839619D01*
X270741000Y-144982476D01*
X270836238Y-145077714D01*
X270931476Y-145125333D01*
X271121952Y-145172952D01*
X271264809Y-145172952D01*
X271455285Y-145125333D01*
X271550523Y-145077714D01*
X271645761Y-144982476D01*
X271693380Y-144839619D01*
X271693380Y-144601523D01*
X271026714Y-146030095D02*
X271693380Y-146030095D01*
X270645761Y-145792000D02*
X271360047Y-145553904D01*
X271360047Y-146172952D01*
X271693380Y-147077714D02*
X271693380Y-146506285D01*
X271693380Y-146792000D02*
X270693380Y-146792000D01*
X270836238Y-146696761D01*
X270931476Y-146601523D01*
X270979095Y-146506285D01*
X271693380Y-148030095D02*
X271693380Y-147458666D01*
X271693380Y-147744380D02*
X270693380Y-147744380D01*
X270836238Y-147649142D01*
X270931476Y-147553904D01*
X270979095Y-147458666D01*
X124443380Y-78101523D02*
X123443380Y-78101523D01*
X123443380Y-78339619D01*
X123491000Y-78482476D01*
X123586238Y-78577714D01*
X123681476Y-78625333D01*
X123871952Y-78672952D01*
X124014809Y-78672952D01*
X124205285Y-78625333D01*
X124300523Y-78577714D01*
X124395761Y-78482476D01*
X124443380Y-78339619D01*
X124443380Y-78101523D01*
X124443380Y-79625333D02*
X124443380Y-79053904D01*
X124443380Y-79339619D02*
X123443380Y-79339619D01*
X123586238Y-79244380D01*
X123681476Y-79149142D01*
X123729095Y-79053904D01*
X123443380Y-80244380D02*
X123443380Y-80339619D01*
X123491000Y-80434857D01*
X123538619Y-80482476D01*
X123633857Y-80530095D01*
X123824333Y-80577714D01*
X124062428Y-80577714D01*
X124252904Y-80530095D01*
X124348142Y-80482476D01*
X124395761Y-80434857D01*
X124443380Y-80339619D01*
X124443380Y-80244380D01*
X124395761Y-80149142D01*
X124348142Y-80101523D01*
X124252904Y-80053904D01*
X124062428Y-80006285D01*
X123824333Y-80006285D01*
X123633857Y-80053904D01*
X123538619Y-80101523D01*
X123491000Y-80149142D01*
X123443380Y-80244380D01*
X123776714Y-81434857D02*
X124443380Y-81434857D01*
X123395761Y-81196761D02*
X124110047Y-80958666D01*
X124110047Y-81577714D01*
X243193380Y-163601523D02*
X242193380Y-163601523D01*
X242193380Y-163839619D01*
X242241000Y-163982476D01*
X242336238Y-164077714D01*
X242431476Y-164125333D01*
X242621952Y-164172952D01*
X242764809Y-164172952D01*
X242955285Y-164125333D01*
X243050523Y-164077714D01*
X243145761Y-163982476D01*
X243193380Y-163839619D01*
X243193380Y-163601523D01*
X242193380Y-165077714D02*
X242193380Y-164601523D01*
X242669571Y-164553904D01*
X242621952Y-164601523D01*
X242574333Y-164696761D01*
X242574333Y-164934857D01*
X242621952Y-165030095D01*
X242669571Y-165077714D01*
X242764809Y-165125333D01*
X243002904Y-165125333D01*
X243098142Y-165077714D01*
X243145761Y-165030095D01*
X243193380Y-164934857D01*
X243193380Y-164696761D01*
X243145761Y-164601523D01*
X243098142Y-164553904D01*
X243193380Y-166077714D02*
X243193380Y-165506285D01*
X243193380Y-165792000D02*
X242193380Y-165792000D01*
X242336238Y-165696761D01*
X242431476Y-165601523D01*
X242479095Y-165506285D01*
X242193380Y-166696761D02*
X242193380Y-166792000D01*
X242241000Y-166887238D01*
X242288619Y-166934857D01*
X242383857Y-166982476D01*
X242574333Y-167030095D01*
X242812428Y-167030095D01*
X243002904Y-166982476D01*
X243098142Y-166934857D01*
X243145761Y-166887238D01*
X243193380Y-166792000D01*
X243193380Y-166696761D01*
X243145761Y-166601523D01*
X243098142Y-166553904D01*
X243002904Y-166506285D01*
X242812428Y-166458666D01*
X242574333Y-166458666D01*
X242383857Y-166506285D01*
X242288619Y-166553904D01*
X242241000Y-166601523D01*
X242193380Y-166696761D01*
X24952380Y-145357142D02*
X24476190Y-145023809D01*
X24952380Y-144785714D02*
X23952380Y-144785714D01*
X23952380Y-145166666D01*
X24000000Y-145261904D01*
X24047619Y-145309523D01*
X24142857Y-145357142D01*
X24285714Y-145357142D01*
X24380952Y-145309523D01*
X24428571Y-145261904D01*
X24476190Y-145166666D01*
X24476190Y-144785714D01*
X24952380Y-146309523D02*
X24952380Y-145738095D01*
X24952380Y-146023809D02*
X23952380Y-146023809D01*
X24095238Y-145928571D01*
X24190476Y-145833333D01*
X24238095Y-145738095D01*
X23952380Y-146642857D02*
X23952380Y-147309523D01*
X24952380Y-146880952D01*
X100693380Y-144601523D02*
X99693380Y-144601523D01*
X99693380Y-144839619D01*
X99741000Y-144982476D01*
X99836238Y-145077714D01*
X99931476Y-145125333D01*
X100121952Y-145172952D01*
X100264809Y-145172952D01*
X100455285Y-145125333D01*
X100550523Y-145077714D01*
X100645761Y-144982476D01*
X100693380Y-144839619D01*
X100693380Y-144601523D01*
X100026714Y-146030095D02*
X100693380Y-146030095D01*
X99645761Y-145792000D02*
X100360047Y-145553904D01*
X100360047Y-146172952D01*
X99693380Y-146744380D02*
X99693380Y-146839619D01*
X99741000Y-146934857D01*
X99788619Y-146982476D01*
X99883857Y-147030095D01*
X100074333Y-147077714D01*
X100312428Y-147077714D01*
X100502904Y-147030095D01*
X100598142Y-146982476D01*
X100645761Y-146934857D01*
X100693380Y-146839619D01*
X100693380Y-146744380D01*
X100645761Y-146649142D01*
X100598142Y-146601523D01*
X100502904Y-146553904D01*
X100312428Y-146506285D01*
X100074333Y-146506285D01*
X99883857Y-146553904D01*
X99788619Y-146601523D01*
X99741000Y-146649142D01*
X99693380Y-146744380D01*
X99788619Y-147458666D02*
X99741000Y-147506285D01*
X99693380Y-147601523D01*
X99693380Y-147839619D01*
X99741000Y-147934857D01*
X99788619Y-147982476D01*
X99883857Y-148030095D01*
X99979095Y-148030095D01*
X100121952Y-147982476D01*
X100693380Y-147411047D01*
X100693380Y-148030095D01*
X228943380Y-125601523D02*
X227943380Y-125601523D01*
X227943380Y-125839619D01*
X227991000Y-125982476D01*
X228086238Y-126077714D01*
X228181476Y-126125333D01*
X228371952Y-126172952D01*
X228514809Y-126172952D01*
X228705285Y-126125333D01*
X228800523Y-126077714D01*
X228895761Y-125982476D01*
X228943380Y-125839619D01*
X228943380Y-125601523D01*
X227943380Y-126506285D02*
X227943380Y-127125333D01*
X228324333Y-126792000D01*
X228324333Y-126934857D01*
X228371952Y-127030095D01*
X228419571Y-127077714D01*
X228514809Y-127125333D01*
X228752904Y-127125333D01*
X228848142Y-127077714D01*
X228895761Y-127030095D01*
X228943380Y-126934857D01*
X228943380Y-126649142D01*
X228895761Y-126553904D01*
X228848142Y-126506285D01*
X227943380Y-127744380D02*
X227943380Y-127839619D01*
X227991000Y-127934857D01*
X228038619Y-127982476D01*
X228133857Y-128030095D01*
X228324333Y-128077714D01*
X228562428Y-128077714D01*
X228752904Y-128030095D01*
X228848142Y-127982476D01*
X228895761Y-127934857D01*
X228943380Y-127839619D01*
X228943380Y-127744380D01*
X228895761Y-127649142D01*
X228848142Y-127601523D01*
X228752904Y-127553904D01*
X228562428Y-127506285D01*
X228324333Y-127506285D01*
X228133857Y-127553904D01*
X228038619Y-127601523D01*
X227991000Y-127649142D01*
X227943380Y-127744380D01*
X228943380Y-128553904D02*
X228943380Y-128744380D01*
X228895761Y-128839619D01*
X228848142Y-128887238D01*
X228705285Y-128982476D01*
X228514809Y-129030095D01*
X228133857Y-129030095D01*
X228038619Y-128982476D01*
X227991000Y-128934857D01*
X227943380Y-128839619D01*
X227943380Y-128649142D01*
X227991000Y-128553904D01*
X228038619Y-128506285D01*
X228133857Y-128458666D01*
X228371952Y-128458666D01*
X228467190Y-128506285D01*
X228514809Y-128553904D01*
X228562428Y-128649142D01*
X228562428Y-128839619D01*
X228514809Y-128934857D01*
X228467190Y-128982476D01*
X228371952Y-129030095D01*
X105443380Y-78101523D02*
X104443380Y-78101523D01*
X104443380Y-78339619D01*
X104491000Y-78482476D01*
X104586238Y-78577714D01*
X104681476Y-78625333D01*
X104871952Y-78672952D01*
X105014809Y-78672952D01*
X105205285Y-78625333D01*
X105300523Y-78577714D01*
X105395761Y-78482476D01*
X105443380Y-78339619D01*
X105443380Y-78101523D01*
X105443380Y-79625333D02*
X105443380Y-79053904D01*
X105443380Y-79339619D02*
X104443380Y-79339619D01*
X104586238Y-79244380D01*
X104681476Y-79149142D01*
X104729095Y-79053904D01*
X104443380Y-80244380D02*
X104443380Y-80339619D01*
X104491000Y-80434857D01*
X104538619Y-80482476D01*
X104633857Y-80530095D01*
X104824333Y-80577714D01*
X105062428Y-80577714D01*
X105252904Y-80530095D01*
X105348142Y-80482476D01*
X105395761Y-80434857D01*
X105443380Y-80339619D01*
X105443380Y-80244380D01*
X105395761Y-80149142D01*
X105348142Y-80101523D01*
X105252904Y-80053904D01*
X105062428Y-80006285D01*
X104824333Y-80006285D01*
X104633857Y-80053904D01*
X104538619Y-80101523D01*
X104491000Y-80149142D01*
X104443380Y-80244380D01*
X104443380Y-80911047D02*
X104443380Y-81530095D01*
X104824333Y-81196761D01*
X104824333Y-81339619D01*
X104871952Y-81434857D01*
X104919571Y-81482476D01*
X105014809Y-81530095D01*
X105252904Y-81530095D01*
X105348142Y-81482476D01*
X105395761Y-81434857D01*
X105443380Y-81339619D01*
X105443380Y-81053904D01*
X105395761Y-80958666D01*
X105348142Y-80911047D01*
X190943380Y-78101523D02*
X189943380Y-78101523D01*
X189943380Y-78339619D01*
X189991000Y-78482476D01*
X190086238Y-78577714D01*
X190181476Y-78625333D01*
X190371952Y-78672952D01*
X190514809Y-78672952D01*
X190705285Y-78625333D01*
X190800523Y-78577714D01*
X190895761Y-78482476D01*
X190943380Y-78339619D01*
X190943380Y-78101523D01*
X190943380Y-79625333D02*
X190943380Y-79053904D01*
X190943380Y-79339619D02*
X189943380Y-79339619D01*
X190086238Y-79244380D01*
X190181476Y-79149142D01*
X190229095Y-79053904D01*
X189943380Y-80244380D02*
X189943380Y-80339619D01*
X189991000Y-80434857D01*
X190038619Y-80482476D01*
X190133857Y-80530095D01*
X190324333Y-80577714D01*
X190562428Y-80577714D01*
X190752904Y-80530095D01*
X190848142Y-80482476D01*
X190895761Y-80434857D01*
X190943380Y-80339619D01*
X190943380Y-80244380D01*
X190895761Y-80149142D01*
X190848142Y-80101523D01*
X190752904Y-80053904D01*
X190562428Y-80006285D01*
X190324333Y-80006285D01*
X190133857Y-80053904D01*
X190038619Y-80101523D01*
X189991000Y-80149142D01*
X189943380Y-80244380D01*
X189943380Y-80911047D02*
X189943380Y-81577714D01*
X190943380Y-81149142D01*
X371714285Y-96952380D02*
X371809523Y-96904761D01*
X371857142Y-96809523D01*
X371857142Y-95952380D01*
X371190476Y-96952380D02*
X371285714Y-96904761D01*
X371333333Y-96857142D01*
X371380952Y-96761904D01*
X371380952Y-96476190D01*
X371333333Y-96380952D01*
X371285714Y-96333333D01*
X371190476Y-96285714D01*
X371047619Y-96285714D01*
X370952380Y-96333333D01*
X370904761Y-96380952D01*
X370857142Y-96476190D01*
X370857142Y-96761904D01*
X370904761Y-96857142D01*
X370952380Y-96904761D01*
X371047619Y-96952380D01*
X371190476Y-96952380D01*
X370000000Y-96285714D02*
X370000000Y-97095238D01*
X370047619Y-97190476D01*
X370095238Y-97238095D01*
X370190476Y-97285714D01*
X370333333Y-97285714D01*
X370428571Y-97238095D01*
X370000000Y-96904761D02*
X370095238Y-96952380D01*
X370285714Y-96952380D01*
X370380952Y-96904761D01*
X370428571Y-96857142D01*
X370476190Y-96761904D01*
X370476190Y-96476190D01*
X370428571Y-96380952D01*
X370380952Y-96333333D01*
X370285714Y-96285714D01*
X370095238Y-96285714D01*
X370000000Y-96333333D01*
X369380952Y-96952380D02*
X369476190Y-96904761D01*
X369523809Y-96857142D01*
X369571428Y-96761904D01*
X369571428Y-96476190D01*
X369523809Y-96380952D01*
X369476190Y-96333333D01*
X369380952Y-96285714D01*
X369238095Y-96285714D01*
X369142857Y-96333333D01*
X369095238Y-96380952D01*
X369047619Y-96476190D01*
X369047619Y-96761904D01*
X369095238Y-96857142D01*
X369142857Y-96904761D01*
X369238095Y-96952380D01*
X369380952Y-96952380D01*
X368142857Y-95952380D02*
X368619047Y-95952380D01*
X368666666Y-96428571D01*
X368619047Y-96380952D01*
X368523809Y-96333333D01*
X368285714Y-96333333D01*
X368190476Y-96380952D01*
X368142857Y-96428571D01*
X368095238Y-96523809D01*
X368095238Y-96761904D01*
X368142857Y-96857142D01*
X368190476Y-96904761D01*
X368285714Y-96952380D01*
X368523809Y-96952380D01*
X368619047Y-96904761D01*
X368666666Y-96857142D01*
X374619047Y-98452380D02*
X374619047Y-99166666D01*
X374666666Y-99309523D01*
X374761904Y-99404761D01*
X374904761Y-99452380D01*
X375000000Y-99452380D01*
X373666666Y-99452380D02*
X374142857Y-99452380D01*
X374142857Y-98452380D01*
X372761904Y-99357142D02*
X372809523Y-99404761D01*
X372952380Y-99452380D01*
X373047619Y-99452380D01*
X373190476Y-99404761D01*
X373285714Y-99309523D01*
X373333333Y-99214285D01*
X373380952Y-99023809D01*
X373380952Y-98880952D01*
X373333333Y-98690476D01*
X373285714Y-98595238D01*
X373190476Y-98500000D01*
X373047619Y-98452380D01*
X372952380Y-98452380D01*
X372809523Y-98500000D01*
X372761904Y-98547619D01*
X372047619Y-98452380D02*
X372047619Y-99166666D01*
X372095238Y-99309523D01*
X372190476Y-99404761D01*
X372333333Y-99452380D01*
X372428571Y-99452380D01*
X371095238Y-99452380D02*
X371571428Y-99452380D01*
X371571428Y-98452380D01*
X370190476Y-99357142D02*
X370238095Y-99404761D01*
X370380952Y-99452380D01*
X370476190Y-99452380D01*
X370619047Y-99404761D01*
X370714285Y-99309523D01*
X370761904Y-99214285D01*
X370809523Y-99023809D01*
X370809523Y-98880952D01*
X370761904Y-98690476D01*
X370714285Y-98595238D01*
X370619047Y-98500000D01*
X370476190Y-98452380D01*
X370380952Y-98452380D01*
X370238095Y-98500000D01*
X370190476Y-98547619D01*
X369476190Y-98452380D02*
X369476190Y-99166666D01*
X369523809Y-99309523D01*
X369619047Y-99404761D01*
X369761904Y-99452380D01*
X369857142Y-99452380D01*
X368523809Y-99452380D02*
X369000000Y-99452380D01*
X369000000Y-98452380D01*
X367619047Y-99357142D02*
X367666666Y-99404761D01*
X367809523Y-99452380D01*
X367904761Y-99452380D01*
X368047619Y-99404761D01*
X368142857Y-99309523D01*
X368190476Y-99214285D01*
X368238095Y-99023809D01*
X368238095Y-98880952D01*
X368190476Y-98690476D01*
X368142857Y-98595238D01*
X368047619Y-98500000D01*
X367904761Y-98452380D01*
X367809523Y-98452380D01*
X367666666Y-98500000D01*
X367619047Y-98547619D01*
X366904761Y-98452380D02*
X366904761Y-99166666D01*
X366952380Y-99309523D01*
X367047619Y-99404761D01*
X367190476Y-99452380D01*
X367285714Y-99452380D01*
X365952380Y-99452380D02*
X366428571Y-99452380D01*
X366428571Y-98452380D01*
X365047619Y-99357142D02*
X365095238Y-99404761D01*
X365238095Y-99452380D01*
X365333333Y-99452380D01*
X365476190Y-99404761D01*
X365571428Y-99309523D01*
X365619047Y-99214285D01*
X365666666Y-99023809D01*
X365666666Y-98880952D01*
X365619047Y-98690476D01*
X365571428Y-98595238D01*
X365476190Y-98500000D01*
X365333333Y-98452380D01*
X365238095Y-98452380D01*
X365095238Y-98500000D01*
X365047619Y-98547619D01*
X29443380Y-106601523D02*
X28443380Y-106601523D01*
X28443380Y-106839619D01*
X28491000Y-106982476D01*
X28586238Y-107077714D01*
X28681476Y-107125333D01*
X28871952Y-107172952D01*
X29014809Y-107172952D01*
X29205285Y-107125333D01*
X29300523Y-107077714D01*
X29395761Y-106982476D01*
X29443380Y-106839619D01*
X29443380Y-106601523D01*
X28443380Y-108030095D02*
X28443380Y-107839619D01*
X28491000Y-107744380D01*
X28538619Y-107696761D01*
X28681476Y-107601523D01*
X28871952Y-107553904D01*
X29252904Y-107553904D01*
X29348142Y-107601523D01*
X29395761Y-107649142D01*
X29443380Y-107744380D01*
X29443380Y-107934857D01*
X29395761Y-108030095D01*
X29348142Y-108077714D01*
X29252904Y-108125333D01*
X29014809Y-108125333D01*
X28919571Y-108077714D01*
X28871952Y-108030095D01*
X28824333Y-107934857D01*
X28824333Y-107744380D01*
X28871952Y-107649142D01*
X28919571Y-107601523D01*
X29014809Y-107553904D01*
X28443380Y-108744380D02*
X28443380Y-108839619D01*
X28491000Y-108934857D01*
X28538619Y-108982476D01*
X28633857Y-109030095D01*
X28824333Y-109077714D01*
X29062428Y-109077714D01*
X29252904Y-109030095D01*
X29348142Y-108982476D01*
X29395761Y-108934857D01*
X29443380Y-108839619D01*
X29443380Y-108744380D01*
X29395761Y-108649142D01*
X29348142Y-108601523D01*
X29252904Y-108553904D01*
X29062428Y-108506285D01*
X28824333Y-108506285D01*
X28633857Y-108553904D01*
X28538619Y-108601523D01*
X28491000Y-108649142D01*
X28443380Y-108744380D01*
X28443380Y-109696761D02*
X28443380Y-109792000D01*
X28491000Y-109887238D01*
X28538619Y-109934857D01*
X28633857Y-109982476D01*
X28824333Y-110030095D01*
X29062428Y-110030095D01*
X29252904Y-109982476D01*
X29348142Y-109934857D01*
X29395761Y-109887238D01*
X29443380Y-109792000D01*
X29443380Y-109696761D01*
X29395761Y-109601523D01*
X29348142Y-109553904D01*
X29252904Y-109506285D01*
X29062428Y-109458666D01*
X28824333Y-109458666D01*
X28633857Y-109506285D01*
X28538619Y-109553904D01*
X28491000Y-109601523D01*
X28443380Y-109696761D01*
X362142857Y-203552380D02*
X362476190Y-203076190D01*
X362714285Y-203552380D02*
X362714285Y-202552380D01*
X362333333Y-202552380D01*
X362238095Y-202600000D01*
X362190476Y-202647619D01*
X362142857Y-202742857D01*
X362142857Y-202885714D01*
X362190476Y-202980952D01*
X362238095Y-203028571D01*
X362333333Y-203076190D01*
X362714285Y-203076190D01*
X361190476Y-203552380D02*
X361761904Y-203552380D01*
X361476190Y-203552380D02*
X361476190Y-202552380D01*
X361571428Y-202695238D01*
X361666666Y-202790476D01*
X361761904Y-202838095D01*
X360714285Y-203552380D02*
X360523809Y-203552380D01*
X360428571Y-203504761D01*
X360380952Y-203457142D01*
X360285714Y-203314285D01*
X360238095Y-203123809D01*
X360238095Y-202742857D01*
X360285714Y-202647619D01*
X360333333Y-202600000D01*
X360428571Y-202552380D01*
X360619047Y-202552380D01*
X360714285Y-202600000D01*
X360761904Y-202647619D01*
X360809523Y-202742857D01*
X360809523Y-202980952D01*
X360761904Y-203076190D01*
X360714285Y-203123809D01*
X360619047Y-203171428D01*
X360428571Y-203171428D01*
X360333333Y-203123809D01*
X360285714Y-203076190D01*
X360238095Y-202980952D01*
X323943380Y-106601523D02*
X322943380Y-106601523D01*
X322943380Y-106839619D01*
X322991000Y-106982476D01*
X323086238Y-107077714D01*
X323181476Y-107125333D01*
X323371952Y-107172952D01*
X323514809Y-107172952D01*
X323705285Y-107125333D01*
X323800523Y-107077714D01*
X323895761Y-106982476D01*
X323943380Y-106839619D01*
X323943380Y-106601523D01*
X323038619Y-107553904D02*
X322991000Y-107601523D01*
X322943380Y-107696761D01*
X322943380Y-107934857D01*
X322991000Y-108030095D01*
X323038619Y-108077714D01*
X323133857Y-108125333D01*
X323229095Y-108125333D01*
X323371952Y-108077714D01*
X323943380Y-107506285D01*
X323943380Y-108125333D01*
X323943380Y-109077714D02*
X323943380Y-108506285D01*
X323943380Y-108792000D02*
X322943380Y-108792000D01*
X323086238Y-108696761D01*
X323181476Y-108601523D01*
X323229095Y-108506285D01*
X322943380Y-109411047D02*
X322943380Y-110030095D01*
X323324333Y-109696761D01*
X323324333Y-109839619D01*
X323371952Y-109934857D01*
X323419571Y-109982476D01*
X323514809Y-110030095D01*
X323752904Y-110030095D01*
X323848142Y-109982476D01*
X323895761Y-109934857D01*
X323943380Y-109839619D01*
X323943380Y-109553904D01*
X323895761Y-109458666D01*
X323848142Y-109411047D01*
X342943380Y-163601523D02*
X341943380Y-163601523D01*
X341943380Y-163839619D01*
X341991000Y-163982476D01*
X342086238Y-164077714D01*
X342181476Y-164125333D01*
X342371952Y-164172952D01*
X342514809Y-164172952D01*
X342705285Y-164125333D01*
X342800523Y-164077714D01*
X342895761Y-163982476D01*
X342943380Y-163839619D01*
X342943380Y-163601523D01*
X341943380Y-165077714D02*
X341943380Y-164601523D01*
X342419571Y-164553904D01*
X342371952Y-164601523D01*
X342324333Y-164696761D01*
X342324333Y-164934857D01*
X342371952Y-165030095D01*
X342419571Y-165077714D01*
X342514809Y-165125333D01*
X342752904Y-165125333D01*
X342848142Y-165077714D01*
X342895761Y-165030095D01*
X342943380Y-164934857D01*
X342943380Y-164696761D01*
X342895761Y-164601523D01*
X342848142Y-164553904D01*
X342943380Y-166077714D02*
X342943380Y-165506285D01*
X342943380Y-165792000D02*
X341943380Y-165792000D01*
X342086238Y-165696761D01*
X342181476Y-165601523D01*
X342229095Y-165506285D01*
X342038619Y-166458666D02*
X341991000Y-166506285D01*
X341943380Y-166601523D01*
X341943380Y-166839619D01*
X341991000Y-166934857D01*
X342038619Y-166982476D01*
X342133857Y-167030095D01*
X342229095Y-167030095D01*
X342371952Y-166982476D01*
X342943380Y-166411047D01*
X342943380Y-167030095D01*
X373842857Y-203552380D02*
X374319047Y-203552380D01*
X374319047Y-202552380D01*
X372985714Y-203552380D02*
X373557142Y-203552380D01*
X373271428Y-203552380D02*
X373271428Y-202552380D01*
X373366666Y-202695238D01*
X373461904Y-202790476D01*
X373557142Y-202838095D01*
X372604761Y-202647619D02*
X372557142Y-202600000D01*
X372461904Y-202552380D01*
X372223809Y-202552380D01*
X372128571Y-202600000D01*
X372080952Y-202647619D01*
X372033333Y-202742857D01*
X372033333Y-202838095D01*
X372080952Y-202980952D01*
X372652380Y-203552380D01*
X372033333Y-203552380D01*
X57943380Y-182601523D02*
X56943380Y-182601523D01*
X56943380Y-182839619D01*
X56991000Y-182982476D01*
X57086238Y-183077714D01*
X57181476Y-183125333D01*
X57371952Y-183172952D01*
X57514809Y-183172952D01*
X57705285Y-183125333D01*
X57800523Y-183077714D01*
X57895761Y-182982476D01*
X57943380Y-182839619D01*
X57943380Y-182601523D01*
X56943380Y-184030095D02*
X56943380Y-183839619D01*
X56991000Y-183744380D01*
X57038619Y-183696761D01*
X57181476Y-183601523D01*
X57371952Y-183553904D01*
X57752904Y-183553904D01*
X57848142Y-183601523D01*
X57895761Y-183649142D01*
X57943380Y-183744380D01*
X57943380Y-183934857D01*
X57895761Y-184030095D01*
X57848142Y-184077714D01*
X57752904Y-184125333D01*
X57514809Y-184125333D01*
X57419571Y-184077714D01*
X57371952Y-184030095D01*
X57324333Y-183934857D01*
X57324333Y-183744380D01*
X57371952Y-183649142D01*
X57419571Y-183601523D01*
X57514809Y-183553904D01*
X56943380Y-184744380D02*
X56943380Y-184839619D01*
X56991000Y-184934857D01*
X57038619Y-184982476D01*
X57133857Y-185030095D01*
X57324333Y-185077714D01*
X57562428Y-185077714D01*
X57752904Y-185030095D01*
X57848142Y-184982476D01*
X57895761Y-184934857D01*
X57943380Y-184839619D01*
X57943380Y-184744380D01*
X57895761Y-184649142D01*
X57848142Y-184601523D01*
X57752904Y-184553904D01*
X57562428Y-184506285D01*
X57324333Y-184506285D01*
X57133857Y-184553904D01*
X57038619Y-184601523D01*
X56991000Y-184649142D01*
X56943380Y-184744380D01*
X56943380Y-185982476D02*
X56943380Y-185506285D01*
X57419571Y-185458666D01*
X57371952Y-185506285D01*
X57324333Y-185601523D01*
X57324333Y-185839619D01*
X57371952Y-185934857D01*
X57419571Y-185982476D01*
X57514809Y-186030095D01*
X57752904Y-186030095D01*
X57848142Y-185982476D01*
X57895761Y-185934857D01*
X57943380Y-185839619D01*
X57943380Y-185601523D01*
X57895761Y-185506285D01*
X57848142Y-185458666D01*
X171943380Y-125601523D02*
X170943380Y-125601523D01*
X170943380Y-125839619D01*
X170991000Y-125982476D01*
X171086238Y-126077714D01*
X171181476Y-126125333D01*
X171371952Y-126172952D01*
X171514809Y-126172952D01*
X171705285Y-126125333D01*
X171800523Y-126077714D01*
X171895761Y-125982476D01*
X171943380Y-125839619D01*
X171943380Y-125601523D01*
X170943380Y-126506285D02*
X170943380Y-127125333D01*
X171324333Y-126792000D01*
X171324333Y-126934857D01*
X171371952Y-127030095D01*
X171419571Y-127077714D01*
X171514809Y-127125333D01*
X171752904Y-127125333D01*
X171848142Y-127077714D01*
X171895761Y-127030095D01*
X171943380Y-126934857D01*
X171943380Y-126649142D01*
X171895761Y-126553904D01*
X171848142Y-126506285D01*
X170943380Y-127744380D02*
X170943380Y-127839619D01*
X170991000Y-127934857D01*
X171038619Y-127982476D01*
X171133857Y-128030095D01*
X171324333Y-128077714D01*
X171562428Y-128077714D01*
X171752904Y-128030095D01*
X171848142Y-127982476D01*
X171895761Y-127934857D01*
X171943380Y-127839619D01*
X171943380Y-127744380D01*
X171895761Y-127649142D01*
X171848142Y-127601523D01*
X171752904Y-127553904D01*
X171562428Y-127506285D01*
X171324333Y-127506285D01*
X171133857Y-127553904D01*
X171038619Y-127601523D01*
X170991000Y-127649142D01*
X170943380Y-127744380D01*
X170943380Y-128934857D02*
X170943380Y-128744380D01*
X170991000Y-128649142D01*
X171038619Y-128601523D01*
X171181476Y-128506285D01*
X171371952Y-128458666D01*
X171752904Y-128458666D01*
X171848142Y-128506285D01*
X171895761Y-128553904D01*
X171943380Y-128649142D01*
X171943380Y-128839619D01*
X171895761Y-128934857D01*
X171848142Y-128982476D01*
X171752904Y-129030095D01*
X171514809Y-129030095D01*
X171419571Y-128982476D01*
X171371952Y-128934857D01*
X171324333Y-128839619D01*
X171324333Y-128649142D01*
X171371952Y-128553904D01*
X171419571Y-128506285D01*
X171514809Y-128458666D01*
X24952380Y-133657142D02*
X24952380Y-133180952D01*
X23952380Y-133180952D01*
X24952380Y-134514285D02*
X24952380Y-133942857D01*
X24952380Y-134228571D02*
X23952380Y-134228571D01*
X24095238Y-134133333D01*
X24190476Y-134038095D01*
X24238095Y-133942857D01*
X23952380Y-135133333D02*
X23952380Y-135228571D01*
X24000000Y-135323809D01*
X24047619Y-135371428D01*
X24142857Y-135419047D01*
X24333333Y-135466666D01*
X24571428Y-135466666D01*
X24761904Y-135419047D01*
X24857142Y-135371428D01*
X24904761Y-135323809D01*
X24952380Y-135228571D01*
X24952380Y-135133333D01*
X24904761Y-135038095D01*
X24857142Y-134990476D01*
X24761904Y-134942857D01*
X24571428Y-134895238D01*
X24333333Y-134895238D01*
X24142857Y-134942857D01*
X24047619Y-134990476D01*
X24000000Y-135038095D01*
X23952380Y-135133333D01*
X285943380Y-106601523D02*
X284943380Y-106601523D01*
X284943380Y-106839619D01*
X284991000Y-106982476D01*
X285086238Y-107077714D01*
X285181476Y-107125333D01*
X285371952Y-107172952D01*
X285514809Y-107172952D01*
X285705285Y-107125333D01*
X285800523Y-107077714D01*
X285895761Y-106982476D01*
X285943380Y-106839619D01*
X285943380Y-106601523D01*
X285038619Y-107553904D02*
X284991000Y-107601523D01*
X284943380Y-107696761D01*
X284943380Y-107934857D01*
X284991000Y-108030095D01*
X285038619Y-108077714D01*
X285133857Y-108125333D01*
X285229095Y-108125333D01*
X285371952Y-108077714D01*
X285943380Y-107506285D01*
X285943380Y-108125333D01*
X285943380Y-109077714D02*
X285943380Y-108506285D01*
X285943380Y-108792000D02*
X284943380Y-108792000D01*
X285086238Y-108696761D01*
X285181476Y-108601523D01*
X285229095Y-108506285D01*
X285038619Y-109458666D02*
X284991000Y-109506285D01*
X284943380Y-109601523D01*
X284943380Y-109839619D01*
X284991000Y-109934857D01*
X285038619Y-109982476D01*
X285133857Y-110030095D01*
X285229095Y-110030095D01*
X285371952Y-109982476D01*
X285943380Y-109411047D01*
X285943380Y-110030095D01*
X76943380Y-125601523D02*
X75943380Y-125601523D01*
X75943380Y-125839619D01*
X75991000Y-125982476D01*
X76086238Y-126077714D01*
X76181476Y-126125333D01*
X76371952Y-126172952D01*
X76514809Y-126172952D01*
X76705285Y-126125333D01*
X76800523Y-126077714D01*
X76895761Y-125982476D01*
X76943380Y-125839619D01*
X76943380Y-125601523D01*
X75943380Y-126506285D02*
X75943380Y-127125333D01*
X76324333Y-126792000D01*
X76324333Y-126934857D01*
X76371952Y-127030095D01*
X76419571Y-127077714D01*
X76514809Y-127125333D01*
X76752904Y-127125333D01*
X76848142Y-127077714D01*
X76895761Y-127030095D01*
X76943380Y-126934857D01*
X76943380Y-126649142D01*
X76895761Y-126553904D01*
X76848142Y-126506285D01*
X75943380Y-127744380D02*
X75943380Y-127839619D01*
X75991000Y-127934857D01*
X76038619Y-127982476D01*
X76133857Y-128030095D01*
X76324333Y-128077714D01*
X76562428Y-128077714D01*
X76752904Y-128030095D01*
X76848142Y-127982476D01*
X76895761Y-127934857D01*
X76943380Y-127839619D01*
X76943380Y-127744380D01*
X76895761Y-127649142D01*
X76848142Y-127601523D01*
X76752904Y-127553904D01*
X76562428Y-127506285D01*
X76324333Y-127506285D01*
X76133857Y-127553904D01*
X76038619Y-127601523D01*
X75991000Y-127649142D01*
X75943380Y-127744380D01*
X76943380Y-129030095D02*
X76943380Y-128458666D01*
X76943380Y-128744380D02*
X75943380Y-128744380D01*
X76086238Y-128649142D01*
X76181476Y-128553904D01*
X76229095Y-128458666D01*
X361943380Y-78101523D02*
X360943380Y-78101523D01*
X360943380Y-78339619D01*
X360991000Y-78482476D01*
X361086238Y-78577714D01*
X361181476Y-78625333D01*
X361371952Y-78672952D01*
X361514809Y-78672952D01*
X361705285Y-78625333D01*
X361800523Y-78577714D01*
X361895761Y-78482476D01*
X361943380Y-78339619D01*
X361943380Y-78101523D01*
X361943380Y-79625333D02*
X361943380Y-79053904D01*
X361943380Y-79339619D02*
X360943380Y-79339619D01*
X361086238Y-79244380D01*
X361181476Y-79149142D01*
X361229095Y-79053904D01*
X361943380Y-80577714D02*
X361943380Y-80006285D01*
X361943380Y-80292000D02*
X360943380Y-80292000D01*
X361086238Y-80196761D01*
X361181476Y-80101523D01*
X361229095Y-80006285D01*
X360943380Y-81482476D02*
X360943380Y-81006285D01*
X361419571Y-80958666D01*
X361371952Y-81006285D01*
X361324333Y-81101523D01*
X361324333Y-81339619D01*
X361371952Y-81434857D01*
X361419571Y-81482476D01*
X361514809Y-81530095D01*
X361752904Y-81530095D01*
X361848142Y-81482476D01*
X361895761Y-81434857D01*
X361943380Y-81339619D01*
X361943380Y-81101523D01*
X361895761Y-81006285D01*
X361848142Y-80958666D01*
X162443380Y-106601523D02*
X161443380Y-106601523D01*
X161443380Y-106839619D01*
X161491000Y-106982476D01*
X161586238Y-107077714D01*
X161681476Y-107125333D01*
X161871952Y-107172952D01*
X162014809Y-107172952D01*
X162205285Y-107125333D01*
X162300523Y-107077714D01*
X162395761Y-106982476D01*
X162443380Y-106839619D01*
X162443380Y-106601523D01*
X161538619Y-107553904D02*
X161491000Y-107601523D01*
X161443380Y-107696761D01*
X161443380Y-107934857D01*
X161491000Y-108030095D01*
X161538619Y-108077714D01*
X161633857Y-108125333D01*
X161729095Y-108125333D01*
X161871952Y-108077714D01*
X162443380Y-107506285D01*
X162443380Y-108125333D01*
X161443380Y-108744380D02*
X161443380Y-108839619D01*
X161491000Y-108934857D01*
X161538619Y-108982476D01*
X161633857Y-109030095D01*
X161824333Y-109077714D01*
X162062428Y-109077714D01*
X162252904Y-109030095D01*
X162348142Y-108982476D01*
X162395761Y-108934857D01*
X162443380Y-108839619D01*
X162443380Y-108744380D01*
X162395761Y-108649142D01*
X162348142Y-108601523D01*
X162252904Y-108553904D01*
X162062428Y-108506285D01*
X161824333Y-108506285D01*
X161633857Y-108553904D01*
X161538619Y-108601523D01*
X161491000Y-108649142D01*
X161443380Y-108744380D01*
X161443380Y-109934857D02*
X161443380Y-109744380D01*
X161491000Y-109649142D01*
X161538619Y-109601523D01*
X161681476Y-109506285D01*
X161871952Y-109458666D01*
X162252904Y-109458666D01*
X162348142Y-109506285D01*
X162395761Y-109553904D01*
X162443380Y-109649142D01*
X162443380Y-109839619D01*
X162395761Y-109934857D01*
X162348142Y-109982476D01*
X162252904Y-110030095D01*
X162014809Y-110030095D01*
X161919571Y-109982476D01*
X161871952Y-109934857D01*
X161824333Y-109839619D01*
X161824333Y-109649142D01*
X161871952Y-109553904D01*
X161919571Y-109506285D01*
X162014809Y-109458666D01*
X361943380Y-106601523D02*
X360943380Y-106601523D01*
X360943380Y-106839619D01*
X360991000Y-106982476D01*
X361086238Y-107077714D01*
X361181476Y-107125333D01*
X361371952Y-107172952D01*
X361514809Y-107172952D01*
X361705285Y-107125333D01*
X361800523Y-107077714D01*
X361895761Y-106982476D01*
X361943380Y-106839619D01*
X361943380Y-106601523D01*
X361038619Y-107553904D02*
X360991000Y-107601523D01*
X360943380Y-107696761D01*
X360943380Y-107934857D01*
X360991000Y-108030095D01*
X361038619Y-108077714D01*
X361133857Y-108125333D01*
X361229095Y-108125333D01*
X361371952Y-108077714D01*
X361943380Y-107506285D01*
X361943380Y-108125333D01*
X361943380Y-109077714D02*
X361943380Y-108506285D01*
X361943380Y-108792000D02*
X360943380Y-108792000D01*
X361086238Y-108696761D01*
X361181476Y-108601523D01*
X361229095Y-108506285D01*
X360943380Y-109982476D02*
X360943380Y-109506285D01*
X361419571Y-109458666D01*
X361371952Y-109506285D01*
X361324333Y-109601523D01*
X361324333Y-109839619D01*
X361371952Y-109934857D01*
X361419571Y-109982476D01*
X361514809Y-110030095D01*
X361752904Y-110030095D01*
X361848142Y-109982476D01*
X361895761Y-109934857D01*
X361943380Y-109839619D01*
X361943380Y-109601523D01*
X361895761Y-109506285D01*
X361848142Y-109458666D01*
X167193380Y-163601523D02*
X166193380Y-163601523D01*
X166193380Y-163839619D01*
X166241000Y-163982476D01*
X166336238Y-164077714D01*
X166431476Y-164125333D01*
X166621952Y-164172952D01*
X166764809Y-164172952D01*
X166955285Y-164125333D01*
X167050523Y-164077714D01*
X167145761Y-163982476D01*
X167193380Y-163839619D01*
X167193380Y-163601523D01*
X166193380Y-165077714D02*
X166193380Y-164601523D01*
X166669571Y-164553904D01*
X166621952Y-164601523D01*
X166574333Y-164696761D01*
X166574333Y-164934857D01*
X166621952Y-165030095D01*
X166669571Y-165077714D01*
X166764809Y-165125333D01*
X167002904Y-165125333D01*
X167098142Y-165077714D01*
X167145761Y-165030095D01*
X167193380Y-164934857D01*
X167193380Y-164696761D01*
X167145761Y-164601523D01*
X167098142Y-164553904D01*
X166193380Y-165744380D02*
X166193380Y-165839619D01*
X166241000Y-165934857D01*
X166288619Y-165982476D01*
X166383857Y-166030095D01*
X166574333Y-166077714D01*
X166812428Y-166077714D01*
X167002904Y-166030095D01*
X167098142Y-165982476D01*
X167145761Y-165934857D01*
X167193380Y-165839619D01*
X167193380Y-165744380D01*
X167145761Y-165649142D01*
X167098142Y-165601523D01*
X167002904Y-165553904D01*
X166812428Y-165506285D01*
X166574333Y-165506285D01*
X166383857Y-165553904D01*
X166288619Y-165601523D01*
X166241000Y-165649142D01*
X166193380Y-165744380D01*
X166193380Y-166934857D02*
X166193380Y-166744380D01*
X166241000Y-166649142D01*
X166288619Y-166601523D01*
X166431476Y-166506285D01*
X166621952Y-166458666D01*
X167002904Y-166458666D01*
X167098142Y-166506285D01*
X167145761Y-166553904D01*
X167193380Y-166649142D01*
X167193380Y-166839619D01*
X167145761Y-166934857D01*
X167098142Y-166982476D01*
X167002904Y-167030095D01*
X166764809Y-167030095D01*
X166669571Y-166982476D01*
X166621952Y-166934857D01*
X166574333Y-166839619D01*
X166574333Y-166649142D01*
X166621952Y-166553904D01*
X166669571Y-166506285D01*
X166764809Y-166458666D01*
X129193380Y-163601523D02*
X128193380Y-163601523D01*
X128193380Y-163839619D01*
X128241000Y-163982476D01*
X128336238Y-164077714D01*
X128431476Y-164125333D01*
X128621952Y-164172952D01*
X128764809Y-164172952D01*
X128955285Y-164125333D01*
X129050523Y-164077714D01*
X129145761Y-163982476D01*
X129193380Y-163839619D01*
X129193380Y-163601523D01*
X128193380Y-165077714D02*
X128193380Y-164601523D01*
X128669571Y-164553904D01*
X128621952Y-164601523D01*
X128574333Y-164696761D01*
X128574333Y-164934857D01*
X128621952Y-165030095D01*
X128669571Y-165077714D01*
X128764809Y-165125333D01*
X129002904Y-165125333D01*
X129098142Y-165077714D01*
X129145761Y-165030095D01*
X129193380Y-164934857D01*
X129193380Y-164696761D01*
X129145761Y-164601523D01*
X129098142Y-164553904D01*
X128193380Y-165744380D02*
X128193380Y-165839619D01*
X128241000Y-165934857D01*
X128288619Y-165982476D01*
X128383857Y-166030095D01*
X128574333Y-166077714D01*
X128812428Y-166077714D01*
X129002904Y-166030095D01*
X129098142Y-165982476D01*
X129145761Y-165934857D01*
X129193380Y-165839619D01*
X129193380Y-165744380D01*
X129145761Y-165649142D01*
X129098142Y-165601523D01*
X129002904Y-165553904D01*
X128812428Y-165506285D01*
X128574333Y-165506285D01*
X128383857Y-165553904D01*
X128288619Y-165601523D01*
X128241000Y-165649142D01*
X128193380Y-165744380D01*
X128526714Y-166934857D02*
X129193380Y-166934857D01*
X128145761Y-166696761D02*
X128860047Y-166458666D01*
X128860047Y-167077714D01*
X161316666Y-51452380D02*
X161792857Y-51452380D01*
X161792857Y-50452380D01*
X161078571Y-50452380D02*
X160411904Y-50452380D01*
X160840476Y-51452380D01*
X342943380Y-182601523D02*
X341943380Y-182601523D01*
X341943380Y-182839619D01*
X341991000Y-182982476D01*
X342086238Y-183077714D01*
X342181476Y-183125333D01*
X342371952Y-183172952D01*
X342514809Y-183172952D01*
X342705285Y-183125333D01*
X342800523Y-183077714D01*
X342895761Y-182982476D01*
X342943380Y-182839619D01*
X342943380Y-182601523D01*
X341943380Y-184030095D02*
X341943380Y-183839619D01*
X341991000Y-183744380D01*
X342038619Y-183696761D01*
X342181476Y-183601523D01*
X342371952Y-183553904D01*
X342752904Y-183553904D01*
X342848142Y-183601523D01*
X342895761Y-183649142D01*
X342943380Y-183744380D01*
X342943380Y-183934857D01*
X342895761Y-184030095D01*
X342848142Y-184077714D01*
X342752904Y-184125333D01*
X342514809Y-184125333D01*
X342419571Y-184077714D01*
X342371952Y-184030095D01*
X342324333Y-183934857D01*
X342324333Y-183744380D01*
X342371952Y-183649142D01*
X342419571Y-183601523D01*
X342514809Y-183553904D01*
X342943380Y-185077714D02*
X342943380Y-184506285D01*
X342943380Y-184792000D02*
X341943380Y-184792000D01*
X342086238Y-184696761D01*
X342181476Y-184601523D01*
X342229095Y-184506285D01*
X341943380Y-185411047D02*
X341943380Y-186030095D01*
X342324333Y-185696761D01*
X342324333Y-185839619D01*
X342371952Y-185934857D01*
X342419571Y-185982476D01*
X342514809Y-186030095D01*
X342752904Y-186030095D01*
X342848142Y-185982476D01*
X342895761Y-185934857D01*
X342943380Y-185839619D01*
X342943380Y-185553904D01*
X342895761Y-185458666D01*
X342848142Y-185411047D01*
X190943380Y-125601523D02*
X189943380Y-125601523D01*
X189943380Y-125839619D01*
X189991000Y-125982476D01*
X190086238Y-126077714D01*
X190181476Y-126125333D01*
X190371952Y-126172952D01*
X190514809Y-126172952D01*
X190705285Y-126125333D01*
X190800523Y-126077714D01*
X190895761Y-125982476D01*
X190943380Y-125839619D01*
X190943380Y-125601523D01*
X189943380Y-126506285D02*
X189943380Y-127125333D01*
X190324333Y-126792000D01*
X190324333Y-126934857D01*
X190371952Y-127030095D01*
X190419571Y-127077714D01*
X190514809Y-127125333D01*
X190752904Y-127125333D01*
X190848142Y-127077714D01*
X190895761Y-127030095D01*
X190943380Y-126934857D01*
X190943380Y-126649142D01*
X190895761Y-126553904D01*
X190848142Y-126506285D01*
X189943380Y-127744380D02*
X189943380Y-127839619D01*
X189991000Y-127934857D01*
X190038619Y-127982476D01*
X190133857Y-128030095D01*
X190324333Y-128077714D01*
X190562428Y-128077714D01*
X190752904Y-128030095D01*
X190848142Y-127982476D01*
X190895761Y-127934857D01*
X190943380Y-127839619D01*
X190943380Y-127744380D01*
X190895761Y-127649142D01*
X190848142Y-127601523D01*
X190752904Y-127553904D01*
X190562428Y-127506285D01*
X190324333Y-127506285D01*
X190133857Y-127553904D01*
X190038619Y-127601523D01*
X189991000Y-127649142D01*
X189943380Y-127744380D01*
X189943380Y-128411047D02*
X189943380Y-129077714D01*
X190943380Y-128649142D01*
X57943380Y-125601523D02*
X56943380Y-125601523D01*
X56943380Y-125839619D01*
X56991000Y-125982476D01*
X57086238Y-126077714D01*
X57181476Y-126125333D01*
X57371952Y-126172952D01*
X57514809Y-126172952D01*
X57705285Y-126125333D01*
X57800523Y-126077714D01*
X57895761Y-125982476D01*
X57943380Y-125839619D01*
X57943380Y-125601523D01*
X56943380Y-126506285D02*
X56943380Y-127125333D01*
X57324333Y-126792000D01*
X57324333Y-126934857D01*
X57371952Y-127030095D01*
X57419571Y-127077714D01*
X57514809Y-127125333D01*
X57752904Y-127125333D01*
X57848142Y-127077714D01*
X57895761Y-127030095D01*
X57943380Y-126934857D01*
X57943380Y-126649142D01*
X57895761Y-126553904D01*
X57848142Y-126506285D01*
X56943380Y-127744380D02*
X56943380Y-127839619D01*
X56991000Y-127934857D01*
X57038619Y-127982476D01*
X57133857Y-128030095D01*
X57324333Y-128077714D01*
X57562428Y-128077714D01*
X57752904Y-128030095D01*
X57848142Y-127982476D01*
X57895761Y-127934857D01*
X57943380Y-127839619D01*
X57943380Y-127744380D01*
X57895761Y-127649142D01*
X57848142Y-127601523D01*
X57752904Y-127553904D01*
X57562428Y-127506285D01*
X57324333Y-127506285D01*
X57133857Y-127553904D01*
X57038619Y-127601523D01*
X56991000Y-127649142D01*
X56943380Y-127744380D01*
X56943380Y-128696761D02*
X56943380Y-128792000D01*
X56991000Y-128887238D01*
X57038619Y-128934857D01*
X57133857Y-128982476D01*
X57324333Y-129030095D01*
X57562428Y-129030095D01*
X57752904Y-128982476D01*
X57848142Y-128934857D01*
X57895761Y-128887238D01*
X57943380Y-128792000D01*
X57943380Y-128696761D01*
X57895761Y-128601523D01*
X57848142Y-128553904D01*
X57752904Y-128506285D01*
X57562428Y-128458666D01*
X57324333Y-128458666D01*
X57133857Y-128506285D01*
X57038619Y-128553904D01*
X56991000Y-128601523D01*
X56943380Y-128696761D01*
X323943380Y-78101523D02*
X322943380Y-78101523D01*
X322943380Y-78339619D01*
X322991000Y-78482476D01*
X323086238Y-78577714D01*
X323181476Y-78625333D01*
X323371952Y-78672952D01*
X323514809Y-78672952D01*
X323705285Y-78625333D01*
X323800523Y-78577714D01*
X323895761Y-78482476D01*
X323943380Y-78339619D01*
X323943380Y-78101523D01*
X323943380Y-79625333D02*
X323943380Y-79053904D01*
X323943380Y-79339619D02*
X322943380Y-79339619D01*
X323086238Y-79244380D01*
X323181476Y-79149142D01*
X323229095Y-79053904D01*
X323943380Y-80577714D02*
X323943380Y-80006285D01*
X323943380Y-80292000D02*
X322943380Y-80292000D01*
X323086238Y-80196761D01*
X323181476Y-80101523D01*
X323229095Y-80006285D01*
X322943380Y-80911047D02*
X322943380Y-81530095D01*
X323324333Y-81196761D01*
X323324333Y-81339619D01*
X323371952Y-81434857D01*
X323419571Y-81482476D01*
X323514809Y-81530095D01*
X323752904Y-81530095D01*
X323848142Y-81482476D01*
X323895761Y-81434857D01*
X323943380Y-81339619D01*
X323943380Y-81053904D01*
X323895761Y-80958666D01*
X323848142Y-80911047D01*
X295443380Y-78101523D02*
X294443380Y-78101523D01*
X294443380Y-78339619D01*
X294491000Y-78482476D01*
X294586238Y-78577714D01*
X294681476Y-78625333D01*
X294871952Y-78672952D01*
X295014809Y-78672952D01*
X295205285Y-78625333D01*
X295300523Y-78577714D01*
X295395761Y-78482476D01*
X295443380Y-78339619D01*
X295443380Y-78101523D01*
X295443380Y-79625333D02*
X295443380Y-79053904D01*
X295443380Y-79339619D02*
X294443380Y-79339619D01*
X294586238Y-79244380D01*
X294681476Y-79149142D01*
X294729095Y-79053904D01*
X295443380Y-80577714D02*
X295443380Y-80006285D01*
X295443380Y-80292000D02*
X294443380Y-80292000D01*
X294586238Y-80196761D01*
X294681476Y-80101523D01*
X294729095Y-80006285D01*
X294538619Y-80958666D02*
X294491000Y-81006285D01*
X294443380Y-81101523D01*
X294443380Y-81339619D01*
X294491000Y-81434857D01*
X294538619Y-81482476D01*
X294633857Y-81530095D01*
X294729095Y-81530095D01*
X294871952Y-81482476D01*
X295443380Y-80911047D01*
X295443380Y-81530095D01*
X162782380Y-182601523D02*
X161782380Y-182601523D01*
X161782380Y-182839619D01*
X161830000Y-182982476D01*
X161925238Y-183077714D01*
X162020476Y-183125333D01*
X162210952Y-183172952D01*
X162353809Y-183172952D01*
X162544285Y-183125333D01*
X162639523Y-183077714D01*
X162734761Y-182982476D01*
X162782380Y-182839619D01*
X162782380Y-182601523D01*
X161782380Y-184030095D02*
X161782380Y-183839619D01*
X161830000Y-183744380D01*
X161877619Y-183696761D01*
X162020476Y-183601523D01*
X162210952Y-183553904D01*
X162591904Y-183553904D01*
X162687142Y-183601523D01*
X162734761Y-183649142D01*
X162782380Y-183744380D01*
X162782380Y-183934857D01*
X162734761Y-184030095D01*
X162687142Y-184077714D01*
X162591904Y-184125333D01*
X162353809Y-184125333D01*
X162258571Y-184077714D01*
X162210952Y-184030095D01*
X162163333Y-183934857D01*
X162163333Y-183744380D01*
X162210952Y-183649142D01*
X162258571Y-183601523D01*
X162353809Y-183553904D01*
X161782380Y-184744380D02*
X161782380Y-184839619D01*
X161830000Y-184934857D01*
X161877619Y-184982476D01*
X161972857Y-185030095D01*
X162163333Y-185077714D01*
X162401428Y-185077714D01*
X162591904Y-185030095D01*
X162687142Y-184982476D01*
X162734761Y-184934857D01*
X162782380Y-184839619D01*
X162782380Y-184744380D01*
X162734761Y-184649142D01*
X162687142Y-184601523D01*
X162591904Y-184553904D01*
X162401428Y-184506285D01*
X162163333Y-184506285D01*
X161972857Y-184553904D01*
X161877619Y-184601523D01*
X161830000Y-184649142D01*
X161782380Y-184744380D01*
X161782380Y-185411047D02*
X161782380Y-186077714D01*
X162782380Y-185649142D01*
X342943380Y-125601523D02*
X341943380Y-125601523D01*
X341943380Y-125839619D01*
X341991000Y-125982476D01*
X342086238Y-126077714D01*
X342181476Y-126125333D01*
X342371952Y-126172952D01*
X342514809Y-126172952D01*
X342705285Y-126125333D01*
X342800523Y-126077714D01*
X342895761Y-125982476D01*
X342943380Y-125839619D01*
X342943380Y-125601523D01*
X341943380Y-126506285D02*
X341943380Y-127125333D01*
X342324333Y-126792000D01*
X342324333Y-126934857D01*
X342371952Y-127030095D01*
X342419571Y-127077714D01*
X342514809Y-127125333D01*
X342752904Y-127125333D01*
X342848142Y-127077714D01*
X342895761Y-127030095D01*
X342943380Y-126934857D01*
X342943380Y-126649142D01*
X342895761Y-126553904D01*
X342848142Y-126506285D01*
X342943380Y-128077714D02*
X342943380Y-127506285D01*
X342943380Y-127792000D02*
X341943380Y-127792000D01*
X342086238Y-127696761D01*
X342181476Y-127601523D01*
X342229095Y-127506285D01*
X342276714Y-128934857D02*
X342943380Y-128934857D01*
X341895761Y-128696761D02*
X342610047Y-128458666D01*
X342610047Y-129077714D01*
X266943380Y-125601523D02*
X265943380Y-125601523D01*
X265943380Y-125839619D01*
X265991000Y-125982476D01*
X266086238Y-126077714D01*
X266181476Y-126125333D01*
X266371952Y-126172952D01*
X266514809Y-126172952D01*
X266705285Y-126125333D01*
X266800523Y-126077714D01*
X266895761Y-125982476D01*
X266943380Y-125839619D01*
X266943380Y-125601523D01*
X265943380Y-126506285D02*
X265943380Y-127125333D01*
X266324333Y-126792000D01*
X266324333Y-126934857D01*
X266371952Y-127030095D01*
X266419571Y-127077714D01*
X266514809Y-127125333D01*
X266752904Y-127125333D01*
X266848142Y-127077714D01*
X266895761Y-127030095D01*
X266943380Y-126934857D01*
X266943380Y-126649142D01*
X266895761Y-126553904D01*
X266848142Y-126506285D01*
X266943380Y-128077714D02*
X266943380Y-127506285D01*
X266943380Y-127792000D02*
X265943380Y-127792000D01*
X266086238Y-127696761D01*
X266181476Y-127601523D01*
X266229095Y-127506285D01*
X266943380Y-129030095D02*
X266943380Y-128458666D01*
X266943380Y-128744380D02*
X265943380Y-128744380D01*
X266086238Y-128649142D01*
X266181476Y-128553904D01*
X266229095Y-128458666D01*
X56266666Y-51452380D02*
X56742857Y-51452380D01*
X56742857Y-50452380D01*
X55504761Y-50785714D02*
X55504761Y-51452380D01*
X55742857Y-50404761D02*
X55980952Y-51119047D01*
X55361904Y-51119047D01*
X152943380Y-125601523D02*
X151943380Y-125601523D01*
X151943380Y-125839619D01*
X151991000Y-125982476D01*
X152086238Y-126077714D01*
X152181476Y-126125333D01*
X152371952Y-126172952D01*
X152514809Y-126172952D01*
X152705285Y-126125333D01*
X152800523Y-126077714D01*
X152895761Y-125982476D01*
X152943380Y-125839619D01*
X152943380Y-125601523D01*
X151943380Y-126506285D02*
X151943380Y-127125333D01*
X152324333Y-126792000D01*
X152324333Y-126934857D01*
X152371952Y-127030095D01*
X152419571Y-127077714D01*
X152514809Y-127125333D01*
X152752904Y-127125333D01*
X152848142Y-127077714D01*
X152895761Y-127030095D01*
X152943380Y-126934857D01*
X152943380Y-126649142D01*
X152895761Y-126553904D01*
X152848142Y-126506285D01*
X151943380Y-127744380D02*
X151943380Y-127839619D01*
X151991000Y-127934857D01*
X152038619Y-127982476D01*
X152133857Y-128030095D01*
X152324333Y-128077714D01*
X152562428Y-128077714D01*
X152752904Y-128030095D01*
X152848142Y-127982476D01*
X152895761Y-127934857D01*
X152943380Y-127839619D01*
X152943380Y-127744380D01*
X152895761Y-127649142D01*
X152848142Y-127601523D01*
X152752904Y-127553904D01*
X152562428Y-127506285D01*
X152324333Y-127506285D01*
X152133857Y-127553904D01*
X152038619Y-127601523D01*
X151991000Y-127649142D01*
X151943380Y-127744380D01*
X151943380Y-128982476D02*
X151943380Y-128506285D01*
X152419571Y-128458666D01*
X152371952Y-128506285D01*
X152324333Y-128601523D01*
X152324333Y-128839619D01*
X152371952Y-128934857D01*
X152419571Y-128982476D01*
X152514809Y-129030095D01*
X152752904Y-129030095D01*
X152848142Y-128982476D01*
X152895761Y-128934857D01*
X152943380Y-128839619D01*
X152943380Y-128601523D01*
X152895761Y-128506285D01*
X152848142Y-128458666D01*
X186193380Y-163601523D02*
X185193380Y-163601523D01*
X185193380Y-163839619D01*
X185241000Y-163982476D01*
X185336238Y-164077714D01*
X185431476Y-164125333D01*
X185621952Y-164172952D01*
X185764809Y-164172952D01*
X185955285Y-164125333D01*
X186050523Y-164077714D01*
X186145761Y-163982476D01*
X186193380Y-163839619D01*
X186193380Y-163601523D01*
X185193380Y-165077714D02*
X185193380Y-164601523D01*
X185669571Y-164553904D01*
X185621952Y-164601523D01*
X185574333Y-164696761D01*
X185574333Y-164934857D01*
X185621952Y-165030095D01*
X185669571Y-165077714D01*
X185764809Y-165125333D01*
X186002904Y-165125333D01*
X186098142Y-165077714D01*
X186145761Y-165030095D01*
X186193380Y-164934857D01*
X186193380Y-164696761D01*
X186145761Y-164601523D01*
X186098142Y-164553904D01*
X185193380Y-165744380D02*
X185193380Y-165839619D01*
X185241000Y-165934857D01*
X185288619Y-165982476D01*
X185383857Y-166030095D01*
X185574333Y-166077714D01*
X185812428Y-166077714D01*
X186002904Y-166030095D01*
X186098142Y-165982476D01*
X186145761Y-165934857D01*
X186193380Y-165839619D01*
X186193380Y-165744380D01*
X186145761Y-165649142D01*
X186098142Y-165601523D01*
X186002904Y-165553904D01*
X185812428Y-165506285D01*
X185574333Y-165506285D01*
X185383857Y-165553904D01*
X185288619Y-165601523D01*
X185241000Y-165649142D01*
X185193380Y-165744380D01*
X185193380Y-166411047D02*
X185193380Y-167077714D01*
X186193380Y-166649142D01*
X29443380Y-78101523D02*
X28443380Y-78101523D01*
X28443380Y-78339619D01*
X28491000Y-78482476D01*
X28586238Y-78577714D01*
X28681476Y-78625333D01*
X28871952Y-78672952D01*
X29014809Y-78672952D01*
X29205285Y-78625333D01*
X29300523Y-78577714D01*
X29395761Y-78482476D01*
X29443380Y-78339619D01*
X29443380Y-78101523D01*
X29443380Y-79625333D02*
X29443380Y-79053904D01*
X29443380Y-79339619D02*
X28443380Y-79339619D01*
X28586238Y-79244380D01*
X28681476Y-79149142D01*
X28729095Y-79053904D01*
X28443380Y-80244380D02*
X28443380Y-80339619D01*
X28491000Y-80434857D01*
X28538619Y-80482476D01*
X28633857Y-80530095D01*
X28824333Y-80577714D01*
X29062428Y-80577714D01*
X29252904Y-80530095D01*
X29348142Y-80482476D01*
X29395761Y-80434857D01*
X29443380Y-80339619D01*
X29443380Y-80244380D01*
X29395761Y-80149142D01*
X29348142Y-80101523D01*
X29252904Y-80053904D01*
X29062428Y-80006285D01*
X28824333Y-80006285D01*
X28633857Y-80053904D01*
X28538619Y-80101523D01*
X28491000Y-80149142D01*
X28443380Y-80244380D01*
X28443380Y-81196761D02*
X28443380Y-81292000D01*
X28491000Y-81387238D01*
X28538619Y-81434857D01*
X28633857Y-81482476D01*
X28824333Y-81530095D01*
X29062428Y-81530095D01*
X29252904Y-81482476D01*
X29348142Y-81434857D01*
X29395761Y-81387238D01*
X29443380Y-81292000D01*
X29443380Y-81196761D01*
X29395761Y-81101523D01*
X29348142Y-81053904D01*
X29252904Y-81006285D01*
X29062428Y-80958666D01*
X28824333Y-80958666D01*
X28633857Y-81006285D01*
X28538619Y-81053904D01*
X28491000Y-81101523D01*
X28443380Y-81196761D01*
X293068380Y-135101523D02*
X292068380Y-135101523D01*
X292068380Y-135339619D01*
X292116000Y-135482476D01*
X292211238Y-135577714D01*
X292306476Y-135625333D01*
X292496952Y-135672952D01*
X292639809Y-135672952D01*
X292830285Y-135625333D01*
X292925523Y-135577714D01*
X293020761Y-135482476D01*
X293068380Y-135339619D01*
X293068380Y-135101523D01*
X292068380Y-136006285D02*
X292068380Y-136625333D01*
X292449333Y-136292000D01*
X292449333Y-136434857D01*
X292496952Y-136530095D01*
X292544571Y-136577714D01*
X292639809Y-136625333D01*
X292877904Y-136625333D01*
X292973142Y-136577714D01*
X293020761Y-136530095D01*
X293068380Y-136434857D01*
X293068380Y-136149142D01*
X293020761Y-136053904D01*
X292973142Y-136006285D01*
X293068380Y-137577714D02*
X293068380Y-137006285D01*
X293068380Y-137292000D02*
X292068380Y-137292000D01*
X292211238Y-137196761D01*
X292306476Y-137101523D01*
X292354095Y-137006285D01*
X292163619Y-137958666D02*
X292116000Y-138006285D01*
X292068380Y-138101523D01*
X292068380Y-138339619D01*
X292116000Y-138434857D01*
X292163619Y-138482476D01*
X292258857Y-138530095D01*
X292354095Y-138530095D01*
X292496952Y-138482476D01*
X293068380Y-137911047D01*
X293068380Y-138530095D01*
X219443380Y-106601523D02*
X218443380Y-106601523D01*
X218443380Y-106839619D01*
X218491000Y-106982476D01*
X218586238Y-107077714D01*
X218681476Y-107125333D01*
X218871952Y-107172952D01*
X219014809Y-107172952D01*
X219205285Y-107125333D01*
X219300523Y-107077714D01*
X219395761Y-106982476D01*
X219443380Y-106839619D01*
X219443380Y-106601523D01*
X218538619Y-107553904D02*
X218491000Y-107601523D01*
X218443380Y-107696761D01*
X218443380Y-107934857D01*
X218491000Y-108030095D01*
X218538619Y-108077714D01*
X218633857Y-108125333D01*
X218729095Y-108125333D01*
X218871952Y-108077714D01*
X219443380Y-107506285D01*
X219443380Y-108125333D01*
X218443380Y-108744380D02*
X218443380Y-108839619D01*
X218491000Y-108934857D01*
X218538619Y-108982476D01*
X218633857Y-109030095D01*
X218824333Y-109077714D01*
X219062428Y-109077714D01*
X219252904Y-109030095D01*
X219348142Y-108982476D01*
X219395761Y-108934857D01*
X219443380Y-108839619D01*
X219443380Y-108744380D01*
X219395761Y-108649142D01*
X219348142Y-108601523D01*
X219252904Y-108553904D01*
X219062428Y-108506285D01*
X218824333Y-108506285D01*
X218633857Y-108553904D01*
X218538619Y-108601523D01*
X218491000Y-108649142D01*
X218443380Y-108744380D01*
X219443380Y-109553904D02*
X219443380Y-109744380D01*
X219395761Y-109839619D01*
X219348142Y-109887238D01*
X219205285Y-109982476D01*
X219014809Y-110030095D01*
X218633857Y-110030095D01*
X218538619Y-109982476D01*
X218491000Y-109934857D01*
X218443380Y-109839619D01*
X218443380Y-109649142D01*
X218491000Y-109553904D01*
X218538619Y-109506285D01*
X218633857Y-109458666D01*
X218871952Y-109458666D01*
X218967190Y-109506285D01*
X219014809Y-109553904D01*
X219062428Y-109649142D01*
X219062428Y-109839619D01*
X219014809Y-109934857D01*
X218967190Y-109982476D01*
X218871952Y-110030095D01*
X203466666Y-51452380D02*
X203942857Y-51452380D01*
X203942857Y-50452380D01*
X203085714Y-51452380D02*
X202895238Y-51452380D01*
X202800000Y-51404761D01*
X202752380Y-51357142D01*
X202657142Y-51214285D01*
X202609523Y-51023809D01*
X202609523Y-50642857D01*
X202657142Y-50547619D01*
X202704761Y-50500000D01*
X202800000Y-50452380D01*
X202990476Y-50452380D01*
X203085714Y-50500000D01*
X203133333Y-50547619D01*
X203180952Y-50642857D01*
X203180952Y-50880952D01*
X203133333Y-50976190D01*
X203085714Y-51023809D01*
X202990476Y-51071428D01*
X202800000Y-51071428D01*
X202704761Y-51023809D01*
X202657142Y-50976190D01*
X202609523Y-50880952D01*
X152943380Y-78101523D02*
X151943380Y-78101523D01*
X151943380Y-78339619D01*
X151991000Y-78482476D01*
X152086238Y-78577714D01*
X152181476Y-78625333D01*
X152371952Y-78672952D01*
X152514809Y-78672952D01*
X152705285Y-78625333D01*
X152800523Y-78577714D01*
X152895761Y-78482476D01*
X152943380Y-78339619D01*
X152943380Y-78101523D01*
X152943380Y-79625333D02*
X152943380Y-79053904D01*
X152943380Y-79339619D02*
X151943380Y-79339619D01*
X152086238Y-79244380D01*
X152181476Y-79149142D01*
X152229095Y-79053904D01*
X151943380Y-80244380D02*
X151943380Y-80339619D01*
X151991000Y-80434857D01*
X152038619Y-80482476D01*
X152133857Y-80530095D01*
X152324333Y-80577714D01*
X152562428Y-80577714D01*
X152752904Y-80530095D01*
X152848142Y-80482476D01*
X152895761Y-80434857D01*
X152943380Y-80339619D01*
X152943380Y-80244380D01*
X152895761Y-80149142D01*
X152848142Y-80101523D01*
X152752904Y-80053904D01*
X152562428Y-80006285D01*
X152324333Y-80006285D01*
X152133857Y-80053904D01*
X152038619Y-80101523D01*
X151991000Y-80149142D01*
X151943380Y-80244380D01*
X151943380Y-81482476D02*
X151943380Y-81006285D01*
X152419571Y-80958666D01*
X152371952Y-81006285D01*
X152324333Y-81101523D01*
X152324333Y-81339619D01*
X152371952Y-81434857D01*
X152419571Y-81482476D01*
X152514809Y-81530095D01*
X152752904Y-81530095D01*
X152848142Y-81482476D01*
X152895761Y-81434857D01*
X152943380Y-81339619D01*
X152943380Y-81101523D01*
X152895761Y-81006285D01*
X152848142Y-80958666D01*
X384802380Y-131357142D02*
X384326190Y-131023809D01*
X384802380Y-130785714D02*
X383802380Y-130785714D01*
X383802380Y-131166666D01*
X383850000Y-131261904D01*
X383897619Y-131309523D01*
X383992857Y-131357142D01*
X384135714Y-131357142D01*
X384230952Y-131309523D01*
X384278571Y-131261904D01*
X384326190Y-131166666D01*
X384326190Y-130785714D01*
X383897619Y-131738095D02*
X383850000Y-131785714D01*
X383802380Y-131880952D01*
X383802380Y-132119047D01*
X383850000Y-132214285D01*
X383897619Y-132261904D01*
X383992857Y-132309523D01*
X384088095Y-132309523D01*
X384230952Y-132261904D01*
X384802380Y-131690476D01*
X384802380Y-132309523D01*
X383802380Y-132642857D02*
X383802380Y-133261904D01*
X384183333Y-132928571D01*
X384183333Y-133071428D01*
X384230952Y-133166666D01*
X384278571Y-133214285D01*
X384373809Y-133261904D01*
X384611904Y-133261904D01*
X384707142Y-133214285D01*
X384754761Y-133166666D01*
X384802380Y-133071428D01*
X384802380Y-132785714D01*
X384754761Y-132690476D01*
X384707142Y-132642857D01*
X361943380Y-125601523D02*
X360943380Y-125601523D01*
X360943380Y-125839619D01*
X360991000Y-125982476D01*
X361086238Y-126077714D01*
X361181476Y-126125333D01*
X361371952Y-126172952D01*
X361514809Y-126172952D01*
X361705285Y-126125333D01*
X361800523Y-126077714D01*
X361895761Y-125982476D01*
X361943380Y-125839619D01*
X361943380Y-125601523D01*
X360943380Y-126506285D02*
X360943380Y-127125333D01*
X361324333Y-126792000D01*
X361324333Y-126934857D01*
X361371952Y-127030095D01*
X361419571Y-127077714D01*
X361514809Y-127125333D01*
X361752904Y-127125333D01*
X361848142Y-127077714D01*
X361895761Y-127030095D01*
X361943380Y-126934857D01*
X361943380Y-126649142D01*
X361895761Y-126553904D01*
X361848142Y-126506285D01*
X361943380Y-128077714D02*
X361943380Y-127506285D01*
X361943380Y-127792000D02*
X360943380Y-127792000D01*
X361086238Y-127696761D01*
X361181476Y-127601523D01*
X361229095Y-127506285D01*
X360943380Y-128982476D02*
X360943380Y-128506285D01*
X361419571Y-128458666D01*
X361371952Y-128506285D01*
X361324333Y-128601523D01*
X361324333Y-128839619D01*
X361371952Y-128934857D01*
X361419571Y-128982476D01*
X361514809Y-129030095D01*
X361752904Y-129030095D01*
X361848142Y-128982476D01*
X361895761Y-128934857D01*
X361943380Y-128839619D01*
X361943380Y-128601523D01*
X361895761Y-128506285D01*
X361848142Y-128458666D01*
X238443380Y-106601523D02*
X237443380Y-106601523D01*
X237443380Y-106839619D01*
X237491000Y-106982476D01*
X237586238Y-107077714D01*
X237681476Y-107125333D01*
X237871952Y-107172952D01*
X238014809Y-107172952D01*
X238205285Y-107125333D01*
X238300523Y-107077714D01*
X238395761Y-106982476D01*
X238443380Y-106839619D01*
X238443380Y-106601523D01*
X237538619Y-107553904D02*
X237491000Y-107601523D01*
X237443380Y-107696761D01*
X237443380Y-107934857D01*
X237491000Y-108030095D01*
X237538619Y-108077714D01*
X237633857Y-108125333D01*
X237729095Y-108125333D01*
X237871952Y-108077714D01*
X238443380Y-107506285D01*
X238443380Y-108125333D01*
X238443380Y-109077714D02*
X238443380Y-108506285D01*
X238443380Y-108792000D02*
X237443380Y-108792000D01*
X237586238Y-108696761D01*
X237681476Y-108601523D01*
X237729095Y-108506285D01*
X237443380Y-109696761D02*
X237443380Y-109792000D01*
X237491000Y-109887238D01*
X237538619Y-109934857D01*
X237633857Y-109982476D01*
X237824333Y-110030095D01*
X238062428Y-110030095D01*
X238252904Y-109982476D01*
X238348142Y-109934857D01*
X238395761Y-109887238D01*
X238443380Y-109792000D01*
X238443380Y-109696761D01*
X238395761Y-109601523D01*
X238348142Y-109553904D01*
X238252904Y-109506285D01*
X238062428Y-109458666D01*
X237824333Y-109458666D01*
X237633857Y-109506285D01*
X237538619Y-109553904D01*
X237491000Y-109601523D01*
X237443380Y-109696761D01*
X268282380Y-182309523D02*
X267282380Y-182309523D01*
X267282380Y-182547619D01*
X267330000Y-182690476D01*
X267425238Y-182785714D01*
X267520476Y-182833333D01*
X267710952Y-182880952D01*
X267853809Y-182880952D01*
X268044285Y-182833333D01*
X268139523Y-182785714D01*
X268234761Y-182690476D01*
X268282380Y-182547619D01*
X268282380Y-182309523D01*
X267282380Y-183738095D02*
X267282380Y-183547619D01*
X267330000Y-183452380D01*
X267377619Y-183404761D01*
X267520476Y-183309523D01*
X267710952Y-183261904D01*
X268091904Y-183261904D01*
X268187142Y-183309523D01*
X268234761Y-183357142D01*
X268282380Y-183452380D01*
X268282380Y-183642857D01*
X268234761Y-183738095D01*
X268187142Y-183785714D01*
X268091904Y-183833333D01*
X267853809Y-183833333D01*
X267758571Y-183785714D01*
X267710952Y-183738095D01*
X267663333Y-183642857D01*
X267663333Y-183452380D01*
X267710952Y-183357142D01*
X267758571Y-183309523D01*
X267853809Y-183261904D01*
X267282380Y-184452380D02*
X267282380Y-184547619D01*
X267330000Y-184642857D01*
X267377619Y-184690476D01*
X267472857Y-184738095D01*
X267663333Y-184785714D01*
X267901428Y-184785714D01*
X268091904Y-184738095D01*
X268187142Y-184690476D01*
X268234761Y-184642857D01*
X268282380Y-184547619D01*
X268282380Y-184452380D01*
X268234761Y-184357142D01*
X268187142Y-184309523D01*
X268091904Y-184261904D01*
X267901428Y-184214285D01*
X267663333Y-184214285D01*
X267472857Y-184261904D01*
X267377619Y-184309523D01*
X267330000Y-184357142D01*
X267282380Y-184452380D01*
X268282380Y-185261904D02*
X268282380Y-185452380D01*
X268234761Y-185547619D01*
X268187142Y-185595238D01*
X268044285Y-185690476D01*
X267853809Y-185738095D01*
X267472857Y-185738095D01*
X267377619Y-185690476D01*
X267330000Y-185642857D01*
X267282380Y-185547619D01*
X267282380Y-185357142D01*
X267330000Y-185261904D01*
X267377619Y-185214285D01*
X267472857Y-185166666D01*
X267710952Y-185166666D01*
X267806190Y-185214285D01*
X267853809Y-185261904D01*
X267901428Y-185357142D01*
X267901428Y-185547619D01*
X267853809Y-185642857D01*
X267806190Y-185690476D01*
X267710952Y-185738095D01*
X47042857Y-51452380D02*
X47376190Y-50976190D01*
X47614285Y-51452380D02*
X47614285Y-50452380D01*
X47233333Y-50452380D01*
X47138095Y-50500000D01*
X47090476Y-50547619D01*
X47042857Y-50642857D01*
X47042857Y-50785714D01*
X47090476Y-50880952D01*
X47138095Y-50928571D01*
X47233333Y-50976190D01*
X47614285Y-50976190D01*
X46090476Y-51452380D02*
X46661904Y-51452380D01*
X46376190Y-51452380D02*
X46376190Y-50452380D01*
X46471428Y-50595238D01*
X46566666Y-50690476D01*
X46661904Y-50738095D01*
X45138095Y-51452380D02*
X45709523Y-51452380D01*
X45423809Y-51452380D02*
X45423809Y-50452380D01*
X45519047Y-50595238D01*
X45614285Y-50690476D01*
X45709523Y-50738095D01*
X342943380Y-106601523D02*
X341943380Y-106601523D01*
X341943380Y-106839619D01*
X341991000Y-106982476D01*
X342086238Y-107077714D01*
X342181476Y-107125333D01*
X342371952Y-107172952D01*
X342514809Y-107172952D01*
X342705285Y-107125333D01*
X342800523Y-107077714D01*
X342895761Y-106982476D01*
X342943380Y-106839619D01*
X342943380Y-106601523D01*
X342038619Y-107553904D02*
X341991000Y-107601523D01*
X341943380Y-107696761D01*
X341943380Y-107934857D01*
X341991000Y-108030095D01*
X342038619Y-108077714D01*
X342133857Y-108125333D01*
X342229095Y-108125333D01*
X342371952Y-108077714D01*
X342943380Y-107506285D01*
X342943380Y-108125333D01*
X342943380Y-109077714D02*
X342943380Y-108506285D01*
X342943380Y-108792000D02*
X341943380Y-108792000D01*
X342086238Y-108696761D01*
X342181476Y-108601523D01*
X342229095Y-108506285D01*
X342276714Y-109934857D02*
X342943380Y-109934857D01*
X341895761Y-109696761D02*
X342610047Y-109458666D01*
X342610047Y-110077714D01*
X62693380Y-144601523D02*
X61693380Y-144601523D01*
X61693380Y-144839619D01*
X61741000Y-144982476D01*
X61836238Y-145077714D01*
X61931476Y-145125333D01*
X62121952Y-145172952D01*
X62264809Y-145172952D01*
X62455285Y-145125333D01*
X62550523Y-145077714D01*
X62645761Y-144982476D01*
X62693380Y-144839619D01*
X62693380Y-144601523D01*
X62026714Y-146030095D02*
X62693380Y-146030095D01*
X61645761Y-145792000D02*
X62360047Y-145553904D01*
X62360047Y-146172952D01*
X61693380Y-146744380D02*
X61693380Y-146839619D01*
X61741000Y-146934857D01*
X61788619Y-146982476D01*
X61883857Y-147030095D01*
X62074333Y-147077714D01*
X62312428Y-147077714D01*
X62502904Y-147030095D01*
X62598142Y-146982476D01*
X62645761Y-146934857D01*
X62693380Y-146839619D01*
X62693380Y-146744380D01*
X62645761Y-146649142D01*
X62598142Y-146601523D01*
X62502904Y-146553904D01*
X62312428Y-146506285D01*
X62074333Y-146506285D01*
X61883857Y-146553904D01*
X61788619Y-146601523D01*
X61741000Y-146649142D01*
X61693380Y-146744380D01*
X61693380Y-147696761D02*
X61693380Y-147792000D01*
X61741000Y-147887238D01*
X61788619Y-147934857D01*
X61883857Y-147982476D01*
X62074333Y-148030095D01*
X62312428Y-148030095D01*
X62502904Y-147982476D01*
X62598142Y-147934857D01*
X62645761Y-147887238D01*
X62693380Y-147792000D01*
X62693380Y-147696761D01*
X62645761Y-147601523D01*
X62598142Y-147553904D01*
X62502904Y-147506285D01*
X62312428Y-147458666D01*
X62074333Y-147458666D01*
X61883857Y-147506285D01*
X61788619Y-147553904D01*
X61741000Y-147601523D01*
X61693380Y-147696761D01*
X323943380Y-182601523D02*
X322943380Y-182601523D01*
X322943380Y-182839619D01*
X322991000Y-182982476D01*
X323086238Y-183077714D01*
X323181476Y-183125333D01*
X323371952Y-183172952D01*
X323514809Y-183172952D01*
X323705285Y-183125333D01*
X323800523Y-183077714D01*
X323895761Y-182982476D01*
X323943380Y-182839619D01*
X323943380Y-182601523D01*
X322943380Y-184030095D02*
X322943380Y-183839619D01*
X322991000Y-183744380D01*
X323038619Y-183696761D01*
X323181476Y-183601523D01*
X323371952Y-183553904D01*
X323752904Y-183553904D01*
X323848142Y-183601523D01*
X323895761Y-183649142D01*
X323943380Y-183744380D01*
X323943380Y-183934857D01*
X323895761Y-184030095D01*
X323848142Y-184077714D01*
X323752904Y-184125333D01*
X323514809Y-184125333D01*
X323419571Y-184077714D01*
X323371952Y-184030095D01*
X323324333Y-183934857D01*
X323324333Y-183744380D01*
X323371952Y-183649142D01*
X323419571Y-183601523D01*
X323514809Y-183553904D01*
X323943380Y-185077714D02*
X323943380Y-184506285D01*
X323943380Y-184792000D02*
X322943380Y-184792000D01*
X323086238Y-184696761D01*
X323181476Y-184601523D01*
X323229095Y-184506285D01*
X323038619Y-185458666D02*
X322991000Y-185506285D01*
X322943380Y-185601523D01*
X322943380Y-185839619D01*
X322991000Y-185934857D01*
X323038619Y-185982476D01*
X323133857Y-186030095D01*
X323229095Y-186030095D01*
X323371952Y-185982476D01*
X323943380Y-185411047D01*
X323943380Y-186030095D01*
X193242857Y-51452380D02*
X193576190Y-50976190D01*
X193814285Y-51452380D02*
X193814285Y-50452380D01*
X193433333Y-50452380D01*
X193338095Y-50500000D01*
X193290476Y-50547619D01*
X193242857Y-50642857D01*
X193242857Y-50785714D01*
X193290476Y-50880952D01*
X193338095Y-50928571D01*
X193433333Y-50976190D01*
X193814285Y-50976190D01*
X192290476Y-51452380D02*
X192861904Y-51452380D01*
X192576190Y-51452380D02*
X192576190Y-50452380D01*
X192671428Y-50595238D01*
X192766666Y-50690476D01*
X192861904Y-50738095D01*
X191433333Y-50452380D02*
X191623809Y-50452380D01*
X191719047Y-50500000D01*
X191766666Y-50547619D01*
X191861904Y-50690476D01*
X191909523Y-50880952D01*
X191909523Y-51261904D01*
X191861904Y-51357142D01*
X191814285Y-51404761D01*
X191719047Y-51452380D01*
X191528571Y-51452380D01*
X191433333Y-51404761D01*
X191385714Y-51357142D01*
X191338095Y-51261904D01*
X191338095Y-51023809D01*
X191385714Y-50928571D01*
X191433333Y-50880952D01*
X191528571Y-50833333D01*
X191719047Y-50833333D01*
X191814285Y-50880952D01*
X191861904Y-50928571D01*
X191909523Y-51023809D01*
X257443380Y-78101523D02*
X256443380Y-78101523D01*
X256443380Y-78339619D01*
X256491000Y-78482476D01*
X256586238Y-78577714D01*
X256681476Y-78625333D01*
X256871952Y-78672952D01*
X257014809Y-78672952D01*
X257205285Y-78625333D01*
X257300523Y-78577714D01*
X257395761Y-78482476D01*
X257443380Y-78339619D01*
X257443380Y-78101523D01*
X257443380Y-79625333D02*
X257443380Y-79053904D01*
X257443380Y-79339619D02*
X256443380Y-79339619D01*
X256586238Y-79244380D01*
X256681476Y-79149142D01*
X256729095Y-79053904D01*
X257443380Y-80577714D02*
X257443380Y-80006285D01*
X257443380Y-80292000D02*
X256443380Y-80292000D01*
X256586238Y-80196761D01*
X256681476Y-80101523D01*
X256729095Y-80006285D01*
X256443380Y-81196761D02*
X256443380Y-81292000D01*
X256491000Y-81387238D01*
X256538619Y-81434857D01*
X256633857Y-81482476D01*
X256824333Y-81530095D01*
X257062428Y-81530095D01*
X257252904Y-81482476D01*
X257348142Y-81434857D01*
X257395761Y-81387238D01*
X257443380Y-81292000D01*
X257443380Y-81196761D01*
X257395761Y-81101523D01*
X257348142Y-81053904D01*
X257252904Y-81006285D01*
X257062428Y-80958666D01*
X256824333Y-80958666D01*
X256633857Y-81006285D01*
X256538619Y-81053904D01*
X256491000Y-81101523D01*
X256443380Y-81196761D01*
X138693380Y-144601523D02*
X137693380Y-144601523D01*
X137693380Y-144839619D01*
X137741000Y-144982476D01*
X137836238Y-145077714D01*
X137931476Y-145125333D01*
X138121952Y-145172952D01*
X138264809Y-145172952D01*
X138455285Y-145125333D01*
X138550523Y-145077714D01*
X138645761Y-144982476D01*
X138693380Y-144839619D01*
X138693380Y-144601523D01*
X138026714Y-146030095D02*
X138693380Y-146030095D01*
X137645761Y-145792000D02*
X138360047Y-145553904D01*
X138360047Y-146172952D01*
X137693380Y-146744380D02*
X137693380Y-146839619D01*
X137741000Y-146934857D01*
X137788619Y-146982476D01*
X137883857Y-147030095D01*
X138074333Y-147077714D01*
X138312428Y-147077714D01*
X138502904Y-147030095D01*
X138598142Y-146982476D01*
X138645761Y-146934857D01*
X138693380Y-146839619D01*
X138693380Y-146744380D01*
X138645761Y-146649142D01*
X138598142Y-146601523D01*
X138502904Y-146553904D01*
X138312428Y-146506285D01*
X138074333Y-146506285D01*
X137883857Y-146553904D01*
X137788619Y-146601523D01*
X137741000Y-146649142D01*
X137693380Y-146744380D01*
X138026714Y-147934857D02*
X138693380Y-147934857D01*
X137645761Y-147696761D02*
X138360047Y-147458666D01*
X138360047Y-148077714D01*
D11*
X25460000Y-78560000D02*
X23540000Y-78560000D01*
X23540000Y-78560000D02*
X23540000Y-75700000D01*
X25460000Y-75700000D02*
X25460000Y-78560000D01*
X25235000Y-80627064D02*
X25235000Y-80172936D01*
X23765000Y-80627064D02*
X23765000Y-80172936D01*
D12*
X182211000Y-107027000D02*
G75*
G03*
X182211000Y-107027000I-50000J0D01*
G01*
X87211000Y-78527000D02*
G75*
G03*
X87211000Y-78527000I-50000J0D01*
G01*
D11*
X383660000Y-130160000D02*
X381740000Y-130160000D01*
X381740000Y-130160000D02*
X381740000Y-127300000D01*
X383660000Y-127300000D02*
X383660000Y-130160000D01*
X106300000Y-51960000D02*
X103440000Y-51960000D01*
X103440000Y-50040000D02*
X106300000Y-50040000D01*
X103440000Y-51960000D02*
X103440000Y-50040000D01*
D12*
X68211000Y-107027000D02*
G75*
G03*
X68211000Y-107027000I-50000J0D01*
G01*
D11*
X383560000Y-187660000D02*
X381640000Y-187660000D01*
X381640000Y-187660000D02*
X381640000Y-184800000D01*
X383560000Y-184800000D02*
X383560000Y-187660000D01*
X265272936Y-202365000D02*
X265727064Y-202365000D01*
X265272936Y-203835000D02*
X265727064Y-203835000D01*
D12*
X172711000Y-78527000D02*
G75*
G03*
X172711000Y-78527000I-50000J0D01*
G01*
X201211000Y-107027000D02*
G75*
G03*
X201211000Y-107027000I-50000J0D01*
G01*
D11*
X40372936Y-202365000D02*
X40827064Y-202365000D01*
X40372936Y-203835000D02*
X40827064Y-203835000D01*
D12*
X253461000Y-145027000D02*
G75*
G03*
X253461000Y-145027000I-50000J0D01*
G01*
X34961000Y-183027000D02*
G75*
G03*
X34961000Y-183027000I-50000J0D01*
G01*
X245050000Y-182735000D02*
G75*
G03*
X245050000Y-182735000I-50000J0D01*
G01*
X343711000Y-78527000D02*
G75*
G03*
X343711000Y-78527000I-50000J0D01*
G01*
X258211000Y-107027000D02*
G75*
G03*
X258211000Y-107027000I-50000J0D01*
G01*
X215461000Y-145027000D02*
G75*
G03*
X215461000Y-145027000I-50000J0D01*
G01*
X144211000Y-107027000D02*
G75*
G03*
X144211000Y-107027000I-50000J0D01*
G01*
X248711000Y-126027000D02*
G75*
G03*
X248711000Y-126027000I-50000J0D01*
G01*
X362711000Y-183027000D02*
G75*
G03*
X362711000Y-183027000I-50000J0D01*
G01*
X148961000Y-164027000D02*
G75*
G03*
X148961000Y-164027000I-50000J0D01*
G01*
X91961000Y-164027000D02*
G75*
G03*
X91961000Y-164027000I-50000J0D01*
G01*
D11*
X270200000Y-204060000D02*
X267340000Y-204060000D01*
X267340000Y-202140000D02*
X270200000Y-202140000D01*
X267340000Y-204060000D02*
X267340000Y-202140000D01*
D12*
X53961000Y-164027000D02*
G75*
G03*
X53961000Y-164027000I-50000J0D01*
G01*
X125211000Y-107027000D02*
G75*
G03*
X125211000Y-107027000I-50000J0D01*
G01*
X205961000Y-164027000D02*
G75*
G03*
X205961000Y-164027000I-50000J0D01*
G01*
X239211000Y-78527000D02*
G75*
G03*
X239211000Y-78527000I-50000J0D01*
G01*
X120461000Y-145027000D02*
G75*
G03*
X120461000Y-145027000I-50000J0D01*
G01*
X32586000Y-164027000D02*
G75*
G03*
X32586000Y-164027000I-50000J0D01*
G01*
X210711000Y-78527000D02*
G75*
G03*
X210711000Y-78527000I-50000J0D01*
G01*
X49211000Y-107027000D02*
G75*
G03*
X49211000Y-107027000I-50000J0D01*
G01*
D11*
X23540000Y-186460000D02*
X23540000Y-183600000D01*
X25460000Y-183600000D02*
X25460000Y-186460000D01*
X25460000Y-186460000D02*
X23540000Y-186460000D01*
X101072936Y-50265000D02*
X101527064Y-50265000D01*
X101072936Y-51735000D02*
X101527064Y-51735000D01*
D12*
X110961000Y-164027000D02*
G75*
G03*
X110961000Y-164027000I-50000J0D01*
G01*
D11*
X23765000Y-188527064D02*
X23765000Y-188072936D01*
X25235000Y-188527064D02*
X25235000Y-188072936D01*
D12*
X277211000Y-78527000D02*
G75*
G03*
X277211000Y-78527000I-50000J0D01*
G01*
X72961000Y-164027000D02*
G75*
G03*
X72961000Y-164027000I-50000J0D01*
G01*
X279586000Y-164027000D02*
G75*
G03*
X279586000Y-164027000I-50000J0D01*
G01*
D11*
X156000000Y-204060000D02*
X153140000Y-204060000D01*
X153140000Y-202140000D02*
X156000000Y-202140000D01*
X153140000Y-204060000D02*
X153140000Y-202140000D01*
X42440000Y-202140000D02*
X45300000Y-202140000D01*
X45300000Y-204060000D02*
X42440000Y-204060000D01*
X42440000Y-204060000D02*
X42440000Y-202140000D01*
D12*
X134711000Y-126027000D02*
G75*
G03*
X134711000Y-126027000I-50000J0D01*
G01*
X177461000Y-145027000D02*
G75*
G03*
X177461000Y-145027000I-50000J0D01*
G01*
X324711000Y-126027000D02*
G75*
G03*
X324711000Y-126027000I-50000J0D01*
G01*
X158461000Y-145027000D02*
G75*
G03*
X158461000Y-145027000I-50000J0D01*
G01*
D11*
X154272936Y-50265000D02*
X154727064Y-50265000D01*
X154272936Y-51735000D02*
X154727064Y-51735000D01*
X151072936Y-202365000D02*
X151527064Y-202365000D01*
X151072936Y-203835000D02*
X151527064Y-203835000D01*
D12*
X293050000Y-182735000D02*
G75*
G03*
X293050000Y-182735000I-50000J0D01*
G01*
D11*
X383335000Y-189697064D02*
X383335000Y-189242936D01*
X381865000Y-189697064D02*
X381865000Y-189242936D01*
D12*
X224961000Y-164027000D02*
G75*
G03*
X224961000Y-164027000I-50000J0D01*
G01*
X196461000Y-145027000D02*
G75*
G03*
X196461000Y-145027000I-50000J0D01*
G01*
X82461000Y-145027000D02*
G75*
G03*
X82461000Y-145027000I-50000J0D01*
G01*
X115711000Y-126027000D02*
G75*
G03*
X115711000Y-126027000I-50000J0D01*
G01*
X82461000Y-183027000D02*
G75*
G03*
X82461000Y-183027000I-50000J0D01*
G01*
X234461000Y-145027000D02*
G75*
G03*
X234461000Y-145027000I-50000J0D01*
G01*
D11*
X382065000Y-83227064D02*
X382065000Y-82772936D01*
X383535000Y-83227064D02*
X383535000Y-82772936D01*
D12*
X96711000Y-126027000D02*
G75*
G03*
X96711000Y-126027000I-50000J0D01*
G01*
X68211000Y-78527000D02*
G75*
G03*
X68211000Y-78527000I-50000J0D01*
G01*
X87211000Y-107027000D02*
G75*
G03*
X87211000Y-107027000I-50000J0D01*
G01*
D11*
X383760000Y-81160000D02*
X381840000Y-81160000D01*
X381840000Y-81160000D02*
X381840000Y-78300000D01*
X383760000Y-78300000D02*
X383760000Y-81160000D01*
D12*
X210711000Y-126027000D02*
G75*
G03*
X210711000Y-126027000I-50000J0D01*
G01*
X106211000Y-107027000D02*
G75*
G03*
X106211000Y-107027000I-50000J0D01*
G01*
X34961000Y-126027000D02*
G75*
G03*
X34961000Y-126027000I-50000J0D01*
G01*
X37336000Y-145027000D02*
G75*
G03*
X37336000Y-145027000I-50000J0D01*
G01*
X272461000Y-145027000D02*
G75*
G03*
X272461000Y-145027000I-50000J0D01*
G01*
X125211000Y-78527000D02*
G75*
G03*
X125211000Y-78527000I-50000J0D01*
G01*
X243961000Y-164027000D02*
G75*
G03*
X243961000Y-164027000I-50000J0D01*
G01*
D11*
X23765000Y-142227064D02*
X23765000Y-141772936D01*
X25235000Y-142227064D02*
X25235000Y-141772936D01*
D12*
X101461000Y-145027000D02*
G75*
G03*
X101461000Y-145027000I-50000J0D01*
G01*
X229711000Y-126027000D02*
G75*
G03*
X229711000Y-126027000I-50000J0D01*
G01*
X106211000Y-78527000D02*
G75*
G03*
X106211000Y-78527000I-50000J0D01*
G01*
X191711000Y-78527000D02*
G75*
G03*
X191711000Y-78527000I-50000J0D01*
G01*
D11*
X376000000Y-100000000D02*
X376000000Y-98000000D01*
X364000000Y-100000000D02*
X376000000Y-100000000D01*
X376000000Y-98000000D02*
X364000000Y-98000000D01*
X364000000Y-98000000D02*
X364000000Y-100000000D01*
D12*
X30211000Y-107027000D02*
G75*
G03*
X30211000Y-107027000I-50000J0D01*
G01*
D11*
X365272936Y-203835000D02*
X365727064Y-203835000D01*
X365272936Y-202365000D02*
X365727064Y-202365000D01*
D12*
X324711000Y-107027000D02*
G75*
G03*
X324711000Y-107027000I-50000J0D01*
G01*
X343711000Y-164027000D02*
G75*
G03*
X343711000Y-164027000I-50000J0D01*
G01*
D11*
X370200000Y-204060000D02*
X367340000Y-204060000D01*
X367340000Y-202140000D02*
X370200000Y-202140000D01*
X367340000Y-204060000D02*
X367340000Y-202140000D01*
D12*
X58711000Y-183027000D02*
G75*
G03*
X58711000Y-183027000I-50000J0D01*
G01*
X172711000Y-126027000D02*
G75*
G03*
X172711000Y-126027000I-50000J0D01*
G01*
D11*
X25460000Y-140160000D02*
X23540000Y-140160000D01*
X23540000Y-140160000D02*
X23540000Y-137300000D01*
X25460000Y-137300000D02*
X25460000Y-140160000D01*
D12*
X286711000Y-107027000D02*
G75*
G03*
X286711000Y-107027000I-50000J0D01*
G01*
X77711000Y-126027000D02*
G75*
G03*
X77711000Y-126027000I-50000J0D01*
G01*
X362711000Y-78527000D02*
G75*
G03*
X362711000Y-78527000I-50000J0D01*
G01*
X163211000Y-107027000D02*
G75*
G03*
X163211000Y-107027000I-50000J0D01*
G01*
X362711000Y-107027000D02*
G75*
G03*
X362711000Y-107027000I-50000J0D01*
G01*
X167961000Y-164027000D02*
G75*
G03*
X167961000Y-164027000I-50000J0D01*
G01*
X129961000Y-164027000D02*
G75*
G03*
X129961000Y-164027000I-50000J0D01*
G01*
D11*
X156315000Y-51960000D02*
X156315000Y-50040000D01*
X156315000Y-50040000D02*
X159175000Y-50040000D01*
X159175000Y-51960000D02*
X156315000Y-51960000D01*
D12*
X343711000Y-183027000D02*
G75*
G03*
X343711000Y-183027000I-50000J0D01*
G01*
X191711000Y-126027000D02*
G75*
G03*
X191711000Y-126027000I-50000J0D01*
G01*
X58711000Y-126027000D02*
G75*
G03*
X58711000Y-126027000I-50000J0D01*
G01*
X324711000Y-78527000D02*
G75*
G03*
X324711000Y-78527000I-50000J0D01*
G01*
X296211000Y-78527000D02*
G75*
G03*
X296211000Y-78527000I-50000J0D01*
G01*
X163550000Y-183027000D02*
G75*
G03*
X163550000Y-183027000I-50000J0D01*
G01*
X343711000Y-126027000D02*
G75*
G03*
X343711000Y-126027000I-50000J0D01*
G01*
X267711000Y-126027000D02*
G75*
G03*
X267711000Y-126027000I-50000J0D01*
G01*
D11*
X51240000Y-51960000D02*
X51240000Y-50040000D01*
X51240000Y-50040000D02*
X54100000Y-50040000D01*
X54100000Y-51960000D02*
X51240000Y-51960000D01*
D12*
X153711000Y-126027000D02*
G75*
G03*
X153711000Y-126027000I-50000J0D01*
G01*
X186961000Y-164027000D02*
G75*
G03*
X186961000Y-164027000I-50000J0D01*
G01*
X30211000Y-78527000D02*
G75*
G03*
X30211000Y-78527000I-50000J0D01*
G01*
X293836000Y-135527000D02*
G75*
G03*
X293836000Y-135527000I-50000J0D01*
G01*
X220211000Y-107027000D02*
G75*
G03*
X220211000Y-107027000I-50000J0D01*
G01*
D11*
X198440000Y-50040000D02*
X201300000Y-50040000D01*
X198440000Y-51960000D02*
X198440000Y-50040000D01*
X201300000Y-51960000D02*
X198440000Y-51960000D01*
D12*
X153711000Y-78527000D02*
G75*
G03*
X153711000Y-78527000I-50000J0D01*
G01*
D11*
X383435000Y-132227064D02*
X383435000Y-131772936D01*
X381965000Y-132227064D02*
X381965000Y-131772936D01*
D12*
X362711000Y-126027000D02*
G75*
G03*
X362711000Y-126027000I-50000J0D01*
G01*
X239211000Y-107027000D02*
G75*
G03*
X239211000Y-107027000I-50000J0D01*
G01*
X269050000Y-182735000D02*
G75*
G03*
X269050000Y-182735000I-50000J0D01*
G01*
D11*
X49172936Y-50265000D02*
X49627064Y-50265000D01*
X49172936Y-51735000D02*
X49627064Y-51735000D01*
D12*
X343711000Y-107027000D02*
G75*
G03*
X343711000Y-107027000I-50000J0D01*
G01*
X63461000Y-145027000D02*
G75*
G03*
X63461000Y-145027000I-50000J0D01*
G01*
X324711000Y-183027000D02*
G75*
G03*
X324711000Y-183027000I-50000J0D01*
G01*
D11*
X196372936Y-51735000D02*
X196827064Y-51735000D01*
X196372936Y-50265000D02*
X196827064Y-50265000D01*
D12*
X258211000Y-78527000D02*
G75*
G03*
X258211000Y-78527000I-50000J0D01*
G01*
X139461000Y-145027000D02*
G75*
G03*
X139461000Y-145027000I-50000J0D01*
G01*
M02*
