%TF.GenerationSoftware,KiCad,Pcbnew,(5.99.0-10004-g132ec37b56)*%
%TF.CreationDate,2021-04-06T22:09:18+02:00*%
%TF.ProjectId,gh80-3003-nicosmod,67683830-2d33-4303-9033-2d6e69636f73,rev?*%
%TF.SameCoordinates,Original*%
%TF.FileFunction,Soldermask,Top*%
%TF.FilePolarity,Negative*%
%FSLAX46Y46*%
G04 Gerber Fmt 4.6, Leading zero omitted, Abs format (unit mm)*
G04 Created by KiCad (PCBNEW (5.99.0-10004-g132ec37b56)) date 2021-04-06 22:09:18*
%MOMM*%
%LPD*%
G01*
G04 APERTURE LIST*
G04 Aperture macros list*
%AMRoundRect*
0 Rectangle with rounded corners*
0 $1 Rounding radius*
0 $2 $3 $4 $5 $6 $7 $8 $9 X,Y pos of 4 corners*
0 Add a 4 corners polygon primitive as box body*
4,1,4,$2,$3,$4,$5,$6,$7,$8,$9,$2,$3,0*
0 Add four circle primitives for the rounded corners*
1,1,$1+$1,$2,$3*
1,1,$1+$1,$4,$5*
1,1,$1+$1,$6,$7*
1,1,$1+$1,$8,$9*
0 Add four rect primitives between the rounded corners*
20,1,$1+$1,$2,$3,$4,$5,0*
20,1,$1+$1,$4,$5,$6,$7,0*
20,1,$1+$1,$6,$7,$8,$9,0*
20,1,$1+$1,$8,$9,$2,$3,0*%
G04 Aperture macros list end*
%ADD10C,0.010000*%
%ADD11C,1.524000*%
%ADD12C,2.200000*%
%ADD13C,4.000000*%
%ADD14C,1.700000*%
%ADD15C,3.050000*%
%ADD16RoundRect,0.250000X-0.337500X-0.475000X0.337500X-0.475000X0.337500X0.475000X-0.337500X0.475000X0*%
%ADD17RoundRect,0.250000X-0.325000X-0.450000X0.325000X-0.450000X0.325000X0.450000X-0.325000X0.450000X0*%
%ADD18RoundRect,0.200000X-0.200000X-0.275000X0.200000X-0.275000X0.200000X0.275000X-0.200000X0.275000X0*%
%ADD19RoundRect,0.225000X-0.250000X0.225000X-0.250000X-0.225000X0.250000X-0.225000X0.250000X0.225000X0*%
%ADD20RoundRect,0.200000X0.275000X-0.200000X0.275000X0.200000X-0.275000X0.200000X-0.275000X-0.200000X0*%
%ADD21RoundRect,0.250000X0.337500X0.475000X-0.337500X0.475000X-0.337500X-0.475000X0.337500X-0.475000X0*%
%ADD22RoundRect,0.225000X-0.225000X-0.250000X0.225000X-0.250000X0.225000X0.250000X-0.225000X0.250000X0*%
%ADD23RoundRect,0.225000X0.225000X0.250000X-0.225000X0.250000X-0.225000X-0.250000X0.225000X-0.250000X0*%
%ADD24R,1.700000X1.000000*%
%ADD25RoundRect,0.250000X-0.350000X-0.450000X0.350000X-0.450000X0.350000X0.450000X-0.350000X0.450000X0*%
%ADD26R,0.400000X0.425000*%
%ADD27R,0.950000X1.100000*%
%ADD28R,0.480000X0.800000*%
%ADD29RoundRect,0.150000X0.512500X0.150000X-0.512500X0.150000X-0.512500X-0.150000X0.512500X-0.150000X0*%
%ADD30R,1.350000X1.350000*%
%ADD31O,1.350000X1.350000*%
%ADD32RoundRect,0.062500X-0.475000X-0.062500X0.475000X-0.062500X0.475000X0.062500X-0.475000X0.062500X0*%
%ADD33RoundRect,0.062500X-0.062500X-0.475000X0.062500X-0.475000X0.062500X0.475000X-0.062500X0.475000X0*%
%ADD34R,5.200000X5.200000*%
%ADD35RoundRect,0.200000X0.200000X0.275000X-0.200000X0.275000X-0.200000X-0.275000X0.200000X-0.275000X0*%
%ADD36C,0.600000*%
%ADD37R,2.000000X1.000000*%
%ADD38O,0.600000X0.850000*%
%ADD39R,1.000000X0.520000*%
%ADD40R,1.000000X0.270000*%
%ADD41O,2.300000X1.300000*%
%ADD42O,2.600000X1.300000*%
%ADD43RoundRect,0.250000X0.350000X0.450000X-0.350000X0.450000X-0.350000X-0.450000X0.350000X-0.450000X0*%
%ADD44RoundRect,0.237500X-0.237500X0.300000X-0.237500X-0.300000X0.237500X-0.300000X0.237500X0.300000X0*%
%ADD45RoundRect,0.237500X0.237500X-0.300000X0.237500X0.300000X-0.237500X0.300000X-0.237500X-0.300000X0*%
%ADD46RoundRect,0.160000X-0.222500X-0.160000X0.222500X-0.160000X0.222500X0.160000X-0.222500X0.160000X0*%
%ADD47R,0.900000X0.800000*%
%ADD48C,0.800000*%
%ADD49C,1.000000*%
G04 APERTURE END LIST*
G36*
X101209565Y-63914627D02*
G01*
X101390961Y-63931915D01*
X101475959Y-63976265D01*
X101501022Y-64060389D01*
X101502474Y-64123356D01*
X101489774Y-64246277D01*
X101423565Y-64309251D01*
X101261689Y-64332164D01*
X101053741Y-64335023D01*
X100780379Y-64353176D01*
X100571382Y-64399624D01*
X100503408Y-64436623D01*
X100449459Y-64581687D01*
X100415111Y-64880990D01*
X100401906Y-65320400D01*
X100401808Y-65367956D01*
X100400450Y-65747572D01*
X100391067Y-65989085D01*
X100365692Y-66123724D01*
X100316357Y-66182718D01*
X100235097Y-66197298D01*
X100190141Y-66197689D01*
X99978474Y-66197689D01*
X99978474Y-65194811D01*
X99983465Y-64704175D01*
X100010376Y-64357762D01*
X100077115Y-64130511D01*
X100201589Y-63997359D01*
X100401707Y-63933244D01*
X100695377Y-63913103D01*
X100895308Y-63911689D01*
X101209565Y-63914627D01*
G37*
G36*
X70260474Y-57803643D02*
G01*
X68461308Y-57830833D01*
X67855009Y-57841295D01*
X67393104Y-57853501D01*
X67050651Y-57869818D01*
X66802711Y-57892613D01*
X66624343Y-57924252D01*
X66490609Y-57967103D01*
X66376569Y-58023533D01*
X66365808Y-58029713D01*
X66097964Y-58234990D01*
X65910919Y-58507566D01*
X65794650Y-58874136D01*
X65739130Y-59361395D01*
X65730808Y-59720689D01*
X65754850Y-60292691D01*
X65833660Y-60728072D01*
X65977262Y-61053529D01*
X66195680Y-61295757D01*
X66365808Y-61411666D01*
X66479272Y-61469515D01*
X66610052Y-61513559D01*
X66783084Y-61546166D01*
X67023311Y-61569703D01*
X67355671Y-61586535D01*
X67805104Y-61599031D01*
X68396550Y-61609558D01*
X68461308Y-61610546D01*
X70260474Y-61637736D01*
X70260474Y-62811023D01*
X68376641Y-62803745D01*
X67816449Y-62798781D01*
X67303100Y-62788962D01*
X66864358Y-62775239D01*
X66527988Y-62758566D01*
X66321752Y-62739895D01*
X66281141Y-62731848D01*
X65693288Y-62470990D01*
X65195552Y-62085130D01*
X64812364Y-61597138D01*
X64611822Y-61169276D01*
X64525917Y-60801933D01*
X64472901Y-60321859D01*
X64452774Y-59782432D01*
X64465537Y-59237029D01*
X64511189Y-58739029D01*
X64589730Y-58341808D01*
X64611822Y-58272102D01*
X64884022Y-57735474D01*
X65287508Y-57268212D01*
X65786629Y-56911290D01*
X65803803Y-56902137D01*
X65944732Y-56829779D01*
X66074416Y-56774192D01*
X66217298Y-56732818D01*
X66397821Y-56703095D01*
X66640428Y-56682464D01*
X66969561Y-56668366D01*
X67409663Y-56658239D01*
X67985177Y-56649526D01*
X68249641Y-56645983D01*
X70260474Y-56619278D01*
X70260474Y-57803643D01*
G37*
G36*
X104717948Y-63921201D02*
G01*
X104800534Y-63962546D01*
X104884351Y-64054943D01*
X104979737Y-64217608D01*
X105097031Y-64469757D01*
X105246571Y-64830609D01*
X105438696Y-65319379D01*
X105578817Y-65682310D01*
X105637733Y-65793727D01*
X105704424Y-65814297D01*
X105789380Y-65729724D01*
X105903088Y-65525717D01*
X106056037Y-65187983D01*
X106208771Y-64823870D01*
X106368512Y-64443130D01*
X106485818Y-64191878D01*
X106580144Y-64041984D01*
X106670949Y-63965319D01*
X106777689Y-63933753D01*
X106828794Y-63927496D01*
X107005522Y-63920396D01*
X107051401Y-63975603D01*
X107010006Y-64112312D01*
X106858610Y-64494818D01*
X106686652Y-64904469D01*
X106509999Y-65306213D01*
X106344521Y-65664995D01*
X106206085Y-65945762D01*
X106110559Y-66113462D01*
X106094734Y-66134189D01*
X105910537Y-66242612D01*
X105663862Y-66278978D01*
X105432687Y-66240178D01*
X105320527Y-66165058D01*
X105264569Y-66060675D01*
X105161511Y-65837307D01*
X105026393Y-65530601D01*
X104874256Y-65176202D01*
X104720138Y-64809758D01*
X104579080Y-64466914D01*
X104466121Y-64183317D01*
X104396302Y-63994614D01*
X104381141Y-63938596D01*
X104454684Y-63919425D01*
X104626255Y-63911689D01*
X104717948Y-63921201D01*
G37*
G36*
X107941351Y-63294224D02*
G01*
X108106474Y-63403689D01*
X108171271Y-63481560D01*
X108217143Y-63583288D01*
X108247309Y-63737045D01*
X108264990Y-63971002D01*
X108273406Y-64313332D01*
X108275774Y-64792204D01*
X108275808Y-64885356D01*
X108275808Y-66197689D01*
X107772457Y-66197689D01*
X107748965Y-64991189D01*
X107725474Y-63784689D01*
X107492641Y-63757899D01*
X107323743Y-63709286D01*
X107264148Y-63579717D01*
X107259808Y-63482732D01*
X107273713Y-63323413D01*
X107347734Y-63252586D01*
X107530325Y-63234714D01*
X107598474Y-63234356D01*
X107941351Y-63294224D01*
G37*
G36*
X108529808Y-57815689D02*
G01*
X106757319Y-57815689D01*
X106060370Y-57818650D01*
X105514408Y-57831037D01*
X105101136Y-57858107D01*
X104802260Y-57905116D01*
X104599484Y-57977321D01*
X104474513Y-58079977D01*
X104409051Y-58218342D01*
X104384802Y-58397671D01*
X104382437Y-58498007D01*
X104388547Y-58708104D01*
X104423371Y-58865508D01*
X104508567Y-58978730D01*
X104665789Y-59056284D01*
X104916694Y-59106682D01*
X105282938Y-59138437D01*
X105786176Y-59160061D01*
X106090920Y-59169585D01*
X106632535Y-59187309D01*
X107035719Y-59206320D01*
X107331349Y-59230829D01*
X107550301Y-59265047D01*
X107723452Y-59313186D01*
X107881679Y-59379457D01*
X107976660Y-59426769D01*
X108360789Y-59696767D01*
X108616746Y-60053775D01*
X108753689Y-60515008D01*
X108783808Y-60943733D01*
X108717254Y-61531066D01*
X108519635Y-62014319D01*
X108194018Y-62389160D01*
X107743466Y-62651254D01*
X107523767Y-62724998D01*
X107353007Y-62749243D01*
X107041142Y-62770840D01*
X106616394Y-62788745D01*
X106106985Y-62801918D01*
X105541134Y-62809317D01*
X105206641Y-62810550D01*
X103195808Y-62811023D01*
X103195808Y-61625689D01*
X105061194Y-61625689D01*
X105765288Y-61622605D01*
X106318962Y-61610847D01*
X106741057Y-61586660D01*
X107050414Y-61546288D01*
X107265874Y-61485975D01*
X107406278Y-61401965D01*
X107490469Y-61290502D01*
X107537287Y-61147829D01*
X107540699Y-61131399D01*
X107547530Y-60778858D01*
X107431222Y-60488474D01*
X107209060Y-60298667D01*
X107156365Y-60277164D01*
X106973726Y-60242624D01*
X106663683Y-60214049D01*
X106268132Y-60194233D01*
X105828974Y-60185967D01*
X105786673Y-60185884D01*
X105335988Y-60178613D01*
X104915619Y-60159127D01*
X104570976Y-60130343D01*
X104347468Y-60095178D01*
X104338808Y-60092903D01*
X103853827Y-59881141D01*
X103482476Y-59549320D01*
X103234914Y-59111422D01*
X103121304Y-58581433D01*
X103114860Y-58408356D01*
X103185461Y-57866715D01*
X103386607Y-57398206D01*
X103702306Y-57026059D01*
X104116570Y-56773500D01*
X104277937Y-56718748D01*
X104453958Y-56693201D01*
X104771123Y-56670638D01*
X105201253Y-56652143D01*
X105716171Y-56638803D01*
X106287697Y-56631701D01*
X106561308Y-56630828D01*
X108529808Y-56630356D01*
X108529808Y-57815689D01*
G37*
G36*
X48953759Y-60203914D02*
G01*
X48961104Y-59630173D01*
X48970222Y-59174445D01*
X48982079Y-58819624D01*
X48997640Y-58548605D01*
X49017870Y-58344281D01*
X49043734Y-58189547D01*
X49076198Y-58067298D01*
X49116227Y-57960427D01*
X49161443Y-57859077D01*
X49397673Y-57431025D01*
X49673567Y-57119471D01*
X50036635Y-56871761D01*
X50067474Y-56854950D01*
X50196271Y-56791687D01*
X50331809Y-56744972D01*
X50501203Y-56712322D01*
X50731567Y-56691252D01*
X51050015Y-56679279D01*
X51483663Y-56673920D01*
X52057141Y-56672689D01*
X52625428Y-56673300D01*
X53053143Y-56677282D01*
X53369048Y-56687857D01*
X53601902Y-56708250D01*
X53780467Y-56741683D01*
X53933505Y-56791380D01*
X54089776Y-56860564D01*
X54196373Y-56912434D01*
X54688963Y-57229702D01*
X55066940Y-57646452D01*
X55335093Y-58172531D01*
X55498213Y-58817786D01*
X55561086Y-59592063D01*
X55562167Y-59720689D01*
X55517472Y-60502939D01*
X55379064Y-61153529D01*
X55140465Y-61685934D01*
X54795193Y-62113629D01*
X54336767Y-62450092D01*
X54218909Y-62513810D01*
X53720951Y-62768689D01*
X51957712Y-62795986D01*
X50194474Y-62823283D01*
X50194474Y-65266356D01*
X48914245Y-65266356D01*
X48940526Y-61773856D01*
X48941553Y-61641776D01*
X50180527Y-61641776D01*
X51775001Y-61612566D01*
X52345616Y-61600367D01*
X52773545Y-61585749D01*
X53085436Y-61565911D01*
X53307937Y-61538053D01*
X53467695Y-61499374D01*
X53591357Y-61447073D01*
X53646439Y-61415872D01*
X53951632Y-61142563D01*
X54158711Y-60747056D01*
X54270772Y-60221455D01*
X54294356Y-59763742D01*
X54266287Y-59174842D01*
X54170672Y-58708075D01*
X53993066Y-58352371D01*
X53719022Y-58096662D01*
X53334097Y-57929878D01*
X52823843Y-57840950D01*
X52173815Y-57818810D01*
X51771063Y-57830221D01*
X51291962Y-57866598D01*
X50943918Y-57936925D01*
X50689734Y-58056086D01*
X50492210Y-58238966D01*
X50386153Y-58384348D01*
X50330566Y-58492737D01*
X50288867Y-58641943D01*
X50258404Y-58857994D01*
X50236526Y-59166921D01*
X50220582Y-59594752D01*
X50208667Y-60126879D01*
X50180527Y-61641776D01*
X48941553Y-61641776D01*
X48947221Y-60912773D01*
X48953759Y-60203914D01*
G37*
G36*
X82960474Y-59191069D02*
G01*
X83712848Y-59155097D01*
X84170949Y-59117017D01*
X84502024Y-59054598D01*
X84659648Y-58990032D01*
X84769296Y-58871879D01*
X84938678Y-58634755D01*
X85147752Y-58309051D01*
X85376475Y-57925158D01*
X85466348Y-57766814D01*
X86078623Y-56672689D01*
X86772832Y-56647943D01*
X87467042Y-56623197D01*
X87105977Y-57282943D01*
X86743670Y-57931306D01*
X86439807Y-58442929D01*
X86182706Y-58835203D01*
X85960685Y-59125516D01*
X85762060Y-59331260D01*
X85689352Y-59391609D01*
X85348342Y-59655196D01*
X85633747Y-59791296D01*
X85854329Y-59942862D01*
X86087115Y-60171398D01*
X86182103Y-60289710D01*
X86301307Y-60468305D01*
X86471209Y-60741383D01*
X86674392Y-61078852D01*
X86893438Y-61450616D01*
X87110932Y-61826582D01*
X87309456Y-62176655D01*
X87471592Y-62470742D01*
X87579925Y-62678748D01*
X87617141Y-62769250D01*
X87539165Y-62788800D01*
X87331563Y-62798371D01*
X87033821Y-62796599D01*
X86922167Y-62793280D01*
X86227193Y-62768689D01*
X85620098Y-61668023D01*
X85340774Y-61172706D01*
X85110520Y-60807601D01*
X84902042Y-60551784D01*
X84688043Y-60384333D01*
X84441227Y-60284324D01*
X84134299Y-60230832D01*
X83739963Y-60202936D01*
X83706689Y-60201320D01*
X82960474Y-60165643D01*
X82960474Y-62811023D01*
X81690474Y-62811023D01*
X81690474Y-53921023D01*
X82960474Y-53921023D01*
X82960474Y-59191069D01*
G37*
G36*
X56989474Y-58620987D02*
G01*
X57014619Y-58223031D01*
X57047583Y-57959033D01*
X57064167Y-57891823D01*
X57306864Y-57415719D01*
X57672248Y-57028746D01*
X57925212Y-56862408D01*
X58049942Y-56800224D01*
X58176917Y-56753328D01*
X58331244Y-56719574D01*
X58538029Y-56696812D01*
X58822377Y-56682894D01*
X59209396Y-56675674D01*
X59724189Y-56673003D01*
X60142808Y-56672689D01*
X60753388Y-56673437D01*
X61219510Y-56677148D01*
X61566048Y-56686024D01*
X61817875Y-56702268D01*
X61999864Y-56728081D01*
X62136889Y-56765666D01*
X62253824Y-56817224D01*
X62345595Y-56867701D01*
X62734829Y-57174936D01*
X63004896Y-57588880D01*
X63151353Y-58046122D01*
X63197664Y-58571723D01*
X63122269Y-59082956D01*
X62935721Y-59530131D01*
X62794778Y-59724871D01*
X62629397Y-59889177D01*
X62440946Y-60017695D01*
X62207389Y-60114589D01*
X61906686Y-60184026D01*
X61516800Y-60230169D01*
X61015694Y-60257185D01*
X60381328Y-60269237D01*
X59905002Y-60271023D01*
X58131597Y-60271023D01*
X58172998Y-60701894D01*
X58238690Y-61042453D01*
X58375269Y-61287562D01*
X58439543Y-61358061D01*
X58664687Y-61583356D01*
X60779580Y-61608661D01*
X62894474Y-61633967D01*
X62894474Y-62811023D01*
X60714308Y-62803745D01*
X60112506Y-62799315D01*
X59557649Y-62790649D01*
X59075064Y-62778507D01*
X58690082Y-62763651D01*
X58428033Y-62746841D01*
X58321926Y-62731915D01*
X57795141Y-62494375D01*
X57390158Y-62141270D01*
X57111656Y-61676998D01*
X57064167Y-61549555D01*
X57028183Y-61352008D01*
X56999451Y-61009754D01*
X56979264Y-60547314D01*
X56968913Y-59989210D01*
X56967808Y-59720689D01*
X56971430Y-59339689D01*
X58132789Y-59339689D01*
X59696664Y-59339689D01*
X60272386Y-59334432D01*
X60772457Y-59319552D01*
X61170730Y-59296383D01*
X61441060Y-59266260D01*
X61528960Y-59246117D01*
X61797056Y-59076171D01*
X61943703Y-58820003D01*
X61961037Y-58516980D01*
X61841193Y-58206468D01*
X61758805Y-58095577D01*
X61554469Y-57858023D01*
X58664989Y-57858023D01*
X58435906Y-58087106D01*
X58295388Y-58261977D01*
X58215457Y-58471885D01*
X58173480Y-58779843D01*
X58169805Y-58827940D01*
X58132789Y-59339689D01*
X56971430Y-59339689D01*
X56973439Y-59128380D01*
X56989474Y-58620987D01*
G37*
G36*
X101929256Y-64336804D02*
G01*
X101965009Y-64256411D01*
X102061023Y-64100872D01*
X102180071Y-64000399D01*
X102358759Y-63943223D01*
X102633693Y-63917576D01*
X103037247Y-63911689D01*
X103385941Y-63917180D01*
X103612476Y-63941039D01*
X103763869Y-63994342D01*
X103887137Y-64088168D01*
X103919323Y-64119507D01*
X104094090Y-64392511D01*
X104129056Y-64689853D01*
X104024970Y-64963785D01*
X103904056Y-65090877D01*
X103752601Y-65184498D01*
X103562546Y-65238505D01*
X103285655Y-65262421D01*
X103015056Y-65266356D01*
X102682461Y-65268943D01*
X102484386Y-65283766D01*
X102386026Y-65321413D01*
X102352574Y-65392475D01*
X102349141Y-65468964D01*
X102368698Y-65601161D01*
X102445668Y-65689249D01*
X102607494Y-65741776D01*
X102881623Y-65767288D01*
X103295498Y-65774333D01*
X103329732Y-65774356D01*
X103676197Y-65776346D01*
X103887017Y-65788987D01*
X103995878Y-65822282D01*
X104036468Y-65886236D01*
X104042474Y-65986023D01*
X104042474Y-66197689D01*
X103174641Y-66191005D01*
X102799755Y-66184158D01*
X102483472Y-66171047D01*
X102267288Y-66153800D01*
X102199193Y-66141022D01*
X102053025Y-66000117D01*
X101940005Y-65736356D01*
X101865625Y-65393941D01*
X101835378Y-65017075D01*
X101853083Y-64681694D01*
X102349141Y-64681694D01*
X102349141Y-64927689D01*
X102938829Y-64927689D01*
X103261930Y-64920368D01*
X103457583Y-64891725D01*
X103567295Y-64831742D01*
X103615994Y-64764236D01*
X103647601Y-64575681D01*
X103528551Y-64434854D01*
X103273400Y-64352371D01*
X103027351Y-64335023D01*
X102683976Y-64348689D01*
X102477290Y-64400355D01*
X102376082Y-64506022D01*
X102349141Y-64681694D01*
X101853083Y-64681694D01*
X101854758Y-64649962D01*
X101929256Y-64336804D01*
G37*
G36*
X98803748Y-65224023D02*
G01*
X98118527Y-65248655D01*
X97433305Y-65273288D01*
X97551708Y-64994655D01*
X97867410Y-64249974D01*
X98124893Y-63638864D01*
X98322172Y-63166098D01*
X98457265Y-62836447D01*
X98528188Y-62654684D01*
X98539141Y-62619041D01*
X98464593Y-62581787D01*
X98278463Y-62537981D01*
X98204512Y-62525155D01*
X97898921Y-62421195D01*
X97666719Y-62196834D01*
X97599773Y-62071987D01*
X97481245Y-61815471D01*
X97320401Y-61449865D01*
X97126510Y-60997744D01*
X96908837Y-60481684D01*
X96676651Y-59924261D01*
X96439220Y-59348052D01*
X96205809Y-58775632D01*
X95985687Y-58229579D01*
X95788122Y-57732468D01*
X95622380Y-57306875D01*
X95497728Y-56975376D01*
X95423435Y-56760549D01*
X95406325Y-56690294D01*
X95484117Y-56661574D01*
X95690163Y-56645786D01*
X95983695Y-56645582D01*
X96057817Y-56647961D01*
X96709160Y-56672689D01*
X97651905Y-58982210D01*
X97894298Y-59571718D01*
X98119725Y-60111800D01*
X98319401Y-60582047D01*
X98484540Y-60962048D01*
X98606357Y-61231396D01*
X98676067Y-61369679D01*
X98684902Y-61381983D01*
X98767892Y-61447990D01*
X98850175Y-61465027D01*
X98939873Y-61419768D01*
X99045108Y-61298890D01*
X99174002Y-61089066D01*
X99334676Y-60776973D01*
X99535253Y-60349285D01*
X99783853Y-59792677D01*
X100088600Y-59093825D01*
X100110756Y-59042672D01*
X101136977Y-56672689D01*
X101822470Y-56648183D01*
X102507962Y-56623677D01*
X98803748Y-65224023D01*
G37*
G36*
X88317080Y-58601830D02*
G01*
X88341242Y-58221673D01*
X88374078Y-57959360D01*
X88390834Y-57891823D01*
X88633531Y-57415719D01*
X88998915Y-57028746D01*
X89251879Y-56862408D01*
X89376608Y-56800224D01*
X89503583Y-56753328D01*
X89657911Y-56719574D01*
X89864695Y-56696812D01*
X90149044Y-56682894D01*
X90536062Y-56675674D01*
X91050856Y-56673003D01*
X91469474Y-56672689D01*
X92080055Y-56673437D01*
X92546177Y-56677148D01*
X92892715Y-56686024D01*
X93144541Y-56702268D01*
X93326531Y-56728081D01*
X93463556Y-56765666D01*
X93580491Y-56817224D01*
X93672262Y-56867701D01*
X94061496Y-57174936D01*
X94331562Y-57588880D01*
X94478019Y-58046122D01*
X94524331Y-58571723D01*
X94448936Y-59082956D01*
X94262388Y-59530131D01*
X94121445Y-59724871D01*
X93956064Y-59889177D01*
X93767613Y-60017695D01*
X93534055Y-60114589D01*
X93233353Y-60184026D01*
X92843467Y-60230169D01*
X92342361Y-60257185D01*
X91707995Y-60269237D01*
X91231668Y-60271023D01*
X89458263Y-60271023D01*
X89499665Y-60701894D01*
X89565357Y-61042453D01*
X89701935Y-61287562D01*
X89766210Y-61358061D01*
X89991353Y-61583356D01*
X92106247Y-61608661D01*
X94221141Y-61633967D01*
X94221141Y-62811023D01*
X92040974Y-62803745D01*
X91439173Y-62799315D01*
X90884315Y-62790649D01*
X90401731Y-62778507D01*
X90016749Y-62763651D01*
X89754699Y-62746841D01*
X89648593Y-62731915D01*
X89121808Y-62494375D01*
X88716825Y-62141270D01*
X88438322Y-61676998D01*
X88390834Y-61549555D01*
X88354274Y-61348828D01*
X88326388Y-61014860D01*
X88307178Y-60583520D01*
X88296641Y-60090678D01*
X88294780Y-59572202D01*
X88297896Y-59339689D01*
X89459455Y-59339689D01*
X91023330Y-59339689D01*
X91599052Y-59334432D01*
X92099123Y-59319552D01*
X92497397Y-59296383D01*
X92767726Y-59266260D01*
X92855627Y-59246117D01*
X93123723Y-59076171D01*
X93270370Y-58820003D01*
X93287704Y-58516980D01*
X93167860Y-58206468D01*
X93085472Y-58095577D01*
X92881136Y-57858023D01*
X89991656Y-57858023D01*
X89762572Y-58087106D01*
X89622054Y-58261977D01*
X89542123Y-58471885D01*
X89500146Y-58779843D01*
X89496472Y-58827940D01*
X89459455Y-59339689D01*
X88297896Y-59339689D01*
X88301592Y-59063963D01*
X88317080Y-58601830D01*
G37*
G36*
X47231141Y-57815689D02*
G01*
X45458653Y-57815689D01*
X44761704Y-57818650D01*
X44215741Y-57831037D01*
X43802470Y-57858107D01*
X43503594Y-57905116D01*
X43300818Y-57977321D01*
X43175846Y-58079977D01*
X43110384Y-58218342D01*
X43086136Y-58397671D01*
X43083771Y-58498007D01*
X43089880Y-58708104D01*
X43124705Y-58865508D01*
X43209900Y-58978730D01*
X43367123Y-59056284D01*
X43618028Y-59106682D01*
X43984272Y-59138437D01*
X44487510Y-59160061D01*
X44792253Y-59169585D01*
X45333869Y-59187309D01*
X45737053Y-59206320D01*
X46032682Y-59230829D01*
X46251634Y-59265047D01*
X46424785Y-59313186D01*
X46583012Y-59379457D01*
X46677993Y-59426769D01*
X47062122Y-59696767D01*
X47318079Y-60053775D01*
X47455023Y-60515008D01*
X47485141Y-60943733D01*
X47418587Y-61531066D01*
X47220969Y-62014319D01*
X46895351Y-62389160D01*
X46444799Y-62651254D01*
X46225100Y-62724998D01*
X46054340Y-62749243D01*
X45742476Y-62770840D01*
X45317728Y-62788745D01*
X44808318Y-62801918D01*
X44242467Y-62809317D01*
X43907974Y-62810550D01*
X41897141Y-62811023D01*
X41897141Y-61625689D01*
X43762527Y-61625689D01*
X44466622Y-61622605D01*
X45020296Y-61610847D01*
X45442390Y-61586660D01*
X45751747Y-61546288D01*
X45967207Y-61485975D01*
X46107612Y-61401965D01*
X46191802Y-61290502D01*
X46238620Y-61147829D01*
X46242032Y-61131399D01*
X46248864Y-60778858D01*
X46132555Y-60488474D01*
X45910393Y-60298667D01*
X45857698Y-60277164D01*
X45675060Y-60242624D01*
X45365016Y-60214049D01*
X44969466Y-60194233D01*
X44530307Y-60185967D01*
X44488007Y-60185884D01*
X44037321Y-60178613D01*
X43616952Y-60159127D01*
X43272309Y-60130343D01*
X43048802Y-60095178D01*
X43040141Y-60092903D01*
X42555160Y-59881141D01*
X42183809Y-59549320D01*
X41936248Y-59111422D01*
X41822637Y-58581433D01*
X41816193Y-58408356D01*
X41886795Y-57866715D01*
X42087940Y-57398206D01*
X42403640Y-57026059D01*
X42817904Y-56773500D01*
X42979270Y-56718748D01*
X43155291Y-56693201D01*
X43472456Y-56670638D01*
X43902587Y-56652143D01*
X44417504Y-56638803D01*
X44989031Y-56631701D01*
X45262641Y-56630828D01*
X47231141Y-56630356D01*
X47231141Y-57815689D01*
G37*
G36*
X76864474Y-57815689D02*
G01*
X75091986Y-57815689D01*
X74395037Y-57818650D01*
X73849074Y-57831037D01*
X73435803Y-57858107D01*
X73136927Y-57905116D01*
X72934151Y-57977321D01*
X72809180Y-58079977D01*
X72743718Y-58218342D01*
X72719469Y-58397671D01*
X72717104Y-58498007D01*
X72723213Y-58708104D01*
X72758038Y-58865508D01*
X72843233Y-58978730D01*
X73000456Y-59056284D01*
X73251361Y-59106682D01*
X73617605Y-59138437D01*
X74120843Y-59160061D01*
X74425587Y-59169585D01*
X74967202Y-59187309D01*
X75370386Y-59206320D01*
X75666015Y-59230829D01*
X75884967Y-59265047D01*
X76058118Y-59313186D01*
X76216345Y-59379457D01*
X76311326Y-59426769D01*
X76695456Y-59696767D01*
X76951412Y-60053775D01*
X77088356Y-60515008D01*
X77118474Y-60943733D01*
X77051920Y-61531066D01*
X76854302Y-62014319D01*
X76528684Y-62389160D01*
X76078132Y-62651254D01*
X75858434Y-62724998D01*
X75687673Y-62749243D01*
X75375809Y-62770840D01*
X74951061Y-62788745D01*
X74441651Y-62801918D01*
X73875801Y-62809317D01*
X73541308Y-62810550D01*
X71530474Y-62811023D01*
X71530474Y-61625689D01*
X73395860Y-61625689D01*
X74099955Y-61622605D01*
X74653629Y-61610847D01*
X75075724Y-61586660D01*
X75385080Y-61546288D01*
X75600541Y-61485975D01*
X75740945Y-61401965D01*
X75825136Y-61290502D01*
X75871953Y-61147829D01*
X75875366Y-61131399D01*
X75882197Y-60778858D01*
X75765889Y-60488474D01*
X75543726Y-60298667D01*
X75491032Y-60277164D01*
X75308393Y-60242624D01*
X74998349Y-60214049D01*
X74602799Y-60194233D01*
X74163641Y-60185967D01*
X74121340Y-60185884D01*
X73670655Y-60178613D01*
X73250285Y-60159127D01*
X72905642Y-60130343D01*
X72682135Y-60095178D01*
X72673474Y-60092903D01*
X72188494Y-59881141D01*
X71817142Y-59549320D01*
X71569581Y-59111422D01*
X71455971Y-58581433D01*
X71449526Y-58408356D01*
X71520128Y-57866715D01*
X71721274Y-57398206D01*
X72036973Y-57026059D01*
X72451237Y-56773500D01*
X72612603Y-56718748D01*
X72788624Y-56693201D01*
X73105789Y-56670638D01*
X73535920Y-56652143D01*
X74050838Y-56638803D01*
X74622364Y-56631701D01*
X74895974Y-56630828D01*
X76864474Y-56630356D01*
X76864474Y-57815689D01*
G37*
D10*
X195765204Y-188482965D02*
X195948783Y-188530246D01*
X195948783Y-188530246D02*
X196130341Y-188619552D01*
X196130341Y-188619552D02*
X196173071Y-188647006D01*
X196173071Y-188647006D02*
X196330920Y-188776035D01*
X196330920Y-188776035D02*
X196454794Y-188925639D01*
X196454794Y-188925639D02*
X196543434Y-189091292D01*
X196543434Y-189091292D02*
X196595581Y-189268469D01*
X196595581Y-189268469D02*
X196609974Y-189452643D01*
X196609974Y-189452643D02*
X196585354Y-189639290D01*
X196585354Y-189639290D02*
X196520462Y-189823882D01*
X196520462Y-189823882D02*
X196507810Y-189849863D01*
X196507810Y-189849863D02*
X196465757Y-189924535D01*
X196465757Y-189924535D02*
X196410588Y-190006654D01*
X196410588Y-190006654D02*
X196340218Y-190098443D01*
X196340218Y-190098443D02*
X196252563Y-190202129D01*
X196252563Y-190202129D02*
X196145539Y-190319937D01*
X196145539Y-190319937D02*
X196017061Y-190454091D01*
X196017061Y-190454091D02*
X195865046Y-190606817D01*
X195865046Y-190606817D02*
X195687408Y-190780340D01*
X195687408Y-190780340D02*
X195482064Y-190976885D01*
X195482064Y-190976885D02*
X195246928Y-191198678D01*
X195246928Y-191198678D02*
X195225920Y-191218374D01*
X195225920Y-191218374D02*
X194927423Y-191498100D01*
X194927423Y-191498100D02*
X194453414Y-191101758D01*
X194453414Y-191101758D02*
X194220057Y-190904710D01*
X194220057Y-190904710D02*
X194018493Y-190729731D01*
X194018493Y-190729731D02*
X193846376Y-190573861D01*
X193846376Y-190573861D02*
X193701354Y-190434144D01*
X193701354Y-190434144D02*
X193581081Y-190307619D01*
X193581081Y-190307619D02*
X193483205Y-190191329D01*
X193483205Y-190191329D02*
X193405380Y-190082315D01*
X193405380Y-190082315D02*
X193345255Y-189977619D01*
X193345255Y-189977619D02*
X193300482Y-189874281D01*
X193300482Y-189874281D02*
X193268712Y-189769345D01*
X193268712Y-189769345D02*
X193247596Y-189659850D01*
X193247596Y-189659850D02*
X193237042Y-189569734D01*
X193237042Y-189569734D02*
X193235921Y-189364628D01*
X193235921Y-189364628D02*
X193268573Y-189172029D01*
X193268573Y-189172029D02*
X193331895Y-188995570D01*
X193331895Y-188995570D02*
X193422781Y-188838885D01*
X193422781Y-188838885D02*
X193538128Y-188705607D01*
X193538128Y-188705607D02*
X193674831Y-188599372D01*
X193674831Y-188599372D02*
X193829786Y-188523811D01*
X193829786Y-188523811D02*
X193999888Y-188482558D01*
X193999888Y-188482558D02*
X194169570Y-188478215D01*
X194169570Y-188478215D02*
X194359548Y-188513126D01*
X194359548Y-188513126D02*
X194548471Y-188589323D01*
X194548471Y-188589323D02*
X194734574Y-188705088D01*
X194734574Y-188705088D02*
X194803174Y-188753439D01*
X194803174Y-188753439D02*
X194859786Y-188790209D01*
X194859786Y-188790209D02*
X194895125Y-188809483D01*
X194895125Y-188809483D02*
X194900748Y-188810999D01*
X194900748Y-188810999D02*
X194926370Y-188798454D01*
X194926370Y-188798454D02*
X194974472Y-188765363D01*
X194974472Y-188765363D02*
X195035234Y-188718542D01*
X195035234Y-188718542D02*
X195043027Y-188712230D01*
X195043027Y-188712230D02*
X195218512Y-188592342D01*
X195218512Y-188592342D02*
X195398449Y-188514106D01*
X195398449Y-188514106D02*
X195581219Y-188477616D01*
X195581219Y-188477616D02*
X195765204Y-188482965D01*
X195765204Y-188482965D02*
X195765204Y-188482965D01*
G36*
X195765204Y-188482965D02*
G01*
X195948783Y-188530246D01*
X196130341Y-188619552D01*
X196173071Y-188647006D01*
X196330920Y-188776035D01*
X196454794Y-188925639D01*
X196543434Y-189091292D01*
X196595581Y-189268469D01*
X196609974Y-189452643D01*
X196585354Y-189639290D01*
X196520462Y-189823882D01*
X196507810Y-189849863D01*
X196465757Y-189924535D01*
X196410588Y-190006654D01*
X196340218Y-190098443D01*
X196252563Y-190202129D01*
X196145539Y-190319937D01*
X196017061Y-190454091D01*
X195865046Y-190606817D01*
X195687408Y-190780340D01*
X195482064Y-190976885D01*
X195246928Y-191198678D01*
X195225920Y-191218374D01*
X194927423Y-191498100D01*
X194453414Y-191101758D01*
X194220057Y-190904710D01*
X194018493Y-190729731D01*
X193846376Y-190573861D01*
X193701354Y-190434144D01*
X193581081Y-190307619D01*
X193483205Y-190191329D01*
X193405380Y-190082315D01*
X193345255Y-189977619D01*
X193300482Y-189874281D01*
X193268712Y-189769345D01*
X193247596Y-189659850D01*
X193237042Y-189569734D01*
X193235921Y-189364628D01*
X193268573Y-189172029D01*
X193331895Y-188995570D01*
X193422781Y-188838885D01*
X193538128Y-188705607D01*
X193674831Y-188599372D01*
X193829786Y-188523811D01*
X193999888Y-188482558D01*
X194169570Y-188478215D01*
X194359548Y-188513126D01*
X194548471Y-188589323D01*
X194734574Y-188705088D01*
X194803174Y-188753439D01*
X194859786Y-188790209D01*
X194895125Y-188809483D01*
X194900748Y-188810999D01*
X194926370Y-188798454D01*
X194974472Y-188765363D01*
X195035234Y-188718542D01*
X195043027Y-188712230D01*
X195218512Y-188592342D01*
X195398449Y-188514106D01*
X195581219Y-188477616D01*
X195765204Y-188482965D01*
G37*
X195765204Y-188482965D02*
X195948783Y-188530246D01*
X196130341Y-188619552D01*
X196173071Y-188647006D01*
X196330920Y-188776035D01*
X196454794Y-188925639D01*
X196543434Y-189091292D01*
X196595581Y-189268469D01*
X196609974Y-189452643D01*
X196585354Y-189639290D01*
X196520462Y-189823882D01*
X196507810Y-189849863D01*
X196465757Y-189924535D01*
X196410588Y-190006654D01*
X196340218Y-190098443D01*
X196252563Y-190202129D01*
X196145539Y-190319937D01*
X196017061Y-190454091D01*
X195865046Y-190606817D01*
X195687408Y-190780340D01*
X195482064Y-190976885D01*
X195246928Y-191198678D01*
X195225920Y-191218374D01*
X194927423Y-191498100D01*
X194453414Y-191101758D01*
X194220057Y-190904710D01*
X194018493Y-190729731D01*
X193846376Y-190573861D01*
X193701354Y-190434144D01*
X193581081Y-190307619D01*
X193483205Y-190191329D01*
X193405380Y-190082315D01*
X193345255Y-189977619D01*
X193300482Y-189874281D01*
X193268712Y-189769345D01*
X193247596Y-189659850D01*
X193237042Y-189569734D01*
X193235921Y-189364628D01*
X193268573Y-189172029D01*
X193331895Y-188995570D01*
X193422781Y-188838885D01*
X193538128Y-188705607D01*
X193674831Y-188599372D01*
X193829786Y-188523811D01*
X193999888Y-188482558D01*
X194169570Y-188478215D01*
X194359548Y-188513126D01*
X194548471Y-188589323D01*
X194734574Y-188705088D01*
X194803174Y-188753439D01*
X194859786Y-188790209D01*
X194895125Y-188809483D01*
X194900748Y-188810999D01*
X194926370Y-188798454D01*
X194974472Y-188765363D01*
X195035234Y-188718542D01*
X195043027Y-188712230D01*
X195218512Y-188592342D01*
X195398449Y-188514106D01*
X195581219Y-188477616D01*
X195765204Y-188482965D01*
X195103270Y-187042557D02*
X195410540Y-187084067D01*
X195410540Y-187084067D02*
X195711196Y-187160662D01*
X195711196Y-187160662D02*
X196001815Y-187271852D01*
X196001815Y-187271852D02*
X196278973Y-187417147D01*
X196278973Y-187417147D02*
X196539247Y-187596058D01*
X196539247Y-187596058D02*
X196779213Y-187808093D01*
X196779213Y-187808093D02*
X196995448Y-188052763D01*
X196995448Y-188052763D02*
X197023045Y-188088813D01*
X197023045Y-188088813D02*
X197206843Y-188366417D01*
X197206843Y-188366417D02*
X197351922Y-188656242D01*
X197351922Y-188656242D02*
X197459014Y-188955155D01*
X197459014Y-188955155D02*
X197528850Y-189260023D01*
X197528850Y-189260023D02*
X197562162Y-189567713D01*
X197562162Y-189567713D02*
X197559682Y-189875092D01*
X197559682Y-189875092D02*
X197522141Y-190179027D01*
X197522141Y-190179027D02*
X197450271Y-190476384D01*
X197450271Y-190476384D02*
X197344804Y-190764031D01*
X197344804Y-190764031D02*
X197206472Y-191038835D01*
X197206472Y-191038835D02*
X197036006Y-191297662D01*
X197036006Y-191297662D02*
X196834137Y-191537379D01*
X196834137Y-191537379D02*
X196601598Y-191754854D01*
X196601598Y-191754854D02*
X196339121Y-191946954D01*
X196339121Y-191946954D02*
X196088570Y-192090199D01*
X196088570Y-192090199D02*
X195941703Y-192155662D01*
X195941703Y-192155662D02*
X195768888Y-192218892D01*
X195768888Y-192218892D02*
X195586406Y-192274695D01*
X195586406Y-192274695D02*
X195410540Y-192317880D01*
X195410540Y-192317880D02*
X195323333Y-192334242D01*
X195323333Y-192334242D02*
X195145266Y-192354531D01*
X195145266Y-192354531D02*
X194945185Y-192363183D01*
X194945185Y-192363183D02*
X194740787Y-192360225D01*
X194740787Y-192360225D02*
X194549769Y-192345686D01*
X194549769Y-192345686D02*
X194457547Y-192332883D01*
X194457547Y-192332883D02*
X194174505Y-192267078D01*
X194174505Y-192267078D02*
X193890087Y-192166400D01*
X193890087Y-192166400D02*
X193616540Y-192036059D01*
X193616540Y-192036059D02*
X193366112Y-191881262D01*
X193366112Y-191881262D02*
X193323855Y-191850774D01*
X193323855Y-191850774D02*
X193069403Y-191637943D01*
X193069403Y-191637943D02*
X192848751Y-191402925D01*
X192848751Y-191402925D02*
X192661909Y-191148888D01*
X192661909Y-191148888D02*
X192508883Y-190879001D01*
X192508883Y-190879001D02*
X192389683Y-190596431D01*
X192389683Y-190596431D02*
X192304317Y-190304346D01*
X192304317Y-190304346D02*
X192252794Y-190005913D01*
X192252794Y-190005913D02*
X192235121Y-189704301D01*
X192235121Y-189704301D02*
X192235371Y-189699641D01*
X192235371Y-189699641D02*
X192607863Y-189699641D01*
X192607863Y-189699641D02*
X192616259Y-189924295D01*
X192616259Y-189924295D02*
X192662483Y-190226524D01*
X192662483Y-190226524D02*
X192747789Y-190516288D01*
X192747789Y-190516288D02*
X192869926Y-190790270D01*
X192869926Y-190790270D02*
X193026641Y-191045151D01*
X193026641Y-191045151D02*
X193215684Y-191277615D01*
X193215684Y-191277615D02*
X193434803Y-191484341D01*
X193434803Y-191484341D02*
X193681747Y-191662014D01*
X193681747Y-191662014D02*
X193865330Y-191765004D01*
X193865330Y-191765004D02*
X194031231Y-191838675D01*
X194031231Y-191838675D02*
X194216614Y-191905066D01*
X194216614Y-191905066D02*
X194401984Y-191957739D01*
X194401984Y-191957739D02*
X194529583Y-191984418D01*
X194529583Y-191984418D02*
X194642067Y-191996978D01*
X194642067Y-191996978D02*
X194781961Y-192003159D01*
X194781961Y-192003159D02*
X194934852Y-192003126D01*
X194934852Y-192003126D02*
X195086326Y-191997042D01*
X195086326Y-191997042D02*
X195221968Y-191985073D01*
X195221968Y-191985073D02*
X195286083Y-191975783D01*
X195286083Y-191975783D02*
X195586907Y-191902439D01*
X195586907Y-191902439D02*
X195870548Y-191791365D01*
X195870548Y-191791365D02*
X196134363Y-191644593D01*
X196134363Y-191644593D02*
X196375708Y-191464152D01*
X196375708Y-191464152D02*
X196591938Y-191252071D01*
X196591938Y-191252071D02*
X196780411Y-191010382D01*
X196780411Y-191010382D02*
X196938481Y-190741112D01*
X196938481Y-190741112D02*
X196964933Y-190686845D01*
X196964933Y-190686845D02*
X197071338Y-190415961D01*
X197071338Y-190415961D02*
X197142715Y-190131758D01*
X197142715Y-190131758D02*
X197177564Y-189842909D01*
X197177564Y-189842909D02*
X197174386Y-189558091D01*
X197174386Y-189558091D02*
X197169258Y-189504208D01*
X197169258Y-189504208D02*
X197114880Y-189192937D01*
X197114880Y-189192937D02*
X197023001Y-188898477D01*
X197023001Y-188898477D02*
X196895771Y-188623343D01*
X196895771Y-188623343D02*
X196735337Y-188370048D01*
X196735337Y-188370048D02*
X196543848Y-188141108D01*
X196543848Y-188141108D02*
X196323454Y-187939036D01*
X196323454Y-187939036D02*
X196076303Y-187766346D01*
X196076303Y-187766346D02*
X195804544Y-187625553D01*
X195804544Y-187625553D02*
X195510326Y-187519170D01*
X195510326Y-187519170D02*
X195460916Y-187505405D01*
X195460916Y-187505405D02*
X195376672Y-187483951D01*
X195376672Y-187483951D02*
X195303151Y-187468672D01*
X195303151Y-187468672D02*
X195230012Y-187458544D01*
X195230012Y-187458544D02*
X195146911Y-187452541D01*
X195146911Y-187452541D02*
X195043505Y-187449639D01*
X195043505Y-187449639D02*
X194909451Y-187448815D01*
X194909451Y-187448815D02*
X194889416Y-187448807D01*
X194889416Y-187448807D02*
X194750317Y-187449455D01*
X194750317Y-187449455D02*
X194643296Y-187452066D01*
X194643296Y-187452066D02*
X194558111Y-187457641D01*
X194558111Y-187457641D02*
X194484518Y-187467180D01*
X194484518Y-187467180D02*
X194412273Y-187481685D01*
X194412273Y-187481685D02*
X194331134Y-187502156D01*
X194331134Y-187502156D02*
X194324143Y-187504030D01*
X194324143Y-187504030D02*
X194027857Y-187604469D01*
X194027857Y-187604469D02*
X193753926Y-187738955D01*
X193753926Y-187738955D02*
X193504356Y-187904648D01*
X193504356Y-187904648D02*
X193281152Y-188098707D01*
X193281152Y-188098707D02*
X193086317Y-188318290D01*
X193086317Y-188318290D02*
X192921858Y-188560557D01*
X192921858Y-188560557D02*
X192789778Y-188822666D01*
X192789778Y-188822666D02*
X192692082Y-189101777D01*
X192692082Y-189101777D02*
X192630775Y-189395049D01*
X192630775Y-189395049D02*
X192607863Y-189699641D01*
X192607863Y-189699641D02*
X192235371Y-189699641D01*
X192235371Y-189699641D02*
X192251308Y-189402677D01*
X192251308Y-189402677D02*
X192301362Y-189104210D01*
X192301362Y-189104210D02*
X192385292Y-188812066D01*
X192385292Y-188812066D02*
X192503106Y-188529414D01*
X192503106Y-188529414D02*
X192654813Y-188259422D01*
X192654813Y-188259422D02*
X192840421Y-188005257D01*
X192840421Y-188005257D02*
X193059939Y-187770087D01*
X193059939Y-187770087D02*
X193312500Y-187557730D01*
X193312500Y-187557730D02*
X193587552Y-187378438D01*
X193587552Y-187378438D02*
X193876533Y-187237171D01*
X193876533Y-187237171D02*
X194176019Y-187133440D01*
X194176019Y-187133440D02*
X194482586Y-187066754D01*
X194482586Y-187066754D02*
X194792811Y-187036623D01*
X194792811Y-187036623D02*
X195103270Y-187042557D01*
X195103270Y-187042557D02*
X195103270Y-187042557D01*
G36*
X192301362Y-189104210D02*
G01*
X192385292Y-188812066D01*
X192503106Y-188529414D01*
X192654813Y-188259422D01*
X192840421Y-188005257D01*
X193059939Y-187770087D01*
X193312500Y-187557730D01*
X193587552Y-187378438D01*
X193876533Y-187237171D01*
X194176019Y-187133440D01*
X194482586Y-187066754D01*
X194792811Y-187036623D01*
X195103270Y-187042557D01*
X195410540Y-187084067D01*
X195711196Y-187160662D01*
X196001815Y-187271852D01*
X196278973Y-187417147D01*
X196539247Y-187596058D01*
X196779213Y-187808093D01*
X196995448Y-188052763D01*
X197023045Y-188088813D01*
X197206843Y-188366417D01*
X197351922Y-188656242D01*
X197459014Y-188955155D01*
X197528850Y-189260023D01*
X197562162Y-189567713D01*
X197559682Y-189875092D01*
X197522141Y-190179027D01*
X197450271Y-190476384D01*
X197344804Y-190764031D01*
X197206472Y-191038835D01*
X197036006Y-191297662D01*
X196834137Y-191537379D01*
X196601598Y-191754854D01*
X196339121Y-191946954D01*
X196088570Y-192090199D01*
X195941703Y-192155662D01*
X195768888Y-192218892D01*
X195586406Y-192274695D01*
X195410540Y-192317880D01*
X195323333Y-192334242D01*
X195145266Y-192354531D01*
X194945185Y-192363183D01*
X194740787Y-192360225D01*
X194549769Y-192345686D01*
X194457547Y-192332883D01*
X194174505Y-192267078D01*
X193890087Y-192166400D01*
X193616540Y-192036059D01*
X193366112Y-191881262D01*
X193323855Y-191850774D01*
X193069403Y-191637943D01*
X192848751Y-191402925D01*
X192661909Y-191148888D01*
X192508883Y-190879001D01*
X192389683Y-190596431D01*
X192304317Y-190304346D01*
X192252794Y-190005913D01*
X192235121Y-189704301D01*
X192235371Y-189699641D01*
X192607863Y-189699641D01*
X192616259Y-189924295D01*
X192662483Y-190226524D01*
X192747789Y-190516288D01*
X192869926Y-190790270D01*
X193026641Y-191045151D01*
X193215684Y-191277615D01*
X193434803Y-191484341D01*
X193681747Y-191662014D01*
X193865330Y-191765004D01*
X194031231Y-191838675D01*
X194216614Y-191905066D01*
X194401984Y-191957739D01*
X194529583Y-191984418D01*
X194642067Y-191996978D01*
X194781961Y-192003159D01*
X194934852Y-192003126D01*
X195086326Y-191997042D01*
X195221968Y-191985073D01*
X195286083Y-191975783D01*
X195586907Y-191902439D01*
X195870548Y-191791365D01*
X196134363Y-191644593D01*
X196375708Y-191464152D01*
X196591938Y-191252071D01*
X196780411Y-191010382D01*
X196938481Y-190741112D01*
X196964933Y-190686845D01*
X197071338Y-190415961D01*
X197142715Y-190131758D01*
X197177564Y-189842909D01*
X197174386Y-189558091D01*
X197169258Y-189504208D01*
X197114880Y-189192937D01*
X197023001Y-188898477D01*
X196895771Y-188623343D01*
X196735337Y-188370048D01*
X196543848Y-188141108D01*
X196323454Y-187939036D01*
X196076303Y-187766346D01*
X195804544Y-187625553D01*
X195510326Y-187519170D01*
X195460916Y-187505405D01*
X195376672Y-187483951D01*
X195303151Y-187468672D01*
X195230012Y-187458544D01*
X195146911Y-187452541D01*
X195043505Y-187449639D01*
X194909451Y-187448815D01*
X194889416Y-187448807D01*
X194750317Y-187449455D01*
X194643296Y-187452066D01*
X194558111Y-187457641D01*
X194484518Y-187467180D01*
X194412273Y-187481685D01*
X194331134Y-187502156D01*
X194324143Y-187504030D01*
X194027857Y-187604469D01*
X193753926Y-187738955D01*
X193504356Y-187904648D01*
X193281152Y-188098707D01*
X193086317Y-188318290D01*
X192921858Y-188560557D01*
X192789778Y-188822666D01*
X192692082Y-189101777D01*
X192630775Y-189395049D01*
X192607863Y-189699641D01*
X192235371Y-189699641D01*
X192251308Y-189402677D01*
X192301362Y-189104210D01*
G37*
X192301362Y-189104210D02*
X192385292Y-188812066D01*
X192503106Y-188529414D01*
X192654813Y-188259422D01*
X192840421Y-188005257D01*
X193059939Y-187770087D01*
X193312500Y-187557730D01*
X193587552Y-187378438D01*
X193876533Y-187237171D01*
X194176019Y-187133440D01*
X194482586Y-187066754D01*
X194792811Y-187036623D01*
X195103270Y-187042557D01*
X195410540Y-187084067D01*
X195711196Y-187160662D01*
X196001815Y-187271852D01*
X196278973Y-187417147D01*
X196539247Y-187596058D01*
X196779213Y-187808093D01*
X196995448Y-188052763D01*
X197023045Y-188088813D01*
X197206843Y-188366417D01*
X197351922Y-188656242D01*
X197459014Y-188955155D01*
X197528850Y-189260023D01*
X197562162Y-189567713D01*
X197559682Y-189875092D01*
X197522141Y-190179027D01*
X197450271Y-190476384D01*
X197344804Y-190764031D01*
X197206472Y-191038835D01*
X197036006Y-191297662D01*
X196834137Y-191537379D01*
X196601598Y-191754854D01*
X196339121Y-191946954D01*
X196088570Y-192090199D01*
X195941703Y-192155662D01*
X195768888Y-192218892D01*
X195586406Y-192274695D01*
X195410540Y-192317880D01*
X195323333Y-192334242D01*
X195145266Y-192354531D01*
X194945185Y-192363183D01*
X194740787Y-192360225D01*
X194549769Y-192345686D01*
X194457547Y-192332883D01*
X194174505Y-192267078D01*
X193890087Y-192166400D01*
X193616540Y-192036059D01*
X193366112Y-191881262D01*
X193323855Y-191850774D01*
X193069403Y-191637943D01*
X192848751Y-191402925D01*
X192661909Y-191148888D01*
X192508883Y-190879001D01*
X192389683Y-190596431D01*
X192304317Y-190304346D01*
X192252794Y-190005913D01*
X192235121Y-189704301D01*
X192235371Y-189699641D01*
X192607863Y-189699641D01*
X192616259Y-189924295D01*
X192662483Y-190226524D01*
X192747789Y-190516288D01*
X192869926Y-190790270D01*
X193026641Y-191045151D01*
X193215684Y-191277615D01*
X193434803Y-191484341D01*
X193681747Y-191662014D01*
X193865330Y-191765004D01*
X194031231Y-191838675D01*
X194216614Y-191905066D01*
X194401984Y-191957739D01*
X194529583Y-191984418D01*
X194642067Y-191996978D01*
X194781961Y-192003159D01*
X194934852Y-192003126D01*
X195086326Y-191997042D01*
X195221968Y-191985073D01*
X195286083Y-191975783D01*
X195586907Y-191902439D01*
X195870548Y-191791365D01*
X196134363Y-191644593D01*
X196375708Y-191464152D01*
X196591938Y-191252071D01*
X196780411Y-191010382D01*
X196938481Y-190741112D01*
X196964933Y-190686845D01*
X197071338Y-190415961D01*
X197142715Y-190131758D01*
X197177564Y-189842909D01*
X197174386Y-189558091D01*
X197169258Y-189504208D01*
X197114880Y-189192937D01*
X197023001Y-188898477D01*
X196895771Y-188623343D01*
X196735337Y-188370048D01*
X196543848Y-188141108D01*
X196323454Y-187939036D01*
X196076303Y-187766346D01*
X195804544Y-187625553D01*
X195510326Y-187519170D01*
X195460916Y-187505405D01*
X195376672Y-187483951D01*
X195303151Y-187468672D01*
X195230012Y-187458544D01*
X195146911Y-187452541D01*
X195043505Y-187449639D01*
X194909451Y-187448815D01*
X194889416Y-187448807D01*
X194750317Y-187449455D01*
X194643296Y-187452066D01*
X194558111Y-187457641D01*
X194484518Y-187467180D01*
X194412273Y-187481685D01*
X194331134Y-187502156D01*
X194324143Y-187504030D01*
X194027857Y-187604469D01*
X193753926Y-187738955D01*
X193504356Y-187904648D01*
X193281152Y-188098707D01*
X193086317Y-188318290D01*
X192921858Y-188560557D01*
X192789778Y-188822666D01*
X192692082Y-189101777D01*
X192630775Y-189395049D01*
X192607863Y-189699641D01*
X192235371Y-189699641D01*
X192251308Y-189402677D01*
X192301362Y-189104210D01*
X211986144Y-189147281D02*
X212126134Y-189194417D01*
X212126134Y-189194417D02*
X212232657Y-189270165D01*
X212232657Y-189270165D02*
X212317418Y-189386368D01*
X212317418Y-189386368D02*
X212369134Y-189534117D01*
X212369134Y-189534117D02*
X212385789Y-189704672D01*
X212385789Y-189704672D02*
X212370023Y-189865714D01*
X212370023Y-189865714D02*
X212323867Y-190024909D01*
X212323867Y-190024909D02*
X212250094Y-190142510D01*
X212250094Y-190142510D02*
X212145346Y-190221612D01*
X212145346Y-190221612D02*
X212006270Y-190265310D01*
X212006270Y-190265310D02*
X211926760Y-190274588D01*
X211926760Y-190274588D02*
X211810384Y-190275478D01*
X211810384Y-190275478D02*
X211719160Y-190257293D01*
X211719160Y-190257293D02*
X211669069Y-190236879D01*
X211669069Y-190236879D02*
X211555624Y-190165590D01*
X211555624Y-190165590D02*
X211476042Y-190072121D01*
X211476042Y-190072121D02*
X211426891Y-189949623D01*
X211426891Y-189949623D02*
X211404735Y-189791245D01*
X211404735Y-189791245D02*
X211402660Y-189705471D01*
X211402660Y-189705471D02*
X211404012Y-189686733D01*
X211404012Y-189686733D02*
X211582395Y-189686733D01*
X211582395Y-189686733D02*
X211590721Y-189823073D01*
X211590721Y-189823073D02*
X211630054Y-189937341D01*
X211630054Y-189937341D02*
X211698262Y-190019789D01*
X211698262Y-190019789D02*
X211715124Y-190031567D01*
X211715124Y-190031567D02*
X211818897Y-190070415D01*
X211818897Y-190070415D02*
X211934355Y-190072896D01*
X211934355Y-190072896D02*
X212042844Y-190040802D01*
X212042844Y-190040802D02*
X212109921Y-189993628D01*
X212109921Y-189993628D02*
X212143239Y-189956272D01*
X212143239Y-189956272D02*
X212163378Y-189917079D01*
X212163378Y-189917079D02*
X212173616Y-189862362D01*
X212173616Y-189862362D02*
X212177228Y-189778435D01*
X212177228Y-189778435D02*
X212177578Y-189711011D01*
X212177578Y-189711011D02*
X212176307Y-189603882D01*
X212176307Y-189603882D02*
X212170310Y-189533898D01*
X212170310Y-189533898D02*
X212156310Y-189487371D01*
X212156310Y-189487371D02*
X212131032Y-189450618D01*
X212131032Y-189450618D02*
X212109921Y-189428395D01*
X212109921Y-189428395D02*
X212038539Y-189377350D01*
X212038539Y-189377350D02*
X211944650Y-189352802D01*
X211944650Y-189352802D02*
X211919231Y-189350125D01*
X211919231Y-189350125D02*
X211790643Y-189358104D01*
X211790643Y-189358104D02*
X211691534Y-189405258D01*
X211691534Y-189405258D02*
X211625191Y-189489607D01*
X211625191Y-189489607D02*
X211607208Y-189538067D01*
X211607208Y-189538067D02*
X211582395Y-189686733D01*
X211582395Y-189686733D02*
X211404012Y-189686733D01*
X211404012Y-189686733D02*
X211415429Y-189528565D01*
X211415429Y-189528565D02*
X211454833Y-189390711D01*
X211454833Y-189390711D02*
X211524197Y-189285766D01*
X211524197Y-189285766D02*
X211626847Y-189207589D01*
X211626847Y-189207589D02*
X211688252Y-189178047D01*
X211688252Y-189178047D02*
X211835830Y-189141088D01*
X211835830Y-189141088D02*
X211986144Y-189147281D01*
X211986144Y-189147281D02*
X211986144Y-189147281D01*
G36*
X211454833Y-189390711D02*
G01*
X211524197Y-189285766D01*
X211626847Y-189207589D01*
X211688252Y-189178047D01*
X211835830Y-189141088D01*
X211986144Y-189147281D01*
X212126134Y-189194417D01*
X212232657Y-189270165D01*
X212317418Y-189386368D01*
X212369134Y-189534117D01*
X212385789Y-189704672D01*
X212370023Y-189865714D01*
X212323867Y-190024909D01*
X212250094Y-190142510D01*
X212145346Y-190221612D01*
X212006270Y-190265310D01*
X211926760Y-190274588D01*
X211810384Y-190275478D01*
X211719160Y-190257293D01*
X211669069Y-190236879D01*
X211555624Y-190165590D01*
X211476042Y-190072121D01*
X211426891Y-189949623D01*
X211404735Y-189791245D01*
X211402660Y-189705471D01*
X211404012Y-189686733D01*
X211582395Y-189686733D01*
X211590721Y-189823073D01*
X211630054Y-189937341D01*
X211698262Y-190019789D01*
X211715124Y-190031567D01*
X211818897Y-190070415D01*
X211934355Y-190072896D01*
X212042844Y-190040802D01*
X212109921Y-189993628D01*
X212143239Y-189956272D01*
X212163378Y-189917079D01*
X212173616Y-189862362D01*
X212177228Y-189778435D01*
X212177578Y-189711011D01*
X212176307Y-189603882D01*
X212170310Y-189533898D01*
X212156310Y-189487371D01*
X212131032Y-189450618D01*
X212109921Y-189428395D01*
X212038539Y-189377350D01*
X211944650Y-189352802D01*
X211919231Y-189350125D01*
X211790643Y-189358104D01*
X211691534Y-189405258D01*
X211625191Y-189489607D01*
X211607208Y-189538067D01*
X211582395Y-189686733D01*
X211404012Y-189686733D01*
X211415429Y-189528565D01*
X211454833Y-189390711D01*
G37*
X211454833Y-189390711D02*
X211524197Y-189285766D01*
X211626847Y-189207589D01*
X211688252Y-189178047D01*
X211835830Y-189141088D01*
X211986144Y-189147281D01*
X212126134Y-189194417D01*
X212232657Y-189270165D01*
X212317418Y-189386368D01*
X212369134Y-189534117D01*
X212385789Y-189704672D01*
X212370023Y-189865714D01*
X212323867Y-190024909D01*
X212250094Y-190142510D01*
X212145346Y-190221612D01*
X212006270Y-190265310D01*
X211926760Y-190274588D01*
X211810384Y-190275478D01*
X211719160Y-190257293D01*
X211669069Y-190236879D01*
X211555624Y-190165590D01*
X211476042Y-190072121D01*
X211426891Y-189949623D01*
X211404735Y-189791245D01*
X211402660Y-189705471D01*
X211404012Y-189686733D01*
X211582395Y-189686733D01*
X211590721Y-189823073D01*
X211630054Y-189937341D01*
X211698262Y-190019789D01*
X211715124Y-190031567D01*
X211818897Y-190070415D01*
X211934355Y-190072896D01*
X212042844Y-190040802D01*
X212109921Y-189993628D01*
X212143239Y-189956272D01*
X212163378Y-189917079D01*
X212173616Y-189862362D01*
X212177228Y-189778435D01*
X212177578Y-189711011D01*
X212176307Y-189603882D01*
X212170310Y-189533898D01*
X212156310Y-189487371D01*
X212131032Y-189450618D01*
X212109921Y-189428395D01*
X212038539Y-189377350D01*
X211944650Y-189352802D01*
X211919231Y-189350125D01*
X211790643Y-189358104D01*
X211691534Y-189405258D01*
X211625191Y-189489607D01*
X211607208Y-189538067D01*
X211582395Y-189686733D01*
X211404012Y-189686733D01*
X211415429Y-189528565D01*
X211454833Y-189390711D01*
X201549750Y-189660160D02*
X201565684Y-189825426D01*
X201565684Y-189825426D02*
X200977678Y-189825426D01*
X200977678Y-189825426D02*
X200977678Y-189645782D01*
X200977678Y-189645782D02*
X201549750Y-189660160D01*
X201549750Y-189660160D02*
X201549750Y-189660160D01*
G36*
X201549750Y-189660160D02*
G01*
X201565684Y-189825426D01*
X200977678Y-189825426D01*
X200977678Y-189645782D01*
X201549750Y-189660160D01*
G37*
X201549750Y-189660160D02*
X201565684Y-189825426D01*
X200977678Y-189825426D01*
X200977678Y-189645782D01*
X201549750Y-189660160D01*
X202672927Y-189166142D02*
X202788170Y-189173210D01*
X202788170Y-189173210D02*
X202882799Y-189184364D01*
X202882799Y-189184364D02*
X202944937Y-189199526D01*
X202944937Y-189199526D02*
X202945642Y-189199817D01*
X202945642Y-189199817D02*
X203042675Y-189262819D01*
X203042675Y-189262819D02*
X203098055Y-189354364D01*
X203098055Y-189354364D02*
X203113413Y-189460463D01*
X203113413Y-189460463D02*
X203097276Y-189564303D01*
X203097276Y-189564303D02*
X203050670Y-189641836D01*
X203050670Y-189641836D02*
X202987927Y-189716402D01*
X202987927Y-189716402D02*
X203050670Y-189775346D01*
X203050670Y-189775346D02*
X203093422Y-189829752D01*
X203093422Y-189829752D02*
X203111309Y-189899116D01*
X203111309Y-189899116D02*
X203113413Y-189951327D01*
X203113413Y-189951327D02*
X203095906Y-190072551D01*
X203095906Y-190072551D02*
X203041270Y-190161041D01*
X203041270Y-190161041D02*
X202946339Y-190221914D01*
X202946339Y-190221914D02*
X202945642Y-190222205D01*
X202945642Y-190222205D02*
X202884157Y-190237435D01*
X202884157Y-190237435D02*
X202789979Y-190248658D01*
X202789979Y-190248658D02*
X202674987Y-190255795D01*
X202674987Y-190255795D02*
X202551055Y-190258768D01*
X202551055Y-190258768D02*
X202430062Y-190257497D01*
X202430062Y-190257497D02*
X202323883Y-190251903D01*
X202323883Y-190251903D02*
X202244395Y-190241908D01*
X202244395Y-190241908D02*
X202203476Y-190227432D01*
X202203476Y-190227432D02*
X202203183Y-190227147D01*
X202203183Y-190227147D02*
X202191890Y-190190886D01*
X202191890Y-190190886D02*
X202183018Y-190113667D01*
X202183018Y-190113667D02*
X202179481Y-190054254D01*
X202179481Y-190054254D02*
X202376076Y-190054254D01*
X202376076Y-190054254D02*
X202613677Y-190054254D01*
X202613677Y-190054254D02*
X202728764Y-190052889D01*
X202728764Y-190052889D02*
X202804633Y-190047391D01*
X202804633Y-190047391D02*
X202852873Y-190035654D01*
X202852873Y-190035654D02*
X202885079Y-190015575D01*
X202885079Y-190015575D02*
X202897994Y-190002634D01*
X202897994Y-190002634D02*
X202929660Y-189950503D01*
X202929660Y-189950503D02*
X202923448Y-189890794D01*
X202923448Y-189890794D02*
X202920446Y-189881863D01*
X202920446Y-189881863D02*
X202907739Y-189850707D01*
X202907739Y-189850707D02*
X202889215Y-189830367D01*
X202889215Y-189830367D02*
X202854828Y-189818146D01*
X202854828Y-189818146D02*
X202794535Y-189811343D01*
X202794535Y-189811343D02*
X202698291Y-189807260D01*
X202698291Y-189807260D02*
X202636129Y-189805467D01*
X202636129Y-189805467D02*
X202376076Y-189798221D01*
X202376076Y-189798221D02*
X202376076Y-190054254D01*
X202376076Y-190054254D02*
X202179481Y-190054254D01*
X202179481Y-190054254D02*
X202176567Y-190005325D01*
X202176567Y-190005325D02*
X202172537Y-189875697D01*
X202172537Y-189875697D02*
X202170929Y-189734616D01*
X202170929Y-189734616D02*
X202171741Y-189591919D01*
X202171741Y-189591919D02*
X202174975Y-189457440D01*
X202174975Y-189457440D02*
X202180565Y-189342343D01*
X202180565Y-189342343D02*
X202376076Y-189342343D01*
X202376076Y-189342343D02*
X202376076Y-189622022D01*
X202376076Y-189622022D02*
X202604905Y-189622022D01*
X202604905Y-189622022D02*
X202718851Y-189620410D01*
X202718851Y-189620410D02*
X202794082Y-189614110D01*
X202794082Y-189614110D02*
X202842670Y-189600926D01*
X202842670Y-189600926D02*
X202876689Y-189578665D01*
X202876689Y-189578665D02*
X202884585Y-189571171D01*
X202884585Y-189571171D02*
X202922298Y-189520834D01*
X202922298Y-189520834D02*
X202935435Y-189482182D01*
X202935435Y-189482182D02*
X202918604Y-189437066D01*
X202918604Y-189437066D02*
X202884585Y-189393193D01*
X202884585Y-189393193D02*
X202852366Y-189368230D01*
X202852366Y-189368230D02*
X202808698Y-189352912D01*
X202808698Y-189352912D02*
X202741505Y-189345045D01*
X202741505Y-189345045D02*
X202638714Y-189342432D01*
X202638714Y-189342432D02*
X202604905Y-189342343D01*
X202604905Y-189342343D02*
X202376076Y-189342343D01*
X202376076Y-189342343D02*
X202180565Y-189342343D01*
X202180565Y-189342343D02*
X202180630Y-189341016D01*
X202180630Y-189341016D02*
X202188706Y-189252481D01*
X202188706Y-189252481D02*
X202199204Y-189201671D01*
X202199204Y-189201671D02*
X202203183Y-189194875D01*
X202203183Y-189194875D02*
X202243347Y-189180322D01*
X202243347Y-189180322D02*
X202322280Y-189170252D01*
X202322280Y-189170252D02*
X202428105Y-189164584D01*
X202428105Y-189164584D02*
X202548946Y-189163241D01*
X202548946Y-189163241D02*
X202672927Y-189166142D01*
X202672927Y-189166142D02*
X202672927Y-189166142D01*
G36*
X202172537Y-189875697D02*
G01*
X202171654Y-189798221D01*
X202376076Y-189798221D01*
X202376076Y-190054254D01*
X202613677Y-190054254D01*
X202728764Y-190052889D01*
X202804633Y-190047391D01*
X202852873Y-190035654D01*
X202885079Y-190015575D01*
X202897994Y-190002634D01*
X202929660Y-189950503D01*
X202923448Y-189890794D01*
X202920446Y-189881863D01*
X202907739Y-189850707D01*
X202889215Y-189830367D01*
X202854828Y-189818146D01*
X202794535Y-189811343D01*
X202698291Y-189807260D01*
X202636129Y-189805467D01*
X202376076Y-189798221D01*
X202171654Y-189798221D01*
X202170929Y-189734616D01*
X202171741Y-189591919D01*
X202174975Y-189457440D01*
X202180565Y-189342343D01*
X202376076Y-189342343D01*
X202376076Y-189622022D01*
X202604905Y-189622022D01*
X202718851Y-189620410D01*
X202794082Y-189614110D01*
X202842670Y-189600926D01*
X202876689Y-189578665D01*
X202884585Y-189571171D01*
X202922298Y-189520834D01*
X202935435Y-189482182D01*
X202918604Y-189437066D01*
X202884585Y-189393193D01*
X202852366Y-189368230D01*
X202808698Y-189352912D01*
X202741505Y-189345045D01*
X202638714Y-189342432D01*
X202604905Y-189342343D01*
X202376076Y-189342343D01*
X202180565Y-189342343D01*
X202180630Y-189341016D01*
X202188706Y-189252481D01*
X202199204Y-189201671D01*
X202203183Y-189194875D01*
X202243347Y-189180322D01*
X202322280Y-189170252D01*
X202428105Y-189164584D01*
X202548946Y-189163241D01*
X202672927Y-189166142D01*
X202788170Y-189173210D01*
X202882799Y-189184364D01*
X202944937Y-189199526D01*
X202945642Y-189199817D01*
X203042675Y-189262819D01*
X203098055Y-189354364D01*
X203113413Y-189460463D01*
X203097276Y-189564303D01*
X203050670Y-189641836D01*
X202987927Y-189716402D01*
X203050670Y-189775346D01*
X203093422Y-189829752D01*
X203111309Y-189899116D01*
X203113413Y-189951327D01*
X203095906Y-190072551D01*
X203041270Y-190161041D01*
X202946339Y-190221914D01*
X202945642Y-190222205D01*
X202884157Y-190237435D01*
X202789979Y-190248658D01*
X202674987Y-190255795D01*
X202551055Y-190258768D01*
X202430062Y-190257497D01*
X202323883Y-190251903D01*
X202244395Y-190241908D01*
X202203476Y-190227432D01*
X202203183Y-190227147D01*
X202191890Y-190190886D01*
X202183018Y-190113667D01*
X202179481Y-190054254D01*
X202176567Y-190005325D01*
X202172537Y-189875697D01*
G37*
X202172537Y-189875697D02*
X202171654Y-189798221D01*
X202376076Y-189798221D01*
X202376076Y-190054254D01*
X202613677Y-190054254D01*
X202728764Y-190052889D01*
X202804633Y-190047391D01*
X202852873Y-190035654D01*
X202885079Y-190015575D01*
X202897994Y-190002634D01*
X202929660Y-189950503D01*
X202923448Y-189890794D01*
X202920446Y-189881863D01*
X202907739Y-189850707D01*
X202889215Y-189830367D01*
X202854828Y-189818146D01*
X202794535Y-189811343D01*
X202698291Y-189807260D01*
X202636129Y-189805467D01*
X202376076Y-189798221D01*
X202171654Y-189798221D01*
X202170929Y-189734616D01*
X202171741Y-189591919D01*
X202174975Y-189457440D01*
X202180565Y-189342343D01*
X202376076Y-189342343D01*
X202376076Y-189622022D01*
X202604905Y-189622022D01*
X202718851Y-189620410D01*
X202794082Y-189614110D01*
X202842670Y-189600926D01*
X202876689Y-189578665D01*
X202884585Y-189571171D01*
X202922298Y-189520834D01*
X202935435Y-189482182D01*
X202918604Y-189437066D01*
X202884585Y-189393193D01*
X202852366Y-189368230D01*
X202808698Y-189352912D01*
X202741505Y-189345045D01*
X202638714Y-189342432D01*
X202604905Y-189342343D01*
X202376076Y-189342343D01*
X202180565Y-189342343D01*
X202180630Y-189341016D01*
X202188706Y-189252481D01*
X202199204Y-189201671D01*
X202203183Y-189194875D01*
X202243347Y-189180322D01*
X202322280Y-189170252D01*
X202428105Y-189164584D01*
X202548946Y-189163241D01*
X202672927Y-189166142D01*
X202788170Y-189173210D01*
X202882799Y-189184364D01*
X202944937Y-189199526D01*
X202945642Y-189199817D01*
X203042675Y-189262819D01*
X203098055Y-189354364D01*
X203113413Y-189460463D01*
X203097276Y-189564303D01*
X203050670Y-189641836D01*
X202987927Y-189716402D01*
X203050670Y-189775346D01*
X203093422Y-189829752D01*
X203111309Y-189899116D01*
X203113413Y-189951327D01*
X203095906Y-190072551D01*
X203041270Y-190161041D01*
X202946339Y-190221914D01*
X202945642Y-190222205D01*
X202884157Y-190237435D01*
X202789979Y-190248658D01*
X202674987Y-190255795D01*
X202551055Y-190258768D01*
X202430062Y-190257497D01*
X202323883Y-190251903D01*
X202244395Y-190241908D01*
X202203476Y-190227432D01*
X202203183Y-190227147D01*
X202191890Y-190190886D01*
X202183018Y-190113667D01*
X202179481Y-190054254D01*
X202176567Y-190005325D01*
X202172537Y-189875697D01*
X211240665Y-190031271D02*
X211266557Y-190047825D01*
X211266557Y-190047825D02*
X211274426Y-190092329D01*
X211274426Y-190092329D02*
X211274975Y-190143243D01*
X211274975Y-190143243D02*
X211273075Y-190213545D01*
X211273075Y-190213545D02*
X211260200Y-190246835D01*
X211260200Y-190246835D02*
X211225586Y-190256952D01*
X211225586Y-190256952D02*
X211185986Y-190257658D01*
X211185986Y-190257658D02*
X211131307Y-190255215D01*
X211131307Y-190255215D02*
X211105415Y-190238662D01*
X211105415Y-190238662D02*
X211097546Y-190194158D01*
X211097546Y-190194158D02*
X211096997Y-190143243D01*
X211096997Y-190143243D02*
X211098897Y-190072942D01*
X211098897Y-190072942D02*
X211111772Y-190039652D01*
X211111772Y-190039652D02*
X211146386Y-190029535D01*
X211146386Y-190029535D02*
X211185986Y-190028829D01*
X211185986Y-190028829D02*
X211240665Y-190031271D01*
X211240665Y-190031271D02*
X211240665Y-190031271D01*
G36*
X211240665Y-190031271D02*
G01*
X211266557Y-190047825D01*
X211274426Y-190092329D01*
X211274975Y-190143243D01*
X211273075Y-190213545D01*
X211260200Y-190246835D01*
X211225586Y-190256952D01*
X211185986Y-190257658D01*
X211131307Y-190255215D01*
X211105415Y-190238662D01*
X211097546Y-190194158D01*
X211096997Y-190143243D01*
X211098897Y-190072942D01*
X211111772Y-190039652D01*
X211146386Y-190029535D01*
X211185986Y-190028829D01*
X211240665Y-190031271D01*
G37*
X211240665Y-190031271D02*
X211266557Y-190047825D01*
X211274426Y-190092329D01*
X211274975Y-190143243D01*
X211273075Y-190213545D01*
X211260200Y-190246835D01*
X211225586Y-190256952D01*
X211185986Y-190257658D01*
X211131307Y-190255215D01*
X211105415Y-190238662D01*
X211097546Y-190194158D01*
X211096997Y-190143243D01*
X211098897Y-190072942D01*
X211111772Y-190039652D01*
X211146386Y-190029535D01*
X211185986Y-190028829D01*
X211240665Y-190031271D01*
X210687053Y-189166781D02*
X210749932Y-189176339D01*
X210749932Y-189176339D02*
X210796279Y-189199371D01*
X210796279Y-189199371D02*
X210828610Y-189241816D01*
X210828610Y-189241816D02*
X210849444Y-189309617D01*
X210849444Y-189309617D02*
X210861296Y-189408715D01*
X210861296Y-189408715D02*
X210866686Y-189545052D01*
X210866686Y-189545052D02*
X210868128Y-189724569D01*
X210868128Y-189724569D02*
X210868168Y-189785616D01*
X210868168Y-189785616D02*
X210868168Y-190257658D01*
X210868168Y-190257658D02*
X210664765Y-190257658D01*
X210664765Y-190257658D02*
X210664765Y-190028829D01*
X210664765Y-190028829D02*
X210345791Y-190028829D01*
X210345791Y-190028829D02*
X210212922Y-190028364D01*
X210212922Y-190028364D02*
X210120824Y-190025824D01*
X210120824Y-190025824D02*
X210059422Y-190019494D01*
X210059422Y-190019494D02*
X210018636Y-190007659D01*
X210018636Y-190007659D02*
X209988390Y-189988604D01*
X209988390Y-189988604D02*
X209961386Y-189963398D01*
X209961386Y-189963398D02*
X209919213Y-189907925D01*
X209919213Y-189907925D02*
X209904620Y-189847793D01*
X209904620Y-189847793D02*
X209912845Y-189809097D01*
X209912845Y-189809097D02*
X210135384Y-189809097D01*
X210135384Y-189809097D02*
X210164404Y-189835589D01*
X210164404Y-189835589D02*
X210237446Y-189847593D01*
X210237446Y-189847593D02*
X210356833Y-189850772D01*
X210356833Y-189850772D02*
X210397798Y-189850851D01*
X210397798Y-189850851D02*
X210664765Y-189850851D01*
X210664765Y-189850851D02*
X210664765Y-189367768D01*
X210664765Y-189367768D02*
X210582132Y-189368157D01*
X210582132Y-189368157D02*
X210537558Y-189369310D01*
X210537558Y-189369310D02*
X210502281Y-189376629D01*
X210502281Y-189376629D02*
X210467523Y-189396646D01*
X210467523Y-189396646D02*
X210424508Y-189435892D01*
X210424508Y-189435892D02*
X210364460Y-189500896D01*
X210364460Y-189500896D02*
X210289253Y-189586075D01*
X210289253Y-189586075D02*
X210200130Y-189690002D01*
X210200130Y-189690002D02*
X210148067Y-189762455D01*
X210148067Y-189762455D02*
X210135384Y-189809097D01*
X210135384Y-189809097D02*
X209912845Y-189809097D01*
X209912845Y-189809097D02*
X209919739Y-189776670D01*
X209919739Y-189776670D02*
X209966702Y-189688229D01*
X209966702Y-189688229D02*
X210047642Y-189576138D01*
X210047642Y-189576138D02*
X210123147Y-189483214D01*
X210123147Y-189483214D02*
X210226570Y-189362345D01*
X210226570Y-189362345D02*
X210308125Y-189276299D01*
X210308125Y-189276299D02*
X210376559Y-189219299D01*
X210376559Y-189219299D02*
X210440618Y-189185565D01*
X210440618Y-189185565D02*
X210509048Y-189169318D01*
X210509048Y-189169318D02*
X210590596Y-189164780D01*
X210590596Y-189164780D02*
X210605124Y-189164754D01*
X210605124Y-189164754D02*
X210687053Y-189166781D01*
X210687053Y-189166781D02*
X210687053Y-189166781D01*
G36*
X209966702Y-189688229D02*
G01*
X210047642Y-189576138D01*
X210123147Y-189483214D01*
X210226570Y-189362345D01*
X210308125Y-189276299D01*
X210376559Y-189219299D01*
X210440618Y-189185565D01*
X210509048Y-189169318D01*
X210590596Y-189164780D01*
X210605124Y-189164754D01*
X210687053Y-189166781D01*
X210749932Y-189176339D01*
X210796279Y-189199371D01*
X210828610Y-189241816D01*
X210849444Y-189309617D01*
X210861296Y-189408715D01*
X210866686Y-189545052D01*
X210868128Y-189724569D01*
X210868168Y-189785616D01*
X210868168Y-190257658D01*
X210664765Y-190257658D01*
X210664765Y-190028829D01*
X210345791Y-190028829D01*
X210212922Y-190028364D01*
X210120824Y-190025824D01*
X210059422Y-190019494D01*
X210018636Y-190007659D01*
X209988390Y-189988604D01*
X209961386Y-189963398D01*
X209919213Y-189907925D01*
X209904620Y-189847793D01*
X209912845Y-189809097D01*
X210135384Y-189809097D01*
X210164404Y-189835589D01*
X210237446Y-189847593D01*
X210356833Y-189850772D01*
X210397798Y-189850851D01*
X210664765Y-189850851D01*
X210664765Y-189367768D01*
X210582132Y-189368157D01*
X210537558Y-189369310D01*
X210502281Y-189376629D01*
X210467523Y-189396646D01*
X210424508Y-189435892D01*
X210364460Y-189500896D01*
X210289253Y-189586075D01*
X210200130Y-189690002D01*
X210148067Y-189762455D01*
X210135384Y-189809097D01*
X209912845Y-189809097D01*
X209919739Y-189776670D01*
X209966702Y-189688229D01*
G37*
X209966702Y-189688229D02*
X210047642Y-189576138D01*
X210123147Y-189483214D01*
X210226570Y-189362345D01*
X210308125Y-189276299D01*
X210376559Y-189219299D01*
X210440618Y-189185565D01*
X210509048Y-189169318D01*
X210590596Y-189164780D01*
X210605124Y-189164754D01*
X210687053Y-189166781D01*
X210749932Y-189176339D01*
X210796279Y-189199371D01*
X210828610Y-189241816D01*
X210849444Y-189309617D01*
X210861296Y-189408715D01*
X210866686Y-189545052D01*
X210868128Y-189724569D01*
X210868168Y-189785616D01*
X210868168Y-190257658D01*
X210664765Y-190257658D01*
X210664765Y-190028829D01*
X210345791Y-190028829D01*
X210212922Y-190028364D01*
X210120824Y-190025824D01*
X210059422Y-190019494D01*
X210018636Y-190007659D01*
X209988390Y-189988604D01*
X209961386Y-189963398D01*
X209919213Y-189907925D01*
X209904620Y-189847793D01*
X209912845Y-189809097D01*
X210135384Y-189809097D01*
X210164404Y-189835589D01*
X210237446Y-189847593D01*
X210356833Y-189850772D01*
X210397798Y-189850851D01*
X210664765Y-189850851D01*
X210664765Y-189367768D01*
X210582132Y-189368157D01*
X210537558Y-189369310D01*
X210502281Y-189376629D01*
X210467523Y-189396646D01*
X210424508Y-189435892D01*
X210364460Y-189500896D01*
X210289253Y-189586075D01*
X210200130Y-189690002D01*
X210148067Y-189762455D01*
X210135384Y-189809097D01*
X209912845Y-189809097D01*
X209919739Y-189776670D01*
X209966702Y-189688229D01*
X203616646Y-189392879D02*
X203677110Y-189486325D01*
X203677110Y-189486325D02*
X203727752Y-189561285D01*
X203727752Y-189561285D02*
X203762437Y-189608885D01*
X203762437Y-189608885D02*
X203774474Y-189621309D01*
X203774474Y-189621309D02*
X203792699Y-189601339D01*
X203792699Y-189601339D02*
X203832170Y-189547348D01*
X203832170Y-189547348D02*
X203886665Y-189468108D01*
X203886665Y-189468108D02*
X203936655Y-189392794D01*
X203936655Y-189392794D02*
X204086123Y-189164365D01*
X204086123Y-189164365D02*
X204310851Y-189164365D01*
X204310851Y-189164365D02*
X204228123Y-189285135D01*
X204228123Y-189285135D02*
X204173463Y-189363945D01*
X204173463Y-189363945D02*
X204102382Y-189465095D01*
X204102382Y-189465095D02*
X204028189Y-189569670D01*
X204028189Y-189569670D02*
X204010785Y-189594034D01*
X204010785Y-189594034D02*
X203876176Y-189782161D01*
X203876176Y-189782161D02*
X203876176Y-190257658D01*
X203876176Y-190257658D02*
X203672773Y-190257658D01*
X203672773Y-190257658D02*
X203672773Y-189781156D01*
X203672773Y-189781156D02*
X203504346Y-189542680D01*
X203504346Y-189542680D02*
X203431609Y-189439696D01*
X203431609Y-189439696D02*
X203364929Y-189345298D01*
X203364929Y-189345298D02*
X203312601Y-189271225D01*
X203312601Y-189271225D02*
X203286499Y-189234284D01*
X203286499Y-189234284D02*
X203237078Y-189164365D01*
X203237078Y-189164365D02*
X203471530Y-189164365D01*
X203471530Y-189164365D02*
X203616646Y-189392879D01*
X203616646Y-189392879D02*
X203616646Y-189392879D01*
G36*
X203616646Y-189392879D02*
G01*
X203677110Y-189486325D01*
X203727752Y-189561285D01*
X203762437Y-189608885D01*
X203774474Y-189621309D01*
X203792699Y-189601339D01*
X203832170Y-189547348D01*
X203886665Y-189468108D01*
X203936655Y-189392794D01*
X204086123Y-189164365D01*
X204310851Y-189164365D01*
X204228123Y-189285135D01*
X204173463Y-189363945D01*
X204102382Y-189465095D01*
X204028189Y-189569670D01*
X204010785Y-189594034D01*
X203876176Y-189782161D01*
X203876176Y-190257658D01*
X203672773Y-190257658D01*
X203672773Y-189781156D01*
X203504346Y-189542680D01*
X203431609Y-189439696D01*
X203364929Y-189345298D01*
X203312601Y-189271225D01*
X203286499Y-189234284D01*
X203237078Y-189164365D01*
X203471530Y-189164365D01*
X203616646Y-189392879D01*
G37*
X203616646Y-189392879D02*
X203677110Y-189486325D01*
X203727752Y-189561285D01*
X203762437Y-189608885D01*
X203774474Y-189621309D01*
X203792699Y-189601339D01*
X203832170Y-189547348D01*
X203886665Y-189468108D01*
X203936655Y-189392794D01*
X204086123Y-189164365D01*
X204310851Y-189164365D01*
X204228123Y-189285135D01*
X204173463Y-189363945D01*
X204102382Y-189465095D01*
X204028189Y-189569670D01*
X204010785Y-189594034D01*
X203876176Y-189782161D01*
X203876176Y-190257658D01*
X203672773Y-190257658D01*
X203672773Y-189781156D01*
X203504346Y-189542680D01*
X203431609Y-189439696D01*
X203364929Y-189345298D01*
X203312601Y-189271225D01*
X203286499Y-189234284D01*
X203237078Y-189164365D01*
X203471530Y-189164365D01*
X203616646Y-189392879D01*
X199299600Y-189363392D02*
X199004950Y-189371936D01*
X199004950Y-189371936D02*
X198878078Y-189376163D01*
X198878078Y-189376163D02*
X198791582Y-189381647D01*
X198791582Y-189381647D02*
X198735000Y-189390691D01*
X198735000Y-189390691D02*
X198697870Y-189405599D01*
X198697870Y-189405599D02*
X198669727Y-189428673D01*
X198669727Y-189428673D02*
X198650624Y-189449924D01*
X198650624Y-189449924D02*
X198596452Y-189546028D01*
X198596452Y-189546028D02*
X198570921Y-189663919D01*
X198570921Y-189663919D02*
X198573567Y-189787607D01*
X198573567Y-189787607D02*
X198603927Y-189901101D01*
X198603927Y-189901101D02*
X198661538Y-189988410D01*
X198661538Y-189988410D02*
X198666336Y-189992908D01*
X198666336Y-189992908D02*
X198698384Y-190014962D01*
X198698384Y-190014962D02*
X198743832Y-190030157D01*
X198743832Y-190030157D02*
X198812858Y-190040188D01*
X198812858Y-190040188D02*
X198915643Y-190046748D01*
X198915643Y-190046748D02*
X199009799Y-190050086D01*
X199009799Y-190050086D02*
X199299600Y-190058630D01*
X199299600Y-190058630D02*
X199299600Y-190257658D01*
X199299600Y-190257658D02*
X199026276Y-190255472D01*
X199026276Y-190255472D02*
X198905282Y-190252525D01*
X198905282Y-190252525D02*
X198796156Y-190246312D01*
X198796156Y-190246312D02*
X198713371Y-190237845D01*
X198713371Y-190237845D02*
X198679059Y-190231183D01*
X198679059Y-190231183D02*
X198589340Y-190184129D01*
X198589340Y-190184129D02*
X198502326Y-190105705D01*
X198502326Y-190105705D02*
X198434958Y-190013359D01*
X198434958Y-190013359D02*
X198409603Y-189953681D01*
X198409603Y-189953681D02*
X198391775Y-189848007D01*
X198391775Y-189848007D02*
X198385491Y-189717033D01*
X198385491Y-189717033D02*
X198390750Y-189584984D01*
X198390750Y-189584984D02*
X198407552Y-189476082D01*
X198407552Y-189476082D02*
X198409603Y-189468342D01*
X198409603Y-189468342D02*
X198458143Y-189370751D01*
X198458143Y-189370751D02*
X198539720Y-189279396D01*
X198539720Y-189279396D02*
X198637589Y-189210887D01*
X198637589Y-189210887D02*
X198690870Y-189189365D01*
X198690870Y-189189365D02*
X198753806Y-189178620D01*
X198753806Y-189178620D02*
X198851663Y-189170189D01*
X198851663Y-189170189D02*
X198968524Y-189165215D01*
X198968524Y-189165215D02*
X199038821Y-189164365D01*
X199038821Y-189164365D02*
X199299600Y-189164365D01*
X199299600Y-189164365D02*
X199299600Y-189363392D01*
X199299600Y-189363392D02*
X199299600Y-189363392D01*
G36*
X199299600Y-189363392D02*
G01*
X199004950Y-189371936D01*
X198878078Y-189376163D01*
X198791582Y-189381647D01*
X198735000Y-189390691D01*
X198697870Y-189405599D01*
X198669727Y-189428673D01*
X198650624Y-189449924D01*
X198596452Y-189546028D01*
X198570921Y-189663919D01*
X198573567Y-189787607D01*
X198603927Y-189901101D01*
X198661538Y-189988410D01*
X198666336Y-189992908D01*
X198698384Y-190014962D01*
X198743832Y-190030157D01*
X198812858Y-190040188D01*
X198915643Y-190046748D01*
X199009799Y-190050086D01*
X199299600Y-190058630D01*
X199299600Y-190257658D01*
X199026276Y-190255472D01*
X198905282Y-190252525D01*
X198796156Y-190246312D01*
X198713371Y-190237845D01*
X198679059Y-190231183D01*
X198589340Y-190184129D01*
X198502326Y-190105705D01*
X198434958Y-190013359D01*
X198409603Y-189953681D01*
X198391775Y-189848007D01*
X198385491Y-189717033D01*
X198390750Y-189584984D01*
X198407552Y-189476082D01*
X198409603Y-189468342D01*
X198458143Y-189370751D01*
X198539720Y-189279396D01*
X198637589Y-189210887D01*
X198690870Y-189189365D01*
X198753806Y-189178620D01*
X198851663Y-189170189D01*
X198968524Y-189165215D01*
X199038821Y-189164365D01*
X199299600Y-189164365D01*
X199299600Y-189363392D01*
G37*
X199299600Y-189363392D02*
X199004950Y-189371936D01*
X198878078Y-189376163D01*
X198791582Y-189381647D01*
X198735000Y-189390691D01*
X198697870Y-189405599D01*
X198669727Y-189428673D01*
X198650624Y-189449924D01*
X198596452Y-189546028D01*
X198570921Y-189663919D01*
X198573567Y-189787607D01*
X198603927Y-189901101D01*
X198661538Y-189988410D01*
X198666336Y-189992908D01*
X198698384Y-190014962D01*
X198743832Y-190030157D01*
X198812858Y-190040188D01*
X198915643Y-190046748D01*
X199009799Y-190050086D01*
X199299600Y-190058630D01*
X199299600Y-190257658D01*
X199026276Y-190255472D01*
X198905282Y-190252525D01*
X198796156Y-190246312D01*
X198713371Y-190237845D01*
X198679059Y-190231183D01*
X198589340Y-190184129D01*
X198502326Y-190105705D01*
X198434958Y-190013359D01*
X198409603Y-189953681D01*
X198391775Y-189848007D01*
X198385491Y-189717033D01*
X198390750Y-189584984D01*
X198407552Y-189476082D01*
X198409603Y-189468342D01*
X198458143Y-189370751D01*
X198539720Y-189279396D01*
X198637589Y-189210887D01*
X198690870Y-189189365D01*
X198753806Y-189178620D01*
X198851663Y-189170189D01*
X198968524Y-189165215D01*
X199038821Y-189164365D01*
X199299600Y-189164365D01*
X199299600Y-189363392D01*
X200392893Y-189363392D02*
X200098244Y-189371936D01*
X200098244Y-189371936D02*
X199971371Y-189376163D01*
X199971371Y-189376163D02*
X199884875Y-189381647D01*
X199884875Y-189381647D02*
X199828294Y-189390691D01*
X199828294Y-189390691D02*
X199791163Y-189405599D01*
X199791163Y-189405599D02*
X199763020Y-189428673D01*
X199763020Y-189428673D02*
X199743917Y-189449924D01*
X199743917Y-189449924D02*
X199689746Y-189546028D01*
X199689746Y-189546028D02*
X199664214Y-189663919D01*
X199664214Y-189663919D02*
X199666860Y-189787607D01*
X199666860Y-189787607D02*
X199697220Y-189901101D01*
X199697220Y-189901101D02*
X199754831Y-189988410D01*
X199754831Y-189988410D02*
X199759630Y-189992908D01*
X199759630Y-189992908D02*
X199791678Y-190014962D01*
X199791678Y-190014962D02*
X199837125Y-190030157D01*
X199837125Y-190030157D02*
X199906151Y-190040188D01*
X199906151Y-190040188D02*
X200008936Y-190046748D01*
X200008936Y-190046748D02*
X200103092Y-190050086D01*
X200103092Y-190050086D02*
X200392893Y-190058630D01*
X200392893Y-190058630D02*
X200392893Y-190257658D01*
X200392893Y-190257658D02*
X200119570Y-190255472D01*
X200119570Y-190255472D02*
X199998575Y-190252525D01*
X199998575Y-190252525D02*
X199889449Y-190246312D01*
X199889449Y-190246312D02*
X199806664Y-190237845D01*
X199806664Y-190237845D02*
X199772353Y-190231183D01*
X199772353Y-190231183D02*
X199682633Y-190184129D01*
X199682633Y-190184129D02*
X199595619Y-190105705D01*
X199595619Y-190105705D02*
X199528251Y-190013359D01*
X199528251Y-190013359D02*
X199502896Y-189953681D01*
X199502896Y-189953681D02*
X199485068Y-189848007D01*
X199485068Y-189848007D02*
X199478784Y-189717033D01*
X199478784Y-189717033D02*
X199484043Y-189584984D01*
X199484043Y-189584984D02*
X199500845Y-189476082D01*
X199500845Y-189476082D02*
X199502896Y-189468342D01*
X199502896Y-189468342D02*
X199551436Y-189370751D01*
X199551436Y-189370751D02*
X199633013Y-189279396D01*
X199633013Y-189279396D02*
X199730882Y-189210887D01*
X199730882Y-189210887D02*
X199784163Y-189189365D01*
X199784163Y-189189365D02*
X199847099Y-189178620D01*
X199847099Y-189178620D02*
X199944956Y-189170189D01*
X199944956Y-189170189D02*
X200061817Y-189165215D01*
X200061817Y-189165215D02*
X200132114Y-189164365D01*
X200132114Y-189164365D02*
X200392893Y-189164365D01*
X200392893Y-189164365D02*
X200392893Y-189363392D01*
X200392893Y-189363392D02*
X200392893Y-189363392D01*
G36*
X200392893Y-189363392D02*
G01*
X200098244Y-189371936D01*
X199971371Y-189376163D01*
X199884875Y-189381647D01*
X199828294Y-189390691D01*
X199791163Y-189405599D01*
X199763020Y-189428673D01*
X199743917Y-189449924D01*
X199689746Y-189546028D01*
X199664214Y-189663919D01*
X199666860Y-189787607D01*
X199697220Y-189901101D01*
X199754831Y-189988410D01*
X199759630Y-189992908D01*
X199791678Y-190014962D01*
X199837125Y-190030157D01*
X199906151Y-190040188D01*
X200008936Y-190046748D01*
X200103092Y-190050086D01*
X200392893Y-190058630D01*
X200392893Y-190257658D01*
X200119570Y-190255472D01*
X199998575Y-190252525D01*
X199889449Y-190246312D01*
X199806664Y-190237845D01*
X199772353Y-190231183D01*
X199682633Y-190184129D01*
X199595619Y-190105705D01*
X199528251Y-190013359D01*
X199502896Y-189953681D01*
X199485068Y-189848007D01*
X199478784Y-189717033D01*
X199484043Y-189584984D01*
X199500845Y-189476082D01*
X199502896Y-189468342D01*
X199551436Y-189370751D01*
X199633013Y-189279396D01*
X199730882Y-189210887D01*
X199784163Y-189189365D01*
X199847099Y-189178620D01*
X199944956Y-189170189D01*
X200061817Y-189165215D01*
X200132114Y-189164365D01*
X200392893Y-189164365D01*
X200392893Y-189363392D01*
G37*
X200392893Y-189363392D02*
X200098244Y-189371936D01*
X199971371Y-189376163D01*
X199884875Y-189381647D01*
X199828294Y-189390691D01*
X199791163Y-189405599D01*
X199763020Y-189428673D01*
X199743917Y-189449924D01*
X199689746Y-189546028D01*
X199664214Y-189663919D01*
X199666860Y-189787607D01*
X199697220Y-189901101D01*
X199754831Y-189988410D01*
X199759630Y-189992908D01*
X199791678Y-190014962D01*
X199837125Y-190030157D01*
X199906151Y-190040188D01*
X200008936Y-190046748D01*
X200103092Y-190050086D01*
X200392893Y-190058630D01*
X200392893Y-190257658D01*
X200119570Y-190255472D01*
X199998575Y-190252525D01*
X199889449Y-190246312D01*
X199806664Y-190237845D01*
X199772353Y-190231183D01*
X199682633Y-190184129D01*
X199595619Y-190105705D01*
X199528251Y-190013359D01*
X199502896Y-189953681D01*
X199485068Y-189848007D01*
X199478784Y-189717033D01*
X199484043Y-189584984D01*
X199500845Y-189476082D01*
X199502896Y-189468342D01*
X199551436Y-189370751D01*
X199633013Y-189279396D01*
X199730882Y-189210887D01*
X199784163Y-189189365D01*
X199847099Y-189178620D01*
X199944956Y-189170189D01*
X200061817Y-189165215D01*
X200132114Y-189164365D01*
X200392893Y-189164365D01*
X200392893Y-189363392D01*
X209355355Y-189660160D02*
X209363323Y-189742793D01*
X209363323Y-189742793D02*
X209371290Y-189825426D01*
X209371290Y-189825426D02*
X208783283Y-189825426D01*
X208783283Y-189825426D02*
X208783283Y-189645782D01*
X208783283Y-189645782D02*
X209355355Y-189660160D01*
X209355355Y-189660160D02*
X209355355Y-189660160D01*
G36*
X209355355Y-189660160D02*
G01*
X209363323Y-189742793D01*
X209371290Y-189825426D01*
X208783283Y-189825426D01*
X208783283Y-189645782D01*
X209355355Y-189660160D01*
G37*
X209355355Y-189660160D02*
X209363323Y-189742793D01*
X209371290Y-189825426D01*
X208783283Y-189825426D01*
X208783283Y-189645782D01*
X209355355Y-189660160D01*
X205388989Y-189660160D02*
X205396956Y-189742793D01*
X205396956Y-189742793D02*
X205404924Y-189825426D01*
X205404924Y-189825426D02*
X204816917Y-189825426D01*
X204816917Y-189825426D02*
X204816917Y-189645782D01*
X204816917Y-189645782D02*
X205388989Y-189660160D01*
X205388989Y-189660160D02*
X205388989Y-189660160D01*
G36*
X205388989Y-189660160D02*
G01*
X205396956Y-189742793D01*
X205404924Y-189825426D01*
X204816917Y-189825426D01*
X204816917Y-189645782D01*
X205388989Y-189660160D01*
G37*
X205388989Y-189660160D02*
X205396956Y-189742793D01*
X205404924Y-189825426D01*
X204816917Y-189825426D01*
X204816917Y-189645782D01*
X205388989Y-189660160D01*
X207732865Y-189148626D02*
X207787974Y-189162824D01*
X207787974Y-189162824D02*
X207851545Y-189206602D01*
X207851545Y-189206602D02*
X207891881Y-189260187D01*
X207891881Y-189260187D02*
X207910629Y-189305240D01*
X207910629Y-189305240D02*
X207943458Y-189387961D01*
X207943458Y-189387961D02*
X207986554Y-189498420D01*
X207986554Y-189498420D02*
X208036104Y-189626688D01*
X208036104Y-189626688D02*
X208088296Y-189762835D01*
X208088296Y-189762835D02*
X208139317Y-189896929D01*
X208139317Y-189896929D02*
X208185353Y-190019042D01*
X208185353Y-190019042D02*
X208222593Y-190119243D01*
X208222593Y-190119243D02*
X208238266Y-190162313D01*
X208238266Y-190162313D02*
X208272519Y-190257658D01*
X208272519Y-190257658D02*
X208165589Y-190257288D01*
X208165589Y-190257288D02*
X208058659Y-190256919D01*
X208058659Y-190256919D02*
X207889532Y-189805987D01*
X207889532Y-189805987D02*
X207827241Y-189642443D01*
X207827241Y-189642443D02*
X207778675Y-189521579D01*
X207778675Y-189521579D02*
X207741217Y-189437925D01*
X207741217Y-189437925D02*
X207712247Y-189386007D01*
X207712247Y-189386007D02*
X207689149Y-189360353D01*
X207689149Y-189360353D02*
X207673766Y-189355055D01*
X207673766Y-189355055D02*
X207653086Y-189364631D01*
X207653086Y-189364631D02*
X207627904Y-189396919D01*
X207627904Y-189396919D02*
X207595574Y-189457258D01*
X207595574Y-189457258D02*
X207553452Y-189550985D01*
X207553452Y-189550985D02*
X207498894Y-189683441D01*
X207498894Y-189683441D02*
X207450204Y-189806357D01*
X207450204Y-189806357D02*
X207273280Y-190257658D01*
X207273280Y-190257658D02*
X207060276Y-190257658D01*
X207060276Y-190257658D02*
X207262335Y-189742793D01*
X207262335Y-189742793D02*
X207323247Y-189589750D01*
X207323247Y-189589750D02*
X207379779Y-189451765D01*
X207379779Y-189451765D02*
X207428763Y-189336251D01*
X207428763Y-189336251D02*
X207467032Y-189250618D01*
X207467032Y-189250618D02*
X207491417Y-189202277D01*
X207491417Y-189202277D02*
X207496320Y-189195294D01*
X207496320Y-189195294D02*
X207555861Y-189162876D01*
X207555861Y-189162876D02*
X207642136Y-189146493D01*
X207642136Y-189146493D02*
X207732865Y-189148626D01*
X207732865Y-189148626D02*
X207732865Y-189148626D01*
G36*
X207732865Y-189148626D02*
G01*
X207787974Y-189162824D01*
X207851545Y-189206602D01*
X207891881Y-189260187D01*
X207910629Y-189305240D01*
X207943458Y-189387961D01*
X207986554Y-189498420D01*
X208036104Y-189626688D01*
X208088296Y-189762835D01*
X208139317Y-189896929D01*
X208185353Y-190019042D01*
X208222593Y-190119243D01*
X208238266Y-190162313D01*
X208272519Y-190257658D01*
X208165589Y-190257288D01*
X208058659Y-190256919D01*
X207889532Y-189805987D01*
X207827241Y-189642443D01*
X207778675Y-189521579D01*
X207741217Y-189437925D01*
X207712247Y-189386007D01*
X207689149Y-189360353D01*
X207673766Y-189355055D01*
X207653086Y-189364631D01*
X207627904Y-189396919D01*
X207595574Y-189457258D01*
X207553452Y-189550985D01*
X207498894Y-189683441D01*
X207450204Y-189806357D01*
X207273280Y-190257658D01*
X207060276Y-190257658D01*
X207262335Y-189742793D01*
X207323247Y-189589750D01*
X207379779Y-189451765D01*
X207428763Y-189336251D01*
X207467032Y-189250618D01*
X207491417Y-189202277D01*
X207496320Y-189195294D01*
X207555861Y-189162876D01*
X207642136Y-189146493D01*
X207732865Y-189148626D01*
G37*
X207732865Y-189148626D02*
X207787974Y-189162824D01*
X207851545Y-189206602D01*
X207891881Y-189260187D01*
X207910629Y-189305240D01*
X207943458Y-189387961D01*
X207986554Y-189498420D01*
X208036104Y-189626688D01*
X208088296Y-189762835D01*
X208139317Y-189896929D01*
X208185353Y-190019042D01*
X208222593Y-190119243D01*
X208238266Y-190162313D01*
X208272519Y-190257658D01*
X208165589Y-190257288D01*
X208058659Y-190256919D01*
X207889532Y-189805987D01*
X207827241Y-189642443D01*
X207778675Y-189521579D01*
X207741217Y-189437925D01*
X207712247Y-189386007D01*
X207689149Y-189360353D01*
X207673766Y-189355055D01*
X207653086Y-189364631D01*
X207627904Y-189396919D01*
X207595574Y-189457258D01*
X207553452Y-189550985D01*
X207498894Y-189683441D01*
X207450204Y-189806357D01*
X207273280Y-190257658D01*
X207060276Y-190257658D01*
X207262335Y-189742793D01*
X207323247Y-189589750D01*
X207379779Y-189451765D01*
X207428763Y-189336251D01*
X207467032Y-189250618D01*
X207491417Y-189202277D01*
X207496320Y-189195294D01*
X207555861Y-189162876D01*
X207642136Y-189146493D01*
X207732865Y-189148626D01*
X206876376Y-189367768D02*
X206569600Y-189367768D01*
X206569600Y-189367768D02*
X206415244Y-189369830D01*
X206415244Y-189369830D02*
X206304774Y-189377403D01*
X206304774Y-189377403D02*
X206231341Y-189392565D01*
X206231341Y-189392565D02*
X206188098Y-189417394D01*
X206188098Y-189417394D02*
X206168195Y-189453967D01*
X206168195Y-189453967D02*
X206164464Y-189490705D01*
X206164464Y-189490705D02*
X206172851Y-189553046D01*
X206172851Y-189553046D02*
X206203654Y-189592637D01*
X206203654Y-189592637D02*
X206265341Y-189614126D01*
X206265341Y-189614126D02*
X206366380Y-189622163D01*
X206366380Y-189622163D02*
X206404735Y-189622644D01*
X206404735Y-189622644D02*
X206587992Y-189632736D01*
X206587992Y-189632736D02*
X206734539Y-189660881D01*
X206734539Y-189660881D02*
X206839483Y-189705959D01*
X206839483Y-189705959D02*
X206868980Y-189728729D01*
X206868980Y-189728729D02*
X206920648Y-189808513D01*
X206920648Y-189808513D02*
X206944019Y-189913095D01*
X206944019Y-189913095D02*
X206936657Y-190023490D01*
X206936657Y-190023490D02*
X206915030Y-190087715D01*
X206915030Y-190087715D02*
X206879364Y-190148340D01*
X206879364Y-190148340D02*
X206833092Y-190192988D01*
X206833092Y-190192988D02*
X206768541Y-190223946D01*
X206768541Y-190223946D02*
X206678039Y-190243501D01*
X206678039Y-190243501D02*
X206553911Y-190253941D01*
X206553911Y-190253941D02*
X206388486Y-190257552D01*
X206388486Y-190257552D02*
X206344956Y-190257658D01*
X206344956Y-190257658D02*
X205986486Y-190257658D01*
X205986486Y-190257658D02*
X205986486Y-190054254D01*
X205986486Y-190054254D02*
X206318689Y-190054254D01*
X206318689Y-190054254D02*
X206447547Y-190052303D01*
X206447547Y-190052303D02*
X206561141Y-190046970D01*
X206561141Y-190046970D02*
X206648106Y-190039040D01*
X206648106Y-190039040D02*
X206697077Y-190029299D01*
X206697077Y-190029299D02*
X206700070Y-190027934D01*
X206700070Y-190027934D02*
X206735467Y-189985455D01*
X206735467Y-189985455D02*
X206749448Y-189922264D01*
X206749448Y-189922264D02*
X206739913Y-189861823D01*
X206739913Y-189861823D02*
X206717467Y-189833283D01*
X206717467Y-189833283D02*
X206680111Y-189823680D01*
X206680111Y-189823680D02*
X206603983Y-189813814D01*
X206603983Y-189813814D02*
X206501137Y-189805007D01*
X206501137Y-189805007D02*
X206412695Y-189799844D01*
X206412695Y-189799844D02*
X206291234Y-189793486D01*
X206291234Y-189793486D02*
X206208845Y-189785999D01*
X206208845Y-189785999D02*
X206153784Y-189774266D01*
X206153784Y-189774266D02*
X206114312Y-189755173D01*
X206114312Y-189755173D02*
X206078686Y-189725604D01*
X206078686Y-189725604D02*
X206058626Y-189705896D01*
X206058626Y-189705896D02*
X206006393Y-189644375D01*
X206006393Y-189644375D02*
X205982140Y-189582108D01*
X205982140Y-189582108D02*
X205975661Y-189500214D01*
X205975661Y-189500214D02*
X205981790Y-189389796D01*
X205981790Y-189389796D02*
X206007558Y-189305546D01*
X206007558Y-189305546D02*
X206058370Y-189244264D01*
X206058370Y-189244264D02*
X206139635Y-189202751D01*
X206139635Y-189202751D02*
X206256761Y-189177807D01*
X206256761Y-189177807D02*
X206415155Y-189166233D01*
X206415155Y-189166233D02*
X206543332Y-189164365D01*
X206543332Y-189164365D02*
X206876376Y-189164365D01*
X206876376Y-189164365D02*
X206876376Y-189367768D01*
X206876376Y-189367768D02*
X206876376Y-189367768D01*
G36*
X206876376Y-189367768D02*
G01*
X206569600Y-189367768D01*
X206415244Y-189369830D01*
X206304774Y-189377403D01*
X206231341Y-189392565D01*
X206188098Y-189417394D01*
X206168195Y-189453967D01*
X206164464Y-189490705D01*
X206172851Y-189553046D01*
X206203654Y-189592637D01*
X206265341Y-189614126D01*
X206366380Y-189622163D01*
X206404735Y-189622644D01*
X206587992Y-189632736D01*
X206734539Y-189660881D01*
X206839483Y-189705959D01*
X206868980Y-189728729D01*
X206920648Y-189808513D01*
X206944019Y-189913095D01*
X206936657Y-190023490D01*
X206915030Y-190087715D01*
X206879364Y-190148340D01*
X206833092Y-190192988D01*
X206768541Y-190223946D01*
X206678039Y-190243501D01*
X206553911Y-190253941D01*
X206388486Y-190257552D01*
X206344956Y-190257658D01*
X205986486Y-190257658D01*
X205986486Y-190054254D01*
X206318689Y-190054254D01*
X206447547Y-190052303D01*
X206561141Y-190046970D01*
X206648106Y-190039040D01*
X206697077Y-190029299D01*
X206700070Y-190027934D01*
X206735467Y-189985455D01*
X206749448Y-189922264D01*
X206739913Y-189861823D01*
X206717467Y-189833283D01*
X206680111Y-189823680D01*
X206603983Y-189813814D01*
X206501137Y-189805007D01*
X206412695Y-189799844D01*
X206291234Y-189793486D01*
X206208845Y-189785999D01*
X206153784Y-189774266D01*
X206114312Y-189755173D01*
X206078686Y-189725604D01*
X206058626Y-189705896D01*
X206006393Y-189644375D01*
X205982140Y-189582108D01*
X205975661Y-189500214D01*
X205981790Y-189389796D01*
X206007558Y-189305546D01*
X206058370Y-189244264D01*
X206139635Y-189202751D01*
X206256761Y-189177807D01*
X206415155Y-189166233D01*
X206543332Y-189164365D01*
X206876376Y-189164365D01*
X206876376Y-189367768D01*
G37*
X206876376Y-189367768D02*
X206569600Y-189367768D01*
X206415244Y-189369830D01*
X206304774Y-189377403D01*
X206231341Y-189392565D01*
X206188098Y-189417394D01*
X206168195Y-189453967D01*
X206164464Y-189490705D01*
X206172851Y-189553046D01*
X206203654Y-189592637D01*
X206265341Y-189614126D01*
X206366380Y-189622163D01*
X206404735Y-189622644D01*
X206587992Y-189632736D01*
X206734539Y-189660881D01*
X206839483Y-189705959D01*
X206868980Y-189728729D01*
X206920648Y-189808513D01*
X206944019Y-189913095D01*
X206936657Y-190023490D01*
X206915030Y-190087715D01*
X206879364Y-190148340D01*
X206833092Y-190192988D01*
X206768541Y-190223946D01*
X206678039Y-190243501D01*
X206553911Y-190253941D01*
X206388486Y-190257552D01*
X206344956Y-190257658D01*
X205986486Y-190257658D01*
X205986486Y-190054254D01*
X206318689Y-190054254D01*
X206447547Y-190052303D01*
X206561141Y-190046970D01*
X206648106Y-190039040D01*
X206697077Y-190029299D01*
X206700070Y-190027934D01*
X206735467Y-189985455D01*
X206749448Y-189922264D01*
X206739913Y-189861823D01*
X206717467Y-189833283D01*
X206680111Y-189823680D01*
X206603983Y-189813814D01*
X206501137Y-189805007D01*
X206412695Y-189799844D01*
X206291234Y-189793486D01*
X206208845Y-189785999D01*
X206153784Y-189774266D01*
X206114312Y-189755173D01*
X206078686Y-189725604D01*
X206058626Y-189705896D01*
X206006393Y-189644375D01*
X205982140Y-189582108D01*
X205975661Y-189500214D01*
X205981790Y-189389796D01*
X206007558Y-189305546D01*
X206058370Y-189244264D01*
X206139635Y-189202751D01*
X206256761Y-189177807D01*
X206415155Y-189166233D01*
X206543332Y-189164365D01*
X206876376Y-189164365D01*
X206876376Y-189367768D01*
D11*
X373611000Y-194492000D03*
X370861000Y-194492000D03*
X368361000Y-194492000D03*
X365611000Y-194492000D03*
D12*
X365811000Y-186832000D03*
X372161000Y-184292000D03*
D13*
X369621000Y-189372000D03*
D14*
X364541000Y-189372000D03*
X374701000Y-189372000D03*
D11*
X354611000Y-194492000D03*
X351861000Y-194492000D03*
X349361000Y-194492000D03*
X346611000Y-194492000D03*
D12*
X346811000Y-186832000D03*
X353161000Y-184292000D03*
D13*
X350621000Y-189372000D03*
D14*
X345541000Y-189372000D03*
X355701000Y-189372000D03*
D11*
X335611000Y-194492000D03*
X332861000Y-194492000D03*
X330361000Y-194492000D03*
X327611000Y-194492000D03*
D12*
X327811000Y-186832000D03*
X334161000Y-184292000D03*
D13*
X331621000Y-189372000D03*
D14*
X326541000Y-189372000D03*
X336701000Y-189372000D03*
D11*
X303836356Y-194565181D03*
X301086356Y-194565181D03*
X298586356Y-194565181D03*
X295836356Y-194565181D03*
D12*
X296036356Y-186905181D03*
X302386356Y-184365181D03*
D14*
X294766356Y-189445181D03*
D13*
X299846356Y-189445181D03*
D14*
X304926356Y-189445181D03*
D11*
X279935455Y-194525426D03*
X277185455Y-194525426D03*
X274685455Y-194525426D03*
X271935455Y-194525426D03*
D12*
X272135455Y-186865426D03*
X278485455Y-184325426D03*
D13*
X275945455Y-189405426D03*
D14*
X270865455Y-189405426D03*
X281025455Y-189405426D03*
D11*
X256122452Y-194542931D03*
X253372452Y-194542931D03*
X250872452Y-194542931D03*
X248122452Y-194542931D03*
D12*
X248322452Y-186882931D03*
X254672452Y-184342931D03*
D14*
X247052452Y-189422931D03*
D13*
X252132452Y-189422931D03*
D14*
X257212452Y-189422931D03*
D11*
X174750000Y-194520000D03*
X172000000Y-194520000D03*
X169500000Y-194520000D03*
X166750000Y-194520000D03*
D12*
X166950000Y-186860000D03*
X173300000Y-184320000D03*
D13*
X170760000Y-189400000D03*
D15*
X227710000Y-182400000D03*
D14*
X165680000Y-189400000D03*
X175840000Y-189400000D03*
D13*
X113710000Y-197640000D03*
D15*
X113710000Y-182400000D03*
D13*
X227710000Y-197640000D03*
D11*
X93401000Y-194512000D03*
X90651000Y-194512000D03*
X88151000Y-194512000D03*
X85401000Y-194512000D03*
D12*
X85601000Y-186852000D03*
X91951000Y-184312000D03*
D14*
X84331000Y-189392000D03*
D13*
X89411000Y-189392000D03*
D14*
X94491000Y-189392000D03*
D11*
X69611000Y-194492000D03*
X66861000Y-194492000D03*
X64361000Y-194492000D03*
X61611000Y-194492000D03*
D12*
X61811000Y-186832000D03*
X68161000Y-184292000D03*
D13*
X65621000Y-189372000D03*
D14*
X60541000Y-189372000D03*
X70701000Y-189372000D03*
D11*
X45901000Y-194512000D03*
X43151000Y-194512000D03*
X40651000Y-194512000D03*
X37901000Y-194512000D03*
D12*
X38101000Y-186852000D03*
X44451000Y-184312000D03*
D14*
X36831000Y-189392000D03*
D13*
X41911000Y-189392000D03*
D14*
X46991000Y-189392000D03*
D11*
X43476000Y-175512000D03*
X40726000Y-175512000D03*
X38226000Y-175512000D03*
X35476000Y-175512000D03*
D12*
X35676000Y-167852000D03*
X42026000Y-165312000D03*
D14*
X34406000Y-170392000D03*
D13*
X39486000Y-170392000D03*
D14*
X44566000Y-170392000D03*
D11*
X48276000Y-156512000D03*
X45526000Y-156512000D03*
X43026000Y-156512000D03*
X40276000Y-156512000D03*
D12*
X40476000Y-148852000D03*
X46826000Y-146312000D03*
D14*
X39206000Y-151392000D03*
D13*
X44286000Y-151392000D03*
D14*
X49366000Y-151392000D03*
D11*
X45901000Y-137512000D03*
X43151000Y-137512000D03*
X40651000Y-137512000D03*
X37901000Y-137512000D03*
D12*
X38101000Y-129852000D03*
X44451000Y-127312000D03*
D14*
X36831000Y-132392000D03*
D13*
X41911000Y-132392000D03*
D14*
X46991000Y-132392000D03*
D11*
X41111000Y-118492000D03*
X38361000Y-118492000D03*
X35861000Y-118492000D03*
X33111000Y-118492000D03*
D12*
X33311000Y-110832000D03*
X39661000Y-108292000D03*
D13*
X37121000Y-113372000D03*
D14*
X32041000Y-113372000D03*
X42201000Y-113372000D03*
D11*
X354611000Y-175492000D03*
X351861000Y-175492000D03*
X349361000Y-175492000D03*
X346611000Y-175492000D03*
D12*
X346811000Y-167832000D03*
X353161000Y-165292000D03*
D13*
X350621000Y-170372000D03*
D14*
X345541000Y-170372000D03*
X355701000Y-170372000D03*
D11*
X290526000Y-175512000D03*
X287776000Y-175512000D03*
X285276000Y-175512000D03*
X282526000Y-175512000D03*
D12*
X282726000Y-167852000D03*
X289076000Y-165312000D03*
D14*
X291616000Y-170392000D03*
D15*
X298396000Y-163372000D03*
D13*
X274596000Y-178612000D03*
X286536000Y-170392000D03*
D15*
X274596000Y-163372000D03*
D13*
X298396000Y-178612000D03*
D14*
X281456000Y-170392000D03*
D11*
X254861000Y-175492000D03*
X252111000Y-175492000D03*
X249611000Y-175492000D03*
X246861000Y-175492000D03*
D12*
X247061000Y-167832000D03*
X253411000Y-165292000D03*
D13*
X250871000Y-170372000D03*
D14*
X245791000Y-170372000D03*
X255951000Y-170372000D03*
D11*
X235861000Y-175492000D03*
X233111000Y-175492000D03*
X230611000Y-175492000D03*
X227861000Y-175492000D03*
D12*
X228061000Y-167832000D03*
X234411000Y-165292000D03*
D13*
X231871000Y-170372000D03*
D14*
X226791000Y-170372000D03*
X236951000Y-170372000D03*
D11*
X216861000Y-175492000D03*
X214111000Y-175492000D03*
X211611000Y-175492000D03*
X208861000Y-175492000D03*
D12*
X209061000Y-167832000D03*
X215411000Y-165292000D03*
D13*
X212871000Y-170372000D03*
D14*
X207791000Y-170372000D03*
X217951000Y-170372000D03*
D11*
X197861000Y-175492000D03*
X195111000Y-175492000D03*
X192611000Y-175492000D03*
X189861000Y-175492000D03*
D12*
X190061000Y-167832000D03*
X196411000Y-165292000D03*
D13*
X193871000Y-170372000D03*
D14*
X188791000Y-170372000D03*
X198951000Y-170372000D03*
D11*
X178861000Y-175492000D03*
X176111000Y-175492000D03*
X173611000Y-175492000D03*
X170861000Y-175492000D03*
D12*
X171061000Y-167832000D03*
X177411000Y-165292000D03*
D13*
X174871000Y-170372000D03*
D14*
X169791000Y-170372000D03*
X179951000Y-170372000D03*
D11*
X159861000Y-175492000D03*
X157111000Y-175492000D03*
X154611000Y-175492000D03*
X151861000Y-175492000D03*
D12*
X152061000Y-167832000D03*
X158411000Y-165292000D03*
D13*
X155871000Y-170372000D03*
D14*
X150791000Y-170372000D03*
X160951000Y-170372000D03*
D11*
X140861000Y-175492000D03*
X138111000Y-175492000D03*
X135611000Y-175492000D03*
X132861000Y-175492000D03*
D12*
X133061000Y-167832000D03*
X139411000Y-165292000D03*
D13*
X136871000Y-170372000D03*
D14*
X131791000Y-170372000D03*
X141951000Y-170372000D03*
D11*
X121861000Y-175492000D03*
X119111000Y-175492000D03*
X116611000Y-175492000D03*
X113861000Y-175492000D03*
D12*
X114061000Y-167832000D03*
X120411000Y-165292000D03*
D13*
X117871000Y-170372000D03*
D14*
X112791000Y-170372000D03*
X122951000Y-170372000D03*
D11*
X102861000Y-175492000D03*
X100111000Y-175492000D03*
X97611000Y-175492000D03*
X94861000Y-175492000D03*
D12*
X95061000Y-167832000D03*
X101411000Y-165292000D03*
D13*
X98871000Y-170372000D03*
D14*
X93791000Y-170372000D03*
X103951000Y-170372000D03*
D11*
X83861000Y-175492000D03*
X81111000Y-175492000D03*
X78611000Y-175492000D03*
X75861000Y-175492000D03*
D12*
X76061000Y-167832000D03*
X82411000Y-165292000D03*
D13*
X79871000Y-170372000D03*
D14*
X74791000Y-170372000D03*
X84951000Y-170372000D03*
D11*
X64861000Y-175492000D03*
X62111000Y-175492000D03*
X59611000Y-175492000D03*
X56861000Y-175492000D03*
D12*
X57061000Y-167832000D03*
X63411000Y-165292000D03*
D13*
X60871000Y-170372000D03*
D14*
X55791000Y-170372000D03*
X65951000Y-170372000D03*
D11*
X283361000Y-156492000D03*
X280611000Y-156492000D03*
X278111000Y-156492000D03*
X275361000Y-156492000D03*
D12*
X275561000Y-148832000D03*
X281911000Y-146292000D03*
D13*
X279371000Y-151372000D03*
D14*
X274291000Y-151372000D03*
X284451000Y-151372000D03*
D11*
X264361000Y-156492000D03*
X261611000Y-156492000D03*
X259111000Y-156492000D03*
X256361000Y-156492000D03*
D12*
X256561000Y-148832000D03*
X262911000Y-146292000D03*
D13*
X260371000Y-151372000D03*
D14*
X255291000Y-151372000D03*
X265451000Y-151372000D03*
D11*
X245361000Y-156492000D03*
X242611000Y-156492000D03*
X240111000Y-156492000D03*
X237361000Y-156492000D03*
D12*
X237561000Y-148832000D03*
X243911000Y-146292000D03*
D13*
X241371000Y-151372000D03*
D14*
X236291000Y-151372000D03*
X246451000Y-151372000D03*
D11*
X226361000Y-156492000D03*
X223611000Y-156492000D03*
X221111000Y-156492000D03*
X218361000Y-156492000D03*
D12*
X218561000Y-148832000D03*
X224911000Y-146292000D03*
D13*
X222371000Y-151372000D03*
D14*
X217291000Y-151372000D03*
X227451000Y-151372000D03*
D11*
X207361000Y-156492000D03*
X204611000Y-156492000D03*
X202111000Y-156492000D03*
X199361000Y-156492000D03*
D12*
X199561000Y-148832000D03*
X205911000Y-146292000D03*
D13*
X203371000Y-151372000D03*
D14*
X198291000Y-151372000D03*
X208451000Y-151372000D03*
D11*
X188361000Y-156492000D03*
X185611000Y-156492000D03*
X183111000Y-156492000D03*
X180361000Y-156492000D03*
D12*
X180561000Y-148832000D03*
X186911000Y-146292000D03*
D13*
X184371000Y-151372000D03*
D14*
X179291000Y-151372000D03*
X189451000Y-151372000D03*
D11*
X169361000Y-156492000D03*
X166611000Y-156492000D03*
X164111000Y-156492000D03*
X161361000Y-156492000D03*
D12*
X161561000Y-148832000D03*
X167911000Y-146292000D03*
D13*
X165371000Y-151372000D03*
D14*
X160291000Y-151372000D03*
X170451000Y-151372000D03*
D11*
X150361000Y-156492000D03*
X147611000Y-156492000D03*
X145111000Y-156492000D03*
X142361000Y-156492000D03*
D12*
X142561000Y-148832000D03*
X148911000Y-146292000D03*
D13*
X146371000Y-151372000D03*
D14*
X141291000Y-151372000D03*
X151451000Y-151372000D03*
D11*
X131361000Y-156492000D03*
X128611000Y-156492000D03*
X126111000Y-156492000D03*
X123361000Y-156492000D03*
D12*
X123561000Y-148832000D03*
X129911000Y-146292000D03*
D13*
X127371000Y-151372000D03*
D14*
X122291000Y-151372000D03*
X132451000Y-151372000D03*
D11*
X112361000Y-156492000D03*
X109611000Y-156492000D03*
X107111000Y-156492000D03*
X104361000Y-156492000D03*
D12*
X104561000Y-148832000D03*
X110911000Y-146292000D03*
D13*
X108371000Y-151372000D03*
D14*
X103291000Y-151372000D03*
X113451000Y-151372000D03*
D11*
X93361000Y-156492000D03*
X90611000Y-156492000D03*
X88111000Y-156492000D03*
X85361000Y-156492000D03*
D12*
X85561000Y-148832000D03*
X91911000Y-146292000D03*
D13*
X89371000Y-151372000D03*
D14*
X84291000Y-151372000D03*
X94451000Y-151372000D03*
D11*
X74361000Y-156492000D03*
X71611000Y-156492000D03*
X69111000Y-156492000D03*
X66361000Y-156492000D03*
D12*
X66561000Y-148832000D03*
X72911000Y-146292000D03*
D13*
X70371000Y-151372000D03*
D14*
X65291000Y-151372000D03*
X75451000Y-151372000D03*
D11*
X373611000Y-137492000D03*
X370861000Y-137492000D03*
X368361000Y-137492000D03*
X365611000Y-137492000D03*
D12*
X365811000Y-129832000D03*
X372161000Y-127292000D03*
D13*
X369621000Y-132372000D03*
D14*
X364541000Y-132372000D03*
X374701000Y-132372000D03*
D11*
X354611000Y-137492000D03*
X351861000Y-137492000D03*
X349361000Y-137492000D03*
X346611000Y-137492000D03*
D12*
X346811000Y-129832000D03*
X353161000Y-127292000D03*
D13*
X350621000Y-132372000D03*
D14*
X345541000Y-132372000D03*
X355701000Y-132372000D03*
D11*
X335611000Y-137492000D03*
X332861000Y-137492000D03*
X330361000Y-137492000D03*
X327611000Y-137492000D03*
D12*
X327811000Y-129832000D03*
X334161000Y-127292000D03*
D13*
X331621000Y-132372000D03*
D14*
X326541000Y-132372000D03*
X336701000Y-132372000D03*
D11*
X304776000Y-147012000D03*
X302026000Y-147012000D03*
X299526000Y-147012000D03*
X296776000Y-147012000D03*
D12*
X296976000Y-139352000D03*
X303326000Y-136812000D03*
D13*
X300786000Y-141892000D03*
X308986000Y-129972000D03*
D14*
X295706000Y-141892000D03*
D15*
X293746000Y-153772000D03*
X293746000Y-129972000D03*
D14*
X305866000Y-141892000D03*
D13*
X308986000Y-153772000D03*
D11*
X278611000Y-137492000D03*
X275861000Y-137492000D03*
X273361000Y-137492000D03*
X270611000Y-137492000D03*
D12*
X270811000Y-129832000D03*
X277161000Y-127292000D03*
D13*
X274621000Y-132372000D03*
D14*
X269541000Y-132372000D03*
X279701000Y-132372000D03*
D11*
X259611000Y-137492000D03*
X256861000Y-137492000D03*
X254361000Y-137492000D03*
X251611000Y-137492000D03*
D12*
X251811000Y-129832000D03*
X258161000Y-127292000D03*
D13*
X255621000Y-132372000D03*
D14*
X250541000Y-132372000D03*
X260701000Y-132372000D03*
D11*
X240611000Y-137492000D03*
X237861000Y-137492000D03*
X235361000Y-137492000D03*
X232611000Y-137492000D03*
D12*
X232811000Y-129832000D03*
X239161000Y-127292000D03*
D13*
X236621000Y-132372000D03*
D14*
X231541000Y-132372000D03*
X241701000Y-132372000D03*
D11*
X221611000Y-137492000D03*
X218861000Y-137492000D03*
X216361000Y-137492000D03*
X213611000Y-137492000D03*
D12*
X213811000Y-129832000D03*
X220161000Y-127292000D03*
D13*
X217621000Y-132372000D03*
D14*
X212541000Y-132372000D03*
X222701000Y-132372000D03*
D11*
X202611000Y-137492000D03*
X199861000Y-137492000D03*
X197361000Y-137492000D03*
X194611000Y-137492000D03*
D12*
X194811000Y-129832000D03*
X201161000Y-127292000D03*
D13*
X198621000Y-132372000D03*
D14*
X193541000Y-132372000D03*
X203701000Y-132372000D03*
D11*
X183611000Y-137492000D03*
X180861000Y-137492000D03*
X178361000Y-137492000D03*
X175611000Y-137492000D03*
D12*
X175811000Y-129832000D03*
X182161000Y-127292000D03*
D13*
X179621000Y-132372000D03*
D14*
X174541000Y-132372000D03*
X184701000Y-132372000D03*
D11*
X164611000Y-137492000D03*
X161861000Y-137492000D03*
X159361000Y-137492000D03*
X156611000Y-137492000D03*
D12*
X156811000Y-129832000D03*
X163161000Y-127292000D03*
D13*
X160621000Y-132372000D03*
D14*
X155541000Y-132372000D03*
X165701000Y-132372000D03*
D11*
X145611000Y-137492000D03*
X142861000Y-137492000D03*
X140361000Y-137492000D03*
X137611000Y-137492000D03*
D12*
X137811000Y-129832000D03*
X144161000Y-127292000D03*
D13*
X141621000Y-132372000D03*
D14*
X136541000Y-132372000D03*
X146701000Y-132372000D03*
D11*
X126611000Y-137492000D03*
X123861000Y-137492000D03*
X121361000Y-137492000D03*
X118611000Y-137492000D03*
D12*
X118811000Y-129832000D03*
X125161000Y-127292000D03*
D13*
X122621000Y-132372000D03*
D14*
X117541000Y-132372000D03*
X127701000Y-132372000D03*
D11*
X107611000Y-137492000D03*
X104861000Y-137492000D03*
X102361000Y-137492000D03*
X99611000Y-137492000D03*
D12*
X99811000Y-129832000D03*
X106161000Y-127292000D03*
D13*
X103621000Y-132372000D03*
D14*
X98541000Y-132372000D03*
X108701000Y-132372000D03*
D11*
X88611000Y-137492000D03*
X85861000Y-137492000D03*
X83361000Y-137492000D03*
X80611000Y-137492000D03*
D12*
X80811000Y-129832000D03*
X87161000Y-127292000D03*
D13*
X84621000Y-132372000D03*
D14*
X79541000Y-132372000D03*
X89701000Y-132372000D03*
D11*
X69611000Y-137492000D03*
X66861000Y-137492000D03*
X64361000Y-137492000D03*
X61611000Y-137492000D03*
D12*
X61811000Y-129832000D03*
X68161000Y-127292000D03*
D13*
X65621000Y-132372000D03*
D14*
X60541000Y-132372000D03*
X70701000Y-132372000D03*
D11*
X373611000Y-118492000D03*
X370861000Y-118492000D03*
X368361000Y-118492000D03*
X365611000Y-118492000D03*
D12*
X365811000Y-110832000D03*
X372161000Y-108292000D03*
D13*
X369621000Y-113372000D03*
D14*
X364541000Y-113372000D03*
X374701000Y-113372000D03*
D11*
X354611000Y-118492000D03*
X351861000Y-118492000D03*
X349361000Y-118492000D03*
X346611000Y-118492000D03*
D12*
X346811000Y-110832000D03*
X353161000Y-108292000D03*
D13*
X350621000Y-113372000D03*
D14*
X345541000Y-113372000D03*
X355701000Y-113372000D03*
D11*
X335611000Y-118492000D03*
X332861000Y-118492000D03*
X330361000Y-118492000D03*
X327611000Y-118492000D03*
D12*
X327811000Y-110832000D03*
X334161000Y-108292000D03*
D13*
X331621000Y-113372000D03*
D14*
X326541000Y-113372000D03*
X336701000Y-113372000D03*
D11*
X297651000Y-118512000D03*
X294901000Y-118512000D03*
X292401000Y-118512000D03*
X289651000Y-118512000D03*
D12*
X289851000Y-110852000D03*
X296201000Y-108312000D03*
D13*
X281721000Y-121612000D03*
D15*
X305521000Y-106372000D03*
D13*
X293661000Y-113392000D03*
D14*
X298741000Y-113392000D03*
D15*
X281721000Y-106372000D03*
D13*
X305521000Y-121612000D03*
D14*
X288581000Y-113392000D03*
D11*
X269111000Y-118492000D03*
X266361000Y-118492000D03*
X263861000Y-118492000D03*
X261111000Y-118492000D03*
D12*
X261311000Y-110832000D03*
X267661000Y-108292000D03*
D13*
X265121000Y-113372000D03*
D14*
X260041000Y-113372000D03*
X270201000Y-113372000D03*
D11*
X250111000Y-118492000D03*
X247361000Y-118492000D03*
X244861000Y-118492000D03*
X242111000Y-118492000D03*
D12*
X242311000Y-110832000D03*
X248661000Y-108292000D03*
D13*
X246121000Y-113372000D03*
D14*
X241041000Y-113372000D03*
X251201000Y-113372000D03*
D11*
X231111000Y-118492000D03*
X228361000Y-118492000D03*
X225861000Y-118492000D03*
X223111000Y-118492000D03*
D12*
X223311000Y-110832000D03*
X229661000Y-108292000D03*
D13*
X227121000Y-113372000D03*
D14*
X222041000Y-113372000D03*
X232201000Y-113372000D03*
D11*
X212111000Y-118492000D03*
X209361000Y-118492000D03*
X206861000Y-118492000D03*
X204111000Y-118492000D03*
D12*
X204311000Y-110832000D03*
X210661000Y-108292000D03*
D13*
X208121000Y-113372000D03*
D14*
X203041000Y-113372000D03*
X213201000Y-113372000D03*
D11*
X193111000Y-118492000D03*
X190361000Y-118492000D03*
X187861000Y-118492000D03*
X185111000Y-118492000D03*
D12*
X185311000Y-110832000D03*
X191661000Y-108292000D03*
D13*
X189121000Y-113372000D03*
D14*
X184041000Y-113372000D03*
X194201000Y-113372000D03*
D11*
X174111000Y-118492000D03*
X171361000Y-118492000D03*
X168861000Y-118492000D03*
X166111000Y-118492000D03*
D12*
X166311000Y-110832000D03*
X172661000Y-108292000D03*
D13*
X170121000Y-113372000D03*
D14*
X165041000Y-113372000D03*
X175201000Y-113372000D03*
D11*
X155111000Y-118492000D03*
X152361000Y-118492000D03*
X149861000Y-118492000D03*
X147111000Y-118492000D03*
D12*
X147311000Y-110832000D03*
X153661000Y-108292000D03*
D13*
X151121000Y-113372000D03*
D14*
X146041000Y-113372000D03*
X156201000Y-113372000D03*
D11*
X136111000Y-118492000D03*
X133361000Y-118492000D03*
X130861000Y-118492000D03*
X128111000Y-118492000D03*
D12*
X128311000Y-110832000D03*
X134661000Y-108292000D03*
D13*
X132121000Y-113372000D03*
D14*
X127041000Y-113372000D03*
X137201000Y-113372000D03*
D11*
X117111000Y-118492000D03*
X114361000Y-118492000D03*
X111861000Y-118492000D03*
X109111000Y-118492000D03*
D12*
X109311000Y-110832000D03*
X115661000Y-108292000D03*
D13*
X113121000Y-113372000D03*
D14*
X108041000Y-113372000D03*
X118201000Y-113372000D03*
D11*
X98111000Y-118492000D03*
X95361000Y-118492000D03*
X92861000Y-118492000D03*
X90111000Y-118492000D03*
D12*
X90311000Y-110832000D03*
X96661000Y-108292000D03*
D13*
X94121000Y-113372000D03*
D14*
X89041000Y-113372000D03*
X99201000Y-113372000D03*
D11*
X79111000Y-118492000D03*
X76361000Y-118492000D03*
X73861000Y-118492000D03*
X71111000Y-118492000D03*
D12*
X71311000Y-110832000D03*
X77661000Y-108292000D03*
D13*
X75121000Y-113372000D03*
D14*
X70041000Y-113372000D03*
X80201000Y-113372000D03*
D11*
X60111000Y-118492000D03*
X57361000Y-118492000D03*
X54861000Y-118492000D03*
X52111000Y-118492000D03*
D12*
X52311000Y-110832000D03*
X58661000Y-108292000D03*
D13*
X56121000Y-113372000D03*
D14*
X51041000Y-113372000D03*
X61201000Y-113372000D03*
D11*
X373611000Y-89992000D03*
X370861000Y-89992000D03*
X368361000Y-89992000D03*
X365611000Y-89992000D03*
D12*
X365811000Y-82332000D03*
X372161000Y-79792000D03*
D13*
X369621000Y-84872000D03*
D14*
X364541000Y-84872000D03*
X374701000Y-84872000D03*
D11*
X354611000Y-89992000D03*
X351861000Y-89992000D03*
X349361000Y-89992000D03*
X346611000Y-89992000D03*
D12*
X346811000Y-82332000D03*
X353161000Y-79792000D03*
D13*
X350621000Y-84872000D03*
D14*
X345541000Y-84872000D03*
X355701000Y-84872000D03*
D11*
X335611000Y-89992000D03*
X332861000Y-89992000D03*
X330361000Y-89992000D03*
X327611000Y-89992000D03*
D12*
X327811000Y-82332000D03*
X334161000Y-79792000D03*
D13*
X331621000Y-84872000D03*
D14*
X326541000Y-84872000D03*
X336701000Y-84872000D03*
D11*
X307111000Y-89992000D03*
X304361000Y-89992000D03*
X301861000Y-89992000D03*
X299111000Y-89992000D03*
D12*
X299311000Y-82332000D03*
X305661000Y-79792000D03*
D13*
X303121000Y-84872000D03*
D14*
X298041000Y-84872000D03*
X308201000Y-84872000D03*
D11*
X288111000Y-89992000D03*
X285361000Y-89992000D03*
X282861000Y-89992000D03*
X280111000Y-89992000D03*
D12*
X280311000Y-82332000D03*
X286661000Y-79792000D03*
D13*
X284121000Y-84872000D03*
D14*
X279041000Y-84872000D03*
X289201000Y-84872000D03*
D11*
X269111000Y-89992000D03*
X266361000Y-89992000D03*
X263861000Y-89992000D03*
X261111000Y-89992000D03*
D12*
X261311000Y-82332000D03*
X267661000Y-79792000D03*
D13*
X265121000Y-84872000D03*
D14*
X260041000Y-84872000D03*
X270201000Y-84872000D03*
D11*
X250111000Y-89992000D03*
X247361000Y-89992000D03*
X244861000Y-89992000D03*
X242111000Y-89992000D03*
D12*
X242311000Y-82332000D03*
X248661000Y-79792000D03*
D13*
X246121000Y-84872000D03*
D14*
X241041000Y-84872000D03*
X251201000Y-84872000D03*
D11*
X221611000Y-89992000D03*
X218861000Y-89992000D03*
X216361000Y-89992000D03*
X213611000Y-89992000D03*
D12*
X213811000Y-82332000D03*
X220161000Y-79792000D03*
D13*
X217621000Y-84872000D03*
D14*
X212541000Y-84872000D03*
X222701000Y-84872000D03*
D11*
X202611000Y-89992000D03*
X199861000Y-89992000D03*
X197361000Y-89992000D03*
X194611000Y-89992000D03*
D12*
X194811000Y-82332000D03*
X201161000Y-79792000D03*
D13*
X198621000Y-84872000D03*
D14*
X193541000Y-84872000D03*
X203701000Y-84872000D03*
D11*
X183611000Y-89992000D03*
X180861000Y-89992000D03*
X178361000Y-89992000D03*
X175611000Y-89992000D03*
D12*
X175811000Y-82332000D03*
X182161000Y-79792000D03*
D13*
X179621000Y-84872000D03*
D14*
X174541000Y-84872000D03*
X184701000Y-84872000D03*
D11*
X164611000Y-89992000D03*
X161861000Y-89992000D03*
X159361000Y-89992000D03*
X156611000Y-89992000D03*
D12*
X156811000Y-82332000D03*
X163161000Y-79792000D03*
D13*
X160621000Y-84872000D03*
D14*
X155541000Y-84872000D03*
X165701000Y-84872000D03*
D11*
X136111000Y-89992000D03*
X133361000Y-89992000D03*
X130861000Y-89992000D03*
X128111000Y-89992000D03*
D12*
X128311000Y-82332000D03*
X134661000Y-79792000D03*
D13*
X132121000Y-84872000D03*
D14*
X127041000Y-84872000D03*
X137201000Y-84872000D03*
D11*
X117111000Y-89992000D03*
X114361000Y-89992000D03*
X111861000Y-89992000D03*
X109111000Y-89992000D03*
D12*
X109311000Y-82332000D03*
X115661000Y-79792000D03*
D13*
X113121000Y-84872000D03*
D14*
X108041000Y-84872000D03*
X118201000Y-84872000D03*
D11*
X98111000Y-89992000D03*
X95361000Y-89992000D03*
X92861000Y-89992000D03*
X90111000Y-89992000D03*
D12*
X90311000Y-82332000D03*
X96661000Y-79792000D03*
D13*
X94121000Y-84872000D03*
D14*
X89041000Y-84872000D03*
X99201000Y-84872000D03*
D11*
X79111000Y-89992000D03*
X76361000Y-89992000D03*
X73861000Y-89992000D03*
X71111000Y-89992000D03*
D12*
X71311000Y-82332000D03*
X77661000Y-79792000D03*
D13*
X75121000Y-84872000D03*
D14*
X70041000Y-84872000D03*
X80201000Y-84872000D03*
D11*
X41111000Y-89992000D03*
X38361000Y-89992000D03*
X35861000Y-89992000D03*
X33111000Y-89992000D03*
D12*
X33311000Y-82332000D03*
X39661000Y-79792000D03*
D13*
X37121000Y-84872000D03*
D14*
X32041000Y-84872000D03*
X42201000Y-84872000D03*
D16*
X243662500Y-52300000D03*
X245737500Y-52300000D03*
D17*
X236825000Y-52300000D03*
X238875000Y-52300000D03*
D18*
X206225000Y-56600000D03*
X207875000Y-56600000D03*
D19*
X226600000Y-59125000D03*
X226600000Y-60675000D03*
D18*
X233525000Y-50100000D03*
X235175000Y-50100000D03*
X224125000Y-51000000D03*
X225775000Y-51000000D03*
D20*
X200700000Y-53825000D03*
X200700000Y-52175000D03*
D18*
X233525000Y-52300000D03*
X235175000Y-52300000D03*
D17*
X236825000Y-50100000D03*
X238875000Y-50100000D03*
D21*
X208137500Y-58450000D03*
X206062500Y-58450000D03*
D22*
X224175000Y-49350000D03*
X225725000Y-49350000D03*
D23*
X212175000Y-49300000D03*
X210625000Y-49300000D03*
D24*
X186150000Y-51100000D03*
X179850000Y-51100000D03*
X179850000Y-54900000D03*
X186150000Y-54900000D03*
D25*
X255500000Y-65900000D03*
X257500000Y-65900000D03*
D26*
X202400000Y-63200000D03*
X203050000Y-63200000D03*
D27*
X202750000Y-64150000D03*
D26*
X203050000Y-65100000D03*
X202400000Y-65100000D03*
X203700000Y-63200000D03*
D28*
X203750000Y-64150000D03*
D26*
X203700000Y-65100000D03*
D13*
X30000000Y-57000000D03*
D29*
X253487500Y-58000000D03*
X253487500Y-57050000D03*
X253487500Y-56100000D03*
X251212500Y-56100000D03*
X251212500Y-57050000D03*
X251212500Y-58000000D03*
D18*
X250975000Y-59800000D03*
X252625000Y-59800000D03*
D30*
X173200000Y-49300000D03*
D31*
X173200000Y-51300000D03*
D18*
X250975000Y-54300000D03*
X252625000Y-54300000D03*
D32*
X214012500Y-54550000D03*
X214012500Y-55050000D03*
X214012500Y-55550000D03*
X214012500Y-56050000D03*
X214012500Y-56550000D03*
X214012500Y-57050000D03*
X214012500Y-57550000D03*
X214012500Y-58050000D03*
X214012500Y-58550000D03*
X214012500Y-59050000D03*
X214012500Y-59550000D03*
D33*
X214850000Y-60387500D03*
X215350000Y-60387500D03*
X215850000Y-60387500D03*
X216350000Y-60387500D03*
X216850000Y-60387500D03*
X217350000Y-60387500D03*
X217850000Y-60387500D03*
X218350000Y-60387500D03*
X218850000Y-60387500D03*
X219350000Y-60387500D03*
X219850000Y-60387500D03*
D32*
X220687500Y-59550000D03*
X220687500Y-59050000D03*
X220687500Y-58550000D03*
X220687500Y-58050000D03*
X220687500Y-57550000D03*
X220687500Y-57050000D03*
X220687500Y-56550000D03*
X220687500Y-56050000D03*
X220687500Y-55550000D03*
X220687500Y-55050000D03*
X220687500Y-54550000D03*
D33*
X219850000Y-53712500D03*
X219350000Y-53712500D03*
X218850000Y-53712500D03*
X218350000Y-53712500D03*
X217850000Y-53712500D03*
X217350000Y-53712500D03*
X216850000Y-53712500D03*
X216350000Y-53712500D03*
X215850000Y-53712500D03*
X215350000Y-53712500D03*
X214850000Y-53712500D03*
D34*
X217350000Y-57050000D03*
D35*
X207425112Y-63401504D03*
X205775112Y-63401504D03*
D36*
X259050000Y-60000000D03*
D37*
X262150000Y-58400000D03*
X262150000Y-55600000D03*
D38*
X259050000Y-54000000D03*
D39*
X257950000Y-60100000D03*
X257950000Y-59350000D03*
D40*
X257950000Y-58750000D03*
X257950000Y-57250000D03*
X257950000Y-56250000D03*
X257950000Y-55250000D03*
D39*
X257950000Y-54650000D03*
X257950000Y-53900000D03*
X257950000Y-53900000D03*
X257950000Y-54650000D03*
D40*
X257950000Y-55750000D03*
X257950000Y-56750000D03*
X257950000Y-57750000D03*
X257950000Y-58250000D03*
D39*
X257950000Y-59350000D03*
X257950000Y-60100000D03*
D41*
X258325000Y-52680000D03*
X258325000Y-61320000D03*
D42*
X262150000Y-61320000D03*
X262150000Y-52680000D03*
D30*
X248300000Y-66700000D03*
D31*
X246300000Y-66700000D03*
D43*
X245700000Y-54600000D03*
X243700000Y-54600000D03*
D13*
X26000000Y-201000000D03*
D35*
X207425000Y-65000000D03*
X205775000Y-65000000D03*
D37*
X198000000Y-62000000D03*
X198000000Y-60000000D03*
X198000000Y-58000000D03*
X198000000Y-56000000D03*
X198000000Y-54000000D03*
X198000000Y-52000000D03*
D18*
X206225000Y-55000000D03*
X207875000Y-55000000D03*
D13*
X381000000Y-53000000D03*
D44*
X214300000Y-65537500D03*
X214300000Y-67262500D03*
D45*
X218900000Y-67262500D03*
X218900000Y-65537500D03*
D46*
X255827500Y-64200000D03*
X256972500Y-64200000D03*
D13*
X381000000Y-201000000D03*
D47*
X217300000Y-65850000D03*
X215900000Y-65850000D03*
X215900000Y-66950000D03*
X217300000Y-66950000D03*
D48*
X90200000Y-175600000D03*
X71300000Y-175500000D03*
D49*
X291700000Y-206200000D03*
X100600000Y-47800000D03*
X145600000Y-47800000D03*
X216700000Y-206200000D03*
X20800000Y-92300000D03*
X130300000Y-206200000D03*
X191700000Y-206200000D03*
X301700000Y-206200000D03*
X190600000Y-47800000D03*
X120300000Y-206200000D03*
D48*
X204400000Y-58400000D03*
D36*
X255900000Y-60800000D03*
D49*
X20800000Y-112300000D03*
X55600000Y-47800000D03*
X304600000Y-68300000D03*
X20800000Y-57300000D03*
X351700000Y-206200000D03*
X20800000Y-117300000D03*
D36*
X240200000Y-70900000D03*
D49*
X30600000Y-47800000D03*
X20800000Y-77300000D03*
X171700000Y-206200000D03*
X329600000Y-68300000D03*
X255600000Y-47800000D03*
X235600000Y-47800000D03*
X346700000Y-206200000D03*
X110600000Y-47800000D03*
X386200000Y-172300000D03*
X20800000Y-187300000D03*
X386200000Y-87300000D03*
X155600000Y-47800000D03*
X20800000Y-197300000D03*
X20800000Y-82300000D03*
X311700000Y-206200000D03*
X170600000Y-47800000D03*
X70300000Y-206200000D03*
X25300000Y-206200000D03*
X20800000Y-87300000D03*
X274600000Y-68300000D03*
X165600000Y-47800000D03*
X65600000Y-47800000D03*
X60300000Y-206200000D03*
X386200000Y-107300000D03*
D36*
X255900000Y-50800000D03*
X129500000Y-51200000D03*
D49*
X20800000Y-122300000D03*
D36*
X241000000Y-63900000D03*
X77400000Y-203100000D03*
D49*
X316700000Y-206200000D03*
X376700000Y-206200000D03*
X195600000Y-47800000D03*
D36*
X204700000Y-63200000D03*
D49*
X20800000Y-182300000D03*
X20800000Y-97300000D03*
D36*
X161200000Y-99500000D03*
D49*
X386200000Y-147300000D03*
D36*
X218400000Y-71700000D03*
D49*
X386200000Y-201700000D03*
X386200000Y-132300000D03*
X20800000Y-142300000D03*
X20800000Y-147300000D03*
D36*
X255900000Y-63000000D03*
X215500000Y-64000000D03*
D49*
X255700000Y-68300000D03*
X386200000Y-192300000D03*
D36*
X200600000Y-66200000D03*
D49*
X306700000Y-206200000D03*
X125600000Y-47800000D03*
X20800000Y-137300000D03*
X130600000Y-47800000D03*
X135600000Y-47800000D03*
X55300000Y-206200000D03*
D36*
X200550000Y-62000000D03*
X226000000Y-53300000D03*
D49*
X261700000Y-206200000D03*
X20800000Y-201700000D03*
X166700000Y-206200000D03*
X80300000Y-206200000D03*
D36*
X240400000Y-57400000D03*
X238800000Y-66700000D03*
D49*
X371700000Y-206200000D03*
X186700000Y-206200000D03*
X354600000Y-68300000D03*
X206700000Y-206200000D03*
X386200000Y-72300000D03*
X45300000Y-206200000D03*
X369600000Y-68300000D03*
X374600000Y-68300000D03*
X20800000Y-62300000D03*
X125300000Y-206200000D03*
X386200000Y-162300000D03*
X324600000Y-68300000D03*
X20800000Y-72300000D03*
X200600000Y-47800000D03*
X150600000Y-47800000D03*
X75300000Y-206200000D03*
D36*
X241000000Y-60400000D03*
D49*
X35300000Y-206200000D03*
X20800000Y-192300000D03*
X180600000Y-47800000D03*
X65300000Y-206200000D03*
X284600000Y-68300000D03*
X75600000Y-47800000D03*
X110300000Y-206200000D03*
X246700000Y-206200000D03*
X221700000Y-206200000D03*
X20800000Y-167300000D03*
X294600000Y-68300000D03*
X236700000Y-206200000D03*
X309600000Y-68300000D03*
X220600000Y-47800000D03*
D36*
X209200000Y-52100000D03*
D49*
X331700000Y-206200000D03*
X250600000Y-47800000D03*
X386200000Y-157300000D03*
D36*
X255900000Y-49300000D03*
X327500000Y-203100000D03*
D49*
X215600000Y-47800000D03*
X45600000Y-47800000D03*
X20800000Y-132300000D03*
X366700000Y-206200000D03*
X296700000Y-206200000D03*
X30300000Y-206200000D03*
X276700000Y-206200000D03*
X231700000Y-206200000D03*
X161700000Y-206200000D03*
X20800000Y-152300000D03*
D36*
X195500000Y-62000000D03*
X241000000Y-66700000D03*
X255000000Y-57050000D03*
D49*
X341700000Y-206200000D03*
X100300000Y-206200000D03*
D36*
X207500000Y-71100000D03*
D49*
X379600000Y-68300000D03*
D36*
X228600000Y-60800000D03*
D49*
X286700000Y-206200000D03*
X386200000Y-182300000D03*
X140600000Y-47800000D03*
X269600000Y-68300000D03*
X381700000Y-206200000D03*
D36*
X238800000Y-63900000D03*
D49*
X115600000Y-47800000D03*
X334600000Y-68300000D03*
X211700000Y-206200000D03*
X384600000Y-68300000D03*
X271700000Y-206200000D03*
D36*
X210300000Y-68900000D03*
D49*
X181700000Y-206200000D03*
D36*
X204700000Y-66300000D03*
X239100000Y-55500000D03*
X128000000Y-99500000D03*
D49*
X386200000Y-137300000D03*
D36*
X204700000Y-64150000D03*
D49*
X386200000Y-92300000D03*
X386200000Y-117300000D03*
X240600000Y-47800000D03*
X241700000Y-206200000D03*
X386200000Y-152300000D03*
X20800000Y-157300000D03*
X176700000Y-206200000D03*
X245600000Y-47800000D03*
D36*
X168200000Y-51200000D03*
D49*
X279600000Y-68300000D03*
X35600000Y-47800000D03*
X156700000Y-206200000D03*
X314600000Y-68300000D03*
X386200000Y-177300000D03*
X20800000Y-172300000D03*
X386200000Y-122300000D03*
D36*
X24500000Y-165800000D03*
D49*
X205600000Y-47800000D03*
X339600000Y-68300000D03*
X259600000Y-68300000D03*
X115300000Y-206200000D03*
X105300000Y-206200000D03*
X80600000Y-47800000D03*
X20800000Y-177300000D03*
X321700000Y-206200000D03*
X386200000Y-127300000D03*
D36*
X243800000Y-59000000D03*
X24300000Y-96800000D03*
X255900000Y-52300000D03*
D49*
X141700000Y-206200000D03*
D36*
X108600000Y-99300000D03*
D49*
X386200000Y-77300000D03*
X319600000Y-68300000D03*
X95600000Y-47800000D03*
X135300000Y-206200000D03*
X226700000Y-206200000D03*
X40600000Y-47800000D03*
D36*
X221500000Y-68900000D03*
D49*
X95300000Y-206200000D03*
X359600000Y-68300000D03*
X40300000Y-206200000D03*
X264600000Y-68300000D03*
X20800000Y-102300000D03*
X364600000Y-68300000D03*
X256700000Y-206200000D03*
X230600000Y-47800000D03*
D36*
X209100000Y-66600000D03*
D49*
X70600000Y-47800000D03*
X160600000Y-47800000D03*
D36*
X238800000Y-60400000D03*
X248400000Y-58900000D03*
D49*
X281700000Y-206200000D03*
X356700000Y-206200000D03*
X289600000Y-68300000D03*
X20800000Y-162300000D03*
D36*
X182200000Y-203100000D03*
X188800000Y-50500000D03*
D49*
X225600000Y-47800000D03*
X20800000Y-67300000D03*
X386200000Y-82300000D03*
D36*
X382700000Y-101000000D03*
X222900000Y-51000000D03*
D49*
X105600000Y-47800000D03*
X386200000Y-167300000D03*
X266700000Y-206200000D03*
X386200000Y-102300000D03*
X210600000Y-47800000D03*
X299600000Y-68300000D03*
X90300000Y-206200000D03*
X151700000Y-206200000D03*
D36*
X218400000Y-64000000D03*
D49*
X201700000Y-206200000D03*
X60600000Y-47800000D03*
X326700000Y-206200000D03*
D36*
X383300000Y-169900000D03*
D49*
X90600000Y-47800000D03*
X120600000Y-47800000D03*
D36*
X225700000Y-68900000D03*
D49*
X386200000Y-197300000D03*
X146700000Y-206200000D03*
D48*
X201900000Y-55400000D03*
D49*
X175600000Y-47800000D03*
D36*
X255900000Y-61600000D03*
D49*
X386200000Y-187300000D03*
X386200000Y-142300000D03*
X85600000Y-47800000D03*
X349600000Y-68300000D03*
D36*
X146400000Y-99500000D03*
D49*
X20800000Y-107300000D03*
X386200000Y-112300000D03*
X20800000Y-127300000D03*
X185600000Y-47800000D03*
X50600000Y-47800000D03*
X386200000Y-97300000D03*
X196700000Y-206200000D03*
X344600000Y-68300000D03*
X361700000Y-206200000D03*
X50300000Y-206200000D03*
D36*
X75600000Y-51100000D03*
X382600000Y-75200000D03*
D49*
X251700000Y-206200000D03*
D36*
X255900000Y-53200000D03*
D49*
X85300000Y-206200000D03*
X336700000Y-206200000D03*
D48*
X241000000Y-52300000D03*
X241000000Y-54600000D03*
X213500000Y-49300000D03*
D36*
X210750000Y-64950000D03*
X228600000Y-59050000D03*
X210750000Y-58100000D03*
D48*
X241000000Y-53400000D03*
D36*
X202650000Y-52150000D03*
X222900000Y-49350000D03*
X210750000Y-53950000D03*
X202650000Y-53850000D03*
X183000000Y-54900000D03*
X209200000Y-64100000D03*
X211400000Y-68900000D03*
X215400000Y-51300000D03*
X211400000Y-72400000D03*
X203800000Y-56425000D03*
X255000000Y-58000000D03*
X203800000Y-55175000D03*
X255000000Y-56100000D03*
D48*
X226600000Y-66700000D03*
X229900000Y-66700000D03*
D36*
X222800000Y-68900000D03*
X222800000Y-72400000D03*
X218200000Y-51300000D03*
X212200000Y-68900000D03*
X212200000Y-72400000D03*
X216200000Y-51300000D03*
X219000000Y-51300000D03*
X223700000Y-72400000D03*
X223700000Y-68900000D03*
X217000000Y-51300000D03*
X213000003Y-68900000D03*
X213000000Y-72400000D03*
X224700000Y-68900000D03*
X224700000Y-72400000D03*
X219800000Y-51300000D03*
D48*
X233100000Y-66700000D03*
X234200000Y-66700000D03*
X235300000Y-66700000D03*
X227700000Y-66700000D03*
X228800000Y-66700000D03*
X230900000Y-66700000D03*
X232000000Y-66700000D03*
X236400000Y-66700000D03*
X237600000Y-66700000D03*
D49*
X264200000Y-50400000D03*
X259400000Y-66400000D03*
X264200000Y-63500000D03*
X261600000Y-47800000D03*
X257200000Y-63000000D03*
X266200000Y-66400000D03*
X262800000Y-66400000D03*
X257200000Y-47800000D03*
X257200000Y-51000000D03*
D36*
X254850000Y-54650000D03*
D48*
X247200000Y-54600000D03*
X248100000Y-54600000D03*
D36*
X254850000Y-59350000D03*
X256050000Y-59350000D03*
X255450000Y-59350000D03*
X256050000Y-54650000D03*
D48*
X249000000Y-54600000D03*
D36*
X255450000Y-54650000D03*
X197950000Y-64150000D03*
X196550000Y-64150000D03*
X197250000Y-64150000D03*
M02*
