M48
; DRILL file {KiCad (5.99.0-10004-g132ec37b56)} date Tue Apr  6 22:09:30 2021
; FORMAT={-:-/ absolute / metric / decimal}
; #@! TF.CreationDate,2021-04-06T22:09:30+02:00
; #@! TF.GenerationSoftware,Kicad,Pcbnew,(5.99.0-10004-g132ec37b56)
; #@! TF.FileFunction,MixedPlating,1,2
FMAT,2
METRIC
; #@! TA.AperFunction,ComponentDrill,Plated,PTH
T1C0.200
; #@! TA.AperFunction,ViaDrill
T2C0.300
; #@! TA.AperFunction,ViaDrill
T3C0.400
; #@! TA.AperFunction,ViaDrill
T4C0.600
; #@! TA.AperFunction,ComponentDrill,Plated,PTH
T5C0.600
; #@! TA.AperFunction,ComponentDrill,Plated,PTH
T6C0.800
; #@! TA.AperFunction,ComponentDrill,Plated,PTH
T7C1.500
; #@! TA.AperFunction,ComponentDrill,NonPlated,NPTH
T8C0.600
; #@! TA.AperFunction,ComponentDrill,NonPlated,NPTH
T9C1.700
; #@! TA.AperFunction,ComponentDrill,NonPlated,NPTH
T10C3.050
; #@! TA.AperFunction,ComponentDrill,NonPlated,NPTH
T11C4.000
%
G90
G05
T1
; plated pad hole
X215.0Y-54.7
X215.0Y-55.875
X215.0Y-57.05
X215.0Y-58.225
X215.0Y-59.4
X216.175Y-54.7
X216.175Y-55.875
X216.175Y-57.05
X216.175Y-58.225
X216.175Y-59.4
X217.35Y-54.7
X217.35Y-55.875
X217.35Y-57.05
X217.35Y-58.225
X217.35Y-59.4
X218.525Y-54.7
X218.525Y-55.875
X218.525Y-57.05
X218.525Y-58.225
X218.525Y-59.4
X219.7Y-54.7
X219.7Y-55.875
X219.7Y-57.05
X219.7Y-58.225
X219.7Y-59.4
T2
; via hole
X24.3Y-96.8
X24.5Y-165.8
X75.6Y-51.1
X77.4Y-203.1
X108.6Y-99.3
X128.0Y-99.5
X129.5Y-51.2
X146.4Y-99.5
X161.2Y-99.5
X168.2Y-51.2
X182.2Y-203.1
X183.0Y-54.9
X188.8Y-50.5
X195.5Y-62.0
X196.55Y-64.15
X197.25Y-64.15
X197.95Y-64.15
X200.55Y-62.0
X200.6Y-66.2
X202.65Y-52.15
X202.65Y-53.85
X203.8Y-55.175
X203.8Y-56.425
X204.7Y-63.2
X204.7Y-64.15
X204.7Y-66.3
X207.5Y-71.1
X209.1Y-66.6
X209.2Y-52.1
X209.2Y-64.1
X210.3Y-68.9
X210.75Y-53.95
X210.75Y-58.1
X210.75Y-64.95
X211.4Y-68.9
X211.4Y-72.4
X212.2Y-68.9
X212.2Y-72.4
X213.0Y-72.4
X213.0Y-68.9
X215.4Y-51.3
X215.5Y-64.0
X216.2Y-51.3
X217.0Y-51.3
X218.2Y-51.3
X218.4Y-64.0
X218.4Y-71.7
X219.0Y-51.3
X219.8Y-51.3
X221.5Y-68.9
X222.8Y-68.9
X222.8Y-72.4
X222.9Y-49.35
X222.9Y-51.0
X223.7Y-68.9
X223.7Y-72.4
X224.7Y-68.9
X224.7Y-72.4
X225.7Y-68.9
X226.0Y-53.3
X228.6Y-59.05
X228.6Y-60.8
X238.8Y-60.4
X238.8Y-63.9
X238.8Y-66.7
X239.1Y-55.5
X240.2Y-70.9
X240.4Y-57.4
X241.0Y-60.4
X241.0Y-63.9
X241.0Y-66.7
X243.8Y-59.0
X248.4Y-58.9
X254.85Y-54.65
X254.85Y-59.35
X255.0Y-56.1
X255.0Y-57.05
X255.0Y-58.0
X255.45Y-54.65
X255.45Y-59.35
X255.9Y-49.3
X255.9Y-50.8
X255.9Y-52.3
X255.9Y-53.2
X255.9Y-60.8
X255.9Y-61.6
X255.9Y-63.0
X256.05Y-54.65
X256.05Y-59.35
X327.5Y-203.1
X382.6Y-75.2
X382.7Y-101.0
X383.3Y-169.9
T3
X71.3Y-175.5
X90.2Y-175.6
X201.9Y-55.4
X204.4Y-58.4
X213.5Y-49.3
X226.6Y-66.7
X227.7Y-66.7
X228.8Y-66.7
X229.9Y-66.7
X230.9Y-66.7
X232.0Y-66.7
X233.1Y-66.7
X234.2Y-66.7
X235.3Y-66.7
X236.4Y-66.7
X237.6Y-66.7
X241.0Y-52.3
X241.0Y-53.4
X241.0Y-54.6
X247.2Y-54.6
X248.1Y-54.6
X249.0Y-54.6
T4
X20.8Y-57.3
X20.8Y-62.3
X20.8Y-67.3
X20.8Y-72.3
X20.8Y-77.3
X20.8Y-82.3
X20.8Y-87.3
X20.8Y-92.3
X20.8Y-97.3
X20.8Y-102.3
X20.8Y-107.3
X20.8Y-112.3
X20.8Y-117.3
X20.8Y-122.3
X20.8Y-127.3
X20.8Y-132.3
X20.8Y-137.3
X20.8Y-142.3
X20.8Y-147.3
X20.8Y-152.3
X20.8Y-157.3
X20.8Y-162.3
X20.8Y-167.3
X20.8Y-172.3
X20.8Y-177.3
X20.8Y-182.3
X20.8Y-187.3
X20.8Y-192.3
X20.8Y-197.3
X20.8Y-201.7
X25.3Y-206.2
X30.3Y-206.2
X30.6Y-47.8
X35.3Y-206.2
X35.6Y-47.8
X40.3Y-206.2
X40.6Y-47.8
X45.3Y-206.2
X45.6Y-47.8
X50.3Y-206.2
X50.6Y-47.8
X55.3Y-206.2
X55.6Y-47.8
X60.3Y-206.2
X60.6Y-47.8
X65.3Y-206.2
X65.6Y-47.8
X70.3Y-206.2
X70.6Y-47.8
X75.3Y-206.2
X75.6Y-47.8
X80.3Y-206.2
X80.6Y-47.8
X85.3Y-206.2
X85.6Y-47.8
X90.3Y-206.2
X90.6Y-47.8
X95.3Y-206.2
X95.6Y-47.8
X100.3Y-206.2
X100.6Y-47.8
X105.3Y-206.2
X105.6Y-47.8
X110.3Y-206.2
X110.6Y-47.8
X115.3Y-206.2
X115.6Y-47.8
X120.3Y-206.2
X120.6Y-47.8
X125.3Y-206.2
X125.6Y-47.8
X130.3Y-206.2
X130.6Y-47.8
X135.3Y-206.2
X135.6Y-47.8
X140.6Y-47.8
X141.7Y-206.2
X145.6Y-47.8
X146.7Y-206.2
X150.6Y-47.8
X151.7Y-206.2
X155.6Y-47.8
X156.7Y-206.2
X160.6Y-47.8
X161.7Y-206.2
X165.6Y-47.8
X166.7Y-206.2
X170.6Y-47.8
X171.7Y-206.2
X175.6Y-47.8
X176.7Y-206.2
X180.6Y-47.8
X181.7Y-206.2
X185.6Y-47.8
X186.7Y-206.2
X190.6Y-47.8
X191.7Y-206.2
X195.6Y-47.8
X196.7Y-206.2
X200.6Y-47.8
X201.7Y-206.2
X205.6Y-47.8
X206.7Y-206.2
X210.6Y-47.8
X211.7Y-206.2
X215.6Y-47.8
X216.7Y-206.2
X220.6Y-47.8
X221.7Y-206.2
X225.6Y-47.8
X226.7Y-206.2
X230.6Y-47.8
X231.7Y-206.2
X235.6Y-47.8
X236.7Y-206.2
X240.6Y-47.8
X241.7Y-206.2
X245.6Y-47.8
X246.7Y-206.2
X250.6Y-47.8
X251.7Y-206.2
X255.6Y-47.8
X255.7Y-68.3
X256.7Y-206.2
X257.2Y-47.8
X257.2Y-51.0
X257.2Y-63.0
X259.4Y-66.4
X259.6Y-68.3
X261.6Y-47.8
X261.7Y-206.2
X262.8Y-66.4
X264.2Y-50.4
X264.2Y-63.5
X264.6Y-68.3
X266.2Y-66.4
X266.7Y-206.2
X269.6Y-68.3
X271.7Y-206.2
X274.6Y-68.3
X276.7Y-206.2
X279.6Y-68.3
X281.7Y-206.2
X284.6Y-68.3
X286.7Y-206.2
X289.6Y-68.3
X291.7Y-206.2
X294.6Y-68.3
X296.7Y-206.2
X299.6Y-68.3
X301.7Y-206.2
X304.6Y-68.3
X306.7Y-206.2
X309.6Y-68.3
X311.7Y-206.2
X314.6Y-68.3
X316.7Y-206.2
X319.6Y-68.3
X321.7Y-206.2
X324.6Y-68.3
X326.7Y-206.2
X329.6Y-68.3
X331.7Y-206.2
X334.6Y-68.3
X336.7Y-206.2
X339.6Y-68.3
X341.7Y-206.2
X344.6Y-68.3
X346.7Y-206.2
X349.6Y-68.3
X351.7Y-206.2
X354.6Y-68.3
X356.7Y-206.2
X359.6Y-68.3
X361.7Y-206.2
X364.6Y-68.3
X366.7Y-206.2
X369.6Y-68.3
X371.7Y-206.2
X374.6Y-68.3
X376.7Y-206.2
X379.6Y-68.3
X381.7Y-206.2
X384.6Y-68.3
X386.2Y-72.3
X386.2Y-77.3
X386.2Y-82.3
X386.2Y-87.3
X386.2Y-92.3
X386.2Y-97.3
X386.2Y-102.3
X386.2Y-107.3
X386.2Y-112.3
X386.2Y-117.3
X386.2Y-122.3
X386.2Y-127.3
X386.2Y-132.3
X386.2Y-137.3
X386.2Y-142.3
X386.2Y-147.3
X386.2Y-152.3
X386.2Y-157.3
X386.2Y-162.3
X386.2Y-167.3
X386.2Y-172.3
X386.2Y-177.3
X386.2Y-182.3
X386.2Y-187.3
X386.2Y-192.3
X386.2Y-197.3
X386.2Y-201.7
T6
; plated pad hole
X33.111Y-89.992
X33.111Y-118.492
X35.476Y-175.512
X35.861Y-89.992
X35.861Y-118.492
X37.901Y-137.512
X37.901Y-194.512
X38.226Y-175.512
X38.361Y-89.992
X38.361Y-118.492
X40.276Y-156.512
X40.651Y-137.512
X40.651Y-194.512
X40.726Y-175.512
X41.111Y-89.992
X41.111Y-118.492
X43.026Y-156.512
X43.151Y-137.512
X43.151Y-194.512
X43.476Y-175.512
X45.526Y-156.512
X45.901Y-137.512
X45.901Y-194.512
X48.276Y-156.512
X52.111Y-118.492
X54.861Y-118.492
X56.861Y-175.492
X57.361Y-118.492
X59.611Y-175.492
X60.111Y-118.492
X61.611Y-137.492
X61.611Y-194.492
X62.111Y-175.492
X64.361Y-137.492
X64.361Y-194.492
X64.861Y-175.492
X66.361Y-156.492
X66.861Y-137.492
X66.861Y-194.492
X69.111Y-156.492
X69.611Y-137.492
X69.611Y-194.492
X71.111Y-89.992
X71.111Y-118.492
X71.611Y-156.492
X73.861Y-89.992
X73.861Y-118.492
X74.361Y-156.492
X75.861Y-175.492
X76.361Y-89.992
X76.361Y-118.492
X78.611Y-175.492
X79.111Y-89.992
X79.111Y-118.492
X80.611Y-137.492
X81.111Y-175.492
X83.361Y-137.492
X83.861Y-175.492
X85.361Y-156.492
X85.401Y-194.512
X85.861Y-137.492
X88.111Y-156.492
X88.151Y-194.512
X88.611Y-137.492
X90.111Y-89.992
X90.111Y-118.492
X90.611Y-156.492
X90.651Y-194.512
X92.861Y-89.992
X92.861Y-118.492
X93.361Y-156.492
X93.401Y-194.512
X94.861Y-175.492
X95.361Y-89.992
X95.361Y-118.492
X97.611Y-175.492
X98.111Y-89.992
X98.111Y-118.492
X99.611Y-137.492
X100.111Y-175.492
X102.361Y-137.492
X102.861Y-175.492
X104.361Y-156.492
X104.861Y-137.492
X107.111Y-156.492
X107.611Y-137.492
X109.111Y-89.992
X109.111Y-118.492
X109.611Y-156.492
X111.861Y-89.992
X111.861Y-118.492
X112.361Y-156.492
X113.861Y-175.492
X114.361Y-89.992
X114.361Y-118.492
X116.611Y-175.492
X117.111Y-89.992
X117.111Y-118.492
X118.611Y-137.492
X119.111Y-175.492
X121.361Y-137.492
X121.861Y-175.492
X123.361Y-156.492
X123.861Y-137.492
X126.111Y-156.492
X126.611Y-137.492
X128.111Y-89.992
X128.111Y-118.492
X128.611Y-156.492
X130.861Y-89.992
X130.861Y-118.492
X131.361Y-156.492
X132.861Y-175.492
X133.361Y-89.992
X133.361Y-118.492
X135.611Y-175.492
X136.111Y-89.992
X136.111Y-118.492
X137.611Y-137.492
X138.111Y-175.492
X140.361Y-137.492
X140.861Y-175.492
X142.361Y-156.492
X142.861Y-137.492
X145.111Y-156.492
X145.611Y-137.492
X147.111Y-118.492
X147.611Y-156.492
X149.861Y-118.492
X150.361Y-156.492
X151.861Y-175.492
X152.361Y-118.492
X154.611Y-175.492
X155.111Y-118.492
X156.611Y-89.992
X156.611Y-137.492
X157.111Y-175.492
X159.361Y-89.992
X159.361Y-137.492
X159.861Y-175.492
X161.361Y-156.492
X161.861Y-89.992
X161.861Y-137.492
X164.111Y-156.492
X164.611Y-89.992
X164.611Y-137.492
X166.111Y-118.492
X166.611Y-156.492
X166.75Y-194.52
X168.861Y-118.492
X169.361Y-156.492
X169.5Y-194.52
X170.861Y-175.492
X171.361Y-118.492
X172.0Y-194.52
X173.2Y-49.3
X173.2Y-51.3
X173.611Y-175.492
X174.111Y-118.492
X174.75Y-194.52
X175.611Y-89.992
X175.611Y-137.492
X176.111Y-175.492
X178.361Y-89.992
X178.361Y-137.492
X178.861Y-175.492
X180.361Y-156.492
X180.861Y-89.992
X180.861Y-137.492
X183.111Y-156.492
X183.611Y-89.992
X183.611Y-137.492
X185.111Y-118.492
X185.611Y-156.492
X187.861Y-118.492
X188.361Y-156.492
X189.861Y-175.492
X190.361Y-118.492
X192.611Y-175.492
X193.111Y-118.492
X194.611Y-89.992
X194.611Y-137.492
X195.111Y-175.492
X197.361Y-89.992
X197.361Y-137.492
X197.861Y-175.492
X199.361Y-156.492
X199.861Y-89.992
X199.861Y-137.492
X202.111Y-156.492
X202.611Y-89.992
X202.611Y-137.492
X204.111Y-118.492
X204.611Y-156.492
X206.861Y-118.492
X207.361Y-156.492
X208.861Y-175.492
X209.361Y-118.492
X211.611Y-175.492
X212.111Y-118.492
X213.611Y-89.992
X213.611Y-137.492
X214.111Y-175.492
X216.361Y-89.992
X216.361Y-137.492
X216.861Y-175.492
X218.361Y-156.492
X218.861Y-89.992
X218.861Y-137.492
X221.111Y-156.492
X221.611Y-89.992
X221.611Y-137.492
X223.111Y-118.492
X223.611Y-156.492
X225.861Y-118.492
X226.361Y-156.492
X227.861Y-175.492
X228.361Y-118.492
X230.611Y-175.492
X231.111Y-118.492
X232.611Y-137.492
X233.111Y-175.492
X235.361Y-137.492
X235.861Y-175.492
X237.361Y-156.492
X237.861Y-137.492
X240.111Y-156.492
X240.611Y-137.492
X242.111Y-89.992
X242.111Y-118.492
X242.611Y-156.492
X244.861Y-89.992
X244.861Y-118.492
X245.361Y-156.492
X246.3Y-66.7
X246.861Y-175.492
X247.361Y-89.992
X247.361Y-118.492
X248.122Y-194.543
X248.3Y-66.7
X249.611Y-175.492
X250.111Y-89.992
X250.111Y-118.492
X250.872Y-194.543
X251.611Y-137.492
X252.111Y-175.492
X253.372Y-194.543
X254.361Y-137.492
X254.861Y-175.492
X256.122Y-194.543
X256.361Y-156.492
X256.861Y-137.492
X259.111Y-156.492
X259.611Y-137.492
X261.111Y-89.992
X261.111Y-118.492
X261.611Y-156.492
X263.861Y-89.992
X263.861Y-118.492
X264.361Y-156.492
X266.361Y-89.992
X266.361Y-118.492
X269.111Y-89.992
X269.111Y-118.492
X270.611Y-137.492
X271.935Y-194.525
X273.361Y-137.492
X274.685Y-194.525
X275.361Y-156.492
X275.861Y-137.492
X277.185Y-194.525
X278.111Y-156.492
X278.611Y-137.492
X279.935Y-194.525
X280.111Y-89.992
X280.611Y-156.492
X282.526Y-175.512
X282.861Y-89.992
X283.361Y-156.492
X285.276Y-175.512
X285.361Y-89.992
X287.776Y-175.512
X288.111Y-89.992
X289.651Y-118.512
X290.526Y-175.512
X292.401Y-118.512
X294.901Y-118.512
X295.836Y-194.565
X296.776Y-147.012
X297.651Y-118.512
X298.586Y-194.565
X299.111Y-89.992
X299.526Y-147.012
X301.086Y-194.565
X301.861Y-89.992
X302.026Y-147.012
X303.836Y-194.565
X304.361Y-89.992
X304.776Y-147.012
X307.111Y-89.992
X327.611Y-89.992
X327.611Y-118.492
X327.611Y-137.492
X327.611Y-194.492
X330.361Y-89.992
X330.361Y-118.492
X330.361Y-137.492
X330.361Y-194.492
X332.861Y-89.992
X332.861Y-118.492
X332.861Y-137.492
X332.861Y-194.492
X335.611Y-89.992
X335.611Y-118.492
X335.611Y-137.492
X335.611Y-194.492
X346.611Y-89.992
X346.611Y-118.492
X346.611Y-137.492
X346.611Y-175.492
X346.611Y-194.492
X349.361Y-89.992
X349.361Y-118.492
X349.361Y-137.492
X349.361Y-175.492
X349.361Y-194.492
X351.861Y-89.992
X351.861Y-118.492
X351.861Y-137.492
X351.861Y-175.492
X351.861Y-194.492
X354.611Y-89.992
X354.611Y-118.492
X354.611Y-137.492
X354.611Y-175.492
X354.611Y-194.492
X365.611Y-89.992
X365.611Y-118.492
X365.611Y-137.492
X365.611Y-194.492
X368.361Y-89.992
X368.361Y-118.492
X368.361Y-137.492
X368.361Y-194.492
X370.861Y-89.992
X370.861Y-118.492
X370.861Y-137.492
X370.861Y-194.492
X373.611Y-89.992
X373.611Y-118.492
X373.611Y-137.492
X373.611Y-194.492
T7
X33.311Y-82.332
X33.311Y-110.832
X35.676Y-167.852
X38.101Y-129.852
X38.101Y-186.852
X39.661Y-79.792
X39.661Y-108.292
X40.476Y-148.852
X42.026Y-165.312
X44.451Y-127.312
X44.451Y-184.312
X46.826Y-146.312
X52.311Y-110.832
X57.061Y-167.832
X58.661Y-108.292
X61.811Y-129.832
X61.811Y-186.832
X63.411Y-165.292
X66.561Y-148.832
X68.161Y-127.292
X68.161Y-184.292
X71.311Y-82.332
X71.311Y-110.832
X72.911Y-146.292
X76.061Y-167.832
X77.661Y-79.792
X77.661Y-108.292
X80.811Y-129.832
X82.411Y-165.292
X85.561Y-148.832
X85.601Y-186.852
X87.161Y-127.292
X90.311Y-82.332
X90.311Y-110.832
X91.911Y-146.292
X91.951Y-184.312
X95.061Y-167.832
X96.661Y-79.792
X96.661Y-108.292
X99.811Y-129.832
X101.411Y-165.292
X104.561Y-148.832
X106.161Y-127.292
X109.311Y-82.332
X109.311Y-110.832
X110.911Y-146.292
X114.061Y-167.832
X115.661Y-79.792
X115.661Y-108.292
X118.811Y-129.832
X120.411Y-165.292
X123.561Y-148.832
X125.161Y-127.292
X128.311Y-82.332
X128.311Y-110.832
X129.911Y-146.292
X133.061Y-167.832
X134.661Y-79.792
X134.661Y-108.292
X137.811Y-129.832
X139.411Y-165.292
X142.561Y-148.832
X144.161Y-127.292
X147.311Y-110.832
X148.911Y-146.292
X152.061Y-167.832
X153.661Y-108.292
X156.811Y-82.332
X156.811Y-129.832
X158.411Y-165.292
X161.561Y-148.832
X163.161Y-79.792
X163.161Y-127.292
X166.311Y-110.832
X166.95Y-186.86
X167.911Y-146.292
X171.061Y-167.832
X172.661Y-108.292
X173.3Y-184.32
X175.811Y-82.332
X175.811Y-129.832
X177.411Y-165.292
X180.561Y-148.832
X182.161Y-79.792
X182.161Y-127.292
X185.311Y-110.832
X186.911Y-146.292
X190.061Y-167.832
X191.661Y-108.292
X194.811Y-82.332
X194.811Y-129.832
X196.411Y-165.292
X199.561Y-148.832
X201.161Y-79.792
X201.161Y-127.292
X204.311Y-110.832
X205.911Y-146.292
X209.061Y-167.832
X210.661Y-108.292
X213.811Y-82.332
X213.811Y-129.832
X215.411Y-165.292
X218.561Y-148.832
X220.161Y-79.792
X220.161Y-127.292
X223.311Y-110.832
X224.911Y-146.292
X228.061Y-167.832
X229.661Y-108.292
X232.811Y-129.832
X234.411Y-165.292
X237.561Y-148.832
X239.161Y-127.292
X242.311Y-82.332
X242.311Y-110.832
X243.911Y-146.292
X247.061Y-167.832
X248.322Y-186.883
X248.661Y-79.792
X248.661Y-108.292
X251.811Y-129.832
X253.411Y-165.292
X254.672Y-184.343
X256.561Y-148.832
X258.161Y-127.292
X261.311Y-82.332
X261.311Y-110.832
X262.911Y-146.292
X267.661Y-79.792
X267.661Y-108.292
X270.811Y-129.832
X272.135Y-186.865
X275.561Y-148.832
X277.161Y-127.292
X278.485Y-184.325
X280.311Y-82.332
X281.911Y-146.292
X282.726Y-167.852
X286.661Y-79.792
X289.076Y-165.312
X289.851Y-110.852
X296.036Y-186.905
X296.201Y-108.312
X296.976Y-139.352
X299.311Y-82.332
X302.386Y-184.365
X303.326Y-136.812
X305.661Y-79.792
X327.811Y-82.332
X327.811Y-110.832
X327.811Y-129.832
X327.811Y-186.832
X334.161Y-79.792
X334.161Y-108.292
X334.161Y-127.292
X334.161Y-184.292
X346.811Y-82.332
X346.811Y-110.832
X346.811Y-129.832
X346.811Y-167.832
X346.811Y-186.832
X353.161Y-79.792
X353.161Y-108.292
X353.161Y-127.292
X353.161Y-165.292
X353.161Y-184.292
X365.811Y-82.332
X365.811Y-110.832
X365.811Y-129.832
X365.811Y-186.832
X372.161Y-79.792
X372.161Y-108.292
X372.161Y-127.292
X372.161Y-184.292
T8
; not plated pad hole
X259.05Y-60.0
T9
X32.041Y-84.872
X32.041Y-113.372
X34.406Y-170.392
X36.831Y-132.392
X36.831Y-189.392
X39.206Y-151.392
X42.201Y-84.872
X42.201Y-113.372
X44.566Y-170.392
X46.991Y-132.392
X46.991Y-189.392
X49.366Y-151.392
X51.041Y-113.372
X55.791Y-170.372
X60.541Y-132.372
X60.541Y-189.372
X61.201Y-113.372
X65.291Y-151.372
X65.951Y-170.372
X70.041Y-84.872
X70.041Y-113.372
X70.701Y-132.372
X70.701Y-189.372
X74.791Y-170.372
X75.451Y-151.372
X79.541Y-132.372
X80.201Y-84.872
X80.201Y-113.372
X84.291Y-151.372
X84.331Y-189.392
X84.951Y-170.372
X89.041Y-84.872
X89.041Y-113.372
X89.701Y-132.372
X93.791Y-170.372
X94.451Y-151.372
X94.491Y-189.392
X98.541Y-132.372
X99.201Y-84.872
X99.201Y-113.372
X103.291Y-151.372
X103.951Y-170.372
X108.041Y-84.872
X108.041Y-113.372
X108.701Y-132.372
X112.791Y-170.372
X113.451Y-151.372
X117.541Y-132.372
X118.201Y-84.872
X118.201Y-113.372
X122.291Y-151.372
X122.951Y-170.372
X127.041Y-84.872
X127.041Y-113.372
X127.701Y-132.372
X131.791Y-170.372
X132.451Y-151.372
X136.541Y-132.372
X137.201Y-84.872
X137.201Y-113.372
X141.291Y-151.372
X141.951Y-170.372
X146.041Y-113.372
X146.701Y-132.372
X150.791Y-170.372
X151.451Y-151.372
X155.541Y-84.872
X155.541Y-132.372
X156.201Y-113.372
X160.291Y-151.372
X160.951Y-170.372
X165.041Y-113.372
X165.68Y-189.4
X165.701Y-84.872
X165.701Y-132.372
X169.791Y-170.372
X170.451Y-151.372
X174.541Y-84.872
X174.541Y-132.372
X175.201Y-113.372
X175.84Y-189.4
X179.291Y-151.372
X179.951Y-170.372
X184.041Y-113.372
X184.701Y-84.872
X184.701Y-132.372
X188.791Y-170.372
X189.451Y-151.372
X193.541Y-84.872
X193.541Y-132.372
X194.201Y-113.372
X198.291Y-151.372
X198.951Y-170.372
X203.041Y-113.372
X203.701Y-84.872
X203.701Y-132.372
X207.791Y-170.372
X208.451Y-151.372
X212.541Y-84.872
X212.541Y-132.372
X213.201Y-113.372
X217.291Y-151.372
X217.951Y-170.372
X222.041Y-113.372
X222.701Y-84.872
X222.701Y-132.372
X226.791Y-170.372
X227.451Y-151.372
X231.541Y-132.372
X232.201Y-113.372
X236.291Y-151.372
X236.951Y-170.372
X241.041Y-84.872
X241.041Y-113.372
X241.701Y-132.372
X245.791Y-170.372
X246.451Y-151.372
X247.052Y-189.423
X250.541Y-132.372
X251.201Y-84.872
X251.201Y-113.372
X255.291Y-151.372
X255.951Y-170.372
X257.212Y-189.423
X260.041Y-84.872
X260.041Y-113.372
X260.701Y-132.372
X265.451Y-151.372
X269.541Y-132.372
X270.201Y-84.872
X270.201Y-113.372
X270.865Y-189.405
X274.291Y-151.372
X279.041Y-84.872
X279.701Y-132.372
X281.025Y-189.405
X281.456Y-170.392
X284.451Y-151.372
X288.581Y-113.392
X289.201Y-84.872
X291.616Y-170.392
X294.766Y-189.445
X295.706Y-141.892
X298.041Y-84.872
X298.741Y-113.392
X304.926Y-189.445
X305.866Y-141.892
X308.201Y-84.872
X326.541Y-84.872
X326.541Y-113.372
X326.541Y-132.372
X326.541Y-189.372
X336.701Y-84.872
X336.701Y-113.372
X336.701Y-132.372
X336.701Y-189.372
X345.541Y-84.872
X345.541Y-113.372
X345.541Y-132.372
X345.541Y-170.372
X345.541Y-189.372
X355.701Y-84.872
X355.701Y-113.372
X355.701Y-132.372
X355.701Y-170.372
X355.701Y-189.372
X364.541Y-84.872
X364.541Y-113.372
X364.541Y-132.372
X364.541Y-189.372
X374.701Y-84.872
X374.701Y-113.372
X374.701Y-132.372
X374.701Y-189.372
T10
X113.71Y-182.4
X227.71Y-182.4
X274.596Y-163.372
X281.721Y-106.372
X293.746Y-129.972
X293.746Y-153.772
X298.396Y-163.372
X305.521Y-106.372
T11
X26.0Y-201.0
X30.0Y-57.0
X37.121Y-84.872
X37.121Y-113.372
X39.486Y-170.392
X41.911Y-132.392
X41.911Y-189.392
X44.286Y-151.392
X56.121Y-113.372
X60.871Y-170.372
X65.621Y-132.372
X65.621Y-189.372
X70.371Y-151.372
X75.121Y-84.872
X75.121Y-113.372
X79.871Y-170.372
X84.621Y-132.372
X89.371Y-151.372
X89.411Y-189.392
X94.121Y-84.872
X94.121Y-113.372
X98.871Y-170.372
X103.621Y-132.372
X108.371Y-151.372
X113.121Y-84.872
X113.121Y-113.372
X113.71Y-197.64
X117.871Y-170.372
X122.621Y-132.372
X127.371Y-151.372
X132.121Y-84.872
X132.121Y-113.372
X136.871Y-170.372
X141.621Y-132.372
X146.371Y-151.372
X151.121Y-113.372
X155.871Y-170.372
X160.621Y-84.872
X160.621Y-132.372
X165.371Y-151.372
X170.121Y-113.372
X170.76Y-189.4
X174.871Y-170.372
X179.621Y-84.872
X179.621Y-132.372
X184.371Y-151.372
X189.121Y-113.372
X193.871Y-170.372
X198.621Y-84.872
X198.621Y-132.372
X203.371Y-151.372
X208.121Y-113.372
X212.871Y-170.372
X217.621Y-84.872
X217.621Y-132.372
X222.371Y-151.372
X227.121Y-113.372
X227.71Y-197.64
X231.871Y-170.372
X236.621Y-132.372
X241.371Y-151.372
X246.121Y-84.872
X246.121Y-113.372
X250.871Y-170.372
X252.132Y-189.423
X255.621Y-132.372
X260.371Y-151.372
X265.121Y-84.872
X265.121Y-113.372
X274.596Y-178.612
X274.621Y-132.372
X275.945Y-189.405
X279.371Y-151.372
X281.721Y-121.612
X284.121Y-84.872
X286.536Y-170.392
X293.661Y-113.392
X298.396Y-178.612
X299.846Y-189.445
X300.786Y-141.892
X303.121Y-84.872
X305.521Y-121.612
X308.986Y-129.972
X308.986Y-153.772
X331.621Y-84.872
X331.621Y-113.372
X331.621Y-132.372
X331.621Y-189.372
X350.621Y-84.872
X350.621Y-113.372
X350.621Y-132.372
X350.621Y-170.372
X350.621Y-189.372
X369.621Y-84.872
X369.621Y-113.372
X369.621Y-132.372
X369.621Y-189.372
X381.0Y-53.0
X381.0Y-201.0
T5
; plated pad hole
G00X257.825Y-52.68
M15
G01X258.825Y-52.68
M16
G05
G00X257.825Y-61.32
M15
G01X258.825Y-61.32
M16
G05
G00X261.5Y-52.68
M15
G01X262.8Y-52.68
M16
G05
G00X261.5Y-61.32
M15
G01X262.8Y-61.32
M16
G05
T8
; not plated pad hole
G00X259.05Y-54.125
M15
G01X259.05Y-53.875
M16
G05
T0
M30
