%TF.GenerationSoftware,KiCad,Pcbnew,(5.99.0-10004-g132ec37b56)*%
%TF.CreationDate,2021-04-06T22:09:18+02:00*%
%TF.ProjectId,gh80-3003-nicosmod,67683830-2d33-4303-9033-2d6e69636f73,rev?*%
%TF.SameCoordinates,Original*%
%TF.FileFunction,Other,User*%
%FSLAX46Y46*%
G04 Gerber Fmt 4.6, Leading zero omitted, Abs format (unit mm)*
G04 Created by KiCad (PCBNEW (5.99.0-10004-g132ec37b56)) date 2021-04-06 22:09:18*
%MOMM*%
%LPD*%
G01*
G04 APERTURE LIST*
%ADD10C,0.050000*%
%ADD11C,0.100000*%
G04 APERTURE END LIST*
D10*
X376221000Y-182772000D02*
X376221000Y-195972000D01*
X376221000Y-195972000D02*
X363021000Y-195972000D01*
X363021000Y-182772000D02*
X376221000Y-182772000D01*
X363021000Y-195972000D02*
X363021000Y-182772000D01*
X357221000Y-182772000D02*
X357221000Y-195972000D01*
X357221000Y-195972000D02*
X344021000Y-195972000D01*
X344021000Y-182772000D02*
X357221000Y-182772000D01*
X344021000Y-195972000D02*
X344021000Y-182772000D01*
X338221000Y-182772000D02*
X338221000Y-195972000D01*
X338221000Y-195972000D02*
X325021000Y-195972000D01*
X325021000Y-182772000D02*
X338221000Y-182772000D01*
X325021000Y-195972000D02*
X325021000Y-182772000D01*
X293246356Y-182845181D02*
X306446356Y-182845181D01*
X306446356Y-196045181D02*
X293246356Y-196045181D01*
X306446356Y-182845181D02*
X306446356Y-196045181D01*
X293246356Y-196045181D02*
X293246356Y-182845181D01*
X282545455Y-182805426D02*
X282545455Y-196005426D01*
X282545455Y-196005426D02*
X269345455Y-196005426D01*
X269345455Y-182805426D02*
X282545455Y-182805426D01*
X269345455Y-196005426D02*
X269345455Y-182805426D01*
X245532452Y-182822931D02*
X258732452Y-182822931D01*
X258732452Y-196022931D02*
X245532452Y-196022931D01*
X258732452Y-182822931D02*
X258732452Y-196022931D01*
X245532452Y-196022931D02*
X245532452Y-182822931D01*
X164160000Y-182800000D02*
X177360000Y-182800000D01*
X164160000Y-196000000D02*
X164160000Y-182800000D01*
X177360000Y-182800000D02*
X177360000Y-196000000D01*
X177360000Y-196000000D02*
X164160000Y-196000000D01*
X82811000Y-182792000D02*
X96011000Y-182792000D01*
X96011000Y-195992000D02*
X82811000Y-195992000D01*
X96011000Y-182792000D02*
X96011000Y-195992000D01*
X82811000Y-195992000D02*
X82811000Y-182792000D01*
X72221000Y-182772000D02*
X72221000Y-195972000D01*
X72221000Y-195972000D02*
X59021000Y-195972000D01*
X59021000Y-182772000D02*
X72221000Y-182772000D01*
X59021000Y-195972000D02*
X59021000Y-182772000D01*
X35311000Y-182792000D02*
X48511000Y-182792000D01*
X48511000Y-195992000D02*
X35311000Y-195992000D01*
X48511000Y-182792000D02*
X48511000Y-195992000D01*
X35311000Y-195992000D02*
X35311000Y-182792000D01*
X32886000Y-163792000D02*
X46086000Y-163792000D01*
X46086000Y-176992000D02*
X32886000Y-176992000D01*
X32886000Y-176992000D02*
X32886000Y-163792000D01*
X46086000Y-163792000D02*
X46086000Y-176992000D01*
X50886000Y-157992000D02*
X37686000Y-157992000D01*
X37686000Y-144792000D02*
X50886000Y-144792000D01*
X50886000Y-144792000D02*
X50886000Y-157992000D01*
X37686000Y-157992000D02*
X37686000Y-144792000D01*
X35311000Y-125792000D02*
X48511000Y-125792000D01*
X48511000Y-138992000D02*
X35311000Y-138992000D01*
X48511000Y-125792000D02*
X48511000Y-138992000D01*
X35311000Y-138992000D02*
X35311000Y-125792000D01*
X43721000Y-106772000D02*
X43721000Y-119972000D01*
X43721000Y-119972000D02*
X30521000Y-119972000D01*
X30521000Y-106772000D02*
X43721000Y-106772000D01*
X30521000Y-119972000D02*
X30521000Y-106772000D01*
X357221000Y-163772000D02*
X357221000Y-176972000D01*
X357221000Y-176972000D02*
X344021000Y-176972000D01*
X344021000Y-163772000D02*
X357221000Y-163772000D01*
X344021000Y-176972000D02*
X344021000Y-163772000D01*
X279936000Y-176992000D02*
X279936000Y-163792000D01*
X279936000Y-163792000D02*
X293136000Y-163792000D01*
X293136000Y-163792000D02*
X293136000Y-176992000D01*
X293136000Y-176992000D02*
X279936000Y-176992000D01*
X257471000Y-163772000D02*
X257471000Y-176972000D01*
X257471000Y-176972000D02*
X244271000Y-176972000D01*
X244271000Y-163772000D02*
X257471000Y-163772000D01*
X244271000Y-176972000D02*
X244271000Y-163772000D01*
X238471000Y-163772000D02*
X238471000Y-176972000D01*
X238471000Y-176972000D02*
X225271000Y-176972000D01*
X225271000Y-163772000D02*
X238471000Y-163772000D01*
X225271000Y-176972000D02*
X225271000Y-163772000D01*
X219471000Y-163772000D02*
X219471000Y-176972000D01*
X219471000Y-176972000D02*
X206271000Y-176972000D01*
X206271000Y-163772000D02*
X219471000Y-163772000D01*
X206271000Y-176972000D02*
X206271000Y-163772000D01*
X200471000Y-163772000D02*
X200471000Y-176972000D01*
X200471000Y-176972000D02*
X187271000Y-176972000D01*
X187271000Y-163772000D02*
X200471000Y-163772000D01*
X187271000Y-176972000D02*
X187271000Y-163772000D01*
X181471000Y-163772000D02*
X181471000Y-176972000D01*
X181471000Y-176972000D02*
X168271000Y-176972000D01*
X168271000Y-163772000D02*
X181471000Y-163772000D01*
X168271000Y-176972000D02*
X168271000Y-163772000D01*
X162471000Y-163772000D02*
X162471000Y-176972000D01*
X162471000Y-176972000D02*
X149271000Y-176972000D01*
X149271000Y-163772000D02*
X162471000Y-163772000D01*
X149271000Y-176972000D02*
X149271000Y-163772000D01*
X143471000Y-163772000D02*
X143471000Y-176972000D01*
X143471000Y-176972000D02*
X130271000Y-176972000D01*
X130271000Y-163772000D02*
X143471000Y-163772000D01*
X130271000Y-176972000D02*
X130271000Y-163772000D01*
X124471000Y-163772000D02*
X124471000Y-176972000D01*
X124471000Y-176972000D02*
X111271000Y-176972000D01*
X111271000Y-163772000D02*
X124471000Y-163772000D01*
X111271000Y-176972000D02*
X111271000Y-163772000D01*
X105471000Y-163772000D02*
X105471000Y-176972000D01*
X105471000Y-176972000D02*
X92271000Y-176972000D01*
X92271000Y-163772000D02*
X105471000Y-163772000D01*
X92271000Y-176972000D02*
X92271000Y-163772000D01*
X86471000Y-163772000D02*
X86471000Y-176972000D01*
X86471000Y-176972000D02*
X73271000Y-176972000D01*
X73271000Y-163772000D02*
X86471000Y-163772000D01*
X73271000Y-176972000D02*
X73271000Y-163772000D01*
X67471000Y-163772000D02*
X67471000Y-176972000D01*
X67471000Y-176972000D02*
X54271000Y-176972000D01*
X54271000Y-163772000D02*
X67471000Y-163772000D01*
X54271000Y-176972000D02*
X54271000Y-163772000D01*
X285971000Y-144772000D02*
X285971000Y-157972000D01*
X285971000Y-157972000D02*
X272771000Y-157972000D01*
X272771000Y-144772000D02*
X285971000Y-144772000D01*
X272771000Y-157972000D02*
X272771000Y-144772000D01*
X266971000Y-144772000D02*
X266971000Y-157972000D01*
X266971000Y-157972000D02*
X253771000Y-157972000D01*
X253771000Y-144772000D02*
X266971000Y-144772000D01*
X253771000Y-157972000D02*
X253771000Y-144772000D01*
X247971000Y-144772000D02*
X247971000Y-157972000D01*
X247971000Y-157972000D02*
X234771000Y-157972000D01*
X234771000Y-144772000D02*
X247971000Y-144772000D01*
X234771000Y-157972000D02*
X234771000Y-144772000D01*
X228971000Y-144772000D02*
X228971000Y-157972000D01*
X228971000Y-157972000D02*
X215771000Y-157972000D01*
X215771000Y-144772000D02*
X228971000Y-144772000D01*
X215771000Y-157972000D02*
X215771000Y-144772000D01*
X209971000Y-144772000D02*
X209971000Y-157972000D01*
X209971000Y-157972000D02*
X196771000Y-157972000D01*
X196771000Y-144772000D02*
X209971000Y-144772000D01*
X196771000Y-157972000D02*
X196771000Y-144772000D01*
X190971000Y-144772000D02*
X190971000Y-157972000D01*
X190971000Y-157972000D02*
X177771000Y-157972000D01*
X177771000Y-144772000D02*
X190971000Y-144772000D01*
X177771000Y-157972000D02*
X177771000Y-144772000D01*
X171971000Y-144772000D02*
X171971000Y-157972000D01*
X171971000Y-157972000D02*
X158771000Y-157972000D01*
X158771000Y-144772000D02*
X171971000Y-144772000D01*
X158771000Y-157972000D02*
X158771000Y-144772000D01*
X152971000Y-144772000D02*
X152971000Y-157972000D01*
X152971000Y-157972000D02*
X139771000Y-157972000D01*
X139771000Y-144772000D02*
X152971000Y-144772000D01*
X139771000Y-157972000D02*
X139771000Y-144772000D01*
X133971000Y-144772000D02*
X133971000Y-157972000D01*
X133971000Y-157972000D02*
X120771000Y-157972000D01*
X120771000Y-144772000D02*
X133971000Y-144772000D01*
X120771000Y-157972000D02*
X120771000Y-144772000D01*
X114971000Y-144772000D02*
X114971000Y-157972000D01*
X114971000Y-157972000D02*
X101771000Y-157972000D01*
X101771000Y-144772000D02*
X114971000Y-144772000D01*
X101771000Y-157972000D02*
X101771000Y-144772000D01*
X95971000Y-144772000D02*
X95971000Y-157972000D01*
X95971000Y-157972000D02*
X82771000Y-157972000D01*
X82771000Y-144772000D02*
X95971000Y-144772000D01*
X82771000Y-157972000D02*
X82771000Y-144772000D01*
X76971000Y-144772000D02*
X76971000Y-157972000D01*
X76971000Y-157972000D02*
X63771000Y-157972000D01*
X63771000Y-144772000D02*
X76971000Y-144772000D01*
X63771000Y-157972000D02*
X63771000Y-144772000D01*
X376221000Y-125772000D02*
X376221000Y-138972000D01*
X376221000Y-138972000D02*
X363021000Y-138972000D01*
X363021000Y-125772000D02*
X376221000Y-125772000D01*
X363021000Y-138972000D02*
X363021000Y-125772000D01*
X357221000Y-125772000D02*
X357221000Y-138972000D01*
X357221000Y-138972000D02*
X344021000Y-138972000D01*
X344021000Y-125772000D02*
X357221000Y-125772000D01*
X344021000Y-138972000D02*
X344021000Y-125772000D01*
X338221000Y-125772000D02*
X338221000Y-138972000D01*
X338221000Y-138972000D02*
X325021000Y-138972000D01*
X325021000Y-125772000D02*
X338221000Y-125772000D01*
X325021000Y-138972000D02*
X325021000Y-125772000D01*
X294186000Y-135292000D02*
X307386000Y-135292000D01*
X294186000Y-148492000D02*
X294186000Y-135292000D01*
X307386000Y-135292000D02*
X307386000Y-148492000D01*
X307386000Y-148492000D02*
X294186000Y-148492000D01*
X281221000Y-125772000D02*
X281221000Y-138972000D01*
X281221000Y-138972000D02*
X268021000Y-138972000D01*
X268021000Y-125772000D02*
X281221000Y-125772000D01*
X268021000Y-138972000D02*
X268021000Y-125772000D01*
X262221000Y-125772000D02*
X262221000Y-138972000D01*
X262221000Y-138972000D02*
X249021000Y-138972000D01*
X249021000Y-125772000D02*
X262221000Y-125772000D01*
X249021000Y-138972000D02*
X249021000Y-125772000D01*
X243221000Y-125772000D02*
X243221000Y-138972000D01*
X243221000Y-138972000D02*
X230021000Y-138972000D01*
X230021000Y-125772000D02*
X243221000Y-125772000D01*
X230021000Y-138972000D02*
X230021000Y-125772000D01*
X224221000Y-125772000D02*
X224221000Y-138972000D01*
X224221000Y-138972000D02*
X211021000Y-138972000D01*
X211021000Y-125772000D02*
X224221000Y-125772000D01*
X211021000Y-138972000D02*
X211021000Y-125772000D01*
X205221000Y-125772000D02*
X205221000Y-138972000D01*
X205221000Y-138972000D02*
X192021000Y-138972000D01*
X192021000Y-125772000D02*
X205221000Y-125772000D01*
X192021000Y-138972000D02*
X192021000Y-125772000D01*
X186221000Y-125772000D02*
X186221000Y-138972000D01*
X186221000Y-138972000D02*
X173021000Y-138972000D01*
X173021000Y-125772000D02*
X186221000Y-125772000D01*
X173021000Y-138972000D02*
X173021000Y-125772000D01*
X167221000Y-125772000D02*
X167221000Y-138972000D01*
X167221000Y-138972000D02*
X154021000Y-138972000D01*
X154021000Y-125772000D02*
X167221000Y-125772000D01*
X154021000Y-138972000D02*
X154021000Y-125772000D01*
X148221000Y-125772000D02*
X148221000Y-138972000D01*
X148221000Y-138972000D02*
X135021000Y-138972000D01*
X135021000Y-125772000D02*
X148221000Y-125772000D01*
X135021000Y-138972000D02*
X135021000Y-125772000D01*
X129221000Y-125772000D02*
X129221000Y-138972000D01*
X129221000Y-138972000D02*
X116021000Y-138972000D01*
X116021000Y-125772000D02*
X129221000Y-125772000D01*
X116021000Y-138972000D02*
X116021000Y-125772000D01*
X110221000Y-125772000D02*
X110221000Y-138972000D01*
X110221000Y-138972000D02*
X97021000Y-138972000D01*
X97021000Y-125772000D02*
X110221000Y-125772000D01*
X97021000Y-138972000D02*
X97021000Y-125772000D01*
X91221000Y-125772000D02*
X91221000Y-138972000D01*
X91221000Y-138972000D02*
X78021000Y-138972000D01*
X78021000Y-125772000D02*
X91221000Y-125772000D01*
X78021000Y-138972000D02*
X78021000Y-125772000D01*
X72221000Y-125772000D02*
X72221000Y-138972000D01*
X72221000Y-138972000D02*
X59021000Y-138972000D01*
X59021000Y-125772000D02*
X72221000Y-125772000D01*
X59021000Y-138972000D02*
X59021000Y-125772000D01*
X376221000Y-106772000D02*
X376221000Y-119972000D01*
X376221000Y-119972000D02*
X363021000Y-119972000D01*
X363021000Y-106772000D02*
X376221000Y-106772000D01*
X363021000Y-119972000D02*
X363021000Y-106772000D01*
X357221000Y-106772000D02*
X357221000Y-119972000D01*
X357221000Y-119972000D02*
X344021000Y-119972000D01*
X344021000Y-106772000D02*
X357221000Y-106772000D01*
X344021000Y-119972000D02*
X344021000Y-106772000D01*
X338221000Y-106772000D02*
X338221000Y-119972000D01*
X338221000Y-119972000D02*
X325021000Y-119972000D01*
X325021000Y-106772000D02*
X338221000Y-106772000D01*
X325021000Y-119972000D02*
X325021000Y-106772000D01*
X287061000Y-106792000D02*
X300261000Y-106792000D01*
X287061000Y-119992000D02*
X287061000Y-106792000D01*
X300261000Y-119992000D02*
X287061000Y-119992000D01*
X300261000Y-106792000D02*
X300261000Y-119992000D01*
X271721000Y-106772000D02*
X271721000Y-119972000D01*
X271721000Y-119972000D02*
X258521000Y-119972000D01*
X258521000Y-106772000D02*
X271721000Y-106772000D01*
X258521000Y-119972000D02*
X258521000Y-106772000D01*
X252721000Y-106772000D02*
X252721000Y-119972000D01*
X252721000Y-119972000D02*
X239521000Y-119972000D01*
X239521000Y-106772000D02*
X252721000Y-106772000D01*
X239521000Y-119972000D02*
X239521000Y-106772000D01*
X233721000Y-106772000D02*
X233721000Y-119972000D01*
X233721000Y-119972000D02*
X220521000Y-119972000D01*
X220521000Y-106772000D02*
X233721000Y-106772000D01*
X220521000Y-119972000D02*
X220521000Y-106772000D01*
X214721000Y-106772000D02*
X214721000Y-119972000D01*
X214721000Y-119972000D02*
X201521000Y-119972000D01*
X201521000Y-106772000D02*
X214721000Y-106772000D01*
X201521000Y-119972000D02*
X201521000Y-106772000D01*
X195721000Y-106772000D02*
X195721000Y-119972000D01*
X195721000Y-119972000D02*
X182521000Y-119972000D01*
X182521000Y-106772000D02*
X195721000Y-106772000D01*
X182521000Y-119972000D02*
X182521000Y-106772000D01*
X176721000Y-106772000D02*
X176721000Y-119972000D01*
X176721000Y-119972000D02*
X163521000Y-119972000D01*
X163521000Y-106772000D02*
X176721000Y-106772000D01*
X163521000Y-119972000D02*
X163521000Y-106772000D01*
X157721000Y-106772000D02*
X157721000Y-119972000D01*
X157721000Y-119972000D02*
X144521000Y-119972000D01*
X144521000Y-106772000D02*
X157721000Y-106772000D01*
X144521000Y-119972000D02*
X144521000Y-106772000D01*
X138721000Y-106772000D02*
X138721000Y-119972000D01*
X138721000Y-119972000D02*
X125521000Y-119972000D01*
X125521000Y-106772000D02*
X138721000Y-106772000D01*
X125521000Y-119972000D02*
X125521000Y-106772000D01*
X119721000Y-106772000D02*
X119721000Y-119972000D01*
X119721000Y-119972000D02*
X106521000Y-119972000D01*
X106521000Y-106772000D02*
X119721000Y-106772000D01*
X106521000Y-119972000D02*
X106521000Y-106772000D01*
X100721000Y-106772000D02*
X100721000Y-119972000D01*
X100721000Y-119972000D02*
X87521000Y-119972000D01*
X87521000Y-106772000D02*
X100721000Y-106772000D01*
X87521000Y-119972000D02*
X87521000Y-106772000D01*
X81721000Y-106772000D02*
X81721000Y-119972000D01*
X81721000Y-119972000D02*
X68521000Y-119972000D01*
X68521000Y-106772000D02*
X81721000Y-106772000D01*
X68521000Y-119972000D02*
X68521000Y-106772000D01*
X62721000Y-106772000D02*
X62721000Y-119972000D01*
X62721000Y-119972000D02*
X49521000Y-119972000D01*
X49521000Y-106772000D02*
X62721000Y-106772000D01*
X49521000Y-119972000D02*
X49521000Y-106772000D01*
X376221000Y-78272000D02*
X376221000Y-91472000D01*
X376221000Y-91472000D02*
X363021000Y-91472000D01*
X363021000Y-78272000D02*
X376221000Y-78272000D01*
X363021000Y-91472000D02*
X363021000Y-78272000D01*
X357221000Y-78272000D02*
X357221000Y-91472000D01*
X357221000Y-91472000D02*
X344021000Y-91472000D01*
X344021000Y-78272000D02*
X357221000Y-78272000D01*
X344021000Y-91472000D02*
X344021000Y-78272000D01*
X338221000Y-78272000D02*
X338221000Y-91472000D01*
X338221000Y-91472000D02*
X325021000Y-91472000D01*
X325021000Y-78272000D02*
X338221000Y-78272000D01*
X325021000Y-91472000D02*
X325021000Y-78272000D01*
X309721000Y-78272000D02*
X309721000Y-91472000D01*
X309721000Y-91472000D02*
X296521000Y-91472000D01*
X296521000Y-78272000D02*
X309721000Y-78272000D01*
X296521000Y-91472000D02*
X296521000Y-78272000D01*
X290721000Y-78272000D02*
X290721000Y-91472000D01*
X290721000Y-91472000D02*
X277521000Y-91472000D01*
X277521000Y-78272000D02*
X290721000Y-78272000D01*
X277521000Y-91472000D02*
X277521000Y-78272000D01*
X271721000Y-78272000D02*
X271721000Y-91472000D01*
X271721000Y-91472000D02*
X258521000Y-91472000D01*
X258521000Y-78272000D02*
X271721000Y-78272000D01*
X258521000Y-91472000D02*
X258521000Y-78272000D01*
X252721000Y-78272000D02*
X252721000Y-91472000D01*
X252721000Y-91472000D02*
X239521000Y-91472000D01*
X239521000Y-78272000D02*
X252721000Y-78272000D01*
X239521000Y-91472000D02*
X239521000Y-78272000D01*
X224221000Y-78272000D02*
X224221000Y-91472000D01*
X224221000Y-91472000D02*
X211021000Y-91472000D01*
X211021000Y-78272000D02*
X224221000Y-78272000D01*
X211021000Y-91472000D02*
X211021000Y-78272000D01*
X205221000Y-78272000D02*
X205221000Y-91472000D01*
X205221000Y-91472000D02*
X192021000Y-91472000D01*
X192021000Y-78272000D02*
X205221000Y-78272000D01*
X192021000Y-91472000D02*
X192021000Y-78272000D01*
X186221000Y-78272000D02*
X186221000Y-91472000D01*
X186221000Y-91472000D02*
X173021000Y-91472000D01*
X173021000Y-78272000D02*
X186221000Y-78272000D01*
X173021000Y-91472000D02*
X173021000Y-78272000D01*
X167221000Y-78272000D02*
X167221000Y-91472000D01*
X167221000Y-91472000D02*
X154021000Y-91472000D01*
X154021000Y-78272000D02*
X167221000Y-78272000D01*
X154021000Y-91472000D02*
X154021000Y-78272000D01*
X138721000Y-78272000D02*
X138721000Y-91472000D01*
X138721000Y-91472000D02*
X125521000Y-91472000D01*
X125521000Y-78272000D02*
X138721000Y-78272000D01*
X125521000Y-91472000D02*
X125521000Y-78272000D01*
X119721000Y-78272000D02*
X119721000Y-91472000D01*
X119721000Y-91472000D02*
X106521000Y-91472000D01*
X106521000Y-78272000D02*
X119721000Y-78272000D01*
X106521000Y-91472000D02*
X106521000Y-78272000D01*
X100721000Y-78272000D02*
X100721000Y-91472000D01*
X100721000Y-91472000D02*
X87521000Y-91472000D01*
X87521000Y-78272000D02*
X100721000Y-78272000D01*
X87521000Y-91472000D02*
X87521000Y-78272000D01*
X81721000Y-78272000D02*
X81721000Y-91472000D01*
X81721000Y-91472000D02*
X68521000Y-91472000D01*
X68521000Y-78272000D02*
X81721000Y-78272000D01*
X68521000Y-91472000D02*
X68521000Y-78272000D01*
X43721000Y-78272000D02*
X43721000Y-91472000D01*
X43721000Y-91472000D02*
X30521000Y-91472000D01*
X30521000Y-78272000D02*
X43721000Y-78272000D01*
X30521000Y-91472000D02*
X30521000Y-78272000D01*
X246580000Y-53280000D02*
X242820000Y-53280000D01*
X242820000Y-53280000D02*
X242820000Y-51320000D01*
X246580000Y-51320000D02*
X246580000Y-53280000D01*
X242820000Y-51320000D02*
X246580000Y-51320000D01*
X236000000Y-51350000D02*
X239700000Y-51350000D01*
X239700000Y-53250000D02*
X236000000Y-53250000D01*
X236000000Y-53250000D02*
X236000000Y-51350000D01*
X239700000Y-51350000D02*
X239700000Y-53250000D01*
X205570000Y-57330000D02*
X205570000Y-55870000D01*
X208530000Y-57330000D02*
X205570000Y-57330000D01*
X208530000Y-55870000D02*
X208530000Y-57330000D01*
X205570000Y-55870000D02*
X208530000Y-55870000D01*
X227330000Y-58420000D02*
X227330000Y-61380000D01*
X225870000Y-61380000D02*
X225870000Y-58420000D01*
X225870000Y-58420000D02*
X227330000Y-58420000D01*
X227330000Y-61380000D02*
X225870000Y-61380000D01*
X232870000Y-50830000D02*
X232870000Y-49370000D01*
X232870000Y-49370000D02*
X235830000Y-49370000D01*
X235830000Y-50830000D02*
X232870000Y-50830000D01*
X235830000Y-49370000D02*
X235830000Y-50830000D01*
X226430000Y-51730000D02*
X223470000Y-51730000D01*
X223470000Y-51730000D02*
X223470000Y-50270000D01*
X223470000Y-50270000D02*
X226430000Y-50270000D01*
X226430000Y-50270000D02*
X226430000Y-51730000D01*
X201430000Y-51520000D02*
X201430000Y-54480000D01*
X201430000Y-54480000D02*
X199970000Y-54480000D01*
X199970000Y-54480000D02*
X199970000Y-51520000D01*
X199970000Y-51520000D02*
X201430000Y-51520000D01*
X232870000Y-53030000D02*
X232870000Y-51570000D01*
X232870000Y-51570000D02*
X235830000Y-51570000D01*
X235830000Y-53030000D02*
X232870000Y-53030000D01*
X235830000Y-51570000D02*
X235830000Y-53030000D01*
X239700000Y-51050000D02*
X236000000Y-51050000D01*
X236000000Y-51050000D02*
X236000000Y-49150000D01*
X239700000Y-49150000D02*
X239700000Y-51050000D01*
X236000000Y-49150000D02*
X239700000Y-49150000D01*
X208980000Y-57470000D02*
X208980000Y-59430000D01*
X208980000Y-59430000D02*
X205220000Y-59430000D01*
X205220000Y-59430000D02*
X205220000Y-57470000D01*
X205220000Y-57470000D02*
X208980000Y-57470000D01*
X226430000Y-48620000D02*
X226430000Y-50080000D01*
X226430000Y-50080000D02*
X223470000Y-50080000D01*
X223470000Y-48620000D02*
X226430000Y-48620000D01*
X223470000Y-50080000D02*
X223470000Y-48620000D01*
X212880000Y-50030000D02*
X209920000Y-50030000D01*
X212880000Y-48570000D02*
X212880000Y-50030000D01*
X209920000Y-50030000D02*
X209920000Y-48570000D01*
X209920000Y-48570000D02*
X212880000Y-48570000D01*
X187250000Y-50000000D02*
X187250000Y-56000000D01*
X178750000Y-56000000D02*
X178750000Y-50000000D01*
X187250000Y-56000000D02*
X178750000Y-56000000D01*
X178750000Y-50000000D02*
X187250000Y-50000000D01*
X258350000Y-64950000D02*
X258350000Y-66850000D01*
X254650000Y-66850000D02*
X254650000Y-64950000D01*
X254650000Y-64950000D02*
X258350000Y-64950000D01*
X258350000Y-66850000D02*
X254650000Y-66850000D01*
D11*
X201898496Y-62750112D02*
X201898496Y-65500112D01*
X201898496Y-65500112D02*
X204348496Y-65500112D01*
X204348496Y-62750112D02*
X201898496Y-62750112D01*
X204348496Y-65500112D02*
X204348496Y-62750112D01*
D10*
X34250000Y-57000000D02*
G75*
G03*
X34250000Y-57000000I-4250000J0D01*
G01*
X250300000Y-58750000D02*
X254400000Y-58750000D01*
X250300000Y-55350000D02*
X250300000Y-58750000D01*
X254400000Y-58750000D02*
X254400000Y-55350000D01*
X254400000Y-55350000D02*
X250300000Y-55350000D01*
X253280000Y-59070000D02*
X253280000Y-60530000D01*
X250320000Y-59070000D02*
X253280000Y-59070000D01*
X250320000Y-60530000D02*
X250320000Y-59070000D01*
X253280000Y-60530000D02*
X250320000Y-60530000D01*
X171700000Y-52800000D02*
X174700000Y-52800000D01*
X171700000Y-47800000D02*
X171700000Y-52800000D01*
X174700000Y-47800000D02*
X171700000Y-47800000D01*
X174700000Y-52800000D02*
X174700000Y-47800000D01*
X253280000Y-55030000D02*
X250320000Y-55030000D01*
X250320000Y-55030000D02*
X250320000Y-53570000D01*
X253280000Y-53570000D02*
X253280000Y-55030000D01*
X250320000Y-53570000D02*
X253280000Y-53570000D01*
X213230000Y-61170000D02*
X221470000Y-61170000D01*
X213230000Y-52930000D02*
X213230000Y-61170000D01*
X221470000Y-61170000D02*
X221470000Y-52930000D01*
X221470000Y-52930000D02*
X213230000Y-52930000D01*
X205120112Y-62671504D02*
X208080112Y-62671504D01*
X205120112Y-64131504D02*
X205120112Y-62671504D01*
X208080112Y-62671504D02*
X208080112Y-64131504D01*
X208080112Y-64131504D02*
X205120112Y-64131504D01*
X256670000Y-51530000D02*
X265100000Y-51530000D01*
X265100000Y-62470000D02*
X265100000Y-51530000D01*
X256670000Y-62470000D02*
X265100000Y-62470000D01*
X256670000Y-62470000D02*
X256670000Y-51530000D01*
X249800000Y-68200000D02*
X249800000Y-65200000D01*
X244800000Y-68200000D02*
X249800000Y-68200000D01*
X244800000Y-65200000D02*
X244800000Y-68200000D01*
X249800000Y-65200000D02*
X244800000Y-65200000D01*
X246550000Y-55550000D02*
X242850000Y-55550000D01*
X246550000Y-53650000D02*
X246550000Y-55550000D01*
X242850000Y-55550000D02*
X242850000Y-53650000D01*
X242850000Y-53650000D02*
X246550000Y-53650000D01*
X30250000Y-201000000D02*
G75*
G03*
X30250000Y-201000000I-4250000J0D01*
G01*
X208080000Y-64270000D02*
X208080000Y-65730000D01*
X205120000Y-64270000D02*
X208080000Y-64270000D01*
X208080000Y-65730000D02*
X205120000Y-65730000D01*
X205120000Y-65730000D02*
X205120000Y-64270000D01*
X199500000Y-63500000D02*
X199500000Y-50500000D01*
X196500000Y-63500000D02*
X199500000Y-63500000D01*
X196500000Y-50500000D02*
X196500000Y-63500000D01*
X199500000Y-50500000D02*
X196500000Y-50500000D01*
X205570000Y-54270000D02*
X208530000Y-54270000D01*
X208530000Y-54270000D02*
X208530000Y-55730000D01*
X205570000Y-55730000D02*
X205570000Y-54270000D01*
X208530000Y-55730000D02*
X205570000Y-55730000D01*
X385250000Y-53000000D02*
G75*
G03*
X385250000Y-53000000I-4250000J0D01*
G01*
X215030000Y-68050000D02*
X213570000Y-68050000D01*
X213570000Y-68050000D02*
X213570000Y-64750000D01*
X215030000Y-64750000D02*
X215030000Y-68050000D01*
X213570000Y-64750000D02*
X215030000Y-64750000D01*
X218170000Y-64750000D02*
X219630000Y-64750000D01*
X218170000Y-68050000D02*
X218170000Y-64750000D01*
X219630000Y-64750000D02*
X219630000Y-68050000D01*
X219630000Y-68050000D02*
X218170000Y-68050000D01*
X255300000Y-64670000D02*
X255300000Y-63730000D01*
X255300000Y-63730000D02*
X257500000Y-63730000D01*
X257500000Y-64670000D02*
X255300000Y-64670000D01*
X257500000Y-63730000D02*
X257500000Y-64670000D01*
X385250000Y-201000000D02*
G75*
G03*
X385250000Y-201000000I-4250000J0D01*
G01*
X218000000Y-65100000D02*
X215200000Y-65100000D01*
X215200000Y-65100000D02*
X215200000Y-67700000D01*
X218000000Y-67700000D02*
X218000000Y-65100000D01*
X215200000Y-67700000D02*
X218000000Y-67700000D01*
M02*
