%TF.GenerationSoftware,KiCad,Pcbnew,(5.99.0-10004-g132ec37b56)*%
%TF.CreationDate,2021-04-06T22:09:18+02:00*%
%TF.ProjectId,gh80-3003-nicosmod,67683830-2d33-4303-9033-2d6e69636f73,rev?*%
%TF.SameCoordinates,Original*%
%TF.FileFunction,Profile,NP*%
%FSLAX46Y46*%
G04 Gerber Fmt 4.6, Leading zero omitted, Abs format (unit mm)*
G04 Created by KiCad (PCBNEW (5.99.0-10004-g132ec37b56)) date 2021-04-06 22:09:18*
%MOMM*%
%LPD*%
G01*
G04 APERTURE LIST*
%TA.AperFunction,Profile*%
%ADD10C,0.100000*%
%TD*%
G04 APERTURE END LIST*
D10*
X382000000Y-207000000D02*
X387000000Y-202000000D01*
X322000000Y-67000000D02*
X268000000Y-67000000D01*
X336000000Y-65000000D02*
X344000000Y-65000000D01*
X20000000Y-202000000D02*
X20000000Y-57000000D01*
X367000000Y-63000000D02*
G75*
G02*
X367000000Y-65000000I0J-1000000D01*
G01*
X387000000Y-202000000D02*
X387000000Y-52000000D01*
X336000000Y-63000000D02*
X344000000Y-63000000D01*
X30000000Y-47000000D02*
X20000000Y-57000000D01*
X336000000Y-65000000D02*
G75*
G02*
X336000000Y-63000000I0J1000000D01*
G01*
X359000000Y-63000000D02*
X367000000Y-63000000D01*
X359000000Y-65000000D02*
X367000000Y-65000000D01*
X344000000Y-52000000D02*
G75*
G02*
X344000000Y-54000000I0J-1000000D01*
G01*
X325000000Y-50000000D02*
X325000000Y-64000000D01*
X265000000Y-64000000D02*
X265000000Y-50000000D01*
X325000000Y-50000000D02*
X328000000Y-47000000D01*
X265000000Y-50000000D02*
X262000000Y-47000000D01*
X325000000Y-64000000D02*
X322000000Y-67000000D01*
X25000000Y-207000000D02*
X20000000Y-202000000D01*
X382000000Y-47000000D02*
X328000000Y-47000000D01*
X30000000Y-47000000D02*
X262000000Y-47000000D01*
X25000000Y-207000000D02*
X382000000Y-207000000D01*
X359000000Y-65000000D02*
G75*
G02*
X359000000Y-63000000I0J1000000D01*
G01*
X359000000Y-52000000D02*
X367000000Y-52000000D01*
X265000000Y-64000000D02*
X268000000Y-67000000D01*
X359000000Y-54000000D02*
G75*
G02*
X359000000Y-52000000I0J1000000D01*
G01*
X359000000Y-54000000D02*
X367000000Y-54000000D01*
X382000000Y-47000000D02*
X387000000Y-52000000D01*
X367000000Y-52000000D02*
G75*
G02*
X367000000Y-54000000I0J-1000000D01*
G01*
X336000000Y-54000000D02*
G75*
G02*
X336000000Y-52000000I0J1000000D01*
G01*
X344000000Y-63000000D02*
G75*
G02*
X344000000Y-65000000I0J-1000000D01*
G01*
X336000000Y-54000000D02*
X344000000Y-54000000D01*
X336000000Y-52000000D02*
X344000000Y-52000000D01*
M02*
