%TF.GenerationSoftware,KiCad,Pcbnew,(5.99.0-10004-g132ec37b56)*%
%TF.CreationDate,2021-04-06T22:09:18+02:00*%
%TF.ProjectId,gh80-3003-nicosmod,67683830-2d33-4303-9033-2d6e69636f73,rev?*%
%TF.SameCoordinates,Original*%
%TF.FileFunction,Soldermask,Bot*%
%TF.FilePolarity,Negative*%
%FSLAX46Y46*%
G04 Gerber Fmt 4.6, Leading zero omitted, Abs format (unit mm)*
G04 Created by KiCad (PCBNEW (5.99.0-10004-g132ec37b56)) date 2021-04-06 22:09:18*
%MOMM*%
%LPD*%
G01*
G04 APERTURE LIST*
G04 Aperture macros list*
%AMRoundRect*
0 Rectangle with rounded corners*
0 $1 Rounding radius*
0 $2 $3 $4 $5 $6 $7 $8 $9 X,Y pos of 4 corners*
0 Add a 4 corners polygon primitive as box body*
4,1,4,$2,$3,$4,$5,$6,$7,$8,$9,$2,$3,0*
0 Add four circle primitives for the rounded corners*
1,1,$1+$1,$2,$3*
1,1,$1+$1,$4,$5*
1,1,$1+$1,$6,$7*
1,1,$1+$1,$8,$9*
0 Add four rect primitives between the rounded corners*
20,1,$1+$1,$2,$3,$4,$5,0*
20,1,$1+$1,$4,$5,$6,$7,0*
20,1,$1+$1,$6,$7,$8,$9,0*
20,1,$1+$1,$8,$9,$2,$3,0*%
G04 Aperture macros list end*
%ADD10C,1.524000*%
%ADD11C,2.200000*%
%ADD12C,4.000000*%
%ADD13C,1.700000*%
%ADD14C,3.050000*%
%ADD15R,1.350000X1.350000*%
%ADD16O,1.350000X1.350000*%
%ADD17C,0.600000*%
%ADD18O,0.600000X0.850000*%
%ADD19O,2.300000X1.300000*%
%ADD20O,2.600000X1.300000*%
%ADD21RoundRect,0.250000X0.450000X-0.325000X0.450000X0.325000X-0.450000X0.325000X-0.450000X-0.325000X0*%
%ADD22RoundRect,0.250000X0.450000X-0.262500X0.450000X0.262500X-0.450000X0.262500X-0.450000X-0.262500X0*%
%ADD23RoundRect,0.160000X-0.160000X0.222500X-0.160000X-0.222500X0.160000X-0.222500X0.160000X0.222500X0*%
%ADD24RoundRect,0.250000X-0.325000X-0.450000X0.325000X-0.450000X0.325000X0.450000X-0.325000X0.450000X0*%
%ADD25RoundRect,0.250000X-0.262500X-0.450000X0.262500X-0.450000X0.262500X0.450000X-0.262500X0.450000X0*%
%ADD26C,0.800000*%
%ADD27C,1.000000*%
G04 APERTURE END LIST*
D10*
X373611000Y-194492000D03*
X370861000Y-194492000D03*
X368361000Y-194492000D03*
X365611000Y-194492000D03*
D11*
X365811000Y-186832000D03*
X372161000Y-184292000D03*
D12*
X369621000Y-189372000D03*
D13*
X364541000Y-189372000D03*
X374701000Y-189372000D03*
D10*
X354611000Y-194492000D03*
X351861000Y-194492000D03*
X349361000Y-194492000D03*
X346611000Y-194492000D03*
D11*
X346811000Y-186832000D03*
X353161000Y-184292000D03*
D12*
X350621000Y-189372000D03*
D13*
X345541000Y-189372000D03*
X355701000Y-189372000D03*
D10*
X335611000Y-194492000D03*
X332861000Y-194492000D03*
X330361000Y-194492000D03*
X327611000Y-194492000D03*
D11*
X327811000Y-186832000D03*
X334161000Y-184292000D03*
D12*
X331621000Y-189372000D03*
D13*
X326541000Y-189372000D03*
X336701000Y-189372000D03*
D10*
X303836356Y-194565181D03*
X301086356Y-194565181D03*
X298586356Y-194565181D03*
X295836356Y-194565181D03*
D11*
X296036356Y-186905181D03*
X302386356Y-184365181D03*
D13*
X294766356Y-189445181D03*
D12*
X299846356Y-189445181D03*
D13*
X304926356Y-189445181D03*
D10*
X279935455Y-194525426D03*
X277185455Y-194525426D03*
X274685455Y-194525426D03*
X271935455Y-194525426D03*
D11*
X272135455Y-186865426D03*
X278485455Y-184325426D03*
D12*
X275945455Y-189405426D03*
D13*
X270865455Y-189405426D03*
X281025455Y-189405426D03*
D10*
X256122452Y-194542931D03*
X253372452Y-194542931D03*
X250872452Y-194542931D03*
X248122452Y-194542931D03*
D11*
X248322452Y-186882931D03*
X254672452Y-184342931D03*
D13*
X247052452Y-189422931D03*
D12*
X252132452Y-189422931D03*
D13*
X257212452Y-189422931D03*
D10*
X174750000Y-194520000D03*
X172000000Y-194520000D03*
X169500000Y-194520000D03*
X166750000Y-194520000D03*
D11*
X166950000Y-186860000D03*
X173300000Y-184320000D03*
D12*
X170760000Y-189400000D03*
D14*
X227710000Y-182400000D03*
D13*
X165680000Y-189400000D03*
X175840000Y-189400000D03*
D12*
X113710000Y-197640000D03*
D14*
X113710000Y-182400000D03*
D12*
X227710000Y-197640000D03*
D10*
X93401000Y-194512000D03*
X90651000Y-194512000D03*
X88151000Y-194512000D03*
X85401000Y-194512000D03*
D11*
X85601000Y-186852000D03*
X91951000Y-184312000D03*
D13*
X84331000Y-189392000D03*
D12*
X89411000Y-189392000D03*
D13*
X94491000Y-189392000D03*
D10*
X69611000Y-194492000D03*
X66861000Y-194492000D03*
X64361000Y-194492000D03*
X61611000Y-194492000D03*
D11*
X61811000Y-186832000D03*
X68161000Y-184292000D03*
D12*
X65621000Y-189372000D03*
D13*
X60541000Y-189372000D03*
X70701000Y-189372000D03*
D10*
X45901000Y-194512000D03*
X43151000Y-194512000D03*
X40651000Y-194512000D03*
X37901000Y-194512000D03*
D11*
X38101000Y-186852000D03*
X44451000Y-184312000D03*
D13*
X36831000Y-189392000D03*
D12*
X41911000Y-189392000D03*
D13*
X46991000Y-189392000D03*
D10*
X43476000Y-175512000D03*
X40726000Y-175512000D03*
X38226000Y-175512000D03*
X35476000Y-175512000D03*
D11*
X35676000Y-167852000D03*
X42026000Y-165312000D03*
D13*
X34406000Y-170392000D03*
D12*
X39486000Y-170392000D03*
D13*
X44566000Y-170392000D03*
D10*
X48276000Y-156512000D03*
X45526000Y-156512000D03*
X43026000Y-156512000D03*
X40276000Y-156512000D03*
D11*
X40476000Y-148852000D03*
X46826000Y-146312000D03*
D13*
X39206000Y-151392000D03*
D12*
X44286000Y-151392000D03*
D13*
X49366000Y-151392000D03*
D10*
X45901000Y-137512000D03*
X43151000Y-137512000D03*
X40651000Y-137512000D03*
X37901000Y-137512000D03*
D11*
X38101000Y-129852000D03*
X44451000Y-127312000D03*
D13*
X36831000Y-132392000D03*
D12*
X41911000Y-132392000D03*
D13*
X46991000Y-132392000D03*
D10*
X41111000Y-118492000D03*
X38361000Y-118492000D03*
X35861000Y-118492000D03*
X33111000Y-118492000D03*
D11*
X33311000Y-110832000D03*
X39661000Y-108292000D03*
D12*
X37121000Y-113372000D03*
D13*
X32041000Y-113372000D03*
X42201000Y-113372000D03*
D10*
X354611000Y-175492000D03*
X351861000Y-175492000D03*
X349361000Y-175492000D03*
X346611000Y-175492000D03*
D11*
X346811000Y-167832000D03*
X353161000Y-165292000D03*
D12*
X350621000Y-170372000D03*
D13*
X345541000Y-170372000D03*
X355701000Y-170372000D03*
D10*
X290526000Y-175512000D03*
X287776000Y-175512000D03*
X285276000Y-175512000D03*
X282526000Y-175512000D03*
D11*
X282726000Y-167852000D03*
X289076000Y-165312000D03*
D13*
X291616000Y-170392000D03*
D14*
X298396000Y-163372000D03*
D12*
X274596000Y-178612000D03*
X286536000Y-170392000D03*
D14*
X274596000Y-163372000D03*
D12*
X298396000Y-178612000D03*
D13*
X281456000Y-170392000D03*
D10*
X254861000Y-175492000D03*
X252111000Y-175492000D03*
X249611000Y-175492000D03*
X246861000Y-175492000D03*
D11*
X247061000Y-167832000D03*
X253411000Y-165292000D03*
D12*
X250871000Y-170372000D03*
D13*
X245791000Y-170372000D03*
X255951000Y-170372000D03*
D10*
X235861000Y-175492000D03*
X233111000Y-175492000D03*
X230611000Y-175492000D03*
X227861000Y-175492000D03*
D11*
X228061000Y-167832000D03*
X234411000Y-165292000D03*
D12*
X231871000Y-170372000D03*
D13*
X226791000Y-170372000D03*
X236951000Y-170372000D03*
D10*
X216861000Y-175492000D03*
X214111000Y-175492000D03*
X211611000Y-175492000D03*
X208861000Y-175492000D03*
D11*
X209061000Y-167832000D03*
X215411000Y-165292000D03*
D12*
X212871000Y-170372000D03*
D13*
X207791000Y-170372000D03*
X217951000Y-170372000D03*
D10*
X197861000Y-175492000D03*
X195111000Y-175492000D03*
X192611000Y-175492000D03*
X189861000Y-175492000D03*
D11*
X190061000Y-167832000D03*
X196411000Y-165292000D03*
D12*
X193871000Y-170372000D03*
D13*
X188791000Y-170372000D03*
X198951000Y-170372000D03*
D10*
X178861000Y-175492000D03*
X176111000Y-175492000D03*
X173611000Y-175492000D03*
X170861000Y-175492000D03*
D11*
X171061000Y-167832000D03*
X177411000Y-165292000D03*
D12*
X174871000Y-170372000D03*
D13*
X169791000Y-170372000D03*
X179951000Y-170372000D03*
D10*
X159861000Y-175492000D03*
X157111000Y-175492000D03*
X154611000Y-175492000D03*
X151861000Y-175492000D03*
D11*
X152061000Y-167832000D03*
X158411000Y-165292000D03*
D12*
X155871000Y-170372000D03*
D13*
X150791000Y-170372000D03*
X160951000Y-170372000D03*
D10*
X140861000Y-175492000D03*
X138111000Y-175492000D03*
X135611000Y-175492000D03*
X132861000Y-175492000D03*
D11*
X133061000Y-167832000D03*
X139411000Y-165292000D03*
D12*
X136871000Y-170372000D03*
D13*
X131791000Y-170372000D03*
X141951000Y-170372000D03*
D10*
X121861000Y-175492000D03*
X119111000Y-175492000D03*
X116611000Y-175492000D03*
X113861000Y-175492000D03*
D11*
X114061000Y-167832000D03*
X120411000Y-165292000D03*
D12*
X117871000Y-170372000D03*
D13*
X112791000Y-170372000D03*
X122951000Y-170372000D03*
D10*
X102861000Y-175492000D03*
X100111000Y-175492000D03*
X97611000Y-175492000D03*
X94861000Y-175492000D03*
D11*
X95061000Y-167832000D03*
X101411000Y-165292000D03*
D12*
X98871000Y-170372000D03*
D13*
X93791000Y-170372000D03*
X103951000Y-170372000D03*
D10*
X83861000Y-175492000D03*
X81111000Y-175492000D03*
X78611000Y-175492000D03*
X75861000Y-175492000D03*
D11*
X76061000Y-167832000D03*
X82411000Y-165292000D03*
D12*
X79871000Y-170372000D03*
D13*
X74791000Y-170372000D03*
X84951000Y-170372000D03*
D10*
X64861000Y-175492000D03*
X62111000Y-175492000D03*
X59611000Y-175492000D03*
X56861000Y-175492000D03*
D11*
X57061000Y-167832000D03*
X63411000Y-165292000D03*
D12*
X60871000Y-170372000D03*
D13*
X55791000Y-170372000D03*
X65951000Y-170372000D03*
D10*
X283361000Y-156492000D03*
X280611000Y-156492000D03*
X278111000Y-156492000D03*
X275361000Y-156492000D03*
D11*
X275561000Y-148832000D03*
X281911000Y-146292000D03*
D12*
X279371000Y-151372000D03*
D13*
X274291000Y-151372000D03*
X284451000Y-151372000D03*
D10*
X264361000Y-156492000D03*
X261611000Y-156492000D03*
X259111000Y-156492000D03*
X256361000Y-156492000D03*
D11*
X256561000Y-148832000D03*
X262911000Y-146292000D03*
D12*
X260371000Y-151372000D03*
D13*
X255291000Y-151372000D03*
X265451000Y-151372000D03*
D10*
X245361000Y-156492000D03*
X242611000Y-156492000D03*
X240111000Y-156492000D03*
X237361000Y-156492000D03*
D11*
X237561000Y-148832000D03*
X243911000Y-146292000D03*
D12*
X241371000Y-151372000D03*
D13*
X236291000Y-151372000D03*
X246451000Y-151372000D03*
D10*
X226361000Y-156492000D03*
X223611000Y-156492000D03*
X221111000Y-156492000D03*
X218361000Y-156492000D03*
D11*
X218561000Y-148832000D03*
X224911000Y-146292000D03*
D12*
X222371000Y-151372000D03*
D13*
X217291000Y-151372000D03*
X227451000Y-151372000D03*
D10*
X207361000Y-156492000D03*
X204611000Y-156492000D03*
X202111000Y-156492000D03*
X199361000Y-156492000D03*
D11*
X199561000Y-148832000D03*
X205911000Y-146292000D03*
D12*
X203371000Y-151372000D03*
D13*
X198291000Y-151372000D03*
X208451000Y-151372000D03*
D10*
X188361000Y-156492000D03*
X185611000Y-156492000D03*
X183111000Y-156492000D03*
X180361000Y-156492000D03*
D11*
X180561000Y-148832000D03*
X186911000Y-146292000D03*
D12*
X184371000Y-151372000D03*
D13*
X179291000Y-151372000D03*
X189451000Y-151372000D03*
D10*
X169361000Y-156492000D03*
X166611000Y-156492000D03*
X164111000Y-156492000D03*
X161361000Y-156492000D03*
D11*
X161561000Y-148832000D03*
X167911000Y-146292000D03*
D12*
X165371000Y-151372000D03*
D13*
X160291000Y-151372000D03*
X170451000Y-151372000D03*
D10*
X150361000Y-156492000D03*
X147611000Y-156492000D03*
X145111000Y-156492000D03*
X142361000Y-156492000D03*
D11*
X142561000Y-148832000D03*
X148911000Y-146292000D03*
D12*
X146371000Y-151372000D03*
D13*
X141291000Y-151372000D03*
X151451000Y-151372000D03*
D10*
X131361000Y-156492000D03*
X128611000Y-156492000D03*
X126111000Y-156492000D03*
X123361000Y-156492000D03*
D11*
X123561000Y-148832000D03*
X129911000Y-146292000D03*
D12*
X127371000Y-151372000D03*
D13*
X122291000Y-151372000D03*
X132451000Y-151372000D03*
D10*
X112361000Y-156492000D03*
X109611000Y-156492000D03*
X107111000Y-156492000D03*
X104361000Y-156492000D03*
D11*
X104561000Y-148832000D03*
X110911000Y-146292000D03*
D12*
X108371000Y-151372000D03*
D13*
X103291000Y-151372000D03*
X113451000Y-151372000D03*
D10*
X93361000Y-156492000D03*
X90611000Y-156492000D03*
X88111000Y-156492000D03*
X85361000Y-156492000D03*
D11*
X85561000Y-148832000D03*
X91911000Y-146292000D03*
D12*
X89371000Y-151372000D03*
D13*
X84291000Y-151372000D03*
X94451000Y-151372000D03*
D10*
X74361000Y-156492000D03*
X71611000Y-156492000D03*
X69111000Y-156492000D03*
X66361000Y-156492000D03*
D11*
X66561000Y-148832000D03*
X72911000Y-146292000D03*
D12*
X70371000Y-151372000D03*
D13*
X65291000Y-151372000D03*
X75451000Y-151372000D03*
D10*
X373611000Y-137492000D03*
X370861000Y-137492000D03*
X368361000Y-137492000D03*
X365611000Y-137492000D03*
D11*
X365811000Y-129832000D03*
X372161000Y-127292000D03*
D12*
X369621000Y-132372000D03*
D13*
X364541000Y-132372000D03*
X374701000Y-132372000D03*
D10*
X354611000Y-137492000D03*
X351861000Y-137492000D03*
X349361000Y-137492000D03*
X346611000Y-137492000D03*
D11*
X346811000Y-129832000D03*
X353161000Y-127292000D03*
D12*
X350621000Y-132372000D03*
D13*
X345541000Y-132372000D03*
X355701000Y-132372000D03*
D10*
X335611000Y-137492000D03*
X332861000Y-137492000D03*
X330361000Y-137492000D03*
X327611000Y-137492000D03*
D11*
X327811000Y-129832000D03*
X334161000Y-127292000D03*
D12*
X331621000Y-132372000D03*
D13*
X326541000Y-132372000D03*
X336701000Y-132372000D03*
D10*
X304776000Y-147012000D03*
X302026000Y-147012000D03*
X299526000Y-147012000D03*
X296776000Y-147012000D03*
D11*
X296976000Y-139352000D03*
X303326000Y-136812000D03*
D12*
X300786000Y-141892000D03*
X308986000Y-129972000D03*
D13*
X295706000Y-141892000D03*
D14*
X293746000Y-153772000D03*
X293746000Y-129972000D03*
D13*
X305866000Y-141892000D03*
D12*
X308986000Y-153772000D03*
D10*
X278611000Y-137492000D03*
X275861000Y-137492000D03*
X273361000Y-137492000D03*
X270611000Y-137492000D03*
D11*
X270811000Y-129832000D03*
X277161000Y-127292000D03*
D12*
X274621000Y-132372000D03*
D13*
X269541000Y-132372000D03*
X279701000Y-132372000D03*
D10*
X259611000Y-137492000D03*
X256861000Y-137492000D03*
X254361000Y-137492000D03*
X251611000Y-137492000D03*
D11*
X251811000Y-129832000D03*
X258161000Y-127292000D03*
D12*
X255621000Y-132372000D03*
D13*
X250541000Y-132372000D03*
X260701000Y-132372000D03*
D10*
X240611000Y-137492000D03*
X237861000Y-137492000D03*
X235361000Y-137492000D03*
X232611000Y-137492000D03*
D11*
X232811000Y-129832000D03*
X239161000Y-127292000D03*
D12*
X236621000Y-132372000D03*
D13*
X231541000Y-132372000D03*
X241701000Y-132372000D03*
D10*
X221611000Y-137492000D03*
X218861000Y-137492000D03*
X216361000Y-137492000D03*
X213611000Y-137492000D03*
D11*
X213811000Y-129832000D03*
X220161000Y-127292000D03*
D12*
X217621000Y-132372000D03*
D13*
X212541000Y-132372000D03*
X222701000Y-132372000D03*
D10*
X202611000Y-137492000D03*
X199861000Y-137492000D03*
X197361000Y-137492000D03*
X194611000Y-137492000D03*
D11*
X194811000Y-129832000D03*
X201161000Y-127292000D03*
D12*
X198621000Y-132372000D03*
D13*
X193541000Y-132372000D03*
X203701000Y-132372000D03*
D10*
X183611000Y-137492000D03*
X180861000Y-137492000D03*
X178361000Y-137492000D03*
X175611000Y-137492000D03*
D11*
X175811000Y-129832000D03*
X182161000Y-127292000D03*
D12*
X179621000Y-132372000D03*
D13*
X174541000Y-132372000D03*
X184701000Y-132372000D03*
D10*
X164611000Y-137492000D03*
X161861000Y-137492000D03*
X159361000Y-137492000D03*
X156611000Y-137492000D03*
D11*
X156811000Y-129832000D03*
X163161000Y-127292000D03*
D12*
X160621000Y-132372000D03*
D13*
X155541000Y-132372000D03*
X165701000Y-132372000D03*
D10*
X145611000Y-137492000D03*
X142861000Y-137492000D03*
X140361000Y-137492000D03*
X137611000Y-137492000D03*
D11*
X137811000Y-129832000D03*
X144161000Y-127292000D03*
D12*
X141621000Y-132372000D03*
D13*
X136541000Y-132372000D03*
X146701000Y-132372000D03*
D10*
X126611000Y-137492000D03*
X123861000Y-137492000D03*
X121361000Y-137492000D03*
X118611000Y-137492000D03*
D11*
X118811000Y-129832000D03*
X125161000Y-127292000D03*
D12*
X122621000Y-132372000D03*
D13*
X117541000Y-132372000D03*
X127701000Y-132372000D03*
D10*
X107611000Y-137492000D03*
X104861000Y-137492000D03*
X102361000Y-137492000D03*
X99611000Y-137492000D03*
D11*
X99811000Y-129832000D03*
X106161000Y-127292000D03*
D12*
X103621000Y-132372000D03*
D13*
X98541000Y-132372000D03*
X108701000Y-132372000D03*
D10*
X88611000Y-137492000D03*
X85861000Y-137492000D03*
X83361000Y-137492000D03*
X80611000Y-137492000D03*
D11*
X80811000Y-129832000D03*
X87161000Y-127292000D03*
D12*
X84621000Y-132372000D03*
D13*
X79541000Y-132372000D03*
X89701000Y-132372000D03*
D10*
X69611000Y-137492000D03*
X66861000Y-137492000D03*
X64361000Y-137492000D03*
X61611000Y-137492000D03*
D11*
X61811000Y-129832000D03*
X68161000Y-127292000D03*
D12*
X65621000Y-132372000D03*
D13*
X60541000Y-132372000D03*
X70701000Y-132372000D03*
D10*
X373611000Y-118492000D03*
X370861000Y-118492000D03*
X368361000Y-118492000D03*
X365611000Y-118492000D03*
D11*
X365811000Y-110832000D03*
X372161000Y-108292000D03*
D12*
X369621000Y-113372000D03*
D13*
X364541000Y-113372000D03*
X374701000Y-113372000D03*
D10*
X354611000Y-118492000D03*
X351861000Y-118492000D03*
X349361000Y-118492000D03*
X346611000Y-118492000D03*
D11*
X346811000Y-110832000D03*
X353161000Y-108292000D03*
D12*
X350621000Y-113372000D03*
D13*
X345541000Y-113372000D03*
X355701000Y-113372000D03*
D10*
X335611000Y-118492000D03*
X332861000Y-118492000D03*
X330361000Y-118492000D03*
X327611000Y-118492000D03*
D11*
X327811000Y-110832000D03*
X334161000Y-108292000D03*
D12*
X331621000Y-113372000D03*
D13*
X326541000Y-113372000D03*
X336701000Y-113372000D03*
D10*
X297651000Y-118512000D03*
X294901000Y-118512000D03*
X292401000Y-118512000D03*
X289651000Y-118512000D03*
D11*
X289851000Y-110852000D03*
X296201000Y-108312000D03*
D12*
X281721000Y-121612000D03*
D14*
X305521000Y-106372000D03*
D12*
X293661000Y-113392000D03*
D13*
X298741000Y-113392000D03*
D14*
X281721000Y-106372000D03*
D12*
X305521000Y-121612000D03*
D13*
X288581000Y-113392000D03*
D10*
X269111000Y-118492000D03*
X266361000Y-118492000D03*
X263861000Y-118492000D03*
X261111000Y-118492000D03*
D11*
X261311000Y-110832000D03*
X267661000Y-108292000D03*
D12*
X265121000Y-113372000D03*
D13*
X260041000Y-113372000D03*
X270201000Y-113372000D03*
D10*
X250111000Y-118492000D03*
X247361000Y-118492000D03*
X244861000Y-118492000D03*
X242111000Y-118492000D03*
D11*
X242311000Y-110832000D03*
X248661000Y-108292000D03*
D12*
X246121000Y-113372000D03*
D13*
X241041000Y-113372000D03*
X251201000Y-113372000D03*
D10*
X231111000Y-118492000D03*
X228361000Y-118492000D03*
X225861000Y-118492000D03*
X223111000Y-118492000D03*
D11*
X223311000Y-110832000D03*
X229661000Y-108292000D03*
D12*
X227121000Y-113372000D03*
D13*
X222041000Y-113372000D03*
X232201000Y-113372000D03*
D10*
X212111000Y-118492000D03*
X209361000Y-118492000D03*
X206861000Y-118492000D03*
X204111000Y-118492000D03*
D11*
X204311000Y-110832000D03*
X210661000Y-108292000D03*
D12*
X208121000Y-113372000D03*
D13*
X203041000Y-113372000D03*
X213201000Y-113372000D03*
D10*
X193111000Y-118492000D03*
X190361000Y-118492000D03*
X187861000Y-118492000D03*
X185111000Y-118492000D03*
D11*
X185311000Y-110832000D03*
X191661000Y-108292000D03*
D12*
X189121000Y-113372000D03*
D13*
X184041000Y-113372000D03*
X194201000Y-113372000D03*
D10*
X174111000Y-118492000D03*
X171361000Y-118492000D03*
X168861000Y-118492000D03*
X166111000Y-118492000D03*
D11*
X166311000Y-110832000D03*
X172661000Y-108292000D03*
D12*
X170121000Y-113372000D03*
D13*
X165041000Y-113372000D03*
X175201000Y-113372000D03*
D10*
X155111000Y-118492000D03*
X152361000Y-118492000D03*
X149861000Y-118492000D03*
X147111000Y-118492000D03*
D11*
X147311000Y-110832000D03*
X153661000Y-108292000D03*
D12*
X151121000Y-113372000D03*
D13*
X146041000Y-113372000D03*
X156201000Y-113372000D03*
D10*
X136111000Y-118492000D03*
X133361000Y-118492000D03*
X130861000Y-118492000D03*
X128111000Y-118492000D03*
D11*
X128311000Y-110832000D03*
X134661000Y-108292000D03*
D12*
X132121000Y-113372000D03*
D13*
X127041000Y-113372000D03*
X137201000Y-113372000D03*
D10*
X117111000Y-118492000D03*
X114361000Y-118492000D03*
X111861000Y-118492000D03*
X109111000Y-118492000D03*
D11*
X109311000Y-110832000D03*
X115661000Y-108292000D03*
D12*
X113121000Y-113372000D03*
D13*
X108041000Y-113372000D03*
X118201000Y-113372000D03*
D10*
X98111000Y-118492000D03*
X95361000Y-118492000D03*
X92861000Y-118492000D03*
X90111000Y-118492000D03*
D11*
X90311000Y-110832000D03*
X96661000Y-108292000D03*
D12*
X94121000Y-113372000D03*
D13*
X89041000Y-113372000D03*
X99201000Y-113372000D03*
D10*
X79111000Y-118492000D03*
X76361000Y-118492000D03*
X73861000Y-118492000D03*
X71111000Y-118492000D03*
D11*
X71311000Y-110832000D03*
X77661000Y-108292000D03*
D12*
X75121000Y-113372000D03*
D13*
X70041000Y-113372000D03*
X80201000Y-113372000D03*
D10*
X60111000Y-118492000D03*
X57361000Y-118492000D03*
X54861000Y-118492000D03*
X52111000Y-118492000D03*
D11*
X52311000Y-110832000D03*
X58661000Y-108292000D03*
D12*
X56121000Y-113372000D03*
D13*
X51041000Y-113372000D03*
X61201000Y-113372000D03*
D10*
X373611000Y-89992000D03*
X370861000Y-89992000D03*
X368361000Y-89992000D03*
X365611000Y-89992000D03*
D11*
X365811000Y-82332000D03*
X372161000Y-79792000D03*
D12*
X369621000Y-84872000D03*
D13*
X364541000Y-84872000D03*
X374701000Y-84872000D03*
D10*
X354611000Y-89992000D03*
X351861000Y-89992000D03*
X349361000Y-89992000D03*
X346611000Y-89992000D03*
D11*
X346811000Y-82332000D03*
X353161000Y-79792000D03*
D12*
X350621000Y-84872000D03*
D13*
X345541000Y-84872000D03*
X355701000Y-84872000D03*
D10*
X335611000Y-89992000D03*
X332861000Y-89992000D03*
X330361000Y-89992000D03*
X327611000Y-89992000D03*
D11*
X327811000Y-82332000D03*
X334161000Y-79792000D03*
D12*
X331621000Y-84872000D03*
D13*
X326541000Y-84872000D03*
X336701000Y-84872000D03*
D10*
X307111000Y-89992000D03*
X304361000Y-89992000D03*
X301861000Y-89992000D03*
X299111000Y-89992000D03*
D11*
X299311000Y-82332000D03*
X305661000Y-79792000D03*
D12*
X303121000Y-84872000D03*
D13*
X298041000Y-84872000D03*
X308201000Y-84872000D03*
D10*
X288111000Y-89992000D03*
X285361000Y-89992000D03*
X282861000Y-89992000D03*
X280111000Y-89992000D03*
D11*
X280311000Y-82332000D03*
X286661000Y-79792000D03*
D12*
X284121000Y-84872000D03*
D13*
X279041000Y-84872000D03*
X289201000Y-84872000D03*
D10*
X269111000Y-89992000D03*
X266361000Y-89992000D03*
X263861000Y-89992000D03*
X261111000Y-89992000D03*
D11*
X261311000Y-82332000D03*
X267661000Y-79792000D03*
D12*
X265121000Y-84872000D03*
D13*
X260041000Y-84872000D03*
X270201000Y-84872000D03*
D10*
X250111000Y-89992000D03*
X247361000Y-89992000D03*
X244861000Y-89992000D03*
X242111000Y-89992000D03*
D11*
X242311000Y-82332000D03*
X248661000Y-79792000D03*
D12*
X246121000Y-84872000D03*
D13*
X241041000Y-84872000D03*
X251201000Y-84872000D03*
D10*
X221611000Y-89992000D03*
X218861000Y-89992000D03*
X216361000Y-89992000D03*
X213611000Y-89992000D03*
D11*
X213811000Y-82332000D03*
X220161000Y-79792000D03*
D12*
X217621000Y-84872000D03*
D13*
X212541000Y-84872000D03*
X222701000Y-84872000D03*
D10*
X202611000Y-89992000D03*
X199861000Y-89992000D03*
X197361000Y-89992000D03*
X194611000Y-89992000D03*
D11*
X194811000Y-82332000D03*
X201161000Y-79792000D03*
D12*
X198621000Y-84872000D03*
D13*
X193541000Y-84872000D03*
X203701000Y-84872000D03*
D10*
X183611000Y-89992000D03*
X180861000Y-89992000D03*
X178361000Y-89992000D03*
X175611000Y-89992000D03*
D11*
X175811000Y-82332000D03*
X182161000Y-79792000D03*
D12*
X179621000Y-84872000D03*
D13*
X174541000Y-84872000D03*
X184701000Y-84872000D03*
D10*
X164611000Y-89992000D03*
X161861000Y-89992000D03*
X159361000Y-89992000D03*
X156611000Y-89992000D03*
D11*
X156811000Y-82332000D03*
X163161000Y-79792000D03*
D12*
X160621000Y-84872000D03*
D13*
X155541000Y-84872000D03*
X165701000Y-84872000D03*
D10*
X136111000Y-89992000D03*
X133361000Y-89992000D03*
X130861000Y-89992000D03*
X128111000Y-89992000D03*
D11*
X128311000Y-82332000D03*
X134661000Y-79792000D03*
D12*
X132121000Y-84872000D03*
D13*
X127041000Y-84872000D03*
X137201000Y-84872000D03*
D10*
X117111000Y-89992000D03*
X114361000Y-89992000D03*
X111861000Y-89992000D03*
X109111000Y-89992000D03*
D11*
X109311000Y-82332000D03*
X115661000Y-79792000D03*
D12*
X113121000Y-84872000D03*
D13*
X108041000Y-84872000D03*
X118201000Y-84872000D03*
D10*
X98111000Y-89992000D03*
X95361000Y-89992000D03*
X92861000Y-89992000D03*
X90111000Y-89992000D03*
D11*
X90311000Y-82332000D03*
X96661000Y-79792000D03*
D12*
X94121000Y-84872000D03*
D13*
X89041000Y-84872000D03*
X99201000Y-84872000D03*
D10*
X79111000Y-89992000D03*
X76361000Y-89992000D03*
X73861000Y-89992000D03*
X71111000Y-89992000D03*
D11*
X71311000Y-82332000D03*
X77661000Y-79792000D03*
D12*
X75121000Y-84872000D03*
D13*
X70041000Y-84872000D03*
X80201000Y-84872000D03*
D10*
X41111000Y-89992000D03*
X38361000Y-89992000D03*
X35861000Y-89992000D03*
X33111000Y-89992000D03*
D11*
X33311000Y-82332000D03*
X39661000Y-79792000D03*
D12*
X37121000Y-84872000D03*
D13*
X32041000Y-84872000D03*
X42201000Y-84872000D03*
D12*
X30000000Y-57000000D03*
D15*
X173200000Y-49300000D03*
D16*
X173200000Y-51300000D03*
D17*
X259050000Y-60000000D03*
D18*
X259050000Y-54000000D03*
D19*
X258325000Y-52680000D03*
X258325000Y-61320000D03*
D20*
X262150000Y-61320000D03*
X262150000Y-52680000D03*
D15*
X248300000Y-66700000D03*
D16*
X246300000Y-66700000D03*
D12*
X26000000Y-201000000D03*
X381000000Y-53000000D03*
X381000000Y-201000000D03*
D21*
X24500000Y-77725000D03*
X24500000Y-75675000D03*
D22*
X24500000Y-81312500D03*
X24500000Y-79487500D03*
D23*
X182161000Y-107719500D03*
X182161000Y-108864500D03*
X87161000Y-79219500D03*
X87161000Y-80364500D03*
D21*
X382700000Y-129325000D03*
X382700000Y-127275000D03*
D24*
X104275000Y-51000000D03*
X106325000Y-51000000D03*
D23*
X68161000Y-107719500D03*
X68161000Y-108864500D03*
D21*
X382600000Y-186825000D03*
X382600000Y-184775000D03*
D25*
X264587500Y-203100000D03*
X266412500Y-203100000D03*
D23*
X172661000Y-79219500D03*
X172661000Y-80364500D03*
X201161000Y-107719500D03*
X201161000Y-108864500D03*
D25*
X39687500Y-203100000D03*
X41512500Y-203100000D03*
D23*
X253411000Y-145719500D03*
X253411000Y-146864500D03*
X34911000Y-183719500D03*
X34911000Y-184864500D03*
X245000000Y-183427500D03*
X245000000Y-184572500D03*
X343661000Y-79219500D03*
X343661000Y-80364500D03*
X258161000Y-107719500D03*
X258161000Y-108864500D03*
X215411000Y-145719500D03*
X215411000Y-146864500D03*
X144161000Y-107719500D03*
X144161000Y-108864500D03*
X248661000Y-126719500D03*
X248661000Y-127864500D03*
X362661000Y-183719500D03*
X362661000Y-184864500D03*
X148911000Y-164719500D03*
X148911000Y-165864500D03*
X91911000Y-164719500D03*
X91911000Y-165864500D03*
D24*
X268175000Y-203100000D03*
X270225000Y-203100000D03*
D23*
X53911000Y-164719500D03*
X53911000Y-165864500D03*
X125161000Y-107719500D03*
X125161000Y-108864500D03*
X205911000Y-164719500D03*
X205911000Y-165864500D03*
X239161000Y-79219500D03*
X239161000Y-80364500D03*
X120411000Y-145719500D03*
X120411000Y-146864500D03*
X32536000Y-164719500D03*
X32536000Y-165864500D03*
X210661000Y-79219500D03*
X210661000Y-80364500D03*
X49161000Y-107719500D03*
X49161000Y-108864500D03*
D21*
X24500000Y-185625000D03*
X24500000Y-183575000D03*
D25*
X100387500Y-51000000D03*
X102212500Y-51000000D03*
D23*
X110911000Y-164719500D03*
X110911000Y-165864500D03*
D22*
X24500000Y-189212500D03*
X24500000Y-187387500D03*
D23*
X277161000Y-79219500D03*
X277161000Y-80364500D03*
X72911000Y-164719500D03*
X72911000Y-165864500D03*
X279536000Y-164719500D03*
X279536000Y-165864500D03*
D24*
X153975000Y-203100000D03*
X156025000Y-203100000D03*
X43275000Y-203100000D03*
X45325000Y-203100000D03*
D23*
X134661000Y-126719500D03*
X134661000Y-127864500D03*
X177411000Y-145719500D03*
X177411000Y-146864500D03*
X324661000Y-126719500D03*
X324661000Y-127864500D03*
X158411000Y-145719500D03*
X158411000Y-146864500D03*
D25*
X153587500Y-51000000D03*
X155412500Y-51000000D03*
X150387500Y-203100000D03*
X152212500Y-203100000D03*
D23*
X293000000Y-183427500D03*
X293000000Y-184572500D03*
D22*
X382600000Y-190382500D03*
X382600000Y-188557500D03*
D23*
X224911000Y-164719500D03*
X224911000Y-165864500D03*
X196411000Y-145719500D03*
X196411000Y-146864500D03*
X82411000Y-145719500D03*
X82411000Y-146864500D03*
X115661000Y-126719500D03*
X115661000Y-127864500D03*
X82411000Y-183719500D03*
X82411000Y-184864500D03*
X234411000Y-145719500D03*
X234411000Y-146864500D03*
D22*
X382800000Y-83912500D03*
X382800000Y-82087500D03*
D23*
X96661000Y-126719500D03*
X96661000Y-127864500D03*
X68161000Y-79219500D03*
X68161000Y-80364500D03*
X87161000Y-107719500D03*
X87161000Y-108864500D03*
D21*
X382800000Y-80325000D03*
X382800000Y-78275000D03*
D23*
X210661000Y-126719500D03*
X210661000Y-127864500D03*
X106161000Y-107719500D03*
X106161000Y-108864500D03*
X34911000Y-126719500D03*
X34911000Y-127864500D03*
X37286000Y-145719500D03*
X37286000Y-146864500D03*
X272411000Y-145719500D03*
X272411000Y-146864500D03*
X125161000Y-79219500D03*
X125161000Y-80364500D03*
X243911000Y-164719500D03*
X243911000Y-165864500D03*
D22*
X24500000Y-142912500D03*
X24500000Y-141087500D03*
D23*
X101411000Y-145719500D03*
X101411000Y-146864500D03*
X229661000Y-126719500D03*
X229661000Y-127864500D03*
X106161000Y-79219500D03*
X106161000Y-80364500D03*
X191661000Y-79219500D03*
X191661000Y-80364500D03*
X30161000Y-107719500D03*
X30161000Y-108864500D03*
D25*
X364587500Y-203100000D03*
X366412500Y-203100000D03*
D23*
X324661000Y-107719500D03*
X324661000Y-108864500D03*
X343661000Y-164719500D03*
X343661000Y-165864500D03*
D24*
X368175000Y-203100000D03*
X370225000Y-203100000D03*
D23*
X58661000Y-183719500D03*
X58661000Y-184864500D03*
X172661000Y-126719500D03*
X172661000Y-127864500D03*
D21*
X24500000Y-139325000D03*
X24500000Y-137275000D03*
D23*
X286661000Y-107719500D03*
X286661000Y-108864500D03*
X77661000Y-126719500D03*
X77661000Y-127864500D03*
X362661000Y-79219500D03*
X362661000Y-80364500D03*
X163161000Y-107719500D03*
X163161000Y-108864500D03*
X362661000Y-107719500D03*
X362661000Y-108864500D03*
X167911000Y-164719500D03*
X167911000Y-165864500D03*
X129911000Y-164719500D03*
X129911000Y-165864500D03*
D24*
X157150000Y-51000000D03*
X159200000Y-51000000D03*
D23*
X343661000Y-183719500D03*
X343661000Y-184864500D03*
X191661000Y-126719500D03*
X191661000Y-127864500D03*
X58661000Y-126719500D03*
X58661000Y-127864500D03*
X324661000Y-79219500D03*
X324661000Y-80364500D03*
X296161000Y-79219500D03*
X296161000Y-80364500D03*
X163500000Y-183719500D03*
X163500000Y-184864500D03*
X343661000Y-126719500D03*
X343661000Y-127864500D03*
X267661000Y-126719500D03*
X267661000Y-127864500D03*
D24*
X52075000Y-51000000D03*
X54125000Y-51000000D03*
D23*
X153661000Y-126719500D03*
X153661000Y-127864500D03*
X186911000Y-164719500D03*
X186911000Y-165864500D03*
X30161000Y-79219500D03*
X30161000Y-80364500D03*
X293786000Y-136219500D03*
X293786000Y-137364500D03*
X220161000Y-107719500D03*
X220161000Y-108864500D03*
D24*
X199275000Y-51000000D03*
X201325000Y-51000000D03*
D23*
X153661000Y-79219500D03*
X153661000Y-80364500D03*
D22*
X382700000Y-132912500D03*
X382700000Y-131087500D03*
D23*
X362661000Y-126719500D03*
X362661000Y-127864500D03*
X239161000Y-107719500D03*
X239161000Y-108864500D03*
X269000000Y-183427500D03*
X269000000Y-184572500D03*
D25*
X48487500Y-51000000D03*
X50312500Y-51000000D03*
D23*
X343661000Y-107719500D03*
X343661000Y-108864500D03*
X63411000Y-145719500D03*
X63411000Y-146864500D03*
X324661000Y-183719500D03*
X324661000Y-184864500D03*
D25*
X195687500Y-51000000D03*
X197512500Y-51000000D03*
D23*
X258161000Y-79219500D03*
X258161000Y-80364500D03*
X139411000Y-145719500D03*
X139411000Y-146864500D03*
D26*
X90200000Y-175600000D03*
X71300000Y-175500000D03*
D27*
X291700000Y-206200000D03*
X100600000Y-47800000D03*
X145600000Y-47800000D03*
X216700000Y-206200000D03*
X20800000Y-92300000D03*
X130300000Y-206200000D03*
X191700000Y-206200000D03*
X301700000Y-206200000D03*
X190600000Y-47800000D03*
X120300000Y-206200000D03*
D26*
X204400000Y-58400000D03*
D17*
X255900000Y-60800000D03*
D27*
X20800000Y-112300000D03*
X55600000Y-47800000D03*
X304600000Y-68300000D03*
X20800000Y-57300000D03*
X351700000Y-206200000D03*
X20800000Y-117300000D03*
D17*
X240200000Y-70900000D03*
D27*
X30600000Y-47800000D03*
X20800000Y-77300000D03*
X171700000Y-206200000D03*
X329600000Y-68300000D03*
X255600000Y-47800000D03*
X235600000Y-47800000D03*
X346700000Y-206200000D03*
X110600000Y-47800000D03*
X386200000Y-172300000D03*
X20800000Y-187300000D03*
X386200000Y-87300000D03*
X155600000Y-47800000D03*
X20800000Y-197300000D03*
X20800000Y-82300000D03*
X311700000Y-206200000D03*
X170600000Y-47800000D03*
X70300000Y-206200000D03*
X25300000Y-206200000D03*
X20800000Y-87300000D03*
X274600000Y-68300000D03*
X165600000Y-47800000D03*
X65600000Y-47800000D03*
X60300000Y-206200000D03*
X386200000Y-107300000D03*
D17*
X255900000Y-50800000D03*
X129500000Y-51200000D03*
D27*
X20800000Y-122300000D03*
D17*
X241000000Y-63900000D03*
X77400000Y-203100000D03*
D27*
X316700000Y-206200000D03*
X376700000Y-206200000D03*
X195600000Y-47800000D03*
D17*
X204700000Y-63200000D03*
D27*
X20800000Y-182300000D03*
X20800000Y-97300000D03*
D17*
X161200000Y-99500000D03*
D27*
X386200000Y-147300000D03*
D17*
X218400000Y-71700000D03*
D27*
X386200000Y-201700000D03*
X386200000Y-132300000D03*
X20800000Y-142300000D03*
X20800000Y-147300000D03*
D17*
X255900000Y-63000000D03*
X215500000Y-64000000D03*
D27*
X255700000Y-68300000D03*
X386200000Y-192300000D03*
D17*
X200600000Y-66200000D03*
D27*
X306700000Y-206200000D03*
X125600000Y-47800000D03*
X20800000Y-137300000D03*
X130600000Y-47800000D03*
X135600000Y-47800000D03*
X55300000Y-206200000D03*
D17*
X200550000Y-62000000D03*
X226000000Y-53300000D03*
D27*
X261700000Y-206200000D03*
X20800000Y-201700000D03*
X166700000Y-206200000D03*
X80300000Y-206200000D03*
D17*
X240400000Y-57400000D03*
X238800000Y-66700000D03*
D27*
X371700000Y-206200000D03*
X186700000Y-206200000D03*
X354600000Y-68300000D03*
X206700000Y-206200000D03*
X386200000Y-72300000D03*
X45300000Y-206200000D03*
X369600000Y-68300000D03*
X374600000Y-68300000D03*
X20800000Y-62300000D03*
X125300000Y-206200000D03*
X386200000Y-162300000D03*
X324600000Y-68300000D03*
X20800000Y-72300000D03*
X200600000Y-47800000D03*
X150600000Y-47800000D03*
X75300000Y-206200000D03*
D17*
X241000000Y-60400000D03*
D27*
X35300000Y-206200000D03*
X20800000Y-192300000D03*
X180600000Y-47800000D03*
X65300000Y-206200000D03*
X284600000Y-68300000D03*
X75600000Y-47800000D03*
X110300000Y-206200000D03*
X246700000Y-206200000D03*
X221700000Y-206200000D03*
X20800000Y-167300000D03*
X294600000Y-68300000D03*
X236700000Y-206200000D03*
X309600000Y-68300000D03*
X220600000Y-47800000D03*
D17*
X209200000Y-52100000D03*
D27*
X331700000Y-206200000D03*
X250600000Y-47800000D03*
X386200000Y-157300000D03*
D17*
X255900000Y-49300000D03*
X327500000Y-203100000D03*
D27*
X215600000Y-47800000D03*
X45600000Y-47800000D03*
X20800000Y-132300000D03*
X366700000Y-206200000D03*
X296700000Y-206200000D03*
X30300000Y-206200000D03*
X276700000Y-206200000D03*
X231700000Y-206200000D03*
X161700000Y-206200000D03*
X20800000Y-152300000D03*
D17*
X195500000Y-62000000D03*
X241000000Y-66700000D03*
X255000000Y-57050000D03*
D27*
X341700000Y-206200000D03*
X100300000Y-206200000D03*
D17*
X207500000Y-71100000D03*
D27*
X379600000Y-68300000D03*
D17*
X228600000Y-60800000D03*
D27*
X286700000Y-206200000D03*
X386200000Y-182300000D03*
X140600000Y-47800000D03*
X269600000Y-68300000D03*
X381700000Y-206200000D03*
D17*
X238800000Y-63900000D03*
D27*
X115600000Y-47800000D03*
X334600000Y-68300000D03*
X211700000Y-206200000D03*
X384600000Y-68300000D03*
X271700000Y-206200000D03*
D17*
X210300000Y-68900000D03*
D27*
X181700000Y-206200000D03*
D17*
X204700000Y-66300000D03*
X239100000Y-55500000D03*
X128000000Y-99500000D03*
D27*
X386200000Y-137300000D03*
D17*
X204700000Y-64150000D03*
D27*
X386200000Y-92300000D03*
X386200000Y-117300000D03*
X240600000Y-47800000D03*
X241700000Y-206200000D03*
X386200000Y-152300000D03*
X20800000Y-157300000D03*
X176700000Y-206200000D03*
X245600000Y-47800000D03*
D17*
X168200000Y-51200000D03*
D27*
X279600000Y-68300000D03*
X35600000Y-47800000D03*
X156700000Y-206200000D03*
X314600000Y-68300000D03*
X386200000Y-177300000D03*
X20800000Y-172300000D03*
X386200000Y-122300000D03*
D17*
X24500000Y-165800000D03*
D27*
X205600000Y-47800000D03*
X339600000Y-68300000D03*
X259600000Y-68300000D03*
X115300000Y-206200000D03*
X105300000Y-206200000D03*
X80600000Y-47800000D03*
X20800000Y-177300000D03*
X321700000Y-206200000D03*
X386200000Y-127300000D03*
D17*
X243800000Y-59000000D03*
X24300000Y-96800000D03*
X255900000Y-52300000D03*
D27*
X141700000Y-206200000D03*
D17*
X108600000Y-99300000D03*
D27*
X386200000Y-77300000D03*
X319600000Y-68300000D03*
X95600000Y-47800000D03*
X135300000Y-206200000D03*
X226700000Y-206200000D03*
X40600000Y-47800000D03*
D17*
X221500000Y-68900000D03*
D27*
X95300000Y-206200000D03*
X359600000Y-68300000D03*
X40300000Y-206200000D03*
X264600000Y-68300000D03*
X20800000Y-102300000D03*
X364600000Y-68300000D03*
X256700000Y-206200000D03*
X230600000Y-47800000D03*
D17*
X209100000Y-66600000D03*
D27*
X70600000Y-47800000D03*
X160600000Y-47800000D03*
D17*
X238800000Y-60400000D03*
X248400000Y-58900000D03*
D27*
X281700000Y-206200000D03*
X356700000Y-206200000D03*
X289600000Y-68300000D03*
X20800000Y-162300000D03*
D17*
X182200000Y-203100000D03*
X188800000Y-50500000D03*
D27*
X225600000Y-47800000D03*
X20800000Y-67300000D03*
X386200000Y-82300000D03*
D17*
X382700000Y-101000000D03*
X222900000Y-51000000D03*
D27*
X105600000Y-47800000D03*
X386200000Y-167300000D03*
X266700000Y-206200000D03*
X386200000Y-102300000D03*
X210600000Y-47800000D03*
X299600000Y-68300000D03*
X90300000Y-206200000D03*
X151700000Y-206200000D03*
D17*
X218400000Y-64000000D03*
D27*
X201700000Y-206200000D03*
X60600000Y-47800000D03*
X326700000Y-206200000D03*
D17*
X383300000Y-169900000D03*
D27*
X90600000Y-47800000D03*
X120600000Y-47800000D03*
D17*
X225700000Y-68900000D03*
D27*
X386200000Y-197300000D03*
X146700000Y-206200000D03*
D26*
X201900000Y-55400000D03*
D27*
X175600000Y-47800000D03*
D17*
X255900000Y-61600000D03*
D27*
X386200000Y-187300000D03*
X386200000Y-142300000D03*
X85600000Y-47800000D03*
X349600000Y-68300000D03*
D17*
X146400000Y-99500000D03*
D27*
X20800000Y-107300000D03*
X386200000Y-112300000D03*
X20800000Y-127300000D03*
X185600000Y-47800000D03*
X50600000Y-47800000D03*
X386200000Y-97300000D03*
X196700000Y-206200000D03*
X344600000Y-68300000D03*
X361700000Y-206200000D03*
X50300000Y-206200000D03*
D17*
X75600000Y-51100000D03*
X382600000Y-75200000D03*
D27*
X251700000Y-206200000D03*
D17*
X255900000Y-53200000D03*
D27*
X85300000Y-206200000D03*
X336700000Y-206200000D03*
D26*
X241000000Y-52300000D03*
X241000000Y-54600000D03*
X213500000Y-49300000D03*
D17*
X210750000Y-64950000D03*
X228600000Y-59050000D03*
X210750000Y-58100000D03*
D26*
X241000000Y-53400000D03*
D17*
X202650000Y-52150000D03*
X222900000Y-49350000D03*
X210750000Y-53950000D03*
X202650000Y-53850000D03*
X183000000Y-54900000D03*
X209200000Y-64100000D03*
X211400000Y-68900000D03*
X215400000Y-51300000D03*
X211400000Y-72400000D03*
X203800000Y-56425000D03*
X255000000Y-58000000D03*
X203800000Y-55175000D03*
X255000000Y-56100000D03*
D26*
X226600000Y-66700000D03*
X229900000Y-66700000D03*
D17*
X222800000Y-68900000D03*
X222800000Y-72400000D03*
X218200000Y-51300000D03*
X212200000Y-68900000D03*
X212200000Y-72400000D03*
X216200000Y-51300000D03*
X219000000Y-51300000D03*
X223700000Y-72400000D03*
X223700000Y-68900000D03*
X217000000Y-51300000D03*
X213000003Y-68900000D03*
X213000000Y-72400000D03*
X224700000Y-68900000D03*
X224700000Y-72400000D03*
X219800000Y-51300000D03*
D26*
X233100000Y-66700000D03*
X234200000Y-66700000D03*
X235300000Y-66700000D03*
X227700000Y-66700000D03*
X228800000Y-66700000D03*
X230900000Y-66700000D03*
X232000000Y-66700000D03*
X236400000Y-66700000D03*
X237600000Y-66700000D03*
D27*
X264200000Y-50400000D03*
X259400000Y-66400000D03*
X264200000Y-63500000D03*
X261600000Y-47800000D03*
X257200000Y-63000000D03*
X266200000Y-66400000D03*
X262800000Y-66400000D03*
X257200000Y-47800000D03*
X257200000Y-51000000D03*
D17*
X254850000Y-54650000D03*
D26*
X247200000Y-54600000D03*
X248100000Y-54600000D03*
D17*
X254850000Y-59350000D03*
X256050000Y-59350000D03*
X255450000Y-59350000D03*
X256050000Y-54650000D03*
D26*
X249000000Y-54600000D03*
D17*
X255450000Y-54650000D03*
X197950000Y-64150000D03*
X196550000Y-64150000D03*
X197250000Y-64150000D03*
M02*
