%TF.GenerationSoftware,KiCad,Pcbnew,(5.99.0-10004-g132ec37b56)*%
%TF.CreationDate,2021-04-06T22:09:18+02:00*%
%TF.ProjectId,gh80-3003-nicosmod,67683830-2d33-4303-9033-2d6e69636f73,rev?*%
%TF.SameCoordinates,Original*%
%TF.FileFunction,Other,User*%
%FSLAX46Y46*%
G04 Gerber Fmt 4.6, Leading zero omitted, Abs format (unit mm)*
G04 Created by KiCad (PCBNEW (5.99.0-10004-g132ec37b56)) date 2021-04-06 22:09:18*
%MOMM*%
%LPD*%
G01*
G04 APERTURE LIST*
%ADD10C,0.050000*%
G04 APERTURE END LIST*
D10*
X25450000Y-74850000D02*
X23550000Y-74850000D01*
X23550000Y-78550000D02*
X25450000Y-78550000D01*
X25450000Y-78550000D02*
X25450000Y-74850000D01*
X23550000Y-74850000D02*
X23550000Y-78550000D01*
X25450000Y-78720000D02*
X23550000Y-78720000D01*
X23550000Y-82080000D02*
X25450000Y-82080000D01*
X23550000Y-78720000D02*
X23550000Y-82080000D01*
X25450000Y-82080000D02*
X25450000Y-78720000D01*
X181691000Y-109392000D02*
X182631000Y-109392000D01*
X181691000Y-107192000D02*
X181691000Y-109392000D01*
X182631000Y-109392000D02*
X182631000Y-107192000D01*
X182631000Y-107192000D02*
X181691000Y-107192000D01*
X87631000Y-78692000D02*
X86691000Y-78692000D01*
X87631000Y-80892000D02*
X87631000Y-78692000D01*
X86691000Y-78692000D02*
X86691000Y-80892000D01*
X86691000Y-80892000D02*
X87631000Y-80892000D01*
X381750000Y-126450000D02*
X381750000Y-130150000D01*
X381750000Y-130150000D02*
X383650000Y-130150000D01*
X383650000Y-126450000D02*
X381750000Y-126450000D01*
X383650000Y-130150000D02*
X383650000Y-126450000D01*
X107150000Y-51950000D02*
X107150000Y-50050000D01*
X107150000Y-50050000D02*
X103450000Y-50050000D01*
X103450000Y-50050000D02*
X103450000Y-51950000D01*
X103450000Y-51950000D02*
X107150000Y-51950000D01*
X67691000Y-109392000D02*
X68631000Y-109392000D01*
X67691000Y-107192000D02*
X67691000Y-109392000D01*
X68631000Y-109392000D02*
X68631000Y-107192000D01*
X68631000Y-107192000D02*
X67691000Y-107192000D01*
X383550000Y-183950000D02*
X381650000Y-183950000D01*
X381650000Y-187650000D02*
X383550000Y-187650000D01*
X383550000Y-187650000D02*
X383550000Y-183950000D01*
X381650000Y-183950000D02*
X381650000Y-187650000D01*
X267180000Y-202150000D02*
X263820000Y-202150000D01*
X263820000Y-202150000D02*
X263820000Y-204050000D01*
X263820000Y-204050000D02*
X267180000Y-204050000D01*
X267180000Y-204050000D02*
X267180000Y-202150000D01*
X173131000Y-78692000D02*
X172191000Y-78692000D01*
X172191000Y-80892000D02*
X173131000Y-80892000D01*
X173131000Y-80892000D02*
X173131000Y-78692000D01*
X172191000Y-78692000D02*
X172191000Y-80892000D01*
X201631000Y-107192000D02*
X200691000Y-107192000D01*
X200691000Y-107192000D02*
X200691000Y-109392000D01*
X200691000Y-109392000D02*
X201631000Y-109392000D01*
X201631000Y-109392000D02*
X201631000Y-107192000D01*
X42280000Y-204050000D02*
X42280000Y-202150000D01*
X38920000Y-204050000D02*
X42280000Y-204050000D01*
X38920000Y-202150000D02*
X38920000Y-204050000D01*
X42280000Y-202150000D02*
X38920000Y-202150000D01*
X253881000Y-147392000D02*
X253881000Y-145192000D01*
X252941000Y-145192000D02*
X252941000Y-147392000D01*
X252941000Y-147392000D02*
X253881000Y-147392000D01*
X253881000Y-145192000D02*
X252941000Y-145192000D01*
X34441000Y-183192000D02*
X34441000Y-185392000D01*
X35381000Y-185392000D02*
X35381000Y-183192000D01*
X34441000Y-185392000D02*
X35381000Y-185392000D01*
X35381000Y-183192000D02*
X34441000Y-183192000D01*
X244530000Y-182900000D02*
X244530000Y-185100000D01*
X244530000Y-185100000D02*
X245470000Y-185100000D01*
X245470000Y-182900000D02*
X244530000Y-182900000D01*
X245470000Y-185100000D02*
X245470000Y-182900000D01*
X343191000Y-78692000D02*
X343191000Y-80892000D01*
X344131000Y-80892000D02*
X344131000Y-78692000D01*
X344131000Y-78692000D02*
X343191000Y-78692000D01*
X343191000Y-80892000D02*
X344131000Y-80892000D01*
X258631000Y-109392000D02*
X258631000Y-107192000D01*
X257691000Y-107192000D02*
X257691000Y-109392000D01*
X257691000Y-109392000D02*
X258631000Y-109392000D01*
X258631000Y-107192000D02*
X257691000Y-107192000D01*
X214941000Y-147392000D02*
X215881000Y-147392000D01*
X214941000Y-145192000D02*
X214941000Y-147392000D01*
X215881000Y-145192000D02*
X214941000Y-145192000D01*
X215881000Y-147392000D02*
X215881000Y-145192000D01*
X144631000Y-109392000D02*
X144631000Y-107192000D01*
X143691000Y-109392000D02*
X144631000Y-109392000D01*
X143691000Y-107192000D02*
X143691000Y-109392000D01*
X144631000Y-107192000D02*
X143691000Y-107192000D01*
X249131000Y-128392000D02*
X249131000Y-126192000D01*
X248191000Y-128392000D02*
X249131000Y-128392000D01*
X248191000Y-126192000D02*
X248191000Y-128392000D01*
X249131000Y-126192000D02*
X248191000Y-126192000D01*
X363131000Y-185392000D02*
X363131000Y-183192000D01*
X363131000Y-183192000D02*
X362191000Y-183192000D01*
X362191000Y-183192000D02*
X362191000Y-185392000D01*
X362191000Y-185392000D02*
X363131000Y-185392000D01*
X149381000Y-166392000D02*
X149381000Y-164192000D01*
X148441000Y-164192000D02*
X148441000Y-166392000D01*
X148441000Y-166392000D02*
X149381000Y-166392000D01*
X149381000Y-164192000D02*
X148441000Y-164192000D01*
X92381000Y-164192000D02*
X91441000Y-164192000D01*
X91441000Y-166392000D02*
X92381000Y-166392000D01*
X91441000Y-164192000D02*
X91441000Y-166392000D01*
X92381000Y-166392000D02*
X92381000Y-164192000D01*
X271050000Y-204050000D02*
X271050000Y-202150000D01*
X267350000Y-204050000D02*
X271050000Y-204050000D01*
X271050000Y-202150000D02*
X267350000Y-202150000D01*
X267350000Y-202150000D02*
X267350000Y-204050000D01*
X53441000Y-166392000D02*
X54381000Y-166392000D01*
X54381000Y-166392000D02*
X54381000Y-164192000D01*
X54381000Y-164192000D02*
X53441000Y-164192000D01*
X53441000Y-164192000D02*
X53441000Y-166392000D01*
X125631000Y-109392000D02*
X125631000Y-107192000D01*
X125631000Y-107192000D02*
X124691000Y-107192000D01*
X124691000Y-109392000D02*
X125631000Y-109392000D01*
X124691000Y-107192000D02*
X124691000Y-109392000D01*
X206381000Y-164192000D02*
X205441000Y-164192000D01*
X205441000Y-164192000D02*
X205441000Y-166392000D01*
X205441000Y-166392000D02*
X206381000Y-166392000D01*
X206381000Y-166392000D02*
X206381000Y-164192000D01*
X239631000Y-80892000D02*
X239631000Y-78692000D01*
X239631000Y-78692000D02*
X238691000Y-78692000D01*
X238691000Y-78692000D02*
X238691000Y-80892000D01*
X238691000Y-80892000D02*
X239631000Y-80892000D01*
X120881000Y-145192000D02*
X119941000Y-145192000D01*
X119941000Y-147392000D02*
X120881000Y-147392000D01*
X119941000Y-145192000D02*
X119941000Y-147392000D01*
X120881000Y-147392000D02*
X120881000Y-145192000D01*
X32066000Y-166392000D02*
X33006000Y-166392000D01*
X33006000Y-166392000D02*
X33006000Y-164192000D01*
X32066000Y-164192000D02*
X32066000Y-166392000D01*
X33006000Y-164192000D02*
X32066000Y-164192000D01*
X211131000Y-78692000D02*
X210191000Y-78692000D01*
X210191000Y-80892000D02*
X211131000Y-80892000D01*
X211131000Y-80892000D02*
X211131000Y-78692000D01*
X210191000Y-78692000D02*
X210191000Y-80892000D01*
X49631000Y-107192000D02*
X48691000Y-107192000D01*
X48691000Y-109392000D02*
X49631000Y-109392000D01*
X48691000Y-107192000D02*
X48691000Y-109392000D01*
X49631000Y-109392000D02*
X49631000Y-107192000D01*
X25450000Y-182750000D02*
X23550000Y-182750000D01*
X25450000Y-186450000D02*
X25450000Y-182750000D01*
X23550000Y-182750000D02*
X23550000Y-186450000D01*
X23550000Y-186450000D02*
X25450000Y-186450000D01*
X99620000Y-50050000D02*
X99620000Y-51950000D01*
X102980000Y-50050000D02*
X99620000Y-50050000D01*
X99620000Y-51950000D02*
X102980000Y-51950000D01*
X102980000Y-51950000D02*
X102980000Y-50050000D01*
X110441000Y-164192000D02*
X110441000Y-166392000D01*
X110441000Y-166392000D02*
X111381000Y-166392000D01*
X111381000Y-166392000D02*
X111381000Y-164192000D01*
X111381000Y-164192000D02*
X110441000Y-164192000D01*
X23550000Y-189980000D02*
X25450000Y-189980000D01*
X25450000Y-189980000D02*
X25450000Y-186620000D01*
X25450000Y-186620000D02*
X23550000Y-186620000D01*
X23550000Y-186620000D02*
X23550000Y-189980000D01*
X276691000Y-78692000D02*
X276691000Y-80892000D01*
X277631000Y-78692000D02*
X276691000Y-78692000D01*
X276691000Y-80892000D02*
X277631000Y-80892000D01*
X277631000Y-80892000D02*
X277631000Y-78692000D01*
X72441000Y-166392000D02*
X73381000Y-166392000D01*
X72441000Y-164192000D02*
X72441000Y-166392000D01*
X73381000Y-164192000D02*
X72441000Y-164192000D01*
X73381000Y-166392000D02*
X73381000Y-164192000D01*
X280006000Y-164192000D02*
X279066000Y-164192000D01*
X279066000Y-166392000D02*
X280006000Y-166392000D01*
X279066000Y-164192000D02*
X279066000Y-166392000D01*
X280006000Y-166392000D02*
X280006000Y-164192000D01*
X153150000Y-204050000D02*
X156850000Y-204050000D01*
X156850000Y-202150000D02*
X153150000Y-202150000D01*
X153150000Y-202150000D02*
X153150000Y-204050000D01*
X156850000Y-204050000D02*
X156850000Y-202150000D01*
X42450000Y-204050000D02*
X46150000Y-204050000D01*
X46150000Y-204050000D02*
X46150000Y-202150000D01*
X42450000Y-202150000D02*
X42450000Y-204050000D01*
X46150000Y-202150000D02*
X42450000Y-202150000D01*
X134191000Y-126192000D02*
X134191000Y-128392000D01*
X135131000Y-126192000D02*
X134191000Y-126192000D01*
X135131000Y-128392000D02*
X135131000Y-126192000D01*
X134191000Y-128392000D02*
X135131000Y-128392000D01*
X177881000Y-145192000D02*
X176941000Y-145192000D01*
X177881000Y-147392000D02*
X177881000Y-145192000D01*
X176941000Y-145192000D02*
X176941000Y-147392000D01*
X176941000Y-147392000D02*
X177881000Y-147392000D01*
X325131000Y-128392000D02*
X325131000Y-126192000D01*
X324191000Y-126192000D02*
X324191000Y-128392000D01*
X325131000Y-126192000D02*
X324191000Y-126192000D01*
X324191000Y-128392000D02*
X325131000Y-128392000D01*
X157941000Y-145192000D02*
X157941000Y-147392000D01*
X157941000Y-147392000D02*
X158881000Y-147392000D01*
X158881000Y-145192000D02*
X157941000Y-145192000D01*
X158881000Y-147392000D02*
X158881000Y-145192000D01*
X156180000Y-50050000D02*
X152820000Y-50050000D01*
X156180000Y-51950000D02*
X156180000Y-50050000D01*
X152820000Y-51950000D02*
X156180000Y-51950000D01*
X152820000Y-50050000D02*
X152820000Y-51950000D01*
X152980000Y-204050000D02*
X152980000Y-202150000D01*
X152980000Y-202150000D02*
X149620000Y-202150000D01*
X149620000Y-202150000D02*
X149620000Y-204050000D01*
X149620000Y-204050000D02*
X152980000Y-204050000D01*
X293470000Y-185100000D02*
X293470000Y-182900000D01*
X293470000Y-182900000D02*
X292530000Y-182900000D01*
X292530000Y-182900000D02*
X292530000Y-185100000D01*
X292530000Y-185100000D02*
X293470000Y-185100000D01*
X381650000Y-191150000D02*
X383550000Y-191150000D01*
X383550000Y-187790000D02*
X381650000Y-187790000D01*
X381650000Y-187790000D02*
X381650000Y-191150000D01*
X383550000Y-191150000D02*
X383550000Y-187790000D01*
X225381000Y-164192000D02*
X224441000Y-164192000D01*
X224441000Y-166392000D02*
X225381000Y-166392000D01*
X225381000Y-166392000D02*
X225381000Y-164192000D01*
X224441000Y-164192000D02*
X224441000Y-166392000D01*
X195941000Y-147392000D02*
X196881000Y-147392000D01*
X195941000Y-145192000D02*
X195941000Y-147392000D01*
X196881000Y-145192000D02*
X195941000Y-145192000D01*
X196881000Y-147392000D02*
X196881000Y-145192000D01*
X82881000Y-145192000D02*
X81941000Y-145192000D01*
X81941000Y-145192000D02*
X81941000Y-147392000D01*
X81941000Y-147392000D02*
X82881000Y-147392000D01*
X82881000Y-147392000D02*
X82881000Y-145192000D01*
X116131000Y-128392000D02*
X116131000Y-126192000D01*
X115191000Y-126192000D02*
X115191000Y-128392000D01*
X116131000Y-126192000D02*
X115191000Y-126192000D01*
X115191000Y-128392000D02*
X116131000Y-128392000D01*
X82881000Y-185392000D02*
X82881000Y-183192000D01*
X81941000Y-183192000D02*
X81941000Y-185392000D01*
X82881000Y-183192000D02*
X81941000Y-183192000D01*
X81941000Y-185392000D02*
X82881000Y-185392000D01*
X234881000Y-145192000D02*
X233941000Y-145192000D01*
X233941000Y-145192000D02*
X233941000Y-147392000D01*
X234881000Y-147392000D02*
X234881000Y-145192000D01*
X233941000Y-147392000D02*
X234881000Y-147392000D01*
X381850000Y-84680000D02*
X383750000Y-84680000D01*
X383750000Y-84680000D02*
X383750000Y-81320000D01*
X383750000Y-81320000D02*
X381850000Y-81320000D01*
X381850000Y-81320000D02*
X381850000Y-84680000D01*
X97131000Y-128392000D02*
X97131000Y-126192000D01*
X96191000Y-126192000D02*
X96191000Y-128392000D01*
X96191000Y-128392000D02*
X97131000Y-128392000D01*
X97131000Y-126192000D02*
X96191000Y-126192000D01*
X67691000Y-80892000D02*
X68631000Y-80892000D01*
X67691000Y-78692000D02*
X67691000Y-80892000D01*
X68631000Y-80892000D02*
X68631000Y-78692000D01*
X68631000Y-78692000D02*
X67691000Y-78692000D01*
X86691000Y-107192000D02*
X86691000Y-109392000D01*
X86691000Y-109392000D02*
X87631000Y-109392000D01*
X87631000Y-107192000D02*
X86691000Y-107192000D01*
X87631000Y-109392000D02*
X87631000Y-107192000D01*
X383750000Y-77450000D02*
X381850000Y-77450000D01*
X383750000Y-81150000D02*
X383750000Y-77450000D01*
X381850000Y-81150000D02*
X383750000Y-81150000D01*
X381850000Y-77450000D02*
X381850000Y-81150000D01*
X211131000Y-128392000D02*
X211131000Y-126192000D01*
X211131000Y-126192000D02*
X210191000Y-126192000D01*
X210191000Y-126192000D02*
X210191000Y-128392000D01*
X210191000Y-128392000D02*
X211131000Y-128392000D01*
X106631000Y-107192000D02*
X105691000Y-107192000D01*
X106631000Y-109392000D02*
X106631000Y-107192000D01*
X105691000Y-109392000D02*
X106631000Y-109392000D01*
X105691000Y-107192000D02*
X105691000Y-109392000D01*
X34441000Y-126192000D02*
X34441000Y-128392000D01*
X34441000Y-128392000D02*
X35381000Y-128392000D01*
X35381000Y-126192000D02*
X34441000Y-126192000D01*
X35381000Y-128392000D02*
X35381000Y-126192000D01*
X36816000Y-145192000D02*
X36816000Y-147392000D01*
X37756000Y-145192000D02*
X36816000Y-145192000D01*
X36816000Y-147392000D02*
X37756000Y-147392000D01*
X37756000Y-147392000D02*
X37756000Y-145192000D01*
X272881000Y-147392000D02*
X272881000Y-145192000D01*
X272881000Y-145192000D02*
X271941000Y-145192000D01*
X271941000Y-145192000D02*
X271941000Y-147392000D01*
X271941000Y-147392000D02*
X272881000Y-147392000D01*
X124691000Y-78692000D02*
X124691000Y-80892000D01*
X124691000Y-80892000D02*
X125631000Y-80892000D01*
X125631000Y-80892000D02*
X125631000Y-78692000D01*
X125631000Y-78692000D02*
X124691000Y-78692000D01*
X243441000Y-164192000D02*
X243441000Y-166392000D01*
X244381000Y-164192000D02*
X243441000Y-164192000D01*
X244381000Y-166392000D02*
X244381000Y-164192000D01*
X243441000Y-166392000D02*
X244381000Y-166392000D01*
X23550000Y-140320000D02*
X23550000Y-143680000D01*
X25450000Y-140320000D02*
X23550000Y-140320000D01*
X25450000Y-143680000D02*
X25450000Y-140320000D01*
X23550000Y-143680000D02*
X25450000Y-143680000D01*
X100941000Y-145192000D02*
X100941000Y-147392000D01*
X101881000Y-145192000D02*
X100941000Y-145192000D01*
X100941000Y-147392000D02*
X101881000Y-147392000D01*
X101881000Y-147392000D02*
X101881000Y-145192000D01*
X230131000Y-128392000D02*
X230131000Y-126192000D01*
X229191000Y-128392000D02*
X230131000Y-128392000D01*
X229191000Y-126192000D02*
X229191000Y-128392000D01*
X230131000Y-126192000D02*
X229191000Y-126192000D01*
X106631000Y-80892000D02*
X106631000Y-78692000D01*
X105691000Y-78692000D02*
X105691000Y-80892000D01*
X105691000Y-80892000D02*
X106631000Y-80892000D01*
X106631000Y-78692000D02*
X105691000Y-78692000D01*
X191191000Y-78692000D02*
X191191000Y-80892000D01*
X192131000Y-80892000D02*
X192131000Y-78692000D01*
X191191000Y-80892000D02*
X192131000Y-80892000D01*
X192131000Y-78692000D02*
X191191000Y-78692000D01*
X29691000Y-107192000D02*
X29691000Y-109392000D01*
X30631000Y-107192000D02*
X29691000Y-107192000D01*
X30631000Y-109392000D02*
X30631000Y-107192000D01*
X29691000Y-109392000D02*
X30631000Y-109392000D01*
X367180000Y-202150000D02*
X363820000Y-202150000D01*
X367180000Y-204050000D02*
X367180000Y-202150000D01*
X363820000Y-204050000D02*
X367180000Y-204050000D01*
X363820000Y-202150000D02*
X363820000Y-204050000D01*
X324191000Y-107192000D02*
X324191000Y-109392000D01*
X324191000Y-109392000D02*
X325131000Y-109392000D01*
X325131000Y-109392000D02*
X325131000Y-107192000D01*
X325131000Y-107192000D02*
X324191000Y-107192000D01*
X344131000Y-164192000D02*
X343191000Y-164192000D01*
X344131000Y-166392000D02*
X344131000Y-164192000D01*
X343191000Y-164192000D02*
X343191000Y-166392000D01*
X343191000Y-166392000D02*
X344131000Y-166392000D01*
X371050000Y-204050000D02*
X371050000Y-202150000D01*
X371050000Y-202150000D02*
X367350000Y-202150000D01*
X367350000Y-204050000D02*
X371050000Y-204050000D01*
X367350000Y-202150000D02*
X367350000Y-204050000D01*
X58191000Y-183192000D02*
X58191000Y-185392000D01*
X58191000Y-185392000D02*
X59131000Y-185392000D01*
X59131000Y-185392000D02*
X59131000Y-183192000D01*
X59131000Y-183192000D02*
X58191000Y-183192000D01*
X173131000Y-128392000D02*
X173131000Y-126192000D01*
X172191000Y-128392000D02*
X173131000Y-128392000D01*
X173131000Y-126192000D02*
X172191000Y-126192000D01*
X172191000Y-126192000D02*
X172191000Y-128392000D01*
X23550000Y-140150000D02*
X25450000Y-140150000D01*
X23550000Y-136450000D02*
X23550000Y-140150000D01*
X25450000Y-140150000D02*
X25450000Y-136450000D01*
X25450000Y-136450000D02*
X23550000Y-136450000D01*
X286191000Y-109392000D02*
X287131000Y-109392000D01*
X286191000Y-107192000D02*
X286191000Y-109392000D01*
X287131000Y-109392000D02*
X287131000Y-107192000D01*
X287131000Y-107192000D02*
X286191000Y-107192000D01*
X78131000Y-126192000D02*
X77191000Y-126192000D01*
X78131000Y-128392000D02*
X78131000Y-126192000D01*
X77191000Y-128392000D02*
X78131000Y-128392000D01*
X77191000Y-126192000D02*
X77191000Y-128392000D01*
X362191000Y-80892000D02*
X363131000Y-80892000D01*
X363131000Y-80892000D02*
X363131000Y-78692000D01*
X362191000Y-78692000D02*
X362191000Y-80892000D01*
X363131000Y-78692000D02*
X362191000Y-78692000D01*
X162691000Y-109392000D02*
X163631000Y-109392000D01*
X163631000Y-107192000D02*
X162691000Y-107192000D01*
X163631000Y-109392000D02*
X163631000Y-107192000D01*
X162691000Y-107192000D02*
X162691000Y-109392000D01*
X363131000Y-107192000D02*
X362191000Y-107192000D01*
X362191000Y-109392000D02*
X363131000Y-109392000D01*
X363131000Y-109392000D02*
X363131000Y-107192000D01*
X362191000Y-107192000D02*
X362191000Y-109392000D01*
X168381000Y-166392000D02*
X168381000Y-164192000D01*
X167441000Y-166392000D02*
X168381000Y-166392000D01*
X168381000Y-164192000D02*
X167441000Y-164192000D01*
X167441000Y-164192000D02*
X167441000Y-166392000D01*
X129441000Y-166392000D02*
X130381000Y-166392000D01*
X130381000Y-164192000D02*
X129441000Y-164192000D01*
X129441000Y-164192000D02*
X129441000Y-166392000D01*
X130381000Y-166392000D02*
X130381000Y-164192000D01*
X156325000Y-51950000D02*
X160025000Y-51950000D01*
X160025000Y-51950000D02*
X160025000Y-50050000D01*
X156325000Y-50050000D02*
X156325000Y-51950000D01*
X160025000Y-50050000D02*
X156325000Y-50050000D01*
X343191000Y-183192000D02*
X343191000Y-185392000D01*
X344131000Y-185392000D02*
X344131000Y-183192000D01*
X343191000Y-185392000D02*
X344131000Y-185392000D01*
X344131000Y-183192000D02*
X343191000Y-183192000D01*
X191191000Y-128392000D02*
X192131000Y-128392000D01*
X192131000Y-126192000D02*
X191191000Y-126192000D01*
X191191000Y-126192000D02*
X191191000Y-128392000D01*
X192131000Y-128392000D02*
X192131000Y-126192000D01*
X59131000Y-126192000D02*
X58191000Y-126192000D01*
X58191000Y-126192000D02*
X58191000Y-128392000D01*
X58191000Y-128392000D02*
X59131000Y-128392000D01*
X59131000Y-128392000D02*
X59131000Y-126192000D01*
X325131000Y-78692000D02*
X324191000Y-78692000D01*
X325131000Y-80892000D02*
X325131000Y-78692000D01*
X324191000Y-80892000D02*
X325131000Y-80892000D01*
X324191000Y-78692000D02*
X324191000Y-80892000D01*
X296631000Y-78692000D02*
X295691000Y-78692000D01*
X296631000Y-80892000D02*
X296631000Y-78692000D01*
X295691000Y-80892000D02*
X296631000Y-80892000D01*
X295691000Y-78692000D02*
X295691000Y-80892000D01*
X163970000Y-185392000D02*
X163970000Y-183192000D01*
X163030000Y-185392000D02*
X163970000Y-185392000D01*
X163030000Y-183192000D02*
X163030000Y-185392000D01*
X163970000Y-183192000D02*
X163030000Y-183192000D01*
X343191000Y-126192000D02*
X343191000Y-128392000D01*
X343191000Y-128392000D02*
X344131000Y-128392000D01*
X344131000Y-128392000D02*
X344131000Y-126192000D01*
X344131000Y-126192000D02*
X343191000Y-126192000D01*
X268131000Y-128392000D02*
X268131000Y-126192000D01*
X267191000Y-126192000D02*
X267191000Y-128392000D01*
X268131000Y-126192000D02*
X267191000Y-126192000D01*
X267191000Y-128392000D02*
X268131000Y-128392000D01*
X51250000Y-50050000D02*
X51250000Y-51950000D01*
X51250000Y-51950000D02*
X54950000Y-51950000D01*
X54950000Y-51950000D02*
X54950000Y-50050000D01*
X54950000Y-50050000D02*
X51250000Y-50050000D01*
X154131000Y-126192000D02*
X153191000Y-126192000D01*
X154131000Y-128392000D02*
X154131000Y-126192000D01*
X153191000Y-128392000D02*
X154131000Y-128392000D01*
X153191000Y-126192000D02*
X153191000Y-128392000D01*
X186441000Y-164192000D02*
X186441000Y-166392000D01*
X187381000Y-164192000D02*
X186441000Y-164192000D01*
X187381000Y-166392000D02*
X187381000Y-164192000D01*
X186441000Y-166392000D02*
X187381000Y-166392000D01*
X30631000Y-78692000D02*
X29691000Y-78692000D01*
X30631000Y-80892000D02*
X30631000Y-78692000D01*
X29691000Y-78692000D02*
X29691000Y-80892000D01*
X29691000Y-80892000D02*
X30631000Y-80892000D01*
X294256000Y-135692000D02*
X293316000Y-135692000D01*
X293316000Y-135692000D02*
X293316000Y-137892000D01*
X294256000Y-137892000D02*
X294256000Y-135692000D01*
X293316000Y-137892000D02*
X294256000Y-137892000D01*
X219691000Y-107192000D02*
X219691000Y-109392000D01*
X220631000Y-109392000D02*
X220631000Y-107192000D01*
X220631000Y-107192000D02*
X219691000Y-107192000D01*
X219691000Y-109392000D02*
X220631000Y-109392000D01*
X202150000Y-51950000D02*
X202150000Y-50050000D01*
X198450000Y-50050000D02*
X198450000Y-51950000D01*
X198450000Y-51950000D02*
X202150000Y-51950000D01*
X202150000Y-50050000D02*
X198450000Y-50050000D01*
X153191000Y-78692000D02*
X153191000Y-80892000D01*
X154131000Y-78692000D02*
X153191000Y-78692000D01*
X153191000Y-80892000D02*
X154131000Y-80892000D01*
X154131000Y-80892000D02*
X154131000Y-78692000D01*
X383650000Y-130320000D02*
X381750000Y-130320000D01*
X381750000Y-130320000D02*
X381750000Y-133680000D01*
X381750000Y-133680000D02*
X383650000Y-133680000D01*
X383650000Y-133680000D02*
X383650000Y-130320000D01*
X363131000Y-126192000D02*
X362191000Y-126192000D01*
X363131000Y-128392000D02*
X363131000Y-126192000D01*
X362191000Y-126192000D02*
X362191000Y-128392000D01*
X362191000Y-128392000D02*
X363131000Y-128392000D01*
X239631000Y-109392000D02*
X239631000Y-107192000D01*
X238691000Y-107192000D02*
X238691000Y-109392000D01*
X239631000Y-107192000D02*
X238691000Y-107192000D01*
X238691000Y-109392000D02*
X239631000Y-109392000D01*
X269470000Y-182900000D02*
X268530000Y-182900000D01*
X269470000Y-185100000D02*
X269470000Y-182900000D01*
X268530000Y-182900000D02*
X268530000Y-185100000D01*
X268530000Y-185100000D02*
X269470000Y-185100000D01*
X51080000Y-50050000D02*
X47720000Y-50050000D01*
X47720000Y-50050000D02*
X47720000Y-51950000D01*
X47720000Y-51950000D02*
X51080000Y-51950000D01*
X51080000Y-51950000D02*
X51080000Y-50050000D01*
X344131000Y-109392000D02*
X344131000Y-107192000D01*
X343191000Y-109392000D02*
X344131000Y-109392000D01*
X343191000Y-107192000D02*
X343191000Y-109392000D01*
X344131000Y-107192000D02*
X343191000Y-107192000D01*
X63881000Y-147392000D02*
X63881000Y-145192000D01*
X63881000Y-145192000D02*
X62941000Y-145192000D01*
X62941000Y-145192000D02*
X62941000Y-147392000D01*
X62941000Y-147392000D02*
X63881000Y-147392000D01*
X325131000Y-185392000D02*
X325131000Y-183192000D01*
X324191000Y-183192000D02*
X324191000Y-185392000D01*
X324191000Y-185392000D02*
X325131000Y-185392000D01*
X325131000Y-183192000D02*
X324191000Y-183192000D01*
X194920000Y-50050000D02*
X194920000Y-51950000D01*
X198280000Y-50050000D02*
X194920000Y-50050000D01*
X194920000Y-51950000D02*
X198280000Y-51950000D01*
X198280000Y-51950000D02*
X198280000Y-50050000D01*
X257691000Y-78692000D02*
X257691000Y-80892000D01*
X258631000Y-80892000D02*
X258631000Y-78692000D01*
X257691000Y-80892000D02*
X258631000Y-80892000D01*
X258631000Y-78692000D02*
X257691000Y-78692000D01*
X139881000Y-145192000D02*
X138941000Y-145192000D01*
X138941000Y-145192000D02*
X138941000Y-147392000D01*
X138941000Y-147392000D02*
X139881000Y-147392000D01*
X139881000Y-147392000D02*
X139881000Y-145192000D01*
M02*
